<svg width="372" height="416" viewBox="0 0 372 416" fill="none" xmlns="http://www.w3.org/2000/svg">
<path d="M94.152 81.6758H14.1348V154.342H94.152V81.6758Z" fill="#FF7E72"/>
<mask id="mask0_1302_13495" style="mask-type:luminance" maskUnits="userSpaceOnUse" x="14" y="81" width="81" height="74">
<path d="M94.152 81.6758H14.1348V154.342H94.152V81.6758Z" fill="white"/>
</mask>
<g mask="url(#mask0_1302_13495)">
<path opacity="0.37" d="M94.152 81.6758H14.1348V154.342H94.152V81.6758Z" fill="black"/>
</g>
<path d="M71.1568 81.6758H14.1348V154.342H71.1568V81.6758Z" fill="#FF7E72"/>
<path d="M48.431 81.6758H36.1787V101.96H48.431V81.6758Z" fill="white"/>
<path d="M65.7621 107.885H51.5625V115.134H65.7621V107.885Z" fill="white"/>
<path d="M59.2619 133.704L44.6279 130.082L42.4702 138.801L57.1042 142.422L59.2619 133.704Z" fill="white"/>
<path d="M153.783 81.6758H73.7656V154.342H153.783V81.6758Z" fill="#FF7E72"/>
<mask id="mask1_1302_13495" style="mask-type:luminance" maskUnits="userSpaceOnUse" x="73" y="81" width="81" height="74">
<path d="M153.783 81.6758H73.7656V154.342H153.783V81.6758Z" fill="white"/>
</mask>
<g mask="url(#mask1_1302_13495)">
<path opacity="0.37" d="M153.783 81.6758H73.7656V154.342H153.783V81.6758Z" fill="black"/>
</g>
<path d="M130.788 81.6758H73.7656V154.342H130.788V81.6758Z" fill="#FF7E72"/>
<path d="M108.063 81.6758H95.8105V101.96H108.063V81.6758Z" fill="white"/>
<path d="M125.393 107.885H111.193V115.134H125.393V107.885Z" fill="white"/>
<path d="M118.889 133.708L104.255 130.086L102.097 138.805L116.731 142.427L118.889 133.708Z" fill="white"/>
<path d="M213.414 81.6758H133.396V154.342H213.414V81.6758Z" fill="#FF7E72"/>
<mask id="mask2_1302_13495" style="mask-type:luminance" maskUnits="userSpaceOnUse" x="133" y="81" width="81" height="74">
<path d="M213.414 81.6758H133.396V154.342H213.414V81.6758Z" fill="white"/>
</mask>
<g mask="url(#mask2_1302_13495)">
<path opacity="0.37" d="M213.414 81.6758H133.396V154.342H213.414V81.6758Z" fill="black"/>
</g>
<path d="M190.419 81.6758H133.396V154.342H190.419V81.6758Z" fill="#FF7E72"/>
<path d="M167.694 81.6758H155.441V101.96H167.694V81.6758Z" fill="white"/>
<path d="M185.024 107.885H170.824V115.134H185.024V107.885Z" fill="white"/>
<path d="M178.516 133.712L163.882 130.091L161.724 138.81L176.358 142.431L178.516 133.712Z" fill="white"/>
<path d="M273.045 81.6758H193.027V154.342H273.045V81.6758Z" fill="#FF7E72"/>
<mask id="mask3_1302_13495" style="mask-type:luminance" maskUnits="userSpaceOnUse" x="193" y="81" width="81" height="74">
<path d="M273.045 81.6758H193.027V154.342H273.045V81.6758Z" fill="white"/>
</mask>
<g mask="url(#mask3_1302_13495)">
<path opacity="0.37" d="M273.045 81.6758H193.027V154.342H273.045V81.6758Z" fill="black"/>
</g>
<path d="M250.049 81.6758H193.027V154.342H250.049V81.6758Z" fill="#FF7E72"/>
<path d="M227.325 81.6758H215.072V101.96H227.325V81.6758Z" fill="white"/>
<path d="M244.655 107.885H230.455V115.134H244.655V107.885Z" fill="white"/>
<path d="M238.153 133.717L223.519 130.095L221.361 138.814L235.995 142.436L238.153 133.717Z" fill="white"/>
<path d="M94.152 181.371H14.1348V254.037H94.152V181.371Z" fill="#FF7E72"/>
<mask id="mask4_1302_13495" style="mask-type:luminance" maskUnits="userSpaceOnUse" x="14" y="181" width="81" height="74">
<path d="M94.152 181.371H14.1348V254.037H94.152V181.371Z" fill="white"/>
</mask>
<g mask="url(#mask4_1302_13495)">
<path opacity="0.37" d="M94.152 181.371H14.1348V254.037H94.152V181.371Z" fill="black"/>
</g>
<path d="M71.1568 181.371H14.1348V254.037H71.1568V181.371Z" fill="#FF7E72"/>
<path d="M48.431 181.371H36.1787V201.655H48.431V181.371Z" fill="white"/>
<path d="M65.7621 207.581H51.5625V214.829H65.7621V207.581Z" fill="white"/>
<path d="M59.2482 233.396L44.6143 229.774L42.4565 238.493L57.0905 242.115L59.2482 233.396Z" fill="white"/>
<path d="M153.783 181.371H73.7656V254.037H153.783V181.371Z" fill="#FF7E72"/>
<mask id="mask5_1302_13495" style="mask-type:luminance" maskUnits="userSpaceOnUse" x="73" y="181" width="81" height="74">
<path d="M153.783 181.371H73.7656V254.037H153.783V181.371Z" fill="white"/>
</mask>
<g mask="url(#mask5_1302_13495)">
<path opacity="0.37" d="M153.783 181.371H73.7656V254.037H153.783V181.371Z" fill="black"/>
</g>
<path d="M130.788 181.371H73.7656V254.037H130.788V181.371Z" fill="#FF7E72"/>
<path d="M108.063 181.371H95.8105V201.655H108.063V181.371Z" fill="white"/>
<path d="M125.393 207.581H111.193V214.829H125.393V207.581Z" fill="white"/>
<path d="M118.885 233.4L104.251 229.778L102.093 238.497L116.727 242.119L118.885 233.4Z" fill="white"/>
<path d="M213.414 181.371H133.396V254.037H213.414V181.371Z" fill="#FF7E72"/>
<mask id="mask6_1302_13495" style="mask-type:luminance" maskUnits="userSpaceOnUse" x="133" y="181" width="81" height="74">
<path d="M213.414 181.371H133.396V254.037H213.414V181.371Z" fill="white"/>
</mask>
<g mask="url(#mask6_1302_13495)">
<path opacity="0.37" d="M213.414 181.371H133.396V254.037H213.414V181.371Z" fill="black"/>
</g>
<path d="M190.419 181.371H133.396V254.037H190.419V181.371Z" fill="#FF7E72"/>
<path d="M167.694 181.371H155.441V201.655H167.694V181.371Z" fill="white"/>
<path d="M185.024 207.581H170.824V214.829H185.024V207.581Z" fill="white"/>
<path d="M178.512 233.404L163.878 229.783L161.72 238.502L176.354 242.123L178.512 233.404Z" fill="white"/>
<path d="M273.045 181.371H193.027V254.037H273.045V181.371Z" fill="#FF7E72"/>
<mask id="mask7_1302_13495" style="mask-type:luminance" maskUnits="userSpaceOnUse" x="193" y="181" width="81" height="74">
<path d="M273.045 181.371H193.027V254.037H273.045V181.371Z" fill="white"/>
</mask>
<g mask="url(#mask7_1302_13495)">
<path opacity="0.37" d="M273.045 181.371H193.027V254.037H273.045V181.371Z" fill="black"/>
</g>
<path d="M250.049 181.371H193.027V254.037H250.049V181.371Z" fill="#FF7E72"/>
<path d="M227.325 181.371H215.072V201.655H227.325V181.371Z" fill="white"/>
<path d="M244.655 207.581H230.455V214.829H244.655V207.581Z" fill="white"/>
<path d="M238.139 233.409L223.505 229.787L221.347 238.506L235.981 242.128L238.139 233.409Z" fill="white"/>
<path d="M94.152 281.066H14.1348V353.732H94.152V281.066Z" fill="#FF7E72"/>
<mask id="mask8_1302_13495" style="mask-type:luminance" maskUnits="userSpaceOnUse" x="14" y="281" width="81" height="73">
<path d="M94.152 281.066H14.1348V353.732H94.152V281.066Z" fill="white"/>
</mask>
<g mask="url(#mask8_1302_13495)">
<path opacity="0.37" d="M94.152 281.066H14.1348V353.732H94.152V281.066Z" fill="black"/>
</g>
<path d="M71.1568 281.066H14.1348V353.732H71.1568V281.066Z" fill="#FF7E72"/>
<path d="M48.431 281.066H36.1787V301.35H48.431V281.066Z" fill="white"/>
<path d="M65.7621 307.276H51.5625V314.525H65.7621V307.276Z" fill="white"/>
<path d="M59.2443 333.088L44.6104 329.467L42.4526 338.186L57.0866 341.807L59.2443 333.088Z" fill="white"/>
<path d="M153.783 281.066H73.7656V353.732H153.783V281.066Z" fill="#FF7E72"/>
<mask id="mask9_1302_13495" style="mask-type:luminance" maskUnits="userSpaceOnUse" x="73" y="281" width="81" height="73">
<path d="M153.783 281.066H73.7656V353.732H153.783V281.066Z" fill="white"/>
</mask>
<g mask="url(#mask9_1302_13495)">
<path opacity="0.37" d="M153.783 281.066H73.7656V353.732H153.783V281.066Z" fill="black"/>
</g>
<path d="M130.788 281.066H73.7656V353.732H130.788V281.066Z" fill="#FF7E72"/>
<path d="M108.063 281.066H95.8105V301.35H108.063V281.066Z" fill="white"/>
<path d="M125.393 307.276H111.193V314.525H125.393V307.276Z" fill="white"/>
<path d="M118.881 333.093L104.247 329.471L102.089 338.19L116.723 341.812L118.881 333.093Z" fill="white"/>
<path d="M213.414 281.066H133.396V353.732H213.414V281.066Z" fill="#FF7E72"/>
<mask id="mask10_1302_13495" style="mask-type:luminance" maskUnits="userSpaceOnUse" x="133" y="281" width="81" height="73">
<path d="M213.414 281.066H133.396V353.732H213.414V281.066Z" fill="white"/>
</mask>
<g mask="url(#mask10_1302_13495)">
<path opacity="0.37" d="M213.414 281.066H133.396V353.732H213.414V281.066Z" fill="black"/>
</g>
<path d="M190.419 281.066H133.396V353.732H190.419V281.066Z" fill="#FF7E72"/>
<path d="M167.694 281.066H155.441V301.35H167.694V281.066Z" fill="white"/>
<path d="M185.024 307.276H170.824V314.525H185.024V307.276Z" fill="white"/>
<path d="M178.508 333.097L163.874 329.475L161.716 338.194L176.35 341.816L178.508 333.097Z" fill="white"/>
<path d="M273.045 281.066H193.027V353.732H273.045V281.066Z" fill="#FF7E72"/>
<mask id="mask11_1302_13495" style="mask-type:luminance" maskUnits="userSpaceOnUse" x="193" y="281" width="81" height="73">
<path d="M273.045 281.066H193.027V353.732H273.045V281.066Z" fill="white"/>
</mask>
<g mask="url(#mask11_1302_13495)">
<path opacity="0.37" d="M273.045 281.066H193.027V353.732H273.045V281.066Z" fill="black"/>
</g>
<path d="M250.049 281.066H193.027V353.732H250.049V281.066Z" fill="#FF7E72"/>
<path d="M227.325 281.066H215.072V301.35H227.325V281.066Z" fill="white"/>
<path d="M244.655 307.276H230.455V314.525H244.655V307.276Z" fill="white"/>
<path d="M238.135 333.101L223.501 329.479L221.343 338.198L235.977 341.82L238.135 333.101Z" fill="white"/>
<path d="M280.451 54.9722H0.931641V68.0164H280.451V54.9722Z" fill="#A3A3A3"/>
<path d="M280.451 151.873H0.931641V164.917H280.451V151.873Z" fill="#A3A3A3"/>
<path d="M280.451 248.763H0.931641V261.807H280.451V248.763Z" fill="#A3A3A3"/>
<path d="M280.451 345.664H0.931641V358.708H280.451V345.664Z" fill="#A3A3A3"/>
<path d="M333.56 0H321.447V395.986H333.56V0Z" fill="#7A7A7A"/>
<path d="M75.4699 0H63.3574V395.986H75.4699V0Z" fill="#7A7A7A"/>
<path d="M330.765 54.9722H273.93V68.0164H330.765V54.9722Z" fill="#757575"/>
<path d="M330.765 151.873H273.93V164.917H330.765V151.873Z" fill="#757575"/>
<path d="M330.765 248.763H273.93V261.807H330.765V248.763Z" fill="#757575"/>
<path d="M330.765 345.664H273.93V358.708H330.765V345.664Z" fill="#757575"/>
<path d="M12.1125 0H0V395.986H12.1125V0Z" fill="#A3A3A3"/>
<path d="M146.282 0H134.17V395.986H146.282V0Z" fill="#A3A3A3"/>
<path d="M280.451 0H268.339V395.986H280.451V0Z" fill="#A3A3A3"/>
<path d="M240.339 174.234H368.094C370.123 174.234 371.762 178.826 371.762 184.493V404.372H236.661V184.493C236.661 178.826 238.3 174.234 240.329 174.234C240.329 174.234 240.329 174.234 240.339 174.234Z" fill="white"/>
<path d="M239.136 173.302H365.244C366.781 173.302 368.035 175.037 368.035 177.178V182.62H235.729V178.02C235.729 175.414 237.246 173.302 239.117 173.302C239.117 173.302 239.117 173.302 239.127 173.302H239.136Z" fill="#EBEBEB"/>
<path d="M244.802 179.198C244.802 179.907 244.225 180.488 243.499 180.488C242.773 180.488 242.196 179.917 242.196 179.198C242.196 178.479 242.773 177.907 243.499 177.907C244.215 177.907 244.802 178.479 244.802 179.198Z" fill="#E0E0E0"/>
<path d="M248.65 179.198C248.65 179.907 248.073 180.488 247.348 180.488C246.632 180.488 246.045 179.917 246.045 179.198C246.045 178.488 246.622 177.907 247.348 177.907C248.063 177.907 248.64 178.479 248.64 179.188L248.65 179.198Z" fill="#E0E0E0"/>
<path d="M252.33 179.198C252.33 179.907 251.753 180.488 251.027 180.488C250.301 180.488 249.725 179.917 249.725 179.198C249.725 178.479 250.301 177.907 251.027 177.907C251.743 177.907 252.33 178.479 252.33 179.198Z" fill="#E0E0E0"/>
<path d="M357.195 312.394L244.802 312.719L245.03 389.159L338.192 388.903L350.831 388.864L357.423 388.844L357.195 312.394Z" fill="#F5F5F5"/>
<path d="M253.453 380.953C253.314 380.953 253.175 367.988 253.125 351.988C253.075 335.989 253.125 323.014 253.284 323.014C253.443 323.014 253.562 335.979 253.612 351.988C253.662 367.998 253.592 380.953 253.453 380.953Z" fill="#263238"/>
<path d="M350.961 372.707C350.961 372.845 329.045 373.023 302.008 373.091C274.971 373.16 253.056 373.091 253.056 372.993C253.056 372.894 274.971 372.688 302.008 372.609C329.045 372.53 350.961 372.579 350.961 372.707Z" fill="#EBEBEB"/>
<path d="M350.94 364.175C350.94 364.313 329.014 364.49 301.988 364.569C274.961 364.648 253.035 364.569 253.035 364.461C253.035 364.352 274.951 364.155 301.988 364.077C329.024 363.998 350.94 364.077 350.94 364.175Z" fill="#EBEBEB"/>
<path d="M350.921 355.713C350.921 355.851 328.995 356.018 301.968 356.097C274.942 356.176 253.016 356.097 253.006 355.999C252.996 355.9 274.922 355.683 301.968 355.604C329.025 355.526 350.921 355.585 350.921 355.713Z" fill="#EBEBEB"/>
<path d="M350.89 347.21C350.89 347.348 328.975 347.516 301.948 347.595C274.921 347.673 252.985 347.595 252.985 347.496C252.985 347.398 274.901 347.181 301.938 347.102C328.975 347.023 350.89 347.082 350.89 347.21Z" fill="#EBEBEB"/>
<path d="M350.861 338.708C350.861 338.846 328.945 339.014 301.909 339.092C274.872 339.171 252.956 339.092 252.956 338.994C252.956 338.895 274.872 338.689 301.909 338.61C328.945 338.531 350.861 338.58 350.861 338.708Z" fill="#EBEBEB"/>
<path d="M350.842 330.206C350.842 330.344 328.926 330.512 301.889 330.591C274.852 330.669 252.937 330.591 252.937 330.492C252.937 330.393 274.852 330.187 301.889 330.108C328.926 330.029 350.842 330.078 350.842 330.206Z" fill="#EBEBEB"/>
<path d="M350.821 321.665C350.821 321.803 328.895 321.98 301.869 322.059C274.842 322.138 252.916 322.059 252.916 321.95C252.916 321.842 274.832 321.645 301.869 321.566C328.905 321.487 350.821 321.576 350.821 321.665Z" fill="#EBEBEB"/>
<path d="M266.649 367.711L259.629 367.73L259.666 380.971L266.686 380.952L266.649 367.711Z" fill="#AACC19"/>
<path d="M317.649 367.56L310.629 367.58L310.666 380.82L317.686 380.801L317.649 367.56Z" fill="#AACC19"/>
<path d="M280.458 357.882L273.438 357.902L273.506 380.887L280.527 380.866L280.458 357.882Z" fill="#AACC19"/>
<path d="M306.1 351.869L299.08 351.888L299.162 380.852L306.182 380.833L306.1 351.869Z" fill="#AACC19"/>
<path d="M293.413 334.268L286.393 334.289L286.532 380.858L293.552 380.838L293.413 334.268Z" fill="#AACC19"/>
<path d="M330.138 343.743H323.118V381.702H330.138V343.743Z" fill="#AACC19"/>
<path d="M339.684 380.716C339.684 380.854 320.413 381.022 296.658 381.081C272.903 381.15 253.622 381.081 253.622 380.963C253.622 380.844 272.883 380.667 296.658 380.608C320.433 380.539 339.684 380.588 339.684 380.716Z" fill="#263238"/>
<path d="M245.14 191.936V243.363H328.467H335.776H357.423V191.936H245.14Z" fill="#F5F5F5"/>
<path d="M253.035 227.462V229.087H252.866V227.61H252.488V227.462H253.045H253.035Z" fill="#263238"/>
<path d="M253.423 228.269C253.423 227.757 253.701 227.442 254.079 227.442C254.457 227.442 254.735 227.747 254.735 228.269C254.735 228.792 254.457 229.097 254.079 229.097C253.701 229.097 253.423 228.792 253.423 228.269ZM254.556 228.269C254.556 227.836 254.358 227.6 254.069 227.6C253.781 227.6 253.592 227.836 253.592 228.269C253.592 228.703 253.791 228.939 254.069 228.939C254.348 228.939 254.556 228.703 254.556 228.269Z" fill="#263238"/>
<path d="M253.701 218.841V218.989H252.558V218.871L253.244 218.211C253.433 218.034 253.462 217.915 253.462 217.807C253.462 217.62 253.323 217.502 253.075 217.502C252.906 217.502 252.746 217.561 252.627 217.689L252.508 217.59C252.657 217.433 252.866 217.344 253.085 217.354C253.413 217.354 253.631 217.521 253.631 217.797C253.631 218.004 253.522 218.191 253.363 218.309L252.806 218.851H253.701V218.841Z" fill="#263238"/>
<path d="M253.9 218.171C253.9 217.659 254.179 217.344 254.557 217.344C254.935 217.344 255.213 217.659 255.213 218.171C255.213 218.684 254.935 218.999 254.557 218.999C254.179 218.999 253.9 218.684 253.9 218.171ZM255.034 218.171C255.034 217.738 254.835 217.492 254.547 217.492C254.258 217.492 254.069 217.728 254.069 218.171C254.069 218.615 254.268 218.841 254.547 218.841C254.825 218.841 255.034 218.605 255.034 218.171Z" fill="#263238"/>
<path d="M253.661 208.418C253.661 208.694 253.462 208.901 253.064 208.901C252.845 208.901 252.637 208.832 252.478 208.694L252.557 208.566C252.696 208.694 252.885 208.763 253.074 208.753C253.343 208.753 253.492 208.635 253.492 208.428C253.492 208.221 253.353 208.113 253.054 208.113H252.935V208.004L253.392 207.443H252.557V207.295H253.591V207.413L253.124 207.985C253.482 208.004 253.661 208.182 253.661 208.438V208.418Z" fill="#263238"/>
<path d="M253.9 208.073C253.9 207.561 254.179 207.246 254.557 207.246C254.935 207.246 255.213 207.551 255.213 208.073C255.213 208.595 254.935 208.901 254.557 208.901C254.179 208.901 253.9 208.595 253.9 208.073ZM255.034 208.073C255.034 207.64 254.835 207.403 254.547 207.403C254.258 207.403 254.069 207.64 254.069 208.073C254.069 208.507 254.268 208.743 254.547 208.743C254.825 208.743 255.034 208.497 255.034 208.073Z" fill="#263238"/>
<path d="M260.264 233.609C260.264 233.097 260.542 232.781 260.92 232.781C261.298 232.781 261.576 233.097 261.576 233.609C261.576 234.121 261.298 234.436 260.92 234.436C260.542 234.436 260.264 234.121 260.264 233.609ZM261.397 233.609C261.397 233.175 261.198 232.929 260.91 232.929C260.622 232.929 260.433 233.165 260.433 233.609C260.433 234.052 260.632 234.279 260.91 234.279C261.188 234.279 261.397 234.032 261.397 233.609Z" fill="#263238"/>
<path d="M272.406 232.781V234.407H272.217V232.929H271.829V232.781H272.406Z" fill="#263238"/>
<path d="M285.182 234.259V234.407H284.039V234.289L284.715 233.629C284.904 233.452 284.934 233.333 284.934 233.225C284.934 233.038 284.795 232.92 284.556 232.92C284.387 232.92 284.218 232.979 284.109 233.107L283.989 233.008C284.138 232.851 284.347 232.762 284.566 232.772C284.904 232.772 285.113 232.939 285.113 233.215C285.113 233.422 285.004 233.609 284.844 233.727L284.288 234.269H285.182V234.259Z" fill="#263238"/>
<path d="M297.274 233.944C297.274 234.22 297.075 234.427 296.677 234.427C296.459 234.427 296.25 234.358 296.091 234.22L296.17 234.082C296.31 234.21 296.499 234.279 296.687 234.269C296.966 234.269 297.105 234.141 297.105 233.944C297.105 233.747 296.966 233.619 296.668 233.619H296.518V233.501L296.976 232.939H296.16V232.792H297.195V232.91L296.727 233.491C297.095 233.511 297.274 233.688 297.274 233.954V233.944Z" fill="#263238"/>
<path d="M309.704 233.984H309.376V234.407H309.207V233.984H308.282V233.865L309.147 232.792H309.336L308.501 233.846H309.207V233.471H309.376V233.846H309.704V233.993V233.984Z" fill="#263238"/>
<path d="M321.547 233.934C321.547 234.21 321.348 234.447 320.95 234.447C320.731 234.447 320.522 234.378 320.363 234.24L320.443 234.102C320.582 234.23 320.771 234.299 320.96 234.289C321.238 234.289 321.387 234.151 321.387 233.954C321.387 233.757 321.258 233.619 320.841 233.619H320.493L320.582 232.801H321.477V232.949H320.731L320.672 233.461H320.88C321.348 233.442 321.557 233.639 321.557 233.924L321.547 233.934Z" fill="#263238"/>
<path d="M333.788 233.924C333.788 234.21 333.559 234.436 333.271 234.436C333.261 234.436 333.241 234.436 333.231 234.436C332.793 234.436 332.555 234.131 332.555 233.619C332.555 233.106 332.863 232.781 333.3 232.781C333.44 232.781 333.569 232.811 333.688 232.87L333.619 233.008C333.519 232.949 333.41 232.929 333.3 232.929C332.952 232.929 332.724 233.156 332.724 233.599C332.724 233.648 332.724 233.688 332.724 233.737C332.823 233.55 333.022 233.431 333.241 233.451C333.519 233.441 333.768 233.648 333.788 233.924ZM333.619 233.924C333.619 233.717 333.46 233.579 333.201 233.579C332.992 233.56 332.803 233.707 332.783 233.914C332.783 233.914 332.783 233.924 332.783 233.934C332.783 234.111 332.933 234.279 333.221 234.279C333.42 234.298 333.599 234.161 333.619 233.963C333.619 233.954 333.619 233.944 333.619 233.934V233.924Z" fill="#263238"/>
<path d="M345.829 232.781V232.899L345.133 234.407H344.954L345.63 232.929H344.785V233.234H344.616V232.781H345.829Z" fill="#263238"/>
<path d="M345.918 228.348C345.918 228.437 326.946 228.506 303.549 228.506C280.151 228.506 261.179 228.437 261.179 228.348C261.179 228.259 280.141 228.19 303.549 228.19C326.956 228.19 345.918 228.259 345.918 228.348Z" fill="#263238"/>
<path d="M345.918 218.201C345.918 218.289 326.946 218.358 303.549 218.358C280.151 218.358 261.179 218.289 261.179 218.201C261.179 218.112 280.141 218.043 303.549 218.043C326.956 218.043 345.918 218.112 345.918 218.201Z" fill="#263238"/>
<path d="M345.918 208.054C345.918 208.142 326.946 208.211 303.549 208.211C280.151 208.211 261.179 208.142 261.179 208.054C261.179 207.965 280.141 207.896 303.549 207.896C326.956 207.896 345.918 207.995 345.918 208.054Z" fill="#263238"/>
<path d="M261.179 228.201C261.179 228.496 260.941 228.743 260.632 228.753C260.334 228.753 260.085 228.516 260.075 228.211C260.066 227.905 260.314 227.669 260.622 227.659C260.622 227.659 260.622 227.659 260.632 227.659C260.921 227.649 261.159 227.866 261.179 228.142C261.179 228.161 261.179 228.181 261.179 228.191V228.201Z" fill="#AACC19"/>
<path d="M273.359 228.201C273.359 228.496 273.121 228.743 272.813 228.743C272.504 228.743 272.266 228.506 272.266 228.201C272.266 227.895 272.504 227.659 272.813 227.659C273.101 227.649 273.34 227.866 273.359 228.142C273.359 228.161 273.359 228.181 273.359 228.191V228.201Z" fill="#AACC19"/>
<path d="M285.551 228.201C285.551 228.496 285.312 228.743 285.004 228.743C284.696 228.743 284.457 228.506 284.457 228.201C284.457 227.895 284.696 227.659 285.004 227.659C285.292 227.649 285.531 227.866 285.551 228.142C285.551 228.161 285.551 228.181 285.551 228.191V228.201Z" fill="#AACC19"/>
<path d="M297.732 228.201C297.732 228.496 297.493 228.743 297.185 228.753C296.877 228.762 296.638 228.516 296.628 228.211C296.618 227.905 296.867 227.669 297.175 227.659C297.175 227.659 297.175 227.659 297.185 227.659C297.473 227.649 297.712 227.866 297.732 228.142C297.732 228.161 297.732 228.181 297.732 228.191V228.201Z" fill="#AACC19"/>
<path d="M309.912 228.201C309.902 228.486 309.654 228.703 309.365 228.683C309.077 228.664 308.858 228.427 308.878 228.141C308.888 227.866 309.117 227.659 309.395 227.659C309.684 227.659 309.912 227.885 309.912 228.171C309.912 228.171 309.912 228.191 309.912 228.201Z" fill="#AACC19"/>
<path d="M334.264 228.201C334.264 228.496 334.026 228.742 333.717 228.752C333.419 228.752 333.17 228.516 333.16 228.21C333.151 227.905 333.399 227.669 333.707 227.659C334.006 227.659 334.254 227.895 334.254 228.191L334.264 228.201Z" fill="#AACC19"/>
<path d="M322.094 228.201C322.094 228.496 321.845 228.742 321.547 228.742C321.249 228.742 321 228.496 321 228.201C321 227.905 321.249 227.659 321.547 227.659C321.547 227.659 321.567 227.659 321.577 227.659C321.865 227.659 322.094 227.885 322.094 228.171C322.094 228.171 322.094 228.191 322.094 228.201Z" fill="#AACC19"/>
<path d="M346.456 228.201C346.456 228.496 346.217 228.743 345.909 228.743C345.601 228.743 345.362 228.506 345.362 228.201C345.362 227.895 345.601 227.659 345.909 227.659C346.198 227.649 346.436 227.866 346.456 228.142C346.456 228.161 346.456 228.181 346.456 228.191V228.201Z" fill="#AACC19"/>
<path d="M266.737 228.348C266.737 228.545 266.578 228.703 266.379 228.703C266.181 228.703 266.021 228.545 266.021 228.348C266.021 228.151 266.181 227.994 266.379 227.994C266.578 227.994 266.737 228.151 266.737 228.348Z" fill="#E0E0E0"/>
<path d="M278.968 228.348C278.968 228.545 278.809 228.703 278.61 228.703C278.411 228.703 278.252 228.545 278.252 228.348C278.252 228.151 278.411 227.994 278.61 227.994C278.809 227.994 278.968 228.151 278.968 228.348Z" fill="#E0E0E0"/>
<path d="M291.188 228.348C291.178 228.546 291.009 228.693 290.81 228.683C290.611 228.674 290.462 228.506 290.472 228.309C290.482 228.122 290.631 227.984 290.82 227.974C291.019 227.974 291.178 228.122 291.178 228.319C291.178 228.319 291.178 228.339 291.178 228.348H291.188Z" fill="#E0E0E0"/>
<path d="M303.42 228.348C303.42 228.545 303.261 228.703 303.062 228.703C302.863 228.703 302.704 228.545 302.704 228.348C302.704 228.151 302.863 227.994 303.062 227.994C303.261 227.994 303.42 228.151 303.42 228.348Z" fill="#E0E0E0"/>
<path d="M315.651 228.348C315.651 228.545 315.491 228.703 315.293 228.703C315.094 228.703 314.935 228.545 314.935 228.348C314.935 228.151 315.094 227.994 315.293 227.994C315.491 227.994 315.651 228.151 315.651 228.348Z" fill="#E0E0E0"/>
<path d="M327.881 228.348C327.872 228.546 327.702 228.693 327.504 228.683C327.305 228.674 327.156 228.506 327.166 228.309C327.175 228.112 327.344 227.964 327.543 227.974C327.742 227.984 327.881 228.151 327.872 228.348H327.881Z" fill="#E0E0E0"/>
<path d="M340.102 228.348C340.102 228.545 339.943 228.703 339.744 228.703C339.545 228.703 339.386 228.545 339.386 228.348C339.386 228.151 339.545 227.994 339.744 227.994C339.943 227.994 340.102 228.151 340.102 228.348Z" fill="#E0E0E0"/>
<path d="M274.155 223.875C274.155 224.604 273.559 225.195 272.823 225.195C272.087 225.195 271.49 224.604 271.49 223.875C271.49 223.146 272.087 222.555 272.823 222.555C273.559 222.555 274.155 223.146 274.155 223.875Z" fill="#AACC19"/>
<path d="M284.785 217.649C284.785 218.378 284.189 218.979 283.453 218.979C282.717 218.979 282.11 218.388 282.11 217.659C282.11 216.93 282.707 216.329 283.443 216.329C284.179 216.329 284.775 216.92 284.785 217.649Z" fill="#AACC19"/>
<path d="M297.971 218.201C297.971 218.93 297.374 219.521 296.638 219.521C295.902 219.521 295.306 218.93 295.306 218.201C295.306 217.472 295.902 216.881 296.638 216.881C297.374 216.881 297.971 217.472 297.971 218.201Z" fill="#AACC19"/>
<path d="M310.857 206.901C310.857 207.63 310.261 208.221 309.525 208.221C308.789 208.221 308.192 207.63 308.192 206.901C308.192 206.172 308.789 205.581 309.525 205.581C310.261 205.581 310.857 206.172 310.857 206.901Z" fill="#AACC19"/>
<path d="M322.89 214.083C322.89 214.812 322.293 215.403 321.557 215.403C320.821 215.403 320.225 214.812 320.225 214.083C320.225 213.354 320.821 212.763 321.557 212.763C322.293 212.763 322.89 213.354 322.89 214.083Z" fill="#AACC19"/>
<path d="M335.07 215.994C335.07 216.723 334.474 217.314 333.738 217.314C333.002 217.314 332.405 216.723 332.405 215.994C332.405 215.265 333.002 214.674 333.738 214.674C334.474 214.674 335.07 215.255 335.07 215.984C335.07 215.984 335.07 215.984 335.07 215.994Z" fill="#AACC19"/>
<path d="M346.455 223.876C346.356 223.876 346.247 223.876 346.147 223.876C345.839 223.856 345.541 223.816 345.232 223.757C344.059 223.541 342.975 223.028 342.06 222.27C341.414 221.708 340.887 221.028 340.509 220.26C340.052 219.373 339.505 218.536 338.878 217.758C338.182 216.851 337.218 216.181 336.124 215.856C335.517 215.718 334.891 215.738 334.304 215.915C333.688 216.122 333.111 216.437 332.614 216.861C331.58 217.718 330.814 218.94 329.81 220.053C329.303 220.644 328.686 221.127 327.98 221.462C327.224 221.787 326.379 221.856 325.574 221.659C324.748 221.393 324.082 220.782 323.744 219.994C323.396 219.225 323.128 218.418 322.949 217.59C322.78 216.753 322.541 215.935 322.223 215.137C322.074 214.753 321.795 214.428 321.437 214.211C321.049 214.034 320.632 213.945 320.204 213.974C319.299 214.073 318.404 214.231 317.529 214.447C317.062 214.546 316.595 214.595 316.117 214.605C315.62 214.625 315.133 214.526 314.676 214.329C314.218 214.112 313.83 213.787 313.542 213.383C313.264 212.979 313.025 212.556 312.846 212.103C312.458 211.206 312.2 210.27 311.852 209.374C311.683 208.93 311.464 208.497 311.205 208.093C310.957 207.709 310.599 207.403 310.171 207.226C310.062 207.196 309.952 207.157 309.833 207.127L309.485 207.088C309.256 207.078 309.038 207.118 308.829 207.226C308.421 207.472 308.083 207.827 307.854 208.251C307.367 209.127 306.979 210.063 306.721 211.029C306.432 212.004 306.204 212.999 305.955 214.004C305.567 215.669 305.219 217.334 304.782 218.95C304.573 219.757 304.324 220.565 304.036 221.344C303.767 222.151 303.34 222.89 302.773 223.521C302.455 223.846 302.027 224.023 301.57 224.033C301.132 224.033 300.705 223.895 300.337 223.669C299.641 223.215 299.054 222.624 298.607 221.935C297.761 220.615 297.065 219.206 296.538 217.728C295.952 216.339 295.295 214.96 294.202 214.004C293.128 213.078 291.666 212.723 290.284 213.058C289.628 213.236 289.001 213.502 288.424 213.866C287.848 214.211 287.311 214.605 286.794 215.038C285.809 215.856 284.904 216.763 284.079 217.748C282.836 218.969 281.494 220.073 280.052 221.058C278.769 221.954 277.377 222.703 275.915 223.275C274.643 223.797 273.26 224.023 271.878 223.944C270.725 223.816 269.601 223.541 268.517 223.137C267.016 222.585 265.554 221.925 264.152 221.156C263.665 220.89 263.307 220.684 263.058 220.536C262.81 220.388 262.7 220.309 262.7 220.309L263.078 220.506L264.182 221.087C265.594 221.826 267.056 222.467 268.557 222.999C269.631 223.383 270.745 223.639 271.878 223.757C273.231 223.836 274.583 223.6 275.826 223.078C277.268 222.506 278.63 221.767 279.883 220.871C281.305 219.886 282.637 218.782 283.85 217.57C284.676 216.575 285.6 215.649 286.595 214.812C287.102 214.378 287.639 213.984 288.206 213.63C288.802 213.245 289.459 212.96 290.145 212.782C291.616 212.418 293.177 212.792 294.321 213.777C295.474 214.772 296.151 216.201 296.737 217.6C297.274 219.058 297.96 220.447 298.806 221.748C299.223 222.398 299.78 222.959 300.436 223.383C300.754 223.59 301.132 223.698 301.51 223.708C301.878 223.688 302.236 223.531 302.495 223.265C303.022 222.664 303.429 221.964 303.688 221.216C303.976 220.437 304.215 219.649 304.424 218.851C304.851 217.235 305.199 215.58 305.597 213.905C305.836 212.881 306.074 211.896 306.373 210.911C306.641 209.915 307.029 208.96 307.536 208.063C307.795 207.6 308.182 207.206 308.64 206.94C308.888 206.812 309.167 206.753 309.445 206.773L309.843 206.812C309.972 206.842 310.102 206.891 310.221 206.921C310.708 207.127 311.136 207.472 311.424 207.906C311.702 208.329 311.921 208.773 312.1 209.246C312.458 210.172 312.707 211.098 313.085 211.965C313.462 212.832 313.93 213.689 314.765 214.043C315.6 214.398 316.545 214.29 317.43 214.142C318.325 213.925 319.24 213.768 320.155 213.679C320.632 213.649 321.109 213.748 321.537 213.955C321.944 214.201 322.263 214.575 322.432 215.009C322.76 215.817 323.008 216.654 323.167 217.511C323.337 218.319 323.585 219.117 323.923 219.866C324.231 220.595 324.828 221.156 325.584 221.403C326.33 221.59 327.115 221.531 327.811 221.225C328.477 220.89 329.074 220.427 329.551 219.856C330.546 218.772 331.321 217.541 332.395 216.654C332.912 216.211 333.519 215.886 334.165 215.679C334.792 215.492 335.458 215.472 336.094 215.62C337.228 215.965 338.232 216.654 338.938 217.6C339.565 218.398 340.111 219.255 340.569 220.161C340.937 220.91 341.444 221.59 342.07 222.142C342.955 222.91 344.029 223.432 345.173 223.678C345.471 223.747 345.769 223.797 346.068 223.826C346.177 223.826 346.276 223.826 346.386 223.846L346.455 223.876Z" fill="#AACC19"/>
<path d="M274.275 201.098C274.275 201.187 269.552 201.256 263.715 201.256C257.878 201.256 253.145 201.187 253.145 201.098C253.145 201.009 257.878 200.94 263.715 200.94C269.552 200.94 274.275 201.009 274.275 201.098Z" fill="#263238"/>
<path d="M244.802 253.352V305.104H251.126H259.827H300.387V253.352H244.802Z" fill="#F5F5F5"/>
<path d="M272.346 259.214C262.87 259.214 255.193 266.819 255.193 276.208C255.193 285.597 262.87 293.203 272.346 293.203C281.822 293.203 289.499 285.597 289.499 276.208C289.499 266.819 281.822 259.214 272.346 259.214ZM272.605 286.395C266.788 286.395 262.064 281.725 262.054 275.962C262.054 270.199 266.768 265.519 272.585 265.509C278.402 265.499 283.125 270.179 283.135 275.942C283.135 281.715 278.432 286.405 272.605 286.415V286.395Z" fill="#263238"/>
<path d="M272.615 259.214V265.509C278.432 265.509 283.146 270.179 283.155 275.942C283.155 277.016 282.986 278.08 282.658 279.105L288.873 280.78C291.419 271.745 286.099 262.366 276.971 259.835C275.549 259.44 274.087 259.234 272.615 259.214Z" fill="#AACC19"/>
<path d="M272.605 286.415C271.859 286.415 271.103 286.336 270.377 286.178C270.109 287.696 269.612 290.621 269.214 292.937C270.248 293.134 271.292 293.222 272.346 293.222C280.033 293.222 286.774 288.139 288.853 280.809L282.638 279.134C281.246 283.459 277.199 286.405 272.615 286.415H272.605Z" fill="#AACC19"/>
<g opacity="0.3">
<path d="M272.605 286.415C271.859 286.415 271.103 286.336 270.377 286.178C270.109 287.696 269.612 290.621 269.214 292.937C270.248 293.134 271.292 293.222 272.346 293.222C280.033 293.222 286.774 288.139 288.853 280.809L282.638 279.134C281.246 283.459 277.199 286.405 272.615 286.415H272.605Z" fill="black"/>
</g>
<path d="M270.596 275.676C270.596 274.405 271.312 273.676 272.266 273.676C273.221 273.676 273.937 274.405 273.937 275.676C273.937 276.947 273.231 277.676 272.266 277.676C271.302 277.676 270.596 276.957 270.596 275.676ZM273.032 275.676C273.032 274.799 272.724 274.435 272.266 274.435C271.809 274.435 271.511 274.799 271.511 275.676C271.511 276.553 271.819 276.918 272.246 276.918C272.674 276.918 273.022 276.553 273.022 275.676H273.032Z" fill="#263238"/>
<path d="M274.314 274.77C274.364 274.238 274.841 273.853 275.378 273.913C275.915 273.962 276.303 274.435 276.244 274.967C276.194 275.459 275.776 275.834 275.289 275.834C274.752 275.834 274.314 275.41 274.314 274.878C274.314 274.849 274.314 274.809 274.314 274.78V274.77ZM275.687 274.77C275.687 274.356 275.528 274.149 275.279 274.149C275.03 274.149 274.871 274.356 274.871 274.77C274.871 275.183 275.04 275.381 275.279 275.381C275.518 275.381 275.687 275.183 275.687 274.77ZM277.606 273.745H278.262L275.597 277.607H274.941L277.606 273.745ZM276.969 276.592C277.019 276.06 277.496 275.676 278.033 275.725C278.57 275.775 278.958 276.247 278.908 276.779C278.859 277.282 278.441 277.656 277.934 277.656C277.397 277.656 276.969 277.223 276.969 276.701C276.969 276.671 276.969 276.642 276.969 276.602V276.592ZM278.342 276.592C278.342 276.179 278.183 275.981 277.934 275.981C277.685 275.981 277.526 276.179 277.526 276.592C277.526 277.006 277.695 277.203 277.934 277.203C278.173 277.203 278.342 276.996 278.342 276.592Z" fill="#263238"/>
<path d="M286.535 297.488C286.535 297.576 280.181 297.645 272.346 297.645C264.51 297.645 258.156 297.576 258.156 297.488C258.156 297.399 264.51 297.32 272.346 297.32C280.181 297.32 286.535 297.389 286.535 297.488Z" fill="#263238"/>
<path d="M280.241 300.069C280.241 300.158 276.721 300.237 272.366 300.237C268.01 300.237 264.49 300.168 264.49 300.069C264.49 299.971 268.01 299.912 272.366 299.912C276.721 299.912 280.241 299.981 280.241 300.069Z" fill="#263238"/>
<path d="M270.109 276.789H269.472V277.597H268.597V276.789H266.499V276.188L268.339 273.745H269.283L267.583 276.07H268.647V275.341H269.502V276.06H270.138L270.119 276.789H270.109Z" fill="#263238"/>
<path d="M243.239 158.395H360.072C365.766 158.395 370.377 163.005 370.377 168.7V405.695C370.377 411.389 365.766 416 360.072 416H243.239C237.545 416 232.934 411.389 232.934 405.695V168.7C232.934 163.005 237.545 158.395 243.239 158.395ZM236.865 393.38C236.865 397.114 239.89 400.148 243.633 400.148H359.707C363.441 400.148 366.476 397.124 366.476 393.38V181.014C366.476 177.28 363.451 174.246 359.707 174.246H243.623C239.89 174.246 236.855 177.271 236.855 181.014V393.38H236.865Z" fill="#455A64"/>
<path d="M310.498 162.513H290.311C289.149 162.493 288.183 163.399 288.124 164.552C288.163 165.714 289.139 166.631 290.301 166.591H310.488C311.65 166.631 312.635 165.714 312.675 164.552C312.616 163.389 311.65 162.493 310.488 162.513H310.498Z" fill="#263238"/>
<path d="M275.879 162.513C274.775 162.493 273.859 163.37 273.839 164.483C273.839 164.503 273.839 164.532 273.839 164.552C273.839 165.675 274.756 166.591 275.879 166.591C277.002 166.571 277.898 165.665 277.918 164.552C277.918 163.429 277.002 162.513 275.879 162.513Z" fill="#263238"/>
<path d="M267.681 166.591C266.555 166.591 265.642 165.678 265.642 164.552C265.642 163.426 266.555 162.513 267.681 162.513C268.808 162.513 269.721 163.426 269.721 164.552C269.721 165.678 268.808 166.591 267.681 166.591Z" fill="#263238"/>
<path d="M333.118 166.591C331.992 166.591 331.079 165.678 331.079 164.552C331.079 163.426 331.992 162.513 333.118 162.513C334.244 162.513 335.157 163.426 335.157 164.552C335.157 165.678 334.244 166.591 333.118 166.591Z" fill="#263238"/>
<path d="M324.92 162.513C323.797 162.513 322.881 163.429 322.881 164.552C322.901 165.675 323.807 166.572 324.92 166.591C326.043 166.591 326.96 165.675 326.96 164.552C326.979 163.449 326.103 162.532 324.989 162.513C324.97 162.513 324.94 162.513 324.92 162.513Z" fill="#263238"/>
<path d="M357.424 253.352H310.44V275.292H357.424V253.352Z" fill="#AACC19"/>
<path d="M332.963 253.352H310.44V275.292H332.963V253.352Z" fill="#EBEBEB"/>
<path d="M329.671 264.327C329.671 264.711 329.642 265.095 329.582 265.479C328.955 269.785 324.918 272.78 320.573 272.159C316.228 271.538 313.205 267.538 313.831 263.233C314.458 258.928 318.495 255.933 322.84 256.554C325.247 256.898 327.365 258.317 328.588 260.396C329.294 261.588 329.671 262.947 329.671 264.327Z" fill="#263238"/>
<path d="M329.671 264.327C329.671 264.711 329.641 265.096 329.582 265.48L321.696 264.327V256.446C324.56 256.416 327.225 257.924 328.657 260.386C329.343 261.588 329.691 262.948 329.671 264.327Z" fill="#AACC19"/>
<path d="M327.215 264.327C327.215 267.352 324.749 269.795 321.696 269.795C318.644 269.795 316.178 267.352 316.178 264.327C316.178 261.303 318.644 258.859 321.696 258.859C324.739 258.859 327.205 261.293 327.215 264.307V264.327Z" fill="white"/>
<path d="M319.091 265.243L319.986 264.445C320.096 264.356 320.155 264.219 320.155 264.081C320.155 263.962 320.105 263.844 320.026 263.756C319.936 263.657 319.797 263.598 319.658 263.598C319.539 263.598 319.419 263.637 319.33 263.726L319.23 263.805C319.23 263.805 319.171 263.834 319.151 263.805C319.131 263.775 319.131 263.736 319.151 263.706L319.25 263.627C319.36 263.519 319.509 263.46 319.668 263.46C319.847 263.46 320.016 263.539 320.125 263.667C320.235 263.775 320.294 263.923 320.294 264.081C320.294 264.258 320.215 264.425 320.086 264.544L319.32 265.223H320.225C320.225 265.223 320.294 265.253 320.294 265.292C320.294 265.332 320.265 265.361 320.225 265.361H319.101C319.101 265.361 319.071 265.273 319.101 265.243H319.091Z" fill="#263238"/>
<path d="M320.752 265.174C320.752 265.174 320.722 265.105 320.752 265.076C320.781 265.046 320.821 265.046 320.851 265.076C321.05 265.273 321.368 265.273 321.567 265.076C321.656 264.977 321.716 264.859 321.716 264.721C321.716 264.583 321.666 264.455 321.567 264.357C321.368 264.16 321.05 264.16 320.851 264.357C320.821 264.386 320.781 264.386 320.752 264.357L320.841 263.598C320.841 263.578 320.841 263.569 320.841 263.549H321.736C321.736 263.549 321.806 263.578 321.806 263.618C321.806 263.657 321.776 263.687 321.736 263.687H320.901L320.831 264.248C320.931 264.199 321.05 264.169 321.159 264.169C321.328 264.169 321.497 264.229 321.617 264.347C321.875 264.603 321.875 265.007 321.617 265.263C321.497 265.381 321.328 265.45 321.159 265.45C320.99 265.411 320.851 265.312 320.752 265.174Z" fill="#263238"/>
<path d="M322.353 263.933C322.313 263.707 322.472 263.49 322.711 263.45C322.939 263.411 323.158 263.569 323.198 263.805C323.198 263.844 323.198 263.894 323.198 263.933C323.218 264.179 323.039 264.406 322.78 264.426C322.78 264.426 322.78 264.426 322.77 264.426C322.522 264.416 322.333 264.199 322.353 263.953V263.933ZM323.059 263.933C323.079 263.756 322.959 263.588 322.77 263.569C322.611 263.569 322.502 263.736 322.502 263.933C322.502 264.15 322.631 264.307 322.78 264.307C322.93 264.307 323.059 264.14 323.059 263.933ZM322.611 265.283L323.944 263.48C323.944 263.48 323.984 263.48 324.003 263.48C324.033 263.48 324.063 263.509 324.063 263.539L322.741 265.332C322.741 265.332 322.701 265.332 322.681 265.332C322.651 265.332 322.621 265.303 322.621 265.273H322.611V265.283ZM323.466 264.908C323.427 264.682 323.586 264.465 323.824 264.426C324.053 264.386 324.272 264.544 324.312 264.78C324.312 264.82 324.312 264.869 324.312 264.908C324.332 265.155 324.143 265.371 323.884 265.391C323.636 265.371 323.447 265.165 323.466 264.918C323.466 264.918 323.466 264.918 323.466 264.908ZM324.163 264.908C324.163 264.692 324.033 264.534 323.884 264.534C323.735 264.534 323.606 264.702 323.606 264.899C323.586 265.076 323.705 265.234 323.884 265.263C324.053 265.263 324.163 265.115 324.163 264.908Z" fill="#263238"/>
<path d="M335.756 258.593H326.787V259.046H335.756V258.593Z" fill="white"/>
<path d="M336.711 258.82C336.711 259.362 336.264 259.805 335.717 259.805C335.17 259.805 334.723 259.362 334.723 258.82C334.723 258.278 335.17 257.834 335.717 257.834C336.264 257.834 336.711 258.278 336.711 258.82Z" fill="white"/>
<path d="M341.703 257.992C341.911 258.455 341.961 258.968 341.862 259.46C341.762 260.002 341.534 260.505 341.186 260.928C340.877 261.332 340.42 261.578 339.913 261.608C339.475 261.588 339.087 261.322 338.918 260.928C338.71 260.465 338.66 259.953 338.769 259.46C338.859 258.918 339.097 258.416 339.445 257.992C339.744 257.588 340.201 257.342 340.708 257.303C341.146 257.322 341.534 257.588 341.703 257.992ZM341.176 259.46C341.245 259.096 341.215 258.712 341.066 258.367C340.997 258.15 340.788 258.002 340.559 257.992C340.291 258.012 340.052 258.15 339.903 258.367C339.644 258.682 339.475 259.056 339.416 259.46C339.336 259.825 339.366 260.199 339.515 260.544C339.595 260.761 339.803 260.909 340.032 260.928C340.291 260.899 340.529 260.761 340.678 260.544C340.937 260.229 341.106 259.854 341.176 259.46Z" fill="white"/>
<path d="M345.79 261.303C345.75 261.49 345.581 261.628 345.382 261.638H343.175C343.085 261.638 342.996 261.608 342.946 261.529C342.846 261.372 342.886 261.155 343.045 261.046L345.173 259.411C345.362 259.263 345.491 259.056 345.541 258.82C345.621 258.475 345.402 258.12 345.054 258.042C345.004 258.032 344.944 258.022 344.885 258.022C344.676 258.022 344.467 258.101 344.308 258.229L344.079 258.396C343.95 258.524 343.751 258.534 343.612 258.406C343.612 258.406 343.612 258.406 343.602 258.396C343.513 258.229 343.562 258.022 343.711 257.914L343.93 257.746C344.238 257.5 344.616 257.372 345.004 257.362C345.392 257.362 345.76 257.539 345.999 257.845C346.197 258.13 346.277 258.485 346.207 258.83C346.118 259.263 345.879 259.657 345.521 259.923L344.169 260.968H345.481C345.641 260.958 345.78 261.066 345.79 261.224C345.79 261.253 345.79 261.273 345.79 261.303Z" fill="white"/>
<path d="M351.527 263.489H338.223V264.189H351.527V263.489Z" fill="white"/>
<path d="M345.859 265.224H338.223V265.923H345.859V265.224Z" fill="white"/>
<path d="M350.543 266.958H338.223V267.657H350.543V266.958Z" fill="white"/>
<path d="M354.391 268.701H338.223V269.401H354.391V268.701Z" fill="white"/>
<path d="M347.6 270.435H338.223V271.135H347.6V270.435Z" fill="white"/>
<path d="M357.424 283.164H310.44V305.104H357.424V283.164Z" fill="#AACC19"/>
<path d="M332.963 283.164H310.44V305.104H332.963V283.164Z" fill="#EBEBEB"/>
<path d="M329.681 294.138C329.671 298.493 326.102 302.01 321.707 302C317.311 301.99 313.762 298.454 313.772 294.099C313.781 289.745 317.351 286.227 321.746 286.237C324.59 286.237 327.215 287.754 328.627 290.198C329.323 291.4 329.681 292.759 329.681 294.138Z" fill="#263238"/>
<path d="M329.682 294.139C329.702 298.493 326.152 302.04 321.767 302.06C319.848 302.06 317.988 301.39 316.526 300.139L321.707 294.139V286.257C326.102 286.257 329.662 289.784 329.662 294.139H329.682Z" fill="#AACC19"/>
<path d="M327.225 294.139C327.225 297.163 324.759 299.606 321.706 299.606C318.654 299.606 316.188 297.163 316.188 294.139C316.188 291.114 318.654 288.671 321.706 288.671H321.716C324.759 288.671 327.225 291.114 327.225 294.129V294.139Z" fill="white"/>
<path d="M319.121 294.986C319.121 294.986 319.101 294.917 319.121 294.887C319.151 294.858 319.19 294.858 319.22 294.887C319.32 294.986 319.439 295.035 319.578 295.035C319.717 295.035 319.847 294.986 319.946 294.887C320.046 294.789 320.095 294.671 320.095 294.533C320.095 294.395 320.046 294.267 319.946 294.168C319.847 294.07 319.727 294.02 319.588 294.02C319.449 294.02 319.32 294.07 319.22 294.168C319.2 294.188 319.161 294.198 319.141 294.168L319.23 293.41C319.23 293.41 319.23 293.38 319.23 293.36H320.125C320.125 293.36 320.195 293.39 320.195 293.429C320.195 293.469 320.165 293.498 320.125 293.498H319.29L319.22 294.06C319.32 294.011 319.439 293.981 319.548 293.981C319.717 293.981 319.886 294.04 320.006 294.158C320.264 294.414 320.264 294.818 320.006 295.075C319.747 295.331 319.34 295.331 319.081 295.075L319.131 294.986H319.121Z" fill="#263238"/>
<path d="M320.772 294.985C320.772 294.985 320.742 294.917 320.772 294.887C320.802 294.857 320.842 294.857 320.872 294.887C320.971 294.985 321.09 295.035 321.23 295.035C321.369 295.035 321.498 294.985 321.598 294.887C321.697 294.788 321.747 294.67 321.747 294.532C321.747 294.394 321.697 294.266 321.598 294.168C321.498 294.099 321.379 294.059 321.259 294.069C321.12 294.069 320.991 294.119 320.892 294.217C320.862 294.247 320.822 294.247 320.792 294.217L320.882 293.458C320.882 293.439 320.882 293.429 320.882 293.409H321.776C321.776 293.409 321.846 293.439 321.846 293.478C321.846 293.518 321.816 293.547 321.776 293.547H320.941L320.872 294.109C320.971 294.059 321.09 294.03 321.2 294.03C321.558 294.04 321.846 294.345 321.836 294.7C321.836 294.857 321.767 295.005 321.657 295.123C321.399 295.38 320.991 295.38 320.732 295.123L320.772 294.985Z" fill="#263238"/>
<path d="M322.383 293.745C322.343 293.518 322.502 293.301 322.741 293.262C322.97 293.222 323.188 293.38 323.228 293.617C323.228 293.656 323.228 293.705 323.228 293.745C323.248 293.991 323.069 294.218 322.811 294.237C322.811 294.237 322.811 294.237 322.801 294.237C322.552 294.227 322.363 294.011 322.383 293.764V293.745ZM323.079 293.745C323.099 293.567 322.98 293.41 322.801 293.38C322.642 293.38 322.522 293.548 322.522 293.745C322.522 293.961 322.652 294.119 322.811 294.119C322.97 294.119 323.079 293.952 323.079 293.745ZM322.642 295.094L323.974 293.291C323.974 293.291 324.034 293.321 324.034 293.351L322.701 295.144C322.701 295.144 322.671 295.144 322.652 295.144C322.622 295.144 322.592 295.114 322.592 295.084H322.642V295.094ZM323.497 294.72C323.497 294.493 323.686 294.306 323.914 294.306C324.143 294.306 324.332 294.493 324.332 294.72C324.352 294.966 324.173 295.183 323.924 295.203C323.924 295.203 323.924 295.203 323.914 295.203C323.666 295.183 323.477 294.976 323.497 294.73C323.497 294.73 323.497 294.73 323.497 294.72ZM324.193 294.72C324.193 294.503 324.064 294.346 323.914 294.346C323.765 294.346 323.636 294.513 323.636 294.71C323.616 294.887 323.735 295.045 323.914 295.075C324.073 295.075 324.243 294.927 324.243 294.72H324.193Z" fill="#263238"/>
<path d="M335.767 288.405H326.798V288.858H335.767V288.405Z" fill="white"/>
<path d="M336.721 288.632C336.721 289.174 336.274 289.617 335.727 289.617C335.18 289.617 334.732 289.174 334.732 288.632C334.732 288.09 335.18 287.646 335.727 287.646C336.274 287.646 336.721 288.09 336.721 288.632Z" fill="white"/>
<path d="M341.713 287.804C341.912 288.267 341.962 288.779 341.862 289.272C341.773 289.814 341.534 290.316 341.186 290.74C340.888 291.144 340.42 291.39 339.913 291.419C339.476 291.4 339.088 291.134 338.919 290.74C338.71 290.277 338.65 289.764 338.76 289.272C338.859 288.73 339.088 288.228 339.436 287.804C339.744 287.4 340.202 287.154 340.709 287.114C341.146 287.134 341.544 287.4 341.713 287.804ZM341.186 289.272C341.266 288.907 341.216 288.523 341.067 288.178C340.997 287.962 340.788 287.814 340.56 287.804C340.301 287.824 340.062 287.962 339.913 288.178C339.655 288.493 339.486 288.868 339.426 289.272C339.337 289.636 339.376 290.011 339.525 290.356C339.605 290.572 339.804 290.72 340.033 290.74C340.301 290.71 340.54 290.572 340.689 290.356C340.928 290.03 341.087 289.666 341.146 289.272H341.186Z" fill="white"/>
<path d="M346.347 290.287C346.307 290.474 346.148 290.612 345.949 290.622H345.889L345.81 291.085C345.77 291.272 345.601 291.41 345.402 291.42C345.253 291.42 345.124 291.301 345.124 291.144C345.124 291.134 345.124 291.124 345.124 291.114L345.213 290.651H343.225C343.145 290.651 343.075 290.631 343.026 290.572C342.896 290.444 342.896 290.227 343.026 290.099L345.82 287.282H346.078V287.341L345.641 289.824H346.118C346.267 289.814 346.406 289.922 346.416 290.07C346.416 290.149 346.397 290.227 346.347 290.287ZM345.352 289.942L345.621 288.425L344.129 289.942H345.352Z" fill="white"/>
<path d="M348.614 293.301H338.232V294.001H348.614V293.301Z" fill="white"/>
<path d="M354.401 295.035H338.232V295.735H354.401V295.035Z" fill="white"/>
<path d="M345.601 296.769H338.232V297.469H345.601V296.769Z" fill="white"/>
<path d="M351.438 298.513H338.232V299.213H351.438V298.513Z" fill="white"/>
<path d="M349.926 300.247H338.232V300.946H349.926V300.247Z" fill="white"/>
</svg>
