<svg width="180" height="42" viewBox="0 0 180 42" fill="none" xmlns="http://www.w3.org/2000/svg">
<g clip-path="url(#clip0_14_7099)">
<path d="M27.5983 5.40584V29.5925C27.5983 32.5795 25.2117 34.9984 22.2699 34.9984H7.1386V27.9992H18.8133C19.8548 27.9992 20.697 27.1423 20.697 26.0881V8.91266C20.697 7.85605 19.8524 7.0016 18.8133 7.0016H0V0H22.2699C25.214 0 27.5983 2.42132 27.5983 5.40584Z" fill="url(#paint0_linear_14_7099)"/>
<path d="M14.0377 14.0034H7.13867V21.0026H14.0377V14.0034Z" fill="url(#paint1_linear_14_7099)"/>
<path d="M7.14118 35.001H0.242188V42.0002H7.14118V35.001Z" fill="url(#paint2_linear_14_7099)"/>
<path d="M35.3491 24.1026V7.46143H41.7475C43.1852 7.46143 44.4118 7.69249 45.4271 8.14979C46.4425 8.60951 47.2231 9.27621 47.7711 10.1475C48.3168 11.0188 48.592 12.0586 48.592 13.262C48.592 14.4654 48.3191 15.5004 47.7711 16.3645C47.2231 17.2285 46.4425 17.8952 45.4271 18.3622C44.4118 18.8291 43.1852 19.0626 41.7475 19.0626H36.6397L37.6931 17.9458V24.1026H35.3491ZM37.6931 18.1841L36.6397 16.9951H41.6787C43.1781 16.9951 44.3145 16.6701 45.0879 16.0203C45.8613 15.3704 46.248 14.451 46.248 13.262C46.248 12.073 45.8613 11.1536 45.0879 10.5037C44.3145 9.85386 43.1781 9.52893 41.6787 9.52893H36.6397L37.6931 8.33994V18.1817V18.1841Z" fill="#070707"/>
<path d="M48.7295 24.1026L56.1575 7.46143H58.4778L65.9295 24.1026H63.4693L56.8384 8.79243H57.7755L51.1446 24.1026H48.7319H48.7295ZM51.8919 19.9411L52.5254 18.0396H61.7588L62.4397 19.9411H51.8943H51.8919Z" fill="#070707"/>
<path d="M68.3661 24.1026V7.46143H74.7622C76.1999 7.46143 77.4264 7.69249 78.4418 8.14979C79.4572 8.60951 80.2377 9.27621 80.7857 10.1475C81.3314 11.0188 81.6066 12.0586 81.6066 13.262C81.6066 14.4654 81.3338 15.5004 80.7857 16.3645C80.2377 17.2285 79.4572 17.8904 78.4418 18.3501C77.4264 18.8098 76.1999 19.0385 74.7622 19.0385H69.6544L70.7077 17.9458V24.1026H68.3638H68.3661ZM70.7101 18.1841L69.6567 17.0191H74.6958C76.1951 17.0191 77.3315 16.6894 78.1049 16.0323C78.8783 15.3752 79.265 14.451 79.265 13.262C79.265 12.073 78.8783 11.1536 78.1049 10.5037C77.3315 9.85386 76.1951 9.52893 74.6958 9.52893H69.6567L70.7101 8.33994V18.1817V18.1841ZM79.3338 24.1026L75.1631 18.0637H77.6708L81.8889 24.1026H79.3338Z" fill="#070707"/>
<path d="M88.4248 24.1026V9.52893H82.7998V7.46143H96.3677V9.52893H90.7427V24.1026H88.4224H88.4248Z" fill="#070707"/>
<path d="M103.492 24.2929C102.242 24.2929 101.046 24.098 99.9075 23.7105C98.7663 23.3229 97.8696 22.8199 97.2124 22.2013L98.0783 20.348C98.7023 20.904 99.4994 21.3637 100.467 21.7272C101.435 22.093 102.444 22.2735 103.49 22.2735C104.444 22.2735 105.217 22.1628 105.81 21.9414C106.403 21.72 106.842 21.4143 107.122 21.0268C107.404 20.6393 107.544 20.1988 107.544 19.7078C107.544 19.1374 107.362 18.6777 106.994 18.3287C106.626 17.9797 106.149 17.6981 105.563 17.4839C104.977 17.2696 104.332 17.0843 103.63 16.9255C102.928 16.7666 102.221 16.5813 101.509 16.3671C100.797 16.1529 100.149 15.8809 99.5635 15.5463C98.9775 15.2142 98.5054 14.7665 98.1448 14.2033C97.7842 13.6401 97.6062 12.9156 97.6062 12.0275C97.6062 11.1393 97.8292 10.3836 98.2752 9.66151C98.7213 8.93945 99.4069 8.3618 100.337 7.92616C101.267 7.49051 102.448 7.27148 103.886 7.27148C104.84 7.27148 105.784 7.39905 106.721 7.65177C107.658 7.90449 108.47 8.27034 109.158 8.74449L108.384 10.6459C107.682 10.1694 106.939 9.82518 106.159 9.61097C105.378 9.39676 104.619 9.29085 103.886 9.29085C102.963 9.29085 102.206 9.40879 101.613 9.64707C101.02 9.88535 100.586 10.2031 100.313 10.5978C100.04 10.9949 99.9027 11.4378 99.9027 11.9288C99.9027 12.5161 100.085 12.983 100.453 13.332C100.821 13.681 101.298 13.9578 101.884 14.1648C102.47 14.3718 103.115 14.5571 103.817 14.7232C104.519 14.8892 105.226 15.077 105.938 15.2816C106.65 15.4886 107.298 15.7581 107.884 16.0903C108.47 16.4224 108.942 16.8677 109.302 17.4213C109.66 17.9773 109.841 18.6897 109.841 19.561C109.841 20.4323 109.613 21.1808 109.162 21.9029C108.709 22.625 108.009 23.2026 107.065 23.6382C106.121 24.0739 104.928 24.2929 103.492 24.2929Z" fill="#070707"/>
<path d="M124.348 24.2929C123.098 24.2929 121.902 24.098 120.763 23.7105C119.622 23.3229 118.726 22.8199 118.068 22.2013L118.937 20.348C119.561 20.904 120.358 21.3637 121.326 21.7272C122.294 22.093 123.302 22.2735 124.348 22.2735C125.302 22.2735 126.075 22.1628 126.668 21.9414C127.261 21.72 127.7 21.4143 127.98 21.0268C128.263 20.6393 128.403 20.1988 128.403 19.7078C128.403 19.1374 128.218 18.6777 127.852 18.3287C127.484 17.9797 127.008 17.6981 126.422 17.4839C125.836 17.2696 125.19 17.0843 124.488 16.9255C123.786 16.7666 123.079 16.5813 122.367 16.3671C121.655 16.1529 121.008 15.8809 120.422 15.5463C119.836 15.2142 119.364 14.7665 119.003 14.2033C118.642 13.6401 118.465 12.9156 118.465 12.0275C118.465 11.1393 118.688 10.3836 119.134 9.66151C119.58 8.93945 120.265 8.3618 121.195 7.92616C122.125 7.49051 123.307 7.27148 124.744 7.27148C125.698 7.27148 126.642 7.39905 127.579 7.65177C128.516 7.90449 129.328 8.27034 130.016 8.74449L129.242 10.6459C128.54 10.1694 127.798 9.82518 127.017 9.61097C126.237 9.39676 125.477 9.29085 124.744 9.29085C123.821 9.29085 123.065 9.40879 122.472 9.64707C121.878 9.88535 121.444 10.2031 121.171 10.5978C120.899 10.9949 120.761 11.4378 120.761 11.9288C120.761 12.5161 120.944 12.983 121.311 13.332C121.679 13.681 122.156 13.9578 122.742 14.1648C123.328 14.3718 123.973 14.5571 124.676 14.7232C125.378 14.8892 126.085 15.077 126.796 15.2816C127.508 15.4886 128.156 15.7581 128.742 16.0903C129.328 16.4224 129.8 16.8677 130.161 17.4213C130.519 17.9773 130.699 18.6897 130.699 19.561C130.699 20.4323 130.471 21.1808 130.021 21.9029C129.567 22.625 128.868 23.2026 127.923 23.6382C126.979 24.0739 125.786 24.2929 124.351 24.2929H124.348Z" fill="#070707"/>
<path d="M141.524 24.2928C140.274 24.2928 139.114 24.0786 138.044 23.6502C136.974 23.2218 136.049 22.6249 135.268 21.8547C134.488 21.0869 133.878 20.1867 133.441 19.1566C133.005 18.1264 132.784 17.0024 132.784 15.7797C132.784 14.557 133.002 13.4354 133.441 12.4029C133.878 11.3727 134.488 10.4726 135.268 9.70477C136.049 8.93697 136.971 8.33766 138.032 7.90924C139.095 7.48081 140.257 7.2666 141.524 7.2666C142.791 7.2666 143.93 7.476 144.993 7.8972C146.055 8.31841 146.976 8.9105 147.759 9.6807C148.539 10.4485 149.144 11.3535 149.574 12.3908C150.003 13.4282 150.219 14.5594 150.219 15.7797C150.219 17 150.003 18.1505 149.574 19.1782C149.144 20.2084 148.539 21.1085 147.759 21.8763C146.978 22.6441 146.055 23.2386 144.993 23.6598C143.93 24.081 142.774 24.2904 141.524 24.2904V24.2928ZM141.5 22.1772C142.421 22.1772 143.27 22.0183 144.044 21.7006C144.817 21.3829 145.488 20.9353 146.058 20.3576C146.627 19.78 147.073 19.1012 147.394 18.3238C147.714 17.5464 147.873 16.6992 147.873 15.7797C147.873 14.8603 147.711 14.0179 147.394 13.2477C147.073 12.4799 146.627 11.8012 146.058 11.2139C145.488 10.6266 144.815 10.1765 144.044 9.85881C143.27 9.5411 142.423 9.38225 141.5 9.38225C140.578 9.38225 139.754 9.5411 138.981 9.85881C138.208 10.1765 137.531 10.6266 136.955 11.2139C136.376 11.8012 135.928 12.4775 135.607 13.2477C135.287 14.0155 135.128 14.8603 135.128 15.7797C135.128 16.6992 135.287 17.5464 135.607 18.3238C135.928 19.1012 136.376 19.7775 136.955 20.3576C137.534 20.9353 138.208 21.3829 138.981 21.7006C139.754 22.0183 140.594 22.1772 141.5 22.1772Z" fill="#070707"/>
<path d="M156.146 24.1026H153.802V7.46143H165.377V9.52893H156.143V24.1026H156.146ZM155.911 15.3295H164.371V17.3729H155.911V15.3295Z" fill="#070707"/>
<path d="M172.057 24.1026V9.52893H166.432V7.46143H180V9.52893H174.375V24.1026H172.055H172.057Z" fill="#070707"/>
<path d="M36.8511 30.4448C37.3018 30.4448 37.6648 30.594 37.9377 30.8901C38.2152 31.1837 38.3528 31.5592 38.3528 32.0165C38.3528 32.4738 38.2152 32.8493 37.9377 33.1429C37.6553 33.4413 37.2924 33.5882 36.844 33.5882C36.5261 33.5882 36.2509 33.5208 36.0184 33.3836C35.7859 33.2464 35.6151 33.0587 35.5083 32.818L35.7645 32.6615C35.8476 32.8589 35.9828 33.0153 36.1726 33.1285C36.36 33.244 36.5854 33.2993 36.8463 33.2993C37.1785 33.2993 37.4537 33.1934 37.6719 32.9792C37.8926 32.7626 38.0183 32.4882 38.0468 32.1585H36.5095V31.8697H38.0468C38.0159 31.5375 37.8926 31.2631 37.6791 31.0513C37.4608 30.8395 37.1856 30.7312 36.8535 30.7312C36.6067 30.7312 36.3908 30.7866 36.2034 30.8997C36.016 31.0128 35.876 31.1669 35.7835 31.3642L35.5225 31.2126C35.6412 30.9719 35.8191 30.7818 36.054 30.647C36.2888 30.5098 36.5569 30.4424 36.8535 30.4424L36.8511 30.4448Z" fill="#070707"/>
<path d="M41.6386 33.5909V34.7293H41.342V33.5909C40.8581 33.5596 40.4761 33.3983 40.189 33.1095C39.8996 32.8159 39.7549 32.4524 39.7549 32.0192C39.7549 31.586 39.8996 31.2273 40.189 30.9337C40.4785 30.6401 40.8628 30.4788 41.342 30.4451V29.3066H41.6386V30.4451C42.1107 30.474 42.4926 30.6352 42.7845 30.9337C43.0763 31.2321 43.2234 31.5932 43.2234 32.0192C43.2234 32.4452 43.0763 32.8135 42.7845 33.1095C42.4926 33.4056 42.1178 33.5596 41.6386 33.5909ZM41.342 33.2948V30.7387C40.9506 30.77 40.6398 30.9048 40.4097 31.1359C40.1748 31.3741 40.0586 31.6654 40.0586 32.0168C40.0586 32.3682 40.1748 32.6594 40.4097 32.8977C40.6398 33.1312 40.9506 33.2635 41.342 33.2948ZM41.6386 30.7387V33.2948C42.03 33.2635 42.3408 33.1312 42.5709 32.8977C42.8011 32.6642 42.9221 32.3682 42.9221 32.0168C42.9221 31.6654 42.8058 31.3741 42.5709 31.1359C42.3408 30.9024 42.03 30.77 41.6386 30.7387Z" fill="#070707"/>
<path d="M46.5092 33.5909V34.7293H46.2126V33.5909C45.7287 33.5596 45.3467 33.3983 45.0596 33.1095C44.7702 32.8159 44.6255 32.4524 44.6255 32.0192C44.6255 31.586 44.7702 31.2273 45.0596 30.9337C45.3491 30.6401 45.7334 30.4788 46.2126 30.4451V29.3066H46.5092V30.4451C46.9813 30.474 47.3633 30.6352 47.6551 30.9337C47.9469 31.2321 48.094 31.5932 48.094 32.0192C48.094 32.4452 47.9469 32.8135 47.6551 33.1095C47.3633 33.4056 46.9884 33.5596 46.5092 33.5909ZM46.2126 33.2948V30.7387C45.8212 30.77 45.5104 30.9048 45.2803 31.1359C45.0454 31.3741 44.9292 31.6654 44.9292 32.0168C44.9292 32.3682 45.0454 32.6594 45.2803 32.8977C45.5104 33.1312 45.8212 33.2635 46.2126 33.2948ZM46.5092 30.7387V33.2948C46.9006 33.2635 47.2114 33.1312 47.4415 32.8977C47.6717 32.6642 47.7927 32.3682 47.7927 32.0168C47.7927 31.6654 47.6764 31.3741 47.4415 31.1359C47.2114 30.9024 46.9006 30.77 46.5092 30.7387Z" fill="#070707"/>
<path d="M51.0359 30.4448C51.4725 30.4448 51.8236 30.6012 52.094 30.9141C52.3669 31.227 52.5045 31.6001 52.5045 32.0285C52.5045 32.0357 52.5045 32.0598 52.5021 32.1007C52.5021 32.1416 52.4997 32.1657 52.4997 32.1729H49.8094C49.845 32.5099 49.9778 32.7843 50.208 32.9937C50.4381 33.1983 50.7251 33.3018 51.0691 33.3018C51.3016 33.3018 51.508 33.2536 51.686 33.1549C51.8639 33.0562 52.0015 32.9239 52.0964 32.753L52.3574 32.9094C52.234 33.1188 52.0584 33.2849 51.8307 33.4077C51.6029 33.5304 51.3467 33.5906 51.062 33.5906C50.6018 33.5906 50.2293 33.4438 49.9399 33.1501C49.6504 32.8565 49.501 32.4762 49.501 32.0165C49.501 31.5568 49.6433 31.1933 49.928 30.8949C50.2222 30.594 50.5923 30.4424 51.0383 30.4424L51.0359 30.4448ZM51.0359 30.7336C50.7038 30.7336 50.4215 30.8395 50.1937 31.0537C49.9683 31.2655 49.8402 31.5423 49.807 31.8793H52.196C52.1652 31.5231 52.0371 31.2415 51.8165 31.0417C51.5958 30.8371 51.3349 30.7336 51.0383 30.7336H51.0359Z" fill="#070707"/>
<path d="M54.7057 31.9587L56.364 33.5256H55.9607L54.3854 32.043V33.5256H54.0889V30.5122H54.3854V31.8793L55.8872 30.5122H56.3023L54.7033 31.9587H54.7057Z" fill="#070707"/>
<path d="M57.4697 30.5122H59.9299V30.8083H58.8481V33.5256H58.5515V30.8083H57.4697V30.5122Z" fill="#070707"/>
<path d="M61.6501 33.0009L63.5456 30.5122H63.8066V33.5256H63.5029V31.0369L61.6145 33.5256H61.3535V30.5122H61.6501V33.0009Z" fill="#070707"/>
<path d="M67.4409 31.9707C67.7897 32.0839 67.9629 32.3246 67.9629 32.6928C67.9629 32.9431 67.8822 33.1429 67.7233 33.2945C67.5619 33.4462 67.3389 33.5232 67.0495 33.5232H65.6118V30.5098H66.9356C67.2132 30.5098 67.4291 30.582 67.5857 30.7288C67.7422 30.8756 67.8205 31.0658 67.8205 31.2992C67.8205 31.6217 67.6948 31.8432 67.4409 31.9683V31.9707ZM66.9356 30.8082H65.9084V31.8504H66.9356C67.1254 31.8504 67.2701 31.8047 67.3698 31.7108C67.4694 31.6193 67.5192 31.487 67.5192 31.3185C67.5192 31.15 67.4694 31.0321 67.3674 30.943C67.2654 30.8539 67.123 30.8082 66.9356 30.8082ZM65.9084 33.2295H67.0495C67.2464 33.2295 67.4006 33.1814 67.5074 33.0851C67.6141 32.9888 67.6687 32.8541 67.6687 32.6808C67.6687 32.5075 67.6141 32.3799 67.505 32.286C67.3959 32.1922 67.244 32.144 67.0495 32.144H65.9084V33.2295Z" fill="#070707"/>
<path d="M71.6641 31.8745V30.5122H71.9677V33.5256H71.6641V32.1633H69.8112V33.5256H69.5146V30.5122H69.8112V31.8745H71.6641Z" fill="#070707"/>
<path d="M74.0695 31.682H74.9497C75.2272 31.682 75.4574 31.7686 75.6448 31.9419C75.8346 32.1152 75.9295 32.3366 75.9295 32.6038C75.9295 32.8709 75.8346 33.0948 75.6448 33.2657C75.4574 33.439 75.2272 33.5256 74.9497 33.5256H73.7729V30.5122H74.0695V31.682ZM74.0695 33.2296H74.9497C75.1442 33.2296 75.3055 33.1694 75.4336 33.0515C75.5618 32.9335 75.6258 32.7843 75.6258 32.6014C75.6258 32.4185 75.5618 32.262 75.4336 32.1465C75.3055 32.0309 75.1442 31.9756 74.9497 31.9756H74.0695V33.2296ZM76.385 33.5256V30.5122H76.6815V33.5256H76.385Z" fill="#070707"/>
<path d="M79.825 30.4448C80.2615 30.4448 80.6126 30.6012 80.8831 30.9141C81.1559 31.227 81.2935 31.6001 81.2935 32.0285C81.2935 32.0357 81.2935 32.0598 81.2911 32.1007C81.2911 32.1416 81.2888 32.1657 81.2888 32.1729H78.5985C78.634 32.5099 78.7669 32.7843 78.997 32.9937C79.2271 33.1983 79.5142 33.3018 79.8582 33.3018C80.0907 33.3018 80.2971 33.2536 80.475 33.1549C80.653 33.0562 80.7906 32.9239 80.8855 32.753L81.1464 32.9094C81.0231 33.1188 80.8475 33.2849 80.6198 33.4077C80.392 33.5304 80.1358 33.5906 79.8511 33.5906C79.3908 33.5906 79.0184 33.4438 78.7289 33.1501C78.4395 32.8565 78.29 32.4762 78.29 32.0165C78.29 31.5568 78.4324 31.1933 78.7171 30.8949C79.0113 30.594 79.3814 30.4424 79.8274 30.4424L79.825 30.4448ZM79.825 30.7336C79.4929 30.7336 79.2105 30.8395 78.9828 31.0537C78.7574 31.2655 78.6293 31.5423 78.5961 31.8793H80.9851C80.9543 31.5231 80.8262 31.2415 80.6055 31.0417C80.3849 30.8371 80.1239 30.7336 79.8274 30.7336H79.825Z" fill="#070707"/>
<path d="M86.9303 30.4448C87.3574 30.4448 87.7203 30.5964 88.0169 30.9021C88.3182 31.203 88.4677 31.576 88.4677 32.0165C88.4677 32.4569 88.3182 32.8324 88.0169 33.1381C87.7156 33.4438 87.3574 33.5906 86.9303 33.5906C86.648 33.5906 86.3965 33.5232 86.1735 33.3884C85.9505 33.2536 85.7773 33.0659 85.654 32.8252V34.729H85.3574V30.5098H85.654V31.2078C85.7773 30.9671 85.9505 30.7793 86.1735 30.6446C86.3965 30.5098 86.6504 30.4424 86.9303 30.4424V30.4448ZM86.0146 32.9287C86.2589 33.1766 86.5602 33.3018 86.9114 33.3018C87.2625 33.3018 87.5567 33.1766 87.8034 32.9287C88.0477 32.6808 88.1711 32.3751 88.1711 32.0189C88.1711 31.6627 88.0477 31.357 87.8034 31.1091C87.5567 30.8612 87.2601 30.736 86.9114 30.736C86.5626 30.736 86.2589 30.8612 86.0146 31.1091C85.7702 31.357 85.6516 31.6579 85.6516 32.0189C85.6516 32.3799 85.7726 32.6832 86.0146 32.9287Z" fill="#070707"/>
<path d="M91.4143 30.4448C91.8509 30.4448 92.202 30.6012 92.4724 30.9141C92.7453 31.227 92.8829 31.6001 92.8829 32.0285C92.8829 32.0357 92.8829 32.0598 92.8805 32.1007C92.8805 32.1416 92.8781 32.1657 92.8781 32.1729H90.1878C90.2234 32.5099 90.3562 32.7843 90.5864 32.9937C90.8165 33.1983 91.1036 33.3018 91.4476 33.3018C91.6801 33.3018 91.8865 33.2536 92.0644 33.1549C92.2423 33.0562 92.3799 32.9239 92.4748 32.753L92.7358 32.9094C92.6124 33.1188 92.4369 33.2849 92.2091 33.4077C91.9814 33.5304 91.7251 33.5906 91.4404 33.5906C90.9802 33.5906 90.6077 33.4438 90.3183 33.1501C90.0289 32.8565 89.8794 32.4762 89.8794 32.0165C89.8794 31.5568 90.0217 31.1933 90.3064 30.8949C90.6006 30.594 90.9707 30.4424 91.4167 30.4424L91.4143 30.4448ZM91.4143 30.7336C91.0822 30.7336 90.7999 30.8395 90.5721 31.0537C90.3468 31.2655 90.2187 31.5423 90.1854 31.8793H92.5745C92.5436 31.5231 92.4155 31.2415 92.1949 31.0417C91.9742 30.8371 91.7133 30.7336 91.4167 30.7336H91.4143Z" fill="#070707"/>
<path d="M98.1023 33.2296V30.5122H98.406V33.5256H94.4678V30.5122H94.7643V33.2296H96.285V30.5122H96.5887V33.2296H98.1023Z" fill="#070707"/>
<path d="M101.547 30.4448C101.983 30.4448 102.334 30.6012 102.605 30.9141C102.878 31.227 103.015 31.6001 103.015 32.0285C103.015 32.0357 103.015 32.0598 103.013 32.1007C103.013 32.1416 103.01 32.1657 103.01 32.1729H100.32C100.356 32.5099 100.489 32.7843 100.719 32.9937C100.949 33.1983 101.236 33.3018 101.58 33.3018C101.812 33.3018 102.019 33.2536 102.197 33.1549C102.375 33.0562 102.512 32.9239 102.607 32.753L102.868 32.9094C102.745 33.1188 102.569 33.2849 102.341 33.4077C102.114 33.5304 101.857 33.5906 101.573 33.5906C101.113 33.5906 100.74 33.4438 100.451 33.1501C100.161 32.8565 100.012 32.4762 100.012 32.0165C100.012 31.5568 100.154 31.1933 100.439 30.8949C100.733 30.594 101.103 30.4424 101.549 30.4424L101.547 30.4448ZM101.547 30.7336C101.215 30.7336 100.932 30.8395 100.704 31.0537C100.479 31.2655 100.351 31.5423 100.318 31.8793H102.707C102.676 31.5231 102.548 31.2415 102.327 31.0417C102.107 30.8371 101.846 30.7336 101.549 30.7336H101.547Z" fill="#070707"/>
<path d="M106.752 31.8745V30.5122H107.056V33.5256H106.752V32.1633H104.899V33.5256H104.603V30.5122H104.899V31.8745H106.752Z" fill="#070707"/>
<path d="M109.157 33.0009L111.053 30.5122H111.314V33.5256H111.01V31.0369L109.122 33.5256H108.861V30.5122H109.157V33.0009Z" fill="#070707"/>
<path d="M113.997 30.5122H115.174V33.5256H114.878V32.3511H114.237L113.305 33.5256H112.918L113.869 32.3438C113.625 32.315 113.421 32.2163 113.26 32.0478C113.098 31.8793 113.02 31.6747 113.02 31.434C113.02 31.1645 113.115 30.943 113.305 30.7722C113.49 30.5989 113.722 30.5122 114 30.5122H113.997ZM113.997 32.0598H114.878V30.8058H113.997C113.803 30.8058 113.642 30.866 113.513 30.984C113.385 31.1019 113.321 31.2511 113.321 31.434C113.321 31.617 113.385 31.7734 113.513 31.8889C113.642 32.0045 113.803 32.0598 113.997 32.0598Z" fill="#070707"/>
<path d="M121.893 30.5122V33.2296H122.308V34.3319H122.004V33.5232H119.437V34.3319H119.134V33.2296H119.478C119.696 32.9335 119.805 32.5292 119.805 32.0189V30.5122H121.891H121.893ZM119.85 33.2296H121.592V30.8083H120.106V32.0189C120.106 32.5171 120.021 32.9215 119.85 33.2296Z" fill="#070707"/>
<path d="M124.172 30.5122H126.263V33.5256H125.966V30.8083H124.469V32.2596C124.469 32.7338 124.384 33.0683 124.213 33.2657C124.042 33.463 123.795 33.5497 123.47 33.5256V33.2416C123.712 33.2609 123.888 33.1959 124.002 33.0418C124.116 32.8878 124.17 32.6279 124.17 32.2596V30.5122H124.172Z" fill="#070707"/>
<path d="M128.948 30.5122H130.125V33.5256H129.828V32.3511H129.188L128.255 33.5256H127.869L128.82 32.3438C128.576 32.315 128.372 32.2163 128.21 32.0478C128.049 31.8793 127.971 31.6747 127.971 31.434C127.971 31.1645 128.066 30.943 128.255 30.7722C128.44 30.5989 128.673 30.5122 128.95 30.5122H128.948ZM128.948 32.0598H129.828V30.8058H128.948C128.754 30.8058 128.592 30.866 128.464 30.984C128.336 31.1019 128.272 31.2511 128.272 31.434C128.272 31.617 128.336 31.7734 128.464 31.8889C128.592 32.0045 128.754 32.0598 128.948 32.0598Z" fill="#070707"/>
<path d="M137.022 31.1934V30.5123H137.325V33.5257H137.022V32.8445C136.891 33.078 136.716 33.2609 136.493 33.3933C136.27 33.5257 136.021 33.5931 135.745 33.5931C135.325 33.5931 134.962 33.4414 134.659 33.1406C134.357 32.8349 134.208 32.4618 134.208 32.019C134.208 31.5761 134.357 31.2054 134.659 30.9046C134.96 30.5989 135.323 30.4473 135.745 30.4473C136.023 30.4473 136.272 30.5123 136.493 30.647C136.713 30.7818 136.891 30.9623 137.022 31.1958V31.1934ZM134.872 32.9288C135.117 33.1767 135.416 33.3018 135.769 33.3018C136.123 33.3018 136.414 33.1767 136.661 32.9288C136.908 32.6808 137.024 32.38 137.024 32.019C137.024 31.6579 136.903 31.3547 136.661 31.1092C136.419 30.8637 136.118 30.7361 135.769 30.7361C135.42 30.7361 135.117 30.8612 134.872 31.1092C134.63 31.3547 134.509 31.6579 134.509 32.019C134.509 32.38 134.63 32.6833 134.872 32.9288Z" fill="#070707"/>
<path d="M140.96 31.9707C141.309 32.0839 141.482 32.3246 141.482 32.6928C141.482 32.9431 141.401 33.1429 141.242 33.2945C141.081 33.4462 140.858 33.5232 140.569 33.5232H139.131V30.5098H140.455C140.732 30.5098 140.948 30.582 141.105 30.7288C141.261 30.8756 141.34 31.0658 141.34 31.2992C141.34 31.6217 141.214 31.8432 140.96 31.9683V31.9707ZM140.455 30.8082H139.427V31.8504H140.455C140.644 31.8504 140.789 31.8047 140.889 31.7108C140.988 31.6193 141.038 31.487 141.038 31.3185C141.038 31.15 140.988 31.0321 140.886 30.943C140.784 30.8539 140.642 30.8082 140.455 30.8082ZM139.427 33.2295H140.569C140.765 33.2295 140.92 33.1814 141.026 33.0851C141.133 32.9888 141.188 32.8541 141.188 32.6808C141.188 32.5075 141.133 32.3799 141.024 32.286C140.915 32.1922 140.763 32.144 140.569 32.144H139.427V33.2295Z" fill="#070707"/>
<path d="M142.533 30.5122H144.993V30.8083H143.911V33.5256H143.615V30.8083H142.533V30.5122Z" fill="#070707"/>
<path d="M147.66 33.5906C147.223 33.5906 146.853 33.439 146.549 33.1381C146.248 32.8324 146.099 32.4594 146.099 32.0165C146.099 31.5737 146.248 31.203 146.549 30.9021C146.851 30.5965 147.221 30.4448 147.66 30.4448C148.099 30.4448 148.457 30.5965 148.758 30.9021C149.062 31.203 149.216 31.5761 149.216 32.0165C149.216 32.457 149.064 32.8276 148.758 33.1381C148.452 33.439 148.087 33.5906 147.66 33.5906ZM146.763 32.9287C147.007 33.1766 147.306 33.3018 147.66 33.3018C148.013 33.3018 148.305 33.1766 148.552 32.9287C148.798 32.6808 148.915 32.38 148.915 32.0189C148.915 31.6579 148.794 31.3546 148.552 31.1091C148.31 30.8636 148.008 30.7361 147.66 30.7361C147.311 30.7361 147.007 30.8612 146.763 31.1091C146.521 31.3546 146.4 31.6579 146.4 32.0189C146.4 32.38 146.521 32.6832 146.763 32.9287Z" fill="#070707"/>
<path d="M152.113 33.5979C151.688 33.5979 151.332 33.4559 151.043 33.1695C150.758 32.8807 150.616 32.5076 150.616 32.0479C150.616 31.5449 150.687 31.1574 150.829 30.8854C150.979 30.6038 151.278 30.3535 151.726 30.132L152.034 29.9924C152.326 29.8673 152.502 29.7903 152.556 29.7566C152.687 29.6844 152.786 29.6097 152.853 29.5303C152.919 29.4509 152.962 29.3498 152.979 29.2271L153.216 29.3667C153.173 29.5905 153.055 29.7686 152.865 29.8962C152.782 29.9491 152.692 30.0021 152.592 30.0598C152.514 30.1032 152.393 30.1585 152.236 30.2235L151.885 30.3751C151.588 30.5123 151.373 30.6567 151.237 30.8084C151.102 30.96 151.012 31.1718 150.964 31.4414C151.1 31.2296 151.275 31.0659 151.494 30.9528C151.712 30.8397 151.94 30.7843 152.177 30.7843C152.573 30.7843 152.9 30.9167 153.164 31.1814C153.425 31.4462 153.555 31.7832 153.555 32.1947C153.555 32.6063 153.418 32.936 153.145 33.2008C152.879 33.4656 152.535 33.5979 152.11 33.5979H152.113ZM152.113 33.2971C152.445 33.2971 152.718 33.1936 152.934 32.989C153.147 32.7772 153.254 32.51 153.254 32.1923C153.254 31.8746 153.152 31.6002 152.945 31.3908C152.739 31.1814 152.473 31.0779 152.144 31.0779C151.842 31.0779 151.572 31.1742 151.33 31.3668C151.093 31.5593 150.962 31.8096 150.938 32.1129C150.938 32.4547 151.05 32.7387 151.271 32.9625C151.489 33.184 151.769 33.2947 152.113 33.2947V33.2971Z" fill="#070707"/>
<path d="M155.399 33.0009L157.294 30.5122H157.555V33.5256H157.251V31.0369L155.363 33.5256H155.102V30.5122H155.399V33.0009Z" fill="#070707"/>
<path d="M160.786 31.9708C160.964 32.031 161.104 32.1272 161.201 32.2596C161.301 32.392 161.351 32.546 161.351 32.7169C161.351 32.9696 161.253 33.179 161.056 33.3427C160.859 33.5088 160.594 33.5906 160.257 33.5906C159.664 33.5906 159.277 33.3547 159.099 32.8806L159.355 32.7289C159.481 33.1116 159.782 33.3018 160.259 33.3018C160.504 33.3018 160.698 33.2464 160.838 33.1357C160.978 33.025 161.049 32.8806 161.049 32.6977C161.049 32.534 160.99 32.3992 160.871 32.2981C160.753 32.197 160.594 32.1441 160.397 32.1441H159.986V31.848H160.283C160.477 31.848 160.629 31.7975 160.741 31.6964C160.852 31.5953 160.907 31.4605 160.907 31.292C160.907 31.1236 160.843 30.9984 160.715 30.8925C160.587 30.7866 160.416 30.7337 160.207 30.7337C159.804 30.7337 159.536 30.8973 159.405 31.2222L159.156 31.0778C159.244 30.8805 159.377 30.7264 159.555 30.6133C159.733 30.5002 159.951 30.4448 160.207 30.4448C160.508 30.4448 160.75 30.5267 160.931 30.6927C161.113 30.854 161.203 31.0514 161.203 31.2824C161.203 31.6073 161.066 31.836 160.788 31.9684L160.786 31.9708Z" fill="#070707"/>
<path d="M165.044 31.8745V30.5122H165.348V33.5256H165.044V32.1633H163.192V33.5256H162.895V30.5122H163.192V31.8745H165.044Z" fill="#070707"/>
<path d="M168.49 30.4448C168.926 30.4448 169.277 30.6012 169.548 30.9141C169.82 31.227 169.958 31.6001 169.958 32.0285C169.958 32.0357 169.958 32.0598 169.956 32.1007C169.956 32.1416 169.953 32.1657 169.953 32.1729H167.263C167.299 32.5099 167.431 32.7843 167.662 32.9937C167.892 33.1983 168.179 33.3018 168.523 33.3018C168.755 33.3018 168.962 33.2536 169.14 33.1549C169.318 33.0562 169.455 32.9239 169.55 32.753L169.811 32.9094C169.688 33.1188 169.512 33.2849 169.284 33.4077C169.057 33.5304 168.8 33.5906 168.516 33.5906C168.055 33.5906 167.683 33.4438 167.393 33.1501C167.104 32.8565 166.955 32.4762 166.955 32.0165C166.955 31.5568 167.097 31.1933 167.382 30.8949C167.676 30.594 168.046 30.4424 168.492 30.4424L168.49 30.4448ZM168.49 30.7336C168.157 30.7336 167.875 30.8395 167.647 31.0537C167.422 31.2655 167.294 31.5423 167.261 31.8793H169.65C169.619 31.5231 169.491 31.2415 169.27 31.0417C169.049 30.8371 168.788 30.7336 168.492 30.7336H168.49Z" fill="#070707"/>
<path d="M172.902 33.5906C172.454 33.5906 172.084 33.4389 171.785 33.1381C171.488 32.8372 171.339 32.4642 171.339 32.0165C171.339 31.5688 171.488 31.1957 171.785 30.8949C172.081 30.594 172.454 30.4424 172.902 30.4424C173.192 30.4424 173.453 30.5122 173.688 30.6494C173.922 30.7866 174.091 30.9767 174.198 31.2126L173.953 31.357C173.865 31.1644 173.728 31.0128 173.54 30.8997C173.353 30.7866 173.14 30.7312 172.902 30.7312C172.549 30.7312 172.25 30.8564 172.006 31.1043C171.764 31.3498 171.643 31.653 171.643 32.0141C171.643 32.3751 171.764 32.6856 172.006 32.9311C172.248 33.1766 172.546 33.2993 172.902 33.2993C173.14 33.2993 173.353 33.244 173.54 33.1309C173.728 33.0177 173.873 32.8661 173.972 32.6736L174.221 32.8252C174.103 33.0587 173.925 33.244 173.688 33.3836C173.45 33.5232 173.189 33.5906 172.902 33.5906Z" fill="#070707"/>
<path d="M178.349 31.1934V30.5123H178.653V33.5257H178.349V32.8445C178.219 33.078 178.043 33.2609 177.82 33.3933C177.597 33.5257 177.348 33.5931 177.073 33.5931C176.653 33.5931 176.29 33.4414 175.986 33.1406C175.685 32.8349 175.536 32.4618 175.536 32.019C175.536 31.5761 175.685 31.2054 175.986 30.9046C176.288 30.5989 176.651 30.4473 177.073 30.4473C177.351 30.4473 177.6 30.5123 177.82 30.647C178.041 30.7818 178.219 30.9623 178.349 31.1958V31.1934ZM176.2 32.9288C176.444 33.1767 176.743 33.3018 177.097 33.3018C177.45 33.3018 177.742 33.1767 177.989 32.9288C178.235 32.6808 178.352 32.38 178.352 32.019C178.352 31.6579 178.231 31.3547 177.989 31.1092C177.747 30.8637 177.445 30.7361 177.097 30.7361C176.748 30.7361 176.444 30.8612 176.2 31.1092C175.958 31.3547 175.837 31.6579 175.837 32.019C175.837 32.38 175.958 32.6833 176.2 32.9288Z" fill="#070707"/>
</g>
<defs>
<linearGradient id="paint0_linear_14_7099" x1="0.23487" y1="-6.7561" x2="34.5522" y2="44.1142" gradientUnits="userSpaceOnUse">
<stop stop-color="#AACC19"/>
<stop offset="1" stop-color="#4B8125"/>
</linearGradient>
<linearGradient id="paint1_linear_14_7099" x1="-3.61075" y1="-4.16128" x2="30.7066" y2="46.709" gradientUnits="userSpaceOnUse">
<stop stop-color="#AACC19"/>
<stop offset="1" stop-color="#4B8125"/>
</linearGradient>
<linearGradient id="paint2_linear_14_7099" x1="-17.9376" y1="5.5047" x2="16.3821" y2="56.3725" gradientUnits="userSpaceOnUse">
<stop stop-color="#AACC19"/>
<stop offset="1" stop-color="#4B8125"/>
</linearGradient>
<clipPath id="clip0_14_7099">
<rect width="180" height="42" fill="white"/>
</clipPath>
</defs>
</svg>
