<svg width="20" height="9" viewBox="0 0 20 9" fill="none" xmlns="http://www.w3.org/2000/svg">
<path d="M14.5573 0C13.1467 0 11.7607 0.881333 10.6913 1.808C10.9589 2.1002 11.214 2.40358 11.456 2.71733C11.5707 2.86867 11.738 3.07333 11.9447 3.30533C12.7687 2.58267 13.7373 1.94267 14.5573 1.94267C15.9507 1.94267 17.084 3.076 17.084 4.46933C17.084 5.86267 15.9507 6.996 14.5573 6.996C12.9993 6.996 10.9013 4.692 10.2893 3.884C9.98933 3.48667 7.27533 0 4.47 0C2.00533 0 0 2.00533 0 4.47C0 6.93467 2.00533 8.93933 4.47 8.93933C5.84 8.93933 7.18533 8.10733 8.24133 7.21C7.94736 6.89351 7.66817 6.5636 7.40467 6.22133C7.27164 6.04854 7.13289 5.88023 6.98867 5.71667C6.186 6.40467 5.25933 6.996 4.47 6.996C3.07667 6.996 1.94333 5.86267 1.94333 4.46933C1.94333 3.076 3.07667 1.94267 4.47 1.94267C6.02867 1.94267 8.126 4.24667 8.738 5.05467C9.038 5.452 11.752 8.93867 14.5573 8.93867C15.7423 8.93743 16.8784 8.46616 17.7163 7.62827C18.5542 6.79037 19.0254 5.6543 19.0267 4.46933C19.0256 3.28432 18.5544 2.14814 17.7165 1.31021C16.8785 0.472274 15.7423 0.00105915 14.5573 0Z" fill="#89B21D"/>
</svg>
