<svg width="25" height="25" viewBox="0 0 25 25" fill="none" xmlns="http://www.w3.org/2000/svg">
<rect width="25" height="25" rx="5" fill="#FAD61A"/>
<path fill-rule="evenodd" clip-rule="evenodd" d="M14.3915 19.1291C13.2665 20.6726 12.3525 21.0525 11.5322 21.0525C10.1963 21.0525 9.68073 20.2214 9.68073 19.3428C9.68073 18.9629 9.79791 18.4404 9.86822 18.1317L11.79 10.3192H9.5375C9.48779 10.3194 9.4387 10.308 9.39401 10.2859C9.34931 10.2639 9.31018 10.2318 9.27964 10.192C9.24909 10.1523 9.22794 10.106 9.21779 10.0567C9.20764 10.0074 9.20878 9.95638 9.22111 9.90759L9.33308 9.46696C9.35457 9.38134 9.39985 9.30376 9.46354 9.24343C9.52724 9.1831 9.60668 9.14255 9.69244 9.1266L14.0543 8.31791C14.1614 8.29771 14.2719 8.30516 14.3754 8.33955C14.479 8.37395 14.5724 8.43419 14.6469 8.51474C14.7215 8.59528 14.7749 8.69354 14.8021 8.80046C14.8294 8.90739 14.8297 9.01954 14.8029 9.1266L12.3838 18.9497C12.3682 19.0134 12.3753 19.0806 12.4039 19.1395C12.4325 19.1984 12.4807 19.2452 12.54 19.2716C12.6011 19.2991 12.6693 19.3062 12.7347 19.2917C12.8 19.2772 12.8591 19.242 12.9033 19.1911L14.8238 16.9761C14.9043 16.8829 15.0161 16.8232 15.1375 16.8086C15.259 16.794 15.3814 16.8255 15.4813 16.8969C15.5285 16.931 15.5686 16.9742 15.599 17.0242C15.6295 17.0741 15.6499 17.1297 15.6588 17.1877C15.6678 17.2457 15.6653 17.305 15.6513 17.362C15.6374 17.419 15.6123 17.4726 15.5777 17.5196L14.3915 19.1291ZM15.7196 5.77573C15.5321 6.60685 14.829 7.15302 13.9149 7.15302C12.954 7.15302 12.4384 6.53561 12.4384 5.87072C12.4417 5.68657 12.4652 5.50337 12.5088 5.32455C12.6962 4.49343 13.3993 3.94727 14.3134 3.94727C15.2743 3.94727 15.7899 4.56467 15.7899 5.22957C15.7899 5.37204 15.7664 5.58576 15.7196 5.77573Z" fill="white"/>
</svg>
