<svg width="16" height="16" viewBox="0 0 16 16" fill="none" xmlns="http://www.w3.org/2000/svg">
<path fill-rule="evenodd" clip-rule="evenodd" d="M0.544967 2.73005C0 3.79961 0 5.19974 0 8C0 10.8003 0 12.2004 0.544967 13.27C1.02433 14.2108 1.78924 14.9757 2.73005 15.455C3.79961 16 5.19974 16 8 16C10.8003 16 12.2004 16 13.27 15.455C14.2108 14.9757 14.9757 14.2108 15.455 13.27C16 12.2004 16 10.8003 16 8C16 5.19974 16 3.79961 15.455 2.73005C14.9757 1.78924 14.2108 1.02433 13.27 0.544967C12.2004 0 10.8003 0 8 0C5.19974 0 3.79961 0 2.73005 0.544967C1.78924 1.02433 1.02433 1.78924 0.544967 2.73005ZM7.06009 8.92985H8.83691C8.83691 8.73178 8.90987 8.5337 9.05579 8.33562C9.2103 8.13755 9.39056 7.94773 9.59657 7.76616C9.81116 7.57634 10.0215 7.37827 10.2275 7.17194C10.4421 6.95736 10.6223 6.70151 10.7682 6.4044C10.9227 6.09904 11 5.77717 11 5.43879C11 4.6795 10.7124 4.08528 10.1373 3.65612C9.56223 3.21871 8.88841 3 8.11588 3C7.41202 3 6.78112 3.16919 6.22318 3.50757C5.66524 3.84594 5.25751 4.31637 5 4.91884L6.51931 5.76066C6.81974 5.02613 7.33047 4.65887 8.0515 4.65887C8.4206 4.65887 8.70815 4.73728 8.91416 4.89409C9.12017 5.05089 9.22318 5.27373 9.22318 5.56259C9.22318 6.02476 8.86266 6.53645 8.14163 7.09766C7.84979 7.3205 7.59657 7.59697 7.38197 7.9271C7.16738 8.25722 7.06009 8.59147 7.06009 8.92985ZM8.72103 11.6905C8.93562 11.4842 9.04292 11.2366 9.04292 10.9477C9.04292 10.6589 8.93562 10.4113 8.72103 10.205C8.50644 9.99862 8.24893 9.89546 7.9485 9.89546C7.64807 9.89546 7.39056 9.99862 7.17597 10.205C6.96137 10.4113 6.85408 10.6589 6.85408 10.9477C6.85408 11.2366 6.96137 11.4842 7.17597 11.6905C7.39056 11.8968 7.64807 12 7.9485 12C8.24893 12 8.50644 11.8968 8.72103 11.6905Z" fill="#414141"/>
</svg>
