<?xml version="1.0" encoding="utf-8"?><svg width="372" height="416" fill="none" xmlns="http://www.w3.org/2000/svg" viewBox="0 0 372 416"><path d="M94.152 81.676H14.135v72.666h80.017V81.676z" fill="#FF7E72"/><mask id="aba" style="mask-type:luminance" maskUnits="userSpaceOnUse" x="14" y="81" width="81" height="74"><path d="M94.152 81.676H14.135v72.666h80.017V81.676z" fill="#fff"/></mask><g mask="url(#aba)"><path opacity=".37" d="M94.152 81.676H14.135v72.666h80.017V81.676z" fill="#000"/></g><path d="M71.157 81.676H14.135v72.666h57.022V81.676z" fill="#FF7E72"/><path d="M48.431 81.676H36.179v20.284H48.43V81.676zM65.762 107.885h-14.2v7.249h14.2v-7.249zM59.262 133.704l-14.634-3.622-2.158 8.719 14.634 3.621 2.158-8.718z" fill="#fff"/><path d="M153.783 81.676H73.766v72.666h80.017V81.676z" fill="#FF7E72"/><mask id="abb" style="mask-type:luminance" maskUnits="userSpaceOnUse" x="73" y="81" width="81" height="74"><path d="M153.783 81.676H73.766v72.666h80.017V81.676z" fill="#fff"/></mask><g mask="url(#abb)"><path opacity=".37" d="M153.783 81.676H73.766v72.666h80.017V81.676z" fill="#000"/></g><path d="M130.788 81.676H73.766v72.666h57.022V81.676z" fill="#FF7E72"/><path d="M108.063 81.676H95.811v20.284h12.252V81.676zM125.393 107.885h-14.2v7.249h14.2v-7.249zM118.889 133.708l-14.634-3.622-2.158 8.719 14.634 3.622 2.158-8.719z" fill="#fff"/><path d="M213.414 81.676h-80.018v72.666h80.018V81.676z" fill="#FF7E72"/><mask id="abc" style="mask-type:luminance" maskUnits="userSpaceOnUse" x="133" y="81" width="81" height="74"><path d="M213.414 81.676h-80.018v72.666h80.018V81.676z" fill="#fff"/></mask><g mask="url(#abc)"><path opacity=".37" d="M213.414 81.676h-80.018v72.666h80.018V81.676z" fill="#000"/></g><path d="M190.419 81.676h-57.023v72.666h57.023V81.676z" fill="#FF7E72"/><path d="M167.694 81.676h-12.253v20.284h12.253V81.676zM185.024 107.885h-14.2v7.249h14.2v-7.249zM178.516 133.712l-14.634-3.621-2.158 8.719 14.634 3.621 2.158-8.719z" fill="#fff"/><path d="M273.045 81.676h-80.018v72.666h80.018V81.676z" fill="#FF7E72"/><mask id="abd" style="mask-type:luminance" maskUnits="userSpaceOnUse" x="193" y="81" width="81" height="74"><path d="M273.045 81.676h-80.018v72.666h80.018V81.676z" fill="#fff"/></mask><g mask="url(#abd)"><path opacity=".37" d="M273.045 81.676h-80.018v72.666h80.018V81.676z" fill="#000"/></g><path d="M250.049 81.676h-57.022v72.666h57.022V81.676z" fill="#FF7E72"/><path d="M227.325 81.676h-12.253v20.284h12.253V81.676zM244.655 107.885h-14.2v7.249h14.2v-7.249zM238.153 133.717l-14.634-3.622-2.158 8.719 14.634 3.622 2.158-8.719z" fill="#fff"/><path d="M94.152 181.371H14.135v72.666h80.017v-72.666z" fill="#FF7E72"/><mask id="abe" style="mask-type:luminance" maskUnits="userSpaceOnUse" x="14" y="181" width="81" height="74"><path d="M94.152 181.371H14.135v72.666h80.017v-72.666z" fill="#fff"/></mask><g mask="url(#abe)"><path opacity=".37" d="M94.152 181.371H14.135v72.666h80.017v-72.666z" fill="#000"/></g><path d="M71.157 181.371H14.135v72.666h57.022v-72.666z" fill="#FF7E72"/><path d="M48.431 181.371H36.179v20.284H48.43v-20.284zM65.762 207.581h-14.2v7.248h14.2v-7.248zM59.248 233.396l-14.634-3.622-2.157 8.719 14.633 3.622 2.158-8.719z" fill="#fff"/><path d="M153.783 181.371H73.766v72.666h80.017v-72.666z" fill="#FF7E72"/><mask id="abf" style="mask-type:luminance" maskUnits="userSpaceOnUse" x="73" y="181" width="81" height="74"><path d="M153.783 181.371H73.766v72.666h80.017v-72.666z" fill="#fff"/></mask><g mask="url(#abf)"><path opacity=".37" d="M153.783 181.371H73.766v72.666h80.017v-72.666z" fill="#000"/></g><path d="M130.788 181.371H73.766v72.666h57.022v-72.666z" fill="#FF7E72"/><path d="M108.063 181.371H95.811v20.284h12.252v-20.284zM125.393 207.581h-14.2v7.248h14.2v-7.248zM118.885 233.4l-14.634-3.622-2.158 8.719 14.634 3.622 2.158-8.719z" fill="#fff"/><path d="M213.414 181.371h-80.018v72.666h80.018v-72.666z" fill="#FF7E72"/><mask id="abg" style="mask-type:luminance" maskUnits="userSpaceOnUse" x="133" y="181" width="81" height="74"><path d="M213.414 181.371h-80.018v72.666h80.018v-72.666z" fill="#fff"/></mask><g mask="url(#abg)"><path opacity=".37" d="M213.414 181.371h-80.018v72.666h80.018v-72.666z" fill="#000"/></g><path d="M190.419 181.371h-57.023v72.666h57.023v-72.666z" fill="#FF7E72"/><path d="M167.694 181.371h-12.253v20.284h12.253v-20.284zM185.024 207.581h-14.2v7.248h14.2v-7.248zM178.512 233.404l-14.634-3.621-2.158 8.719 14.634 3.621 2.158-8.719z" fill="#fff"/><path d="M273.045 181.371h-80.018v72.666h80.018v-72.666z" fill="#FF7E72"/><mask id="abh" style="mask-type:luminance" maskUnits="userSpaceOnUse" x="193" y="181" width="81" height="74"><path d="M273.045 181.371h-80.018v72.666h80.018v-72.666z" fill="#fff"/></mask><g mask="url(#abh)"><path opacity=".37" d="M273.045 181.371h-80.018v72.666h80.018v-72.666z" fill="#000"/></g><path d="M250.049 181.371h-57.022v72.666h57.022v-72.666z" fill="#FF7E72"/><path d="M227.325 181.371h-12.253v20.284h12.253v-20.284zM244.655 207.581h-14.2v7.248h14.2v-7.248zM238.139 233.409l-14.634-3.622-2.158 8.719 14.634 3.622 2.158-8.719z" fill="#fff"/><path d="M94.152 281.066H14.135v72.666h80.017v-72.666z" fill="#FF7E72"/><mask id="abi" style="mask-type:luminance" maskUnits="userSpaceOnUse" x="14" y="281" width="81" height="73"><path d="M94.152 281.066H14.135v72.666h80.017v-72.666z" fill="#fff"/></mask><g mask="url(#abi)"><path opacity=".37" d="M94.152 281.066H14.135v72.666h80.017v-72.666z" fill="#000"/></g><path d="M71.157 281.066H14.135v72.666h57.022v-72.666z" fill="#FF7E72"/><path d="M48.431 281.066H36.179v20.284H48.43v-20.284zM65.762 307.276h-14.2v7.249h14.2v-7.249zM59.244 333.088l-14.634-3.621-2.157 8.719 14.634 3.621 2.157-8.719z" fill="#fff"/><path d="M153.783 281.066H73.766v72.666h80.017v-72.666z" fill="#FF7E72"/><mask id="abj" style="mask-type:luminance" maskUnits="userSpaceOnUse" x="73" y="281" width="81" height="73"><path d="M153.783 281.066H73.766v72.666h80.017v-72.666z" fill="#fff"/></mask><g mask="url(#abj)"><path opacity=".37" d="M153.783 281.066H73.766v72.666h80.017v-72.666z" fill="#000"/></g><path d="M130.788 281.066H73.766v72.666h57.022v-72.666z" fill="#FF7E72"/><path d="M108.063 281.066H95.811v20.284h12.252v-20.284zM125.393 307.276h-14.2v7.249h14.2v-7.249zM118.881 333.093l-14.634-3.622-2.158 8.719 14.634 3.622 2.158-8.719z" fill="#fff"/><path d="M213.414 281.066h-80.018v72.666h80.018v-72.666z" fill="#FF7E72"/><mask id="abk" style="mask-type:luminance" maskUnits="userSpaceOnUse" x="133" y="281" width="81" height="73"><path d="M213.414 281.066h-80.018v72.666h80.018v-72.666z" fill="#fff"/></mask><g mask="url(#abk)"><path opacity=".37" d="M213.414 281.066h-80.018v72.666h80.018v-72.666z" fill="#000"/></g><path d="M190.419 281.066h-57.023v72.666h57.023v-72.666z" fill="#FF7E72"/><path d="M167.694 281.066h-12.253v20.284h12.253v-20.284zM185.024 307.276h-14.2v7.249h14.2v-7.249zM178.508 333.097l-14.634-3.622-2.158 8.719 14.634 3.622 2.158-8.719z" fill="#fff"/><path d="M273.045 281.066h-80.018v72.666h80.018v-72.666z" fill="#FF7E72"/><mask id="abl" style="mask-type:luminance" maskUnits="userSpaceOnUse" x="193" y="281" width="81" height="73"><path d="M273.045 281.066h-80.018v72.666h80.018v-72.666z" fill="#fff"/></mask><g mask="url(#abl)"><path opacity=".37" d="M273.045 281.066h-80.018v72.666h80.018v-72.666z" fill="#000"/></g><path d="M250.049 281.066h-57.022v72.666h57.022v-72.666z" fill="#FF7E72"/><path d="M227.325 281.066h-12.253v20.284h12.253v-20.284zM244.655 307.276h-14.2v7.249h14.2v-7.249zM238.135 333.101l-14.634-3.622-2.158 8.719 14.634 3.622 2.158-8.719z" fill="#fff"/><path d="M280.451 54.972H.931v13.044h279.52V54.972zM280.451 151.873H.931v13.044h279.52v-13.044zM280.451 248.763H.931v13.044h279.52v-13.044zM280.451 345.664H.931v13.044h279.52v-13.044z" fill="#A3A3A3"/><path d="M333.56 0h-12.113v395.986h12.113V0zM75.47 0H63.357v395.986H75.47V0z" fill="#7A7A7A"/><path d="M330.765 54.972H273.93v13.044h56.835V54.972zM330.765 151.873H273.93v13.044h56.835v-13.044zM330.765 248.763H273.93v13.044h56.835v-13.044zM330.765 345.664H273.93v13.044h56.835v-13.044z" fill="#757575"/><path d="M12.113 0H0v395.986h12.113V0zM146.282 0H134.17v395.986h12.112V0zM280.451 0h-12.112v395.986h12.112V0z" fill="#A3A3A3"/><path d="M240.339 174.234h127.755c2.029 0 3.668 4.592 3.668 10.259v219.879H236.661V184.493c0-5.667 1.639-10.259 3.668-10.259h.01z" fill="#fff"/><path d="M239.136 173.302h126.108c1.537 0 2.791 1.735 2.791 3.876v5.442H235.729v-4.6c0-2.606 1.517-4.718 3.388-4.718h.019z" fill="#EBEBEB"/><path d="M244.802 179.198c0 .709-.577 1.29-1.303 1.29a1.288 1.288 0 01-1.303-1.29 1.29 1.29 0 011.303-1.291c.716 0 1.303.572 1.303 1.291zM248.65 179.198c0 .709-.577 1.29-1.302 1.29a1.295 1.295 0 01-1.303-1.29c0-.71.577-1.291 1.303-1.291.715 0 1.292.572 1.292 1.281l.01.01zM252.33 179.198c0 .709-.577 1.29-1.303 1.29a1.288 1.288 0 01-1.302-1.29c0-.719.576-1.291 1.302-1.291.716 0 1.303.572 1.303 1.291z" fill="#E0E0E0"/><path d="M357.195 312.394l-112.393.325.228 76.44 93.162-.256 12.639-.039 6.592-.02-.228-76.45z" fill="#F5F5F5"/><path d="M253.453 380.953c-.139 0-.278-12.965-.328-28.965-.05-15.999 0-28.974.159-28.974s.278 12.965.328 28.974c.05 16.01-.02 28.965-.159 28.965z" fill="#263238"/><path d="M350.961 372.707c0 .138-21.916.316-48.953.384-27.037.069-48.952 0-48.952-.098 0-.099 21.915-.305 48.952-.384 27.037-.079 48.953-.03 48.953.098zM350.94 364.175c0 .138-21.926.315-48.952.394-27.027.079-48.953 0-48.953-.108 0-.109 21.916-.306 48.953-.384 27.036-.079 48.952 0 48.952.098zM350.921 355.713c0 .138-21.926.305-48.953.384-27.026.079-48.952 0-48.962-.098-.01-.099 21.916-.316 48.962-.395 27.057-.078 48.953-.019 48.953.109zM350.89 347.21c0 .138-21.915.306-48.942.385-27.027.078-48.963 0-48.963-.099 0-.098 21.916-.315 48.953-.394 27.037-.079 48.952-.02 48.952.108zM350.861 338.708c0 .138-21.916.306-48.952.384-27.037.079-48.953 0-48.953-.098 0-.099 21.916-.305 48.953-.384 27.036-.079 48.952-.03 48.952.098zM350.842 330.206c0 .138-21.916.306-48.953.385-27.037.078-48.952 0-48.952-.099s21.915-.305 48.952-.384c27.037-.079 48.953-.03 48.953.098zM350.821 321.665c0 .138-21.926.315-48.952.394-27.027.079-48.953 0-48.953-.109 0-.108 21.916-.305 48.953-.384 27.036-.079 48.952.01 48.952.099z" fill="#EBEBEB"/><path d="M266.649 367.711l-7.02.019.037 13.241 7.02-.019-.037-13.241zM317.649 367.56l-7.02.02.037 13.24 7.02-.019-.037-13.241zM280.458 357.882l-7.02.02.068 22.985 7.021-.021-.069-22.984zM306.1 351.869l-7.02.019.082 28.964 7.02-.019-.082-28.964zM293.413 334.268l-7.02.021.139 46.569 7.02-.02-.139-46.57zM330.138 343.743h-7.02v37.959h7.02v-37.959z" fill="#AACC19"/><path d="M339.684 380.716c0 .138-19.271.306-43.026.365-23.755.069-43.036 0-43.036-.118 0-.119 19.261-.296 43.036-.355 23.775-.069 43.026-.02 43.026.108z" fill="#263238"/><path d="M245.14 191.936v51.427H357.423v-51.427H245.14z" fill="#F5F5F5"/><path d="M253.035 227.462v1.625h-.169v-1.477h-.378v-.148h.557-.01zM253.423 228.269c0-.512.278-.827.656-.827s.656.305.656.827c0 .523-.278.828-.656.828s-.656-.305-.656-.828zm1.133 0c0-.433-.198-.669-.487-.669-.288 0-.477.236-.477.669 0 .434.199.67.477.67.279 0 .487-.236.487-.67zM253.701 218.841v.148h-1.143v-.118l.686-.66c.189-.177.218-.296.218-.404 0-.187-.139-.305-.387-.305a.598.598 0 00-.448.187l-.119-.099a.75.75 0 01.577-.236c.328 0 .546.167.546.443a.645.645 0 01-.268.512l-.557.542h.895v-.01zM253.9 218.171c0-.512.279-.827.657-.827s.656.315.656.827c0 .513-.278.828-.656.828s-.657-.315-.657-.828zm1.134 0c0-.433-.199-.679-.487-.679-.289 0-.478.236-.478.679 0 .444.199.67.478.67.278 0 .487-.236.487-.67zM253.661 208.418c0 .276-.199.483-.597.483a.886.886 0 01-.586-.207l.079-.128a.714.714 0 00.517.187c.269 0 .418-.118.418-.325 0-.207-.139-.315-.438-.315h-.119v-.109l.457-.561h-.835v-.148h1.034v.118l-.467.572c.358.019.537.197.537.453v-.02zM253.9 208.073c0-.512.279-.827.657-.827s.656.305.656.827-.278.828-.656.828-.657-.306-.657-.828zm1.134 0c0-.433-.199-.67-.487-.67-.289 0-.478.237-.478.67 0 .434.199.67.478.67.278 0 .487-.246.487-.67zM260.264 233.609c0-.512.278-.828.656-.828s.656.316.656.828-.278.827-.656.827-.656-.315-.656-.827zm1.133 0c0-.434-.199-.68-.487-.68s-.477.236-.477.68c0 .443.199.67.477.67.278 0 .487-.247.487-.67zM272.406 232.781v1.626h-.189v-1.478h-.388v-.148h.577zM285.182 234.259v.148h-1.143v-.118l.676-.66c.189-.177.219-.296.219-.404 0-.187-.139-.305-.378-.305a.58.58 0 00-.447.187l-.12-.099a.75.75 0 01.577-.236c.338 0 .547.167.547.443a.643.643 0 01-.269.512l-.556.542h.894v-.01zM297.274 233.944c0 .276-.199.483-.597.483a.888.888 0 01-.586-.207l.079-.138c.14.128.329.197.517.187.279 0 .418-.128.418-.325s-.139-.325-.437-.325h-.15v-.118l.458-.562h-.816v-.147h1.035v.118l-.468.581c.368.02.547.197.547.463v-.01zM309.704 233.984h-.328v.423h-.169v-.423h-.925v-.119l.865-1.073h.189l-.835 1.054h.706v-.375h.169v.375h.328v.147-.009zM321.547 233.934c0 .276-.199.513-.597.513a.888.888 0 01-.587-.207l.08-.138a.714.714 0 00.517.187c.278 0 .427-.138.427-.335s-.129-.335-.546-.335h-.348l.089-.818h.895v.148h-.746l-.059.512h.208c.468-.019.677.178.677.463l-.01.01zM333.788 233.924a.51.51 0 01-.517.512h-.04c-.438 0-.676-.305-.676-.817 0-.513.308-.838.745-.838.14 0 .269.03.388.089l-.069.138a.614.614 0 00-.319-.079c-.348 0-.576.227-.576.67v.138a.531.531 0 01.517-.286.525.525 0 01.547.473zm-.169 0c0-.207-.159-.345-.418-.345a.38.38 0 00-.418.335v.02c0 .177.15.345.438.345a.359.359 0 00.398-.316v-.039zM345.829 232.781v.118l-.696 1.508h-.179l.676-1.478h-.845v.305h-.169v-.453h1.213zM345.918 228.348c0 .089-18.972.158-42.369.158-23.398 0-42.37-.069-42.37-.158s18.962-.158 42.37-.158c23.407 0 42.369.069 42.369.158zM345.918 218.201c0 .088-18.972.157-42.369.157-23.398 0-42.37-.069-42.37-.157 0-.089 18.962-.158 42.37-.158 23.407 0 42.369.069 42.369.158zM345.918 208.054c0 .088-18.972.157-42.369.157-23.398 0-42.37-.069-42.37-.157 0-.089 18.962-.158 42.37-.158 23.407 0 42.369.099 42.369.158z" fill="#263238"/><path d="M261.179 228.201a.558.558 0 01-.547.552.559.559 0 01-.557-.542c-.009-.306.239-.542.547-.552h.01a.526.526 0 01.547.483V228.201zM273.359 228.201a.543.543 0 01-.546.542.537.537 0 01-.547-.542c0-.306.238-.542.547-.542a.525.525 0 01.546.483V228.201zM285.551 228.201a.544.544 0 01-.547.542.537.537 0 01-.547-.542c0-.306.239-.542.547-.542a.526.526 0 01.547.483V228.201zM297.732 228.201a.559.559 0 01-.547.552.546.546 0 01-.557-.542c-.01-.306.239-.542.547-.552h.01a.526.526 0 01.547.483V228.201zM309.912 228.201a.506.506 0 01-.547.482.51.51 0 01-.487-.542.506.506 0 01.517-.482.51.51 0 01.517.512v.03zM334.264 228.201a.557.557 0 01-.547.551.558.558 0 01-.557-.542c-.009-.305.239-.541.547-.551a.54.54 0 01.547.532l.01.01zM322.094 228.201a.55.55 0 01-.547.541.55.55 0 01-.547-.541.55.55 0 01.547-.542h.03a.51.51 0 01.517.512v.03zM346.456 228.201a.544.544 0 01-.547.542.537.537 0 01-.547-.542c0-.306.239-.542.547-.542a.526.526 0 01.547.483V228.201z" fill="#AACC19"/><path d="M266.737 228.348a.355.355 0 01-.358.355.355.355 0 110-.709c.199 0 .358.157.358.354zM278.968 228.348a.355.355 0 01-.358.355.355.355 0 110-.709c.199 0 .358.157.358.354zM291.188 228.348a.355.355 0 01-.378.335.354.354 0 01.01-.709c.199 0 .358.148.358.345v.029h.01zM303.42 228.348a.355.355 0 01-.358.355.355.355 0 110-.709c.199 0 .358.157.358.354zM315.651 228.348c0 .197-.16.355-.358.355a.355.355 0 110-.709c.198 0 .358.157.358.354zM327.881 228.348a.354.354 0 01-.377.335.354.354 0 11.039-.709c.199.01.338.177.329.374h.009zM340.102 228.348a.355.355 0 01-.358.355.355.355 0 110-.709c.199 0 .358.157.358.354z" fill="#E0E0E0"/><path d="M274.155 223.875c0 .729-.596 1.32-1.332 1.32a1.327 1.327 0 01-1.333-1.32c0-.729.597-1.32 1.333-1.32s1.332.591 1.332 1.32zM284.785 217.649c0 .729-.596 1.33-1.332 1.33-.736 0-1.343-.591-1.343-1.32 0-.729.597-1.33 1.333-1.33a1.34 1.34 0 011.342 1.32zM297.971 218.201c0 .729-.597 1.32-1.333 1.32a1.326 1.326 0 01-1.332-1.32c0-.729.596-1.32 1.332-1.32.736 0 1.333.591 1.333 1.32zM310.857 206.901c0 .729-.596 1.32-1.332 1.32a1.327 1.327 0 01-1.333-1.32c0-.729.597-1.32 1.333-1.32s1.332.591 1.332 1.32zM322.89 214.083c0 .729-.597 1.32-1.333 1.32a1.326 1.326 0 01-1.332-1.32c0-.729.596-1.32 1.332-1.32.736 0 1.333.591 1.333 1.32zM335.07 215.994c0 .729-.596 1.32-1.332 1.32a1.327 1.327 0 01-1.333-1.32c0-.729.597-1.32 1.333-1.32s1.332.581 1.332 1.31v.01z" fill="#AACC19"/><path d="M346.455 223.876h-.308a7.37 7.37 0 01-.915-.119 6.928 6.928 0 01-3.172-1.487 6.42 6.42 0 01-1.551-2.01 14.762 14.762 0 00-1.631-2.502 5.428 5.428 0 00-2.754-1.902 3.563 3.563 0 00-1.82.059 5.099 5.099 0 00-1.69.946c-1.034.857-1.8 2.079-2.804 3.192a5.544 5.544 0 01-1.83 1.409 3.804 3.804 0 01-2.406.197 2.99 2.99 0 01-1.83-1.665 11.974 11.974 0 01-.795-2.404 14.2 14.2 0 00-.726-2.453 1.89 1.89 0 00-.786-.926 2.543 2.543 0 00-1.233-.237c-.905.099-1.8.257-2.675.473a7.52 7.52 0 01-1.412.158 3.293 3.293 0 01-1.441-.276 2.926 2.926 0 01-1.134-.946 6.431 6.431 0 01-.696-1.28c-.388-.897-.646-1.833-.994-2.729a6.998 6.998 0 00-.647-1.281 2.264 2.264 0 00-1.034-.867c-.109-.03-.219-.069-.338-.099l-.348-.039c-.229-.01-.447.03-.656.138a2.69 2.69 0 00-.975 1.025 12.241 12.241 0 00-1.133 2.778c-.289.975-.517 1.97-.766 2.975-.388 1.665-.736 3.33-1.173 4.946a25.04 25.04 0 01-.746 2.394 6.166 6.166 0 01-1.263 2.177 1.72 1.72 0 01-1.203.512c-.438 0-.865-.138-1.233-.364a5.907 5.907 0 01-1.73-1.734 20.648 20.648 0 01-2.069-4.207c-.586-1.389-1.243-2.768-2.336-3.724a4.415 4.415 0 00-3.918-.946 6.822 6.822 0 00-1.86.808c-.576.345-1.113.739-1.63 1.172a21.257 21.257 0 00-2.715 2.71 29.401 29.401 0 01-4.027 3.31 19.91 19.91 0 01-4.137 2.217 9.251 9.251 0 01-4.037.669 14.053 14.053 0 01-3.361-.807 32.157 32.157 0 01-4.365-1.981 34.993 34.993 0 01-1.094-.62c-.248-.148-.358-.227-.358-.227l.378.197 1.104.581a33.767 33.767 0 004.375 1.912c1.074.384 2.188.64 3.321.758a8.87 8.87 0 003.948-.679 19.034 19.034 0 004.057-2.207 28.866 28.866 0 003.967-3.301 21.87 21.87 0 012.745-2.758 13.328 13.328 0 011.611-1.182 6.657 6.657 0 011.939-.848 4.686 4.686 0 014.176.995c1.153.995 1.83 2.424 2.416 3.823a20.73 20.73 0 002.069 4.148c.417.65.974 1.211 1.63 1.635.318.207.696.315 1.074.325.368-.02.726-.177.985-.443a6.19 6.19 0 001.193-2.049c.288-.779.527-1.567.736-2.365.427-1.616.775-3.271 1.173-4.946.239-1.024.477-2.009.776-2.994.268-.996.656-1.951 1.163-2.848a3.005 3.005 0 011.104-1.123 1.52 1.52 0 01.805-.167l.398.039c.129.03.259.079.378.109a2.72 2.72 0 011.203.985c.278.423.497.867.676 1.34.358.926.607 1.852.985 2.719.377.867.845 1.724 1.68 2.078.835.355 1.78.247 2.665.099.895-.217 1.81-.374 2.725-.463.477-.03.954.069 1.382.276.407.246.726.62.895 1.054.328.808.576 1.645.735 2.502.169.808.418 1.606.756 2.355.308.729.905 1.29 1.661 1.537a3.451 3.451 0 002.227-.178 5.46 5.46 0 001.74-1.369c.995-1.084 1.77-2.315 2.844-3.202a5.111 5.111 0 011.77-.975 3.768 3.768 0 011.929-.059 5.564 5.564 0 012.844 1.98 15.36 15.36 0 011.631 2.561 6.404 6.404 0 001.501 1.981 6.967 6.967 0 003.103 1.536c.298.069.596.119.895.148.109 0 .208 0 .318.02l.069.03z" fill="#AACC19"/><path d="M274.275 201.098c0 .089-4.723.158-10.56.158-5.837 0-10.57-.069-10.57-.158s4.733-.158 10.57-.158c5.837 0 10.56.069 10.56.158z" fill="#263238"/><path d="M244.802 253.352v51.752h55.585v-51.752h-55.585z" fill="#F5F5F5"/><path d="M272.346 259.214c-9.476 0-17.153 7.605-17.153 16.994s7.677 16.995 17.153 16.995c9.476 0 17.153-7.606 17.153-16.995 0-9.389-7.677-16.994-17.153-16.994zm.259 27.181c-5.817 0-10.541-4.67-10.551-10.433 0-5.763 4.714-10.443 10.531-10.453 5.817-.01 10.54 4.67 10.55 10.433 0 5.773-4.703 10.463-10.53 10.473v-.02z" fill="#263238"/><path d="M272.615 259.214v6.295c5.817 0 10.531 4.67 10.54 10.433 0 1.074-.169 2.138-.497 3.163l6.215 1.675c2.546-9.035-2.774-18.414-11.902-20.945a17.13 17.13 0 00-4.356-.621zM272.605 286.415a10.54 10.54 0 01-2.228-.237c-.268 1.518-.765 4.443-1.163 6.759 1.034.197 2.078.285 3.132.285 7.687 0 14.428-5.083 16.507-12.413l-6.215-1.675c-1.392 4.325-5.439 7.271-10.023 7.281h-.01z" fill="#AACC19"/><path d="M272.605 286.415a10.54 10.54 0 01-2.228-.237c-.268 1.518-.765 4.443-1.163 6.759 1.034.197 2.078.285 3.132.285 7.687 0 14.428-5.083 16.507-12.413l-6.215-1.675c-1.392 4.325-5.439 7.271-10.023 7.281h-.01z" fill="#000" opacity=".3"/><path d="M270.596 275.676c0-1.271.716-2 1.67-2 .955 0 1.671.729 1.671 2s-.706 2-1.671 2c-.964 0-1.67-.719-1.67-2zm2.436 0c0-.877-.308-1.241-.766-1.241-.457 0-.755.364-.755 1.241 0 .877.308 1.242.735 1.242.428 0 .776-.365.776-1.242h.01zM274.314 274.77a.955.955 0 011.064-.857.952.952 0 01.866 1.054.966.966 0 01-.955.867.964.964 0 01-.975-.956v-.108zm1.373 0c0-.414-.159-.621-.408-.621-.249 0-.408.207-.408.621 0 .413.169.611.408.611.239 0 .408-.198.408-.611zm1.919-1.025h.656l-2.665 3.862h-.656l2.665-3.862zm-.637 2.847a.97.97 0 011.064-.867c.537.05.925.522.875 1.054a.97.97 0 01-.974.877.96.96 0 01-.965-.955v-.109zm1.373 0c0-.413-.159-.611-.408-.611-.249 0-.408.198-.408.611 0 .414.169.611.408.611.239 0 .408-.207.408-.611zM286.535 297.488c0 .088-6.354.157-14.189.157-7.836 0-14.19-.069-14.19-.157 0-.089 6.354-.168 14.19-.168 7.835 0 14.189.069 14.189.168zM280.241 300.069c0 .089-3.52.168-7.875.168-4.356 0-7.876-.069-7.876-.168 0-.098 3.52-.157 7.876-.157 4.355 0 7.875.069 7.875.157zM270.109 276.789h-.637v.808h-.875v-.808h-2.098v-.601l1.84-2.443h.944l-1.7 2.325h1.064v-.729h.855v.719h.636l-.019.729h-.01z" fill="#263238"/><path d="M243.239 158.395h116.833a10.3 10.3 0 0110.305 10.305v236.995A10.302 10.302 0 01360.072 416H243.239a10.302 10.302 0 01-10.305-10.305V168.7a10.3 10.3 0 0110.305-10.305zm-6.374 234.985a6.767 6.767 0 006.768 6.768h116.074a6.767 6.767 0 006.769-6.768V181.014a6.767 6.767 0 00-6.769-6.768H243.623a6.768 6.768 0 00-6.768 6.768V393.38h.01z" fill="#455A64"/><path d="M310.498 162.513h-20.187a2.153 2.153 0 00-2.187 2.039 2.111 2.111 0 002.177 2.039h20.187a2.12 2.12 0 002.187-2.039 2.146 2.146 0 00-2.187-2.039h.01zM275.879 162.513a2.004 2.004 0 00-2.04 1.97v.069c0 1.123.917 2.039 2.04 2.039a2.076 2.076 0 002.039-2.039 2.043 2.043 0 00-2.039-2.039zM267.681 166.591a2.04 2.04 0 110-4.078 2.04 2.04 0 010 4.078zM333.118 166.591a2.04 2.04 0 110-4.078 2.04 2.04 0 010 4.078zM324.92 162.513a2.043 2.043 0 00-2.039 2.039 2.075 2.075 0 002.039 2.039c1.123 0 2.04-.916 2.04-2.039a2.004 2.004 0 00-1.971-2.039h-.069z" fill="#263238"/><path d="M357.424 253.352H310.44v21.94h46.984v-21.94z" fill="#AACC19"/><path d="M332.963 253.352H310.44v21.94h22.523v-21.94z" fill="#EBEBEB"/><path d="M329.671 264.327c0 .384-.029.768-.089 1.152-.627 4.306-4.664 7.301-9.009 6.68-4.345-.621-7.368-4.621-6.742-8.926.627-4.305 4.664-7.3 9.009-6.679a7.98 7.98 0 015.748 3.842 7.723 7.723 0 011.083 3.931z" fill="#263238"/><path d="M329.671 264.327c0 .384-.03.769-.089 1.153l-7.886-1.153v-7.881a7.96 7.96 0 016.961 3.94 7.72 7.72 0 011.014 3.941z" fill="#AACC19"/><path d="M327.215 264.327c0 3.025-2.466 5.468-5.519 5.468-3.052 0-5.518-2.443-5.518-5.468 0-3.024 2.466-5.468 5.518-5.468 3.043 0 5.509 2.434 5.519 5.448v.02z" fill="#fff"/><path d="M319.091 265.243l.895-.798a.468.468 0 00.169-.364.496.496 0 00-.129-.325.505.505 0 00-.368-.158.458.458 0 00-.328.128l-.1.079s-.059.029-.079 0a.09.09 0 010-.099l.099-.079a.592.592 0 01.418-.167c.179 0 .348.079.457.207.11.108.169.256.169.414a.634.634 0 01-.208.463l-.766.679h.905s.069.03.069.069c0 .04-.029.069-.069.069h-1.124s-.03-.088 0-.118h-.01zM320.752 265.174s-.03-.069 0-.098c.029-.03.069-.03.099 0a.508.508 0 00.716 0 .527.527 0 00.149-.355.508.508 0 00-.865-.364c-.03.029-.07.029-.099 0l.089-.759v-.049h.895s.07.029.07.069c0 .039-.03.069-.07.069h-.835l-.07.561a.772.772 0 01.328-.079c.169 0 .338.06.458.178a.639.639 0 010 .916.662.662 0 01-.458.187.688.688 0 01-.407-.276zM322.353 263.933a.422.422 0 01.358-.483.426.426 0 01.487.355v.128a.455.455 0 01-.418.493h-.01a.438.438 0 01-.417-.473v-.02zm.706 0a.324.324 0 00-.289-.364c-.159 0-.268.167-.268.364 0 .217.129.374.278.374.15 0 .279-.167.279-.374zm-.448 1.35l1.333-1.803h.059c.03 0 .06.029.06.059l-1.322 1.793h-.06c-.03 0-.06-.029-.06-.059h-.01v.01zm.855-.375a.422.422 0 01.358-.482.425.425 0 01.488.354v.128a.454.454 0 01-.428.483.445.445 0 01-.418-.473v-.01zm.697 0c0-.216-.13-.374-.279-.374-.149 0-.278.168-.278.365a.328.328 0 00.278.364c.169 0 .279-.148.279-.355z" fill="#263238"/><path d="M335.756 258.593h-8.969v.453h8.969v-.453z" fill="#fff"/><path d="M336.711 258.82a.992.992 0 01-.994.985.992.992 0 01-.994-.985c0-.542.447-.986.994-.986.547 0 .994.444.994.986zM341.703 257.992c.208.463.258.976.159 1.468a3.217 3.217 0 01-.676 1.468 1.72 1.72 0 01-1.273.68 1.138 1.138 0 01-.995-.68 2.339 2.339 0 01-.149-1.468c.09-.542.328-1.044.676-1.468.299-.404.756-.65 1.263-.689.438.019.826.285.995.689zm-.527 1.468a1.88 1.88 0 00-.11-1.093.556.556 0 00-.507-.375.87.87 0 00-.656.375 2.221 2.221 0 00-.487 1.093c-.08.365-.05.739.099 1.084.08.217.288.365.517.384a.905.905 0 00.646-.384c.259-.315.428-.69.498-1.084zM345.79 261.303a.435.435 0 01-.408.335h-2.207c-.09 0-.179-.03-.229-.109a.357.357 0 01.099-.483l2.128-1.635c.189-.148.318-.355.368-.591a.651.651 0 00-.487-.778.88.88 0 00-.169-.02.938.938 0 00-.577.207l-.229.167a.332.332 0 01-.467.01l-.01-.01a.378.378 0 01.109-.482l.219-.168a1.787 1.787 0 011.074-.384c.388 0 .756.177.995.483.198.285.278.64.208.985a1.813 1.813 0 01-.686 1.093l-1.352 1.045h1.312c.16-.01.299.098.309.256v.079zM351.527 263.489h-13.304v.7h13.304v-.7zM345.859 265.224h-7.636v.699h7.636v-.699zM350.543 266.958h-12.32v.699h12.32v-.699zM354.391 268.701h-16.168v.7h16.168v-.7zM347.6 270.435h-9.377v.7h9.377v-.7z" fill="#fff"/><path d="M357.424 283.164H310.44v21.94h46.984v-21.94z" fill="#AACC19"/><path d="M332.963 283.164H310.44v21.94h22.523v-21.94z" fill="#EBEBEB"/><path d="M329.681 294.138c-.01 4.355-3.579 7.872-7.974 7.862-4.396-.01-7.945-3.546-7.935-7.901.009-4.354 3.579-7.872 7.974-7.862a7.95 7.95 0 016.881 3.961 7.856 7.856 0 011.054 3.94z" fill="#263238"/><path d="M329.682 294.139c.02 4.354-3.53 7.901-7.915 7.921a8.048 8.048 0 01-5.241-1.921l5.181-6v-7.882c4.395 0 7.955 3.527 7.955 7.882h.02z" fill="#AACC19"/><path d="M327.225 294.139c0 3.024-2.466 5.467-5.519 5.467-3.052 0-5.518-2.443-5.518-5.467 0-3.025 2.466-5.468 5.518-5.468h.01c3.043 0 5.509 2.443 5.509 5.458v.01z" fill="#fff"/><path d="M319.121 294.986s-.02-.069 0-.099c.03-.029.069-.029.099 0a.49.49 0 00.358.148.511.511 0 00.517-.502.503.503 0 00-.149-.365.492.492 0 00-.358-.148.517.517 0 00-.368.148c-.02.02-.059.03-.079 0l.089-.758v-.05h.895s.07.03.07.069c0 .04-.03.069-.07.069h-.835l-.07.562a.772.772 0 01.328-.079c.169 0 .338.059.458.177a.64.64 0 010 .917.653.653 0 01-.925 0l.05-.089h-.01zM320.772 294.985s-.03-.068 0-.098.07-.03.1 0a.49.49 0 00.358.148c.139 0 .268-.05.368-.148a.484.484 0 00.149-.355.503.503 0 00-.149-.364.526.526 0 00-.339-.099.513.513 0 00-.367.148c-.03.03-.07.03-.1 0l.09-.759v-.049h.894s.07.03.07.069c0 .04-.03.069-.07.069h-.835l-.069.562a.75.75 0 01.328-.079c.358.01.646.315.636.67a.625.625 0 01-.179.423.651.651 0 01-.925 0l.04-.138zM322.383 293.745a.421.421 0 01.358-.483.424.424 0 01.487.355v.128a.454.454 0 01-.417.492h-.01a.438.438 0 01-.418-.473v-.019zm.696 0a.33.33 0 00-.278-.365c-.159 0-.279.168-.279.365 0 .216.13.374.289.374.159 0 .268-.167.268-.374zm-.437 1.349l1.332-1.803s.06.03.06.06l-1.333 1.793h-.049c-.03 0-.06-.03-.06-.06h.05v.01zm.855-.374a.418.418 0 01.835 0 .445.445 0 01-.408.483h-.01a.444.444 0 01-.417-.473v-.01zm.696 0c0-.217-.129-.374-.279-.374-.149 0-.278.167-.278.364a.33.33 0 00.278.365c.159 0 .329-.148.329-.355h-.05z" fill="#263238"/><path d="M335.767 288.405h-8.969v.453h8.969v-.453z" fill="#fff"/><path d="M336.721 288.632a.992.992 0 01-.994.985.993.993 0 01-.995-.985c0-.542.448-.986.995-.986.547 0 .994.444.994.986zM341.713 287.804c.199.463.249.975.149 1.468a3.113 3.113 0 01-.676 1.468c-.298.404-.766.65-1.273.679a1.135 1.135 0 01-.994-.679 2.33 2.33 0 01-.159-1.468 3.212 3.212 0 01.676-1.468c.308-.404.766-.65 1.273-.69.437.02.835.286 1.004.69zm-.527 1.468a1.8 1.8 0 00-.119-1.094.558.558 0 00-.507-.374.87.87 0 00-.647.374c-.258.315-.427.69-.487 1.094a1.7 1.7 0 00.099 1.084c.08.216.279.364.508.384a.914.914 0 00.656-.384c.239-.326.398-.69.457-1.084h.04zM346.347 290.287a.424.424 0 01-.398.335h-.06l-.079.463a.435.435 0 01-.408.335.277.277 0 01-.278-.276v-.03l.089-.463h-1.988c-.08 0-.15-.02-.199-.079a.336.336 0 010-.473l2.794-2.817h.258v.059l-.437 2.483h.477c.149-.01.288.098.298.246a.334.334 0 01-.069.217zm-.995-.345l.269-1.517-1.492 1.517h1.223zM348.614 293.301h-10.382v.7h10.382v-.7zM354.401 295.035h-16.169v.7h16.169v-.7zM345.601 296.769h-7.369v.7h7.369v-.7zM351.438 298.513h-13.206v.7h13.206v-.7zM349.926 300.247h-11.694v.699h11.694v-.699z" fill="#fff"/></svg>