<?xml version="1.0" encoding="utf-8"?><svg width="68" height="68" fill="none" xmlns="http://www.w3.org/2000/svg" viewBox="0 0 68 68"><path d="M44.065 35.72c2.73.652 4.407 3.326 3.56 6.187 1.267.212 2.326.791 3.046 1.889.712 1.084.894 2.272.576 3.569l.422.133c3.322 1.055 4.43 5.253 2.078 7.843-1.84 2.027-3.65 4.083-5.5 6.103-2.804 3.063-6.253 5.03-10.267 5.968-3.954.925-7.865.821-11.655-.763-5.168-2.161-8.485-6.013-10.085-11.396-.795-2.673-1.014-5.417-.96-8.192a9.735 9.735 0 00-1.117-4.77c-.657-1.251-1.41-2.453-2.159-3.654-.597-.96-1.021-1.965-1.003-3.117.029-1.87.911-3.223 2.526-4.08 1.599-.847 3.155-.631 4.59.398 1.581 1.134 2.712 2.68 3.716 4.33.455.75.905 1.505 1.412 2.218.647.91 1.23 1.065 2.274.68 1.19-.438 2.188-1.203 3.167-1.983 3.908-3.116 7.398-6.685 10.886-10.256 1.16-1.187 2.265-2.427 3.43-3.609 2.273-2.31 5.96-1.805 7.558 1.014.992 1.75.755 4.088-.642 5.543-1.813 1.888-3.675 3.727-5.517 5.587-.102.104-.199.212-.336.357zM24.402 63.271c.075.05.15.1.226.148 3.681 2.282 7.666 2.925 11.879 2.148 4.44-.82 8.13-2.982 11.032-6.484.263-.317.55-.616.844-.943-2.422-.83-3.64-2.487-3.612-5.049-1.472-.058-2.667-.66-3.57-1.801-.913-1.158-1.164-2.493-.888-3.94-.137-.038-.239-.07-.342-.093-1.786-.414-3.001-1.51-3.543-3.253-.543-1.748-.167-3.362 1.108-4.691 1.43-1.49 2.902-2.936 4.355-4.402 2.128-2.145 4.26-4.287 6.38-6.439 1.2-1.217 1.034-3.123-.34-4.108-1.133-.813-2.536-.608-3.595.475-3.053 3.126-6.097 6.262-9.192 9.345-1.892 1.885-3.901 3.644-6.056 5.223-1.034.757-2.098 1.465-3.362 1.784-.201.052-.403.097-.604.145.012.1.013.156.026.208.519 2.016.072 3.858-.993 5.585-.337.546-.957.696-1.464.38-.5-.311-.627-.936-.304-1.497.08-.14.165-.278.243-.42.951-1.723.875-3.76-.295-5.054-.832-.92-1.495-1.94-2.123-2.996-.84-1.41-1.766-2.75-3.05-3.797-.737-.602-1.538-.98-2.484-.539-.926.432-1.537 1.13-1.585 2.21-.035.808.277 1.502.727 2.149 1.003 1.441 1.9 2.945 2.587 4.57.796 1.882.985 3.86.964 5.88-.033 3.063.417 6.044 1.655 8.867.48 1.092 1.005 2.144 2.034 2.858 1.585 1.097 3.259 1.727 5.188 1.139 1.35-.412 2.415-1.273 3.343-2.315.384-.431.731-.899 1.087-1.357.401-.515 1.035-.622 1.527-.25.443.337.519.989.171 1.49-.108.155-.219.308-.335.457-1.946 2.5-4.237 4.379-7.64 4.366zm21.366-22.706c.003-1.212-.634-2.193-1.624-2.605-.994-.413-1.942-.301-2.737.438-.83.77-1.623 1.583-2.395 2.412a2.633 2.633 0 001.178 4.34c.52.158 1.08.26 1.546-.102a62.177 62.177 0 002.848-2.323c.686-.6 1.145-1.357 1.183-2.16zM42.3 48.083c-.004 1.578.945 2.702 2.168 2.871.591.081 1.108-.016 1.56-.512.824-.906 1.717-1.748 2.577-2.622.905-.919.948-2.214.11-3.129a2.185 2.185 0 00-3.076-.11c-.788.71-1.631 1.36-2.468 2.013-.6.469-.86 1.079-.87 1.49zm7.116 8.111c.367-.139.82-.185 1.084-.435.662-.63 1.271-1.324 1.838-2.042.651-.827.778-1.776.334-2.748-.44-.964-1.219-1.494-2.265-1.575a.865.865 0 00-.595.218c-.749.718-1.471 1.465-2.202 2.203-.727.736-.936 1.762-.55 2.69.397.95 1.337 1.6 2.356 1.69zM12.967 14.045c.27.175.581.31.804.534 2.403 2.402 4.79 4.817 7.182 7.23.665.67 1.33 1.339 1.99 2.012.304.31.375.686.243 1.088-.128.392-.421.623-.822.692-.405.069-.725-.108-1.007-.392-1.848-1.868-3.699-3.735-5.55-5.602-1.195-1.206-2.39-2.413-3.587-3.617-.351-.354-.436-.765-.263-1.226.146-.386.525-.624 1.008-.72h.002zM40.114 13.056c0-2.168-.002-4.336.002-6.504.001-.528.273-.895.738-1.037.436-.132.898-.002 1.133.386.126.208.207.48.208.722.012 4.295.012 8.59.006 12.885 0 .695-.435 1.154-1.041 1.152-.633 0-1.045-.464-1.045-1.183-.002-2.14 0-4.28 0-6.421h-.001zM27.973 14.832c-.519-.02-.85-.327-1-.937-.364-1.468-.726-2.936-1.088-4.403-.665-2.686-1.33-5.37-1.992-8.057-.174-.702.104-1.234.72-1.398.592-.158 1.127.204 1.298.89 1.026 4.128 2.05 8.257 3.07 12.387.227.916-.2 1.547-1.007 1.517z" fill="#4B8125"/><path d="M31.447 19.55c.33.668.61 1.266.926 1.844a.665.665 0 00.412.296c.63.117 1.267.194 1.98.296-.383.386-.694.773-1.077 1.068-.493.38-.61.804-.441 1.393.132.463.167.955.256 1.497-.606-.32-1.183-.608-1.741-.926-.227-.13-.4-.133-.627-.003-.56.32-1.134.608-1.752.936.112-.654.203-1.263.326-1.866.066-.32.005-.54-.245-.775-.44-.412-.827-.878-1.245-1.33.58-.087 1.204-.198 1.833-.268.26-.03.406-.127.515-.364.27-.586.566-1.16.88-1.8v.002zM18.533 6.979c.365.347.697.64.997.96.183.196.373.226.612.17.415-.097.833-.183 1.334-.29-.214.46-.386.86-.586 1.247-.117.225-.135.403.016.631.243.368.44.77.687 1.21-.51-.064-.965-.14-1.424-.167a.694.694 0 00-.47.174c-.328.317-.62.67-.981 1.067-.089-.477-.184-.888-.236-1.305-.038-.302-.16-.479-.453-.585-.388-.142-.759-.336-1.21-.541.449-.25.86-.457 1.246-.705a.71.71 0 00.287-.418c.084-.45.117-.91.18-1.448h.001zM37.055 8.74c-.508.053-.917.112-1.327.135-.268.015-.441.104-.561.36-.189.4-.416.782-.656 1.227-.208-.468-.37-.895-.587-1.29a.83.83 0 00-.456-.362c-.423-.119-.864-.175-1.365-.27.386-.354.738-.657 1.061-.99a.652.652 0 00.172-.438c-.026-.466-.098-.93-.162-1.473.456.264.839.508 1.243.707.14.07.356.085.5.028.42-.167.823-.382 1.31-.615-.1.477-.174.893-.275 1.302-.067.271-.04.475.183.68.305.28.566.607.922.998h-.002z" fill="#4B8125"/></svg>