<?xml version="1.0" encoding="utf-8"?><svg width="24" height="24" fill="none" xmlns="http://www.w3.org/2000/svg" viewBox="0 0 24 24"><path d="M6.668 7.637c-.107 1.14-.182 3.157.49 4.016 0 0-.316-2.216 2.525-4.997 1.143-1.119 1.408-2.642 1.008-3.783-.227-.647-.641-1.182-1.001-1.555A.335.335 0 019.947.75c1.849.083 4.845.596 6.118 3.791.559 1.403.6 2.852.334 4.326-.169.941-.769 3.034.6 3.29.977.184 1.45-.592 1.661-1.15a.333.333 0 01.559-.106c1.65 1.877 1.79 4.088 1.45 5.991-.66 3.679-4.387 6.356-8.088 6.356-4.623 0-8.304-2.645-9.258-7.434-.385-1.933-.19-5.758 2.791-8.458.222-.203.584-.023.554.281z" fill="url(#aqpaint0_radial_301_392)"/><path d="M14.27 14.516c-1.704-2.194-.94-4.697-.522-5.694.056-.131-.094-.255-.212-.175-.733.5-2.235 1.673-2.935 3.325-.947 2.233-.88 3.326-.319 4.661.338.805-.054.975-.25 1.005-.192.03-.368-.097-.509-.23a3.017 3.017 0 01-.832-1.426c-.03-.116-.182-.148-.252-.052-.525.726-.796 1.89-.81 2.713-.04 2.544 2.061 4.607 4.604 4.607 3.204 0 5.538-3.544 3.697-6.506-.534-.863-1.037-1.427-1.66-2.228z" fill="url(#aqpaint1_radial_301_392)"/><defs><radialGradient id="aqpaint0_radial_301_392" cx="0" cy="0" r="1" gradientUnits="userSpaceOnUse" gradientTransform="rotate(-179.751 5.858 11.64) scale(13.2352 21.7163)"><stop offset=".314" stop-color="#FF9800"/><stop offset=".662" stop-color="#FF6D00"/><stop offset=".972" stop-color="#F44336"/></radialGradient><radialGradient id="aqpaint1_radial_301_392" cx="0" cy="0" r="1" gradientUnits="userSpaceOnUse" gradientTransform="rotate(90.579 1.187 11.21) scale(13.8481 10.4217)"><stop offset=".214" stop-color="#FFF176"/><stop offset=".328" stop-color="#FFF27D"/><stop offset=".487" stop-color="#FFF48F"/><stop offset=".672" stop-color="#FFF7AD"/><stop offset=".793" stop-color="#FFF9C4"/><stop offset=".822" stop-color="#FFF8BD" stop-opacity=".804"/><stop offset=".863" stop-color="#FFF6AB" stop-opacity=".529"/><stop offset=".91" stop-color="#FFF38D" stop-opacity=".209"/><stop offset=".941" stop-color="#FFF176" stop-opacity="0"/></radialGradient></defs></svg>