<?xml version="1.0" encoding="utf-8"?><svg width="32" height="32" fill="none" xmlns="http://www.w3.org/2000/svg" viewBox="0 0 32 32"><g clip-path="url(#biclip0_730_5345)"><path d="M24.76 13.94l-2.2-.1c-.1-.24-.2-.48-.3-.73l1.49-1.66c.3-.35.3-.86-.03-1.18l-2.07-2.11c-.3-.31-.85-.35-1.15-.03l-1.63 1.52c-.24-.1-.47-.21-.71-.31l-.1-2.25c-.03-.45-.41-.83-.85-.83h-2.95c-.44 0-.81.35-.85.83l-.1 2.25c-.24.1-.47.21-.71.31l-1.63-1.52c-.34-.31-.85-.31-1.15.03l-2.07 2.11c-.3.31-.34.86-.03 1.18l1.49 1.69c-.1.24-.2.48-.3.73l-2.2.1c-.44.03-.81.41-.81.86v3.01c0 .45.34.83.81.86l2.2.1c.1.24.2.48.3.73l-1.49 1.69c-.3.35-.3.86.03 1.18l2.07 2.11c.3.31.85.35 1.15.03l1.63-1.52c.24.1.47.21.71.31l.1 2.25c.03.45.41.83.85.83h2.95c.44 0 .81-.35.85-.83l.1-2.25c.24-.1.47-.21.71-.31l1.63 1.52c.34.31.85.31 1.15-.03l2.07-2.11c.3-.31.34-.86.03-1.18l-1.49-1.66c.1-.24.2-.48.3-.73l2.2-.1c.44-.03.81-.41.81-.86v-3.01c-.03-.55-.37-.93-.81-.93v.01zm-.92 3.04l-2 .1a.87.87 0 00-.78.66c-.14.52-.34 1-.61 1.49-.2.31-.14.73.1 1.04l1.36 1.52-.95.97-1.49-1.38c-.27-.24-.68-.31-.98-.1-.47.28-.95.48-1.46.62-.37.1-.61.41-.64.8l-.1 2.04h-1.32l-.1-2.04a.887.887 0 00-.64-.8c-.51-.14-.98-.35-1.46-.62-.3-.21-.71-.14-.98.1l-1.49 1.38-.95-.97 1.36-1.52c.24-.28.3-.69.1-1-.27-.48-.47-.97-.61-1.49a.883.883 0 00-.78-.66l-2-.1V15.6l2-.1a.87.87 0 00.78-.66c.14-.52.34-1 .61-1.49.17-.31.14-.73-.1-1l-1.36-1.52.95-.97 1.49 1.38c.27.24.68.31 1.02.1.44-.28.95-.48 1.46-.62.37-.1.61-.41.64-.8l.1-2.04h1.32l.1 2.04c.03.38.27.69.64.8.51.14.98.35 1.46.62.3.21.71.14 1.02-.1l1.49-1.38.95.97-1.36 1.52c-.24.28-.3.69-.1 1 .27.45.47.97.61 1.49.1.38.41.62.78.66l2 .1v1.38h-.08zm-8.2-4.74c-2.2 0-3.96 1.83-3.96 4.05 0 2.22 1.8 4.05 3.96 4.05s3.96-1.83 3.96-4.05c0-2.22-1.76-4.05-3.96-4.05zm0 6.36c-1.25 0-2.27-1.04-2.27-2.32 0-1.28 1.02-2.32 2.27-2.32s2.27 1.04 2.27 2.32c0 1.28-1.02 2.32-2.27 2.32zm14.4-9.06c-.54-1.69-1.46-2.9-2.78-3.67-1.42-.86-2.85-1.69-4.27-2.52-1.42-.83-2.85-1.66-4.27-2.52-.91-.52-1.82-.8-2.84-.83-1.22-.03-2.27.21-3.19.76-.81.48-1.63.93-2.41 1.42-2.03 1.18-4.13 2.42-6.2 3.67-1.97 1.21-3.02 3.08-3.02 5.36-.03 2.25 0 4.53 0 6.74v3.35c0 .66.1 1.28.27 1.8.54 1.59 1.46 2.8 2.74 3.56 1.39.83 2.81 1.66 4.24 2.49 1.42.83 2.85 1.66 4.24 2.49.85.52 1.73.8 2.74.86h.47c1.08 0 2.07-.28 2.95-.8l.03-.03c2.78-1.66 5.66-3.35 8.47-5.01.92-.52 1.66-1.24 2.2-2.21.61-1.07.88-1.97.88-2.94V11.17c-.03-.48-.1-1.07-.27-1.63h.02zm-1.46 12.03c0 .62-.2 1.28-.68 2.08-.37.69-.88 1.21-1.56 1.59-2.85 1.66-5.73 3.35-8.51 5.01l-.07.03c-.71.41-1.49.59-2.44.55-.75-.07-1.39-.28-2-.66-1.42-.83-2.81-1.66-4.24-2.49-1.42-.83-2.81-1.66-4.24-2.49-.95-.55-1.59-1.38-2-2.63-.14-.35-.2-.76-.2-1.25V11.24c0-1.73.71-2.97 2.2-3.91 2.03-1.24 4.13-2.46 6.17-3.67.81-.48 1.63-.93 2.44-1.42.61-.38 1.25-.55 2.07-.55h.2c.75.03 1.42.24 2.07.62 1.42.83 2.85 1.69 4.27 2.52 1.42.83 2.85 1.69 4.3 2.52.95.55 1.59 1.42 2 2.7.1.35.17.76.17 1.18v10.34h.05z" fill="#4B8125"/></g><defs><clipPath id="biclip0_730_5345"><path fill="#fff" d="M0 0h32v32H0z"/></clipPath></defs></svg>