<?xml version="1.0" encoding="utf-8"?><svg width="69" height="68" fill="none" xmlns="http://www.w3.org/2000/svg" viewBox="0 0 69 68"><path d="M5.43 67.868c-.765-.432-.984-1.091-.92-1.945.582-7.709 4.043-13.595 11.075-17.05 2.198-1.082 4.635-1.693 6.98-2.465.638-.21 1.04-.518 1.319-1.138.56-1.244 1.207-2.451 1.733-3.502-.902-1.4-1.722-2.7-2.58-3.974-.112-.167-.416-.241-.645-.284-.752-.142-1.568-.113-2.255-.397-1.53-.63-2.269-1.897-2.362-3.535-.03-.528-.005-1.057-.005-1.59-1.976-.863-2.723-2.394-2.669-4.466.082-3.157-.071-6.328.151-9.473.353-4.954 2.452-9.18 6.067-12.584C25.73 1.312 31.015-.487 37.037.112c5.49.547 9.996 3.056 13.465 7.343 3.034 3.748 4.411 8.09 4.39 12.897-.012 2.475 0 4.95-.002 7.424-.002 2.783-1.626 4.417-4.393 4.422h-2.02c-.376 3.58-1.645 6.763-4.193 9.364.726 1.456 1.422 2.883 2.158 4.288.1.194.393.329.626.408 1.9.65 3.816 1.248 5.706 1.92 5.559 1.978 9.199 5.91 11.376 11.293.834 2.063 1.22 4.23 1.344 6.452.046.854-.16 1.513-.925 1.945H5.43zM46.868 22.55c-.364-.063-.641-.11-.917-.16-1.106-.2-2.227-.346-3.318-.612-3.94-.953-7.407-2.808-10.421-5.522-.19-.17-.502-.32-.741-.299-1.707.151-3.247.76-4.64 1.767-1.41 1.022-2.334 2.461-3.347 3.822-.19.254-.312.646-.285.958.255 2.903.523 5.804.845 8.7.136 1.218.413 2.419.63 3.646 1.217 0 2.32-.013 3.422.008.354.007.532-.094.7-.428.733-1.448 1.95-2.18 3.567-2.226a44.11 44.11 0 012.65 0c2.254.075 3.961 1.806 3.958 3.984-.003 2.173-1.727 3.895-3.981 3.958-.795.023-1.591.003-2.386.007-1.751.006-3.055-.726-3.859-2.309-.07-.136-.222-.32-.343-.325-.797-.029-1.598-.015-2.49-.015 1.226 1.996 2.747 3.48 4.762 4.37 6.31 2.798 12.879-.808 14.62-7.3.59-2.204.798-4.515 1.095-6.789.226-1.724.318-3.464.474-5.24l.005.005zM23.374 48.916c-1.488.498-3.068 1.06-4.667 1.554-4.16 1.282-7.206 3.914-9.327 7.661a16.617 16.617 0 00-2.147 7.05h25.364c-1.72-2.662-3.514-5.18-5.03-7.855-1.528-2.696-2.78-5.546-4.193-8.412v.002zM37.407 65.17h25.38c-.073-.55-.111-1.058-.213-1.553-1.134-5.592-4.04-9.908-9.287-12.357-2.026-.947-4.233-1.505-6.359-2.238a1.857 1.857 0 00-.312-.078c-1.403 2.847-2.647 5.679-4.165 8.356-1.52 2.677-3.315 5.2-5.044 7.872v-.002zm9.448-45.354c.023-.046.057-.084.06-.126.473-4.587-2.425-9.268-6.723-10.984-2.078-.829-4.23-.827-6.392-.767-4.238.118-7.405 2.056-9.473 5.753-.631 1.129-1.04 2.348-1.136 3.665.09 0 .12.01.131 0a6.34 6.34 0 00.284-.277c2.132-2.276 4.766-3.495 7.855-3.814.929-.096 1.641.15 2.327.8 3.666 3.47 8.082 5.265 13.067 5.75zm5.258-1.307c-.354-7.769-7.121-15.822-17.048-15.865-9.898-.041-16.793 7.912-17.183 15.895h2.51c.026-.284.04-.5.062-.715.578-5.635 3.48-9.552 8.72-11.696 2.547-1.04 5.242-.958 7.91-.798 5.67.337 10.533 4.34 11.987 9.821.29 1.095.418 2.234.624 3.358h2.418zM34.924 51.644c-.1.06-.164.083-.207.128-1.429 1.505-2.845 3.021-4.29 4.51-.314.325-.143.53.03.795 1.428 2.175 2.851 4.352 4.28 6.528.076.118.182.216.272.319 1.36-2.041 2.705-4.032 4.02-6.042.85-1.295.831-1.309-.275-2.413-1.277-1.276-2.554-2.55-3.831-3.823l.001-.002zm6.303 2.383s.041-.015.056-.051c.929-2.14 1.855-4.278 2.777-6.422.048-.113.096-.28.05-.374-.56-1.154-1.14-2.298-1.744-3.508l-5.585 5.911c1.516 1.518 2.98 2.98 4.444 4.444h.002zm-12.524.234l4.149-4.389-5.546-5.54c-.405.809-.867 1.71-1.307 2.622-.078.161-.136.4-.075.552.89 2.202 1.803 4.394 2.779 6.755zm-7.645-24.72c-.222-2.815-.44-5.552-.655-8.299h-2.636c0 2.34-.015 4.63.008 6.92.009.815.522 1.328 1.319 1.373.634.036 1.272.006 1.964.006zm28.546-8.329l-.66 8.334c.563 0 1.108.005 1.653 0 1.154-.011 1.637-.496 1.64-1.666.006-2.049.004-4.098 0-6.148 0-.168-.028-.335-.044-.52h-2.591.002zM33.61 37.496c.463 0 .93.027 1.391-.007.77-.053 1.317-.617 1.316-1.315 0-.699-.547-1.279-1.32-1.31a30.628 30.628 0 00-2.648 0c-.772.033-1.317.616-1.315 1.312 0 .7.546 1.259 1.318 1.313.417.03.839.006 1.26.006l-.002.001zM34.904 47.7c.693-.734 1.419-1.501 2.212-2.343h-4.55l2.337 2.343h.001zM20.49 32.225c-.268 1.438.025 2.748 1.458 2.534l-.458-2.534h-1.002.002z" fill="#4B8125"/><path d="M57.348 61.757c-.18-.141-.648-.34-.852-.694-.82-1.407-1.822-2.64-3.06-3.7-.64-.548-.662-1.317-.168-1.88.496-.566 1.237-.62 1.896-.095a13.127 13.127 0 013.58 4.365c.49.961-.112 2-1.394 2.002l-.002.002zM49.578 55.127c-.695-.005-1.312-.631-1.306-1.324.005-.696.63-1.312 1.323-1.307.694.005 1.312.631 1.307 1.324-.005.696-.63 1.312-1.324 1.307z" fill="#4B8125"/></svg>