<?xml version="1.0" encoding="utf-8"?><svg width="75" height="75" fill="none" xmlns="http://www.w3.org/2000/svg" viewBox="0 0 75 75"><path d="M3.409 63.434h0c1.993-.874 3.986-1.75 5.977-2.628h0l.621-.273c2.808-1.235 5.696-2.505 8.544-3.744.512-.224 1.18-.254 1.789-.097 1.58.406 3.232.865 5.05 1.409h.001c.205.062.955.318 1.38.954 4.292 6.415 10.492 10.262 18.44 11.435 4.311.636 8.66.215 12.93-1.254a2.12 2.12 0 01.69-.107c.348 0 .711.07 1.036.212M3.409 63.434L71.16 74.609l.106-.227c-3.035-1.428-6.162-2.777-9.182-4.081l-.003-.001-.002-.001c-.739-.319-1.477-.637-2.213-.958M3.409 63.434c-.432.189-.766.28-1.028.298-.697.044-1.315-.243-1.706-.78-.42-.581-.507-1.377-.207-2.131h0c1.66-4.176 3.424-8.542 5.246-12.977h0c.176-.43.251-.833.204-1.234-.046-.4-.213-.775-.484-1.15-6.784-9.377-6.921-22.028-.344-31.48h0C9.972 6.96 16.913 2.537 25.73.83h0c.887-.173 1.812-.29 2.719-.404l.081-.01h.001c.424-.054.85-.107 1.275-.166h4.296l.012.003h.002l.034.01h.005l.008.003c.148.039.34.09.56.105h0c3.564.248 6.841 1.002 9.74 2.237C55.6 7.35 61.809 15.06 63.485 26.193c.132.88.52 1.498 1.267 2.036 4.83 3.478 7.97 8.019 9.345 13.497.192.774.33 1.592.465 2.395l.003.021h0l.037.22c.048.286.096.574.149.863v3.442a1.35 1.35 0 00-.1.393v.001c-.351 3.888-1.715 7.565-4.057 10.926h0a1.705 1.705 0 00-.275.79c-.028.282.002.581.106.841 1.084 2.721 2.199 5.475 3.285 8.159l.344.848s0 0 0 0l.697 1.724v.841c-.286.738-.701 1.196-1.212 1.411L3.408 63.434zm56.458 5.907l-.1.23.1-.23s0 0 0 0zM4.35 28.791c.23-6.8 3.02-12.6 8.286-17.232 6.493-5.712 14.315-8.052 23.23-6.954 7.158.88 13.178 4.041 17.88 9.388 6.85 7.787 7.793 18.962 2.345 27.802-.485.788-.69 1.307-.562 1.89h0c.104.48.288.84.55 1.104.264.266.623.454 1.105.566.736.17 1.579-.184 2.033-.882h0a27.57 27.57 0 003.914-9.467h0c.026-.124.054-.246.085-.388l.031-.138h0l.387-1.727.108-.48.324.37.905 1.033h0c.19.219.376.424.56.628l.023.025h0c.404.448.79.877 1.154 1.342L4.35 28.791zm0 0l-.008.002-.005.19c-.152 5.694 1.686 10.906 5.45 15.486h0c.425.515.655.975.729 1.434.073.457-.005.94-.25 1.512-.73 1.696-1.422 3.434-2.09 5.116l-.066.164a881 881 0 01-.821 2.058h0c-.073.184-.133.361-.199.558v.002l-.108.318h0l-.489 1.402-.175.503.499-.186 1.389-.518s0 0 0 0l.122-.044.106-.039h.002l.033-.013c.105-.038.19-.07.272-.106m-4.39-27.839l29.263 29.935M8.742 56.63H8.74l-.101-.228.103.228h-.001zm0 0l1.58-.694.896-.392h0l.61-.268a1074.98 1074.98 0 006.594-2.913m0 0c.675-.3 1.305-.314 2.006-.037h0l.093-.233m-2.1.27s0 0 0 0l-.101-.228m.102.228l-.102-.228m2.2-.042l-.091.233.118.047h.002c.883.35 1.81.715 2.767.99h0c7.555 2.169 14.936 1.562 21.926-1.806h0c.635-.307 1.24-.363 1.745-.219.501.144.926.493 1.197 1.043.27.55.287 1.1.095 1.584-.194.487-.609.932-1.24 1.245h0a32.89 32.89 0 01-10.482 3.182h0c-.556.072-1.115.133-1.704.198l-.227.024-.256.029-.755.083m-13.094-6.633c-.764-.3-1.463-.287-2.201.042m2.2-.042l.12.048c.885.35 1.802.71 2.745.982l-5.065-.988m15.295 6.591l.028.249m-.028-.249l.028.249m0 0l-.028-.249-1.527.172-.547.061.407.372 1.136 1.037h0c.116.105.22.203.319.297l.025.023.215-1.713zm0 0l-1.197.134 4.143-.47c-.558.073-1.12.135-1.71.2l-.225.024-.258.028c-.245.027-.495.054-.753.084zm-15.323-6.84c-2.19.98-4.421 1.959-6.593 2.912l-.61.268 7.203-3.18zm46.464-18.294l-.701-.8.04-.179-.244-.055-.188.165.12.138-.319 1.425c-.046.205-.082.363-.115.522l1.407-1.216zm0 0c.191.22.379.427.563.63m-.563-.63l.563.63M68.064 66.7h0l.642 1.592.23.57-.563-.248-1.571-.692h0c-.458-.202-.907-.398-1.349-.59l-.631-.275c-1.493-.648-2.906-1.262-4.308-1.928h0c-.483-.231-.934-.346-1.405-.355-.474-.008-.983.09-1.584.306-3.012 1.082-5.947 1.624-8.796 1.624-5.226 0-10.136-1.824-14.668-5.45h0c-.22-.177-.417-.36-.633-.566L68.064 66.7zm0 0c-.227-.561-.44-1.103-.647-1.631-.459-1.168-.895-2.279-1.386-3.37-.27-.6-.359-1.11-.284-1.598m2.317 6.599L65.747 60.1m0 0c.075-.49.32-.984.772-1.539l-.772 1.539zm-.4-25.63l.023.026-.023-.026zM44.563 2.378C41.635 1.13 38.33.37 34.74.122l9.822 2.256zM6.837 56.809l-.194.073.087.234.236.082.069-.196 1.087-.405.118-.043-1.403.255z" fill="#4B8125" stroke="#fff" stroke-width=".5"/><path d="M31.99 37.32a2.116 2.116 0 001.433-.57c.354-.334.548-.764.557-1.211l.249.005-.25-.005c.02-1.106.366-1.914.862-2.52.492-.6 1.12-.988 1.684-1.274 3.473-1.766 5.487-4.775 5.697-8.48.01-3.41-1.394-6.539-3.847-8.59l.142-.17-.142.17a10 10 0 00-8.264-2.168L31.99 37.32zm0 0l-.102-.004c-1.088-.046-1.93-.91-1.93-1.958v0c0-1.64.363-3.038 1.074-4.197.71-1.159 1.778-2.093 3.211-2.79 2.079-1.012 3.322-2.475 3.757-4.47h0a6.098 6.098 0 00-.983-4.871h0a6.244 6.244 0 00-5.052-2.623c-1.43 0-2.838.518-3.957 1.47l3.981 19.444zm-9.298-13.002h0c.557.36 1.23.414 1.855.145l-1.855-.145zm0 0c-.58-.375-.937-1.034-.95-1.767m.95 1.767l-.95-1.767m0 0c-.078-4.821 3.518-9.144 8.37-10.044l-8.37 10.044zm4.089-.219a6.166 6.166 0 012.177-4.456l-2.177 4.456zm0 0c-.022.583-.138 1.022-.343 1.359m.343-1.359l-.343 1.359m0 0c-.203.332-.507.585-.941.773l.94-.773zM31.816 42.803a2.037 2.037 0 00-2.016 2.052l2.016-2.052zm0 0H31.83c1.117 0 2.028.903 2.037 2.018a2.04 2.04 0 01-2.017 2.054h0-.001 0-.001 0-.001 0-.001 0-.001 0-.001 0-.001 0-.001 0-.001 0-.001 0-.001 0-.001 0-.001 0-.001 0-.001 0c-.536 0-1.04-.209-1.428-.589a2.02 2.02 0 01-.607-1.43l2.016-2.053z" fill="#4B8125" stroke="#fff" stroke-width=".5"/></svg>