<?xml version="1.0" encoding="utf-8"?><svg width="71" height="71" fill="none" xmlns="http://www.w3.org/2000/svg" viewBox="0 0 71 71"><path fill="#fff" d="M2 2h60v60H2z"/><g filter="url(#cffilter0_f_1910_11152)" fill="#89B21D" fill-opacity=".35"><path d="M65.529 10.571v43.123c-.04.09-.08.171-.11.262-.534 1.912-1.833 2.999-3.805 3.16-.473.04-.957 0-1.45 0v6.058c1.248 0 2.476.03 3.704-.01.725-.02 1.299.181 1.661.836v1.52H6.354c-.11-.081-.211-.162-.322-.242-.372-.282-.553-.665-.463-1.127.09-.483.383-.805.866-.916.221-.05.463-.05.694-.06h3.745v-5.978c-.755-.06-1.5-.03-2.194-.192-1.973-.453-3.151-2.063-3.151-4.216V27.126c0-5.173-.03-10.356.03-15.528 0-.906.202-1.892.594-2.707 1.077-2.275 3-3.362 5.506-3.362h47.74c.191 0 .393 0 .584.01 1.65.141 3.02.816 4.127 2.063.765.866 1.087 1.913 1.419 2.97zm-5.395 44.24h.815c1.62 0 2.225-.614 2.225-2.224V16.348H7.884v36.28c0 .19 0 .392.01.583.07.725.584 1.39 1.269 1.51.563.1 1.147.07 1.771.1v-2.968c0-1.158.403-1.56 1.54-1.56h6.684c1.238 0 1.62.382 1.62 1.6v11.251h3.282v-.734V38.97c0-1.258.382-1.65 1.64-1.65h6.502c1.34 0 1.702.362 1.702 1.7v24.103h3.28v-.745-13.596c0-1.147.403-1.55 1.56-1.55h6.684c1.228 0 1.61.383 1.61 1.62v14.281h3.282v-8.826-3.572c0-.715.312-1.138.876-1.289.845-.221 1.46.363 1.47 1.39v12.307h5.123v-25.17h-5.124v.675c0 1.308.01 2.617 0 3.925-.01.755-.523 1.278-1.187 1.258-.645-.01-1.108-.513-1.148-1.238v-.352V37.2c0-1.228.383-1.62 1.6-1.62h6.624c1.238 0 1.62.382 1.62 1.6V54.79l-.04.02zm3.05-40.858V11.91c0-2.647-1.4-4.026-4.057-4.026H11.921c-.272 0-.544 0-.816.02-1.5.151-2.788 1.117-3.06 2.567-.211 1.127-.16 2.304-.221 3.482h55.36zm-36.76 25.763v23.428h5.104V39.716h-5.103zm18.22 9.902H39.54v13.526h5.103V49.618zM13.3 52.639v10.496h5.083V52.658c-.121 0-.212-.02-.312-.02h-4.782.01z"/><path d="M17.829 34.805c2.244-2.245 4.469-4.469 6.663-6.713.111-.11.06-.453-.02-.644-.624-1.54-.503-2.989.503-4.307 1.027-1.339 2.426-1.882 4.087-1.59 2.597.443 4.127 3.22 3.17 5.676-.06.16-.14.322-.22.503 1.358 1.358 2.707 2.707 4.066 4.056 1.238 1.237 2.486 2.475 3.724 3.733.241.242.443.292.765.171 1.047-.402 2.093-.362 3.14.07.151.061.433.03.544-.08a1734.47 1734.47 0 007.458-7.447c.02-.02.03-.07.05-.14-.744-1.158-.966-2.416-.513-3.775.624-1.902 2.607-3.11 4.6-2.808 2.043.313 3.583 2.084 3.593 4.147 0 2.033-1.52 3.864-3.512 4.136-.584.08-1.208.02-1.792-.09-.362-.061-.574 0-.815.24a1657.58 1657.58 0 01-7.288 7.287c-.271.262-.282.463-.14.805.744 1.802.15 3.824-1.44 5.002-1.47 1.087-3.634 1.036-5.063-.131-1.54-1.248-2.033-3.29-1.198-5.062.161-.342.141-.533-.12-.795-2.456-2.435-4.902-4.881-7.338-7.326-.252-.252-.443-.343-.805-.182-.987.453-2.014.443-3.02.07-.322-.12-.524-.07-.765.172-2.114 2.133-4.248 4.257-6.381 6.38-.242.242-.242.413-.121.705.946 2.284-.212 4.86-2.507 5.605-2.395.785-4.881-.563-5.445-3.009-.352-1.53.04-2.918 1.208-4.005 1.228-1.147 2.687-1.43 4.288-.926.201.06.392.161.654.262l-.01.01zm37.443-10.99a1.878 1.878 0 00-1.922 1.801c-.04 1.037.805 1.923 1.842 1.943a1.891 1.891 0 001.892-1.832 1.878 1.878 0 00-1.822-1.902l.01-.01zm-11.424 15.85a1.871 1.871 0 00-1.822-1.902c-1.037-.03-1.922.836-1.922 1.872a1.89 1.89 0 001.852 1.872c1.016 0 1.872-.815 1.882-1.841h.01zM30.16 25.668a1.847 1.847 0 00-1.852-1.852 1.884 1.884 0 00-1.872 1.852c-.01 1.036.866 1.902 1.902 1.892a1.878 1.878 0 001.832-1.892h-.01zM17.618 38.528a1.87 1.87 0 00-1.822-1.892 1.897 1.897 0 00-1.913 1.872c0 1.017.836 1.842 1.873 1.852a1.84 1.84 0 001.862-1.842v.01zM14.91 22.638h-2.637c-.805-.01-1.339-.494-1.329-1.178 0-.684.534-1.157 1.35-1.167 1.76-.01 3.512-.01 5.273 0 .806 0 1.34.493 1.33 1.177 0 .684-.534 1.158-1.35 1.168-.875.01-1.761 0-2.637 0zM14.88 28.264h-2.577c-.815 0-1.349-.463-1.369-1.138-.02-.694.534-1.197 1.369-1.197h5.214c.835 0 1.389.503 1.369 1.197-.02.675-.554 1.127-1.37 1.137H14.88zM23.234 21.47c0 .634-.523 1.168-1.148 1.168-.613 0-1.167-.554-1.167-1.158 0-.614.543-1.167 1.157-1.167.625 0 1.148.523 1.148 1.157h.01zM51.488 48.008c-.624 0-1.167-.513-1.177-1.137-.01-.624.513-1.157 1.147-1.167.634 0 1.168.513 1.178 1.127 0 .614-.524 1.157-1.148 1.167v.01zM44.804 9.746H57.75c.895 0 1.449.463 1.449 1.178 0 .714-.564 1.167-1.46 1.167H31.85c-1.077 0-1.721-.785-1.339-1.63.262-.574.765-.715 1.36-.715h12.943-.01zM13.028 9.756c.604 0 1.167.553 1.167 1.157s-.553 1.168-1.157 1.168-1.168-.554-1.168-1.158c0-.604.554-1.167 1.158-1.167zM17.718 9.756c.604 0 1.158.553 1.168 1.157 0 .604-.554 1.157-1.158 1.168-.604 0-1.157-.554-1.168-1.158 0-.604.554-1.157 1.158-1.167zM22.389 9.756c.604-.02 1.168.523 1.188 1.137.02.604-.524 1.167-1.138 1.188-.604.02-1.167-.524-1.188-1.138-.02-.603.524-1.167 1.138-1.187z"/></g><path d="M62 7.042v43.123c-.04.09-.08.171-.111.262-.533 1.912-1.832 2.999-3.805 3.16-.473.04-.956 0-1.45 0v6.058c1.249 0 2.477.03 3.705-.01.725-.02 1.298.181 1.66.835v1.52H2.826c-.11-.08-.211-.161-.322-.242-.372-.281-.554-.664-.463-1.127.09-.483.382-.805.866-.916.221-.05.463-.05.694-.06h3.744v-5.978c-.754-.06-1.5-.03-2.194-.191C3.177 53.023 2 51.413 2 49.259V23.597c0-5.173-.03-10.356.03-15.529 0-.905.201-1.892.594-2.707C3.7 3.087 5.624 2 8.13 2h47.74c.191 0 .392 0 .584.01 1.65.141 3.02.815 4.127 2.063.764.866 1.087 1.912 1.419 2.969zm-5.395 44.24h.815c1.62 0 2.224-.614 2.224-2.224V12.818H4.355v36.28c0 .191 0 .393.01.584.07.725.584 1.389 1.268 1.51.564.1 1.148.07 1.772.1v-2.969c0-1.157.402-1.56 1.54-1.56h6.683c1.238 0 1.62.383 1.62 1.6v11.252h3.282v-.735-23.438c0-1.258.383-1.65 1.64-1.65h6.503c1.339 0 1.701.362 1.701 1.7v24.103h3.282v-.745-13.596c0-1.147.402-1.55 1.56-1.55h6.683c1.228 0 1.61.383 1.61 1.62v14.281h3.282v-8.826-3.573c0-.714.312-1.137.876-1.288.845-.221 1.46.362 1.47 1.389v12.308h5.122v-25.17h-5.123v.675c0 1.308.01 2.616 0 3.925-.01.754-.523 1.278-1.188 1.258-.644-.01-1.107-.514-1.147-1.238v-.352-5.042c0-1.228.382-1.62 1.6-1.62h6.623c1.238 0 1.62.382 1.62 1.6v17.611l-.04.02zm3.05-40.859V8.38c0-2.646-1.4-4.025-4.057-4.025H8.391c-.271 0-.543 0-.815.02-1.5.151-2.788 1.117-3.06 2.566-.211 1.127-.16 2.305-.221 3.482h55.36zm-36.76 25.764v23.428H28V36.187h-5.103zm18.219 9.902h-5.103v13.526h5.103V46.089zM9.77 49.11v10.496h5.083V49.129c-.12 0-.211-.02-.312-.02h-4.78.01z" fill="#4B8125"/><path d="M14.3 31.275c2.244-2.244 4.469-4.468 6.663-6.712.11-.11.06-.453-.02-.644-.624-1.54-.504-2.99.503-4.308 1.027-1.338 2.426-1.881 4.087-1.59 2.596.443 4.127 3.22 3.17 5.676-.06.161-.14.322-.221.504 1.359 1.358 2.707 2.707 4.066 4.055 1.238 1.238 2.486 2.476 3.724 3.734.242.241.443.292.765.171 1.047-.402 2.094-.362 3.14.07.152.06.434.03.544-.08a1734.47 1734.47 0 007.459-7.447c.02-.02.03-.07.05-.141-.745-1.157-.966-2.415-.513-3.774.624-1.902 2.607-3.11 4.6-2.808 2.043.312 3.583 2.083 3.593 4.146 0 2.033-1.52 3.865-3.513 4.137-.584.08-1.208.02-1.791-.09-.363-.061-.574 0-.816.24a1657.58 1657.58 0 01-7.287 7.287c-.272.261-.282.463-.141.805.745 1.801.151 3.824-1.44 5.002-1.469 1.086-3.633 1.036-5.062-.131-1.54-1.248-2.033-3.291-1.198-5.062.161-.343.14-.534-.12-.795-2.457-2.436-4.903-4.881-7.339-7.327-.251-.251-.442-.342-.805-.18-.986.452-2.013.442-3.02.07-.321-.121-.523-.07-.764.17-2.114 2.134-4.248 4.258-6.382 6.381-.241.242-.241.413-.12.705.946 2.284-.212 4.86-2.507 5.605-2.395.785-4.882-.564-5.445-3.01-.353-1.529.04-2.918 1.208-4.004 1.228-1.148 2.687-1.43 4.287-.926.202.06.393.16.655.261l-.01.01zm37.443-10.99a1.878 1.878 0 00-1.922 1.802c-.04 1.037.805 1.922 1.842 1.942a1.891 1.891 0 001.892-1.831 1.878 1.878 0 00-1.822-1.902l.01-.01zM40.319 36.137a1.871 1.871 0 00-1.822-1.902c-1.037-.03-1.923.835-1.923 1.872a1.89 1.89 0 001.852 1.872c1.017 0 1.873-.815 1.883-1.842h.01zm-13.69-13.999a1.847 1.847 0 00-1.851-1.851 1.884 1.884 0 00-1.872 1.851c-.01 1.037.865 1.903 1.902 1.892a1.878 1.878 0 001.832-1.892h-.01zM14.09 35a1.87 1.87 0 00-1.823-1.892 1.897 1.897 0 00-1.912 1.872c0 1.016.835 1.842 1.872 1.852a1.84 1.84 0 001.862-1.842v.01zM11.381 19.108H8.744c-.805-.01-1.339-.493-1.329-1.177 0-.684.534-1.158 1.349-1.168 1.761-.01 3.513-.01 5.274 0 .806 0 1.339.493 1.329 1.178 0 .684-.534 1.157-1.349 1.167-.876.01-1.761 0-2.637 0zM11.35 24.734H8.774c-.816 0-1.349-.463-1.37-1.137-.02-.694.534-1.198 1.37-1.198h5.214c.835 0 1.389.504 1.369 1.198-.02.674-.554 1.127-1.37 1.137h-2.636zM19.705 17.941c0 .634-.524 1.167-1.148 1.167-.614 0-1.167-.553-1.167-1.157 0-.614.543-1.167 1.157-1.167.624 0 1.148.523 1.148 1.157h.01zM47.959 44.479c-.624 0-1.168-.513-1.178-1.137-.01-.624.514-1.158 1.148-1.168.634 0 1.167.514 1.177 1.127 0 .614-.523 1.158-1.147 1.168v.01zM41.275 6.217H54.22c.896 0 1.45.463 1.45 1.177 0 .715-.564 1.168-1.46 1.168H28.321c-1.077 0-1.721-.785-1.339-1.63.262-.574.765-.715 1.359-.715H41.285h-.01zM9.498 6.227c.604 0 1.168.553 1.168 1.157S10.112 8.55 9.508 8.55c-.604 0-1.167-.553-1.167-1.157s.553-1.167 1.157-1.167zM14.189 6.227c.604 0 1.157.553 1.167 1.157 0 .604-.553 1.157-1.157 1.167-.604 0-1.158-.553-1.168-1.157 0-.604.554-1.157 1.158-1.167zM18.86 6.227c.604-.02 1.167.523 1.187 1.137.02.604-.523 1.167-1.137 1.187-.604.02-1.168-.523-1.188-1.137-.02-.604.524-1.167 1.138-1.187z" fill="#4B8125"/><defs><filter id="cffilter0_f_1910_11152" x=".521" y=".529" width="70.008" height="69.99" filterUnits="userSpaceOnUse" color-interpolation-filters="sRGB"><feFlood flood-opacity="0" result="BackgroundImageFix"/><feBlend in="SourceGraphic" in2="BackgroundImageFix" result="shape"/><feGaussianBlur stdDeviation="2.5" result="effect1_foregroundBlur_1910_11152"/></filter></defs></svg>