<svg width="14" height="14" viewBox="0 0 14 14" fill="none" xmlns="http://www.w3.org/2000/svg">
<path d="M13 4.5L6.6412 10.3697C6.56232 10.4425 6.44003 10.44 6.36412 10.3641L5 9" stroke="#1D2226" stroke-linecap="round"/>
<path d="M4.14025 8.69902L1.96977 6.65467C1.86184 6.55649 1.7173 6.50216 1.56726 6.50339C1.41722 6.50462 1.2737 6.5613 1.1676 6.66123C1.06151 6.76116 1.00133 6.89635 1.00002 7.03767C0.998718 7.17898 1.0564 7.31513 1.16063 7.41678L3.73568 9.84219C3.84299 9.94324 3.98851 10 4.14025 10C4.29198 10 4.4375 9.94324 4.54481 9.84219L10.8394 3.91342C10.9436 3.81176 11.0013 3.67562 11 3.5343C10.9987 3.39298 10.9385 3.25779 10.8324 3.15786C10.7263 3.05793 10.5828 3.00125 10.4327 3.00002C10.2827 2.99879 10.1382 3.05312 10.0302 3.1513L4.14025 8.69902Z" fill="#1D2226"/>
</svg>
