<svg width="14" height="14" viewBox="0 0 14 14" fill="none" xmlns="http://www.w3.org/2000/svg">
<path d="M13 5.5L6.6412 11.3697C6.56232 11.4425 6.44003 11.44 6.36412 11.3641L5 10" stroke="#3487D0" stroke-linecap="round"/>
<path d="M4.14025 9.69902L1.96977 7.65467C1.86184 7.55649 1.7173 7.50216 1.56726 7.50339C1.41722 7.50462 1.2737 7.5613 1.1676 7.66123C1.06151 7.76116 1.00133 7.89635 1.00002 8.03767C0.998718 8.17898 1.0564 8.31513 1.16063 8.41678L3.73568 10.8422C3.84299 10.9432 3.98851 11 4.14025 11C4.29198 11 4.4375 10.9432 4.54481 10.8422L10.8394 4.91342C10.9436 4.81176 11.0013 4.67562 11 4.5343C10.9987 4.39298 10.9385 4.25779 10.8324 4.15786C10.7263 4.05793 10.5828 4.00125 10.4327 4.00002C10.2827 3.99879 10.1382 4.05312 10.0302 4.1513L4.14025 9.69902Z" fill="#3487D0"/>
</svg>
