<svg width="24" height="20" viewBox="0 0 24 20" fill="none" xmlns="http://www.w3.org/2000/svg">
<path d="M0.423923 9.58998L5.95403 11.5654L8.09451 18.1542C8.2315 18.5759 8.77063 18.7319 9.12834 18.4519L12.211 16.0468C12.534 15.7946 12.9944 15.7822 13.3319 16.0168L18.8919 19.8803C19.2746 20.1465 19.817 19.9459 19.9129 19.5032L23.9859 0.751831C24.0906 0.2682 23.5943 -0.135215 23.1132 0.0429383L0.417523 8.42298C-0.142627 8.62957 -0.137827 9.38857 0.423923 9.58998ZM7.74953 10.5139L18.5574 4.14279C18.7515 4.02866 18.9515 4.28003 18.7845 4.42814L9.86502 12.3638C9.55142 12.643 9.34921 13.017 9.29192 13.4228L8.98822 15.5779C8.94777 15.8656 8.52567 15.894 8.44255 15.6156L7.27402 11.6857C7.14031 11.2375 7.33528 10.7586 7.74953 10.5139Z" fill="white"/>
</svg>
