<svg width="21" height="20" viewBox="0 0 21 20" fill="none" xmlns="http://www.w3.org/2000/svg">
<path d="M20.5 10C20.5 12.6522 19.4464 15.1957 17.5711 17.0711C15.6957 18.9464 13.1522 20 10.5 20C7.84784 20 5.3043 18.9464 3.42893 17.0711C1.55357 15.1957 0.5 12.6522 0.5 10C0.5 7.34784 1.55357 4.8043 3.42893 2.92893C5.3043 1.05357 7.84784 0 10.5 0C13.1522 0 15.6957 1.05357 17.5711 2.92893C19.4464 4.8043 20.5 7.34784 20.5 10ZM10.8587 7.3825C9.88625 7.7875 7.94125 8.625 5.02625 9.895C4.55375 10.0825 4.305 10.2675 4.2825 10.4475C4.245 10.7512 4.62625 10.8713 5.145 11.035L5.36375 11.1038C5.87375 11.27 6.56125 11.4637 6.9175 11.4713C7.2425 11.4788 7.60375 11.3463 8.0025 11.0713C10.7262 9.2325 12.1325 8.30375 12.22 8.28375C12.2825 8.26875 12.37 8.25125 12.4275 8.30375C12.4862 8.355 12.48 8.45375 12.4738 8.48C12.4363 8.64125 10.94 10.0312 10.1663 10.7512C9.925 10.9762 9.75375 11.135 9.71875 11.1713C9.64168 11.25 9.56333 11.3275 9.48375 11.4038C9.00875 11.8612 8.65375 12.2038 9.5025 12.7638C9.91125 13.0338 10.2388 13.255 10.565 13.4775C10.92 13.72 11.275 13.9613 11.735 14.2638C11.8512 14.3387 11.9638 14.42 12.0725 14.4975C12.4863 14.7925 12.86 15.0575 13.3188 15.015C13.5863 14.99 13.8625 14.74 14.0025 13.99C14.3337 12.2188 14.985 8.3825 15.135 6.80125C15.1442 6.6698 15.1387 6.53775 15.1187 6.4075C15.107 6.3024 15.0561 6.20557 14.9763 6.13625C14.8625 6.05774 14.7269 6.01706 14.5887 6.02C14.2137 6.02625 13.635 6.2275 10.8587 7.3825Z" fill="#518CC4"/>
</svg>
