<svg width="90" height="34" viewBox="0 0 90 34" fill="none" xmlns="http://www.w3.org/2000/svg">
<path d="M40 6L50 6L45.7682 0.921866C45.3684 0.442112 44.6316 0.442112 44.2318 0.921866L40 6Z" fill="#071727"/>
<rect x="0.5" y="6" width="89" height="28" rx="8" fill="#071727"/>
<path d="M22.0966 20.007C22.4486 20.1757 22.7272 20.4177 22.9326 20.733C23.1452 21.0483 23.2516 21.4113 23.2516 21.822C23.2516 22.438 23.0352 22.955 22.6026 23.373C22.1699 23.791 21.6419 24 21.0186 24H17.6966V16.3H20.7766C21.3779 16.3 21.8876 16.5017 22.3056 16.905C22.7236 17.3083 22.9326 17.807 22.9326 18.401C22.9326 19.083 22.6539 19.6183 22.0966 20.007ZM20.7766 17.257H18.7196V19.611H20.7766C21.0992 19.611 21.3706 19.4973 21.5906 19.27C21.8106 19.0427 21.9206 18.764 21.9206 18.434C21.9206 18.1113 21.8069 17.8363 21.5796 17.609C21.3596 17.3743 21.0919 17.257 20.7766 17.257ZM21.0186 23.043C21.3632 23.043 21.6529 22.922 21.8876 22.68C22.1222 22.438 22.2396 22.141 22.2396 21.789C22.2396 21.4443 22.1186 21.151 21.8766 20.909C21.6419 20.667 21.3559 20.546 21.0186 20.546H18.7196V23.043H21.0186ZM32.1422 16.3V17.268H29.8652V24H28.8532V17.268H26.5872V16.3H32.1422ZM32.7276 21.69C32.8229 22.1813 33.0466 22.5627 33.3986 22.834C33.7579 23.1053 34.1979 23.241 34.7186 23.241C35.4446 23.241 35.9726 22.9733 36.3026 22.438L37.1166 22.9C36.5812 23.7287 35.7746 24.143 34.6966 24.143C33.8239 24.143 33.1126 23.8717 32.5626 23.329C32.0199 22.779 31.7486 22.086 31.7486 21.25C31.7486 20.4213 32.0162 19.732 32.5516 19.182C33.0869 18.632 33.7799 18.357 34.6306 18.357C35.4372 18.357 36.0936 18.643 36.5996 19.215C37.1129 19.7797 37.3696 20.4617 37.3696 21.261C37.3696 21.4003 37.3586 21.5433 37.3366 21.69H32.7276ZM34.6306 19.259C34.1172 19.259 33.6919 19.4057 33.3546 19.699C33.0172 19.985 32.8082 20.37 32.7276 20.854H36.4016C36.3209 20.3333 36.1156 19.9373 35.7856 19.666C35.4556 19.3947 35.0706 19.259 34.6306 19.259ZM38.4697 24V15.97H39.4267V24H38.4697ZM41.5576 21.69C41.653 22.1813 41.8766 22.5627 42.2286 22.834C42.588 23.1053 43.028 23.241 43.5486 23.241C44.2746 23.241 44.8026 22.9733 45.1326 22.438L45.9466 22.9C45.4113 23.7287 44.6046 24.143 43.5266 24.143C42.654 24.143 41.9426 23.8717 41.3926 23.329C40.85 22.779 40.5786 22.086 40.5786 21.25C40.5786 20.4213 40.8463 19.732 41.3816 19.182C41.917 18.632 42.61 18.357 43.4606 18.357C44.2673 18.357 44.9236 18.643 45.4296 19.215C45.943 19.7797 46.1996 20.4617 46.1996 21.261C46.1996 21.4003 46.1886 21.5433 46.1666 21.69H41.5576ZM43.4606 19.259C42.9473 19.259 42.522 19.4057 42.1846 19.699C41.8473 19.985 41.6383 20.37 41.5576 20.854H45.2316C45.151 20.3333 44.9456 19.9373 44.6156 19.666C44.2856 19.3947 43.9006 19.259 43.4606 19.259ZM51.854 18.5H52.8V23.769C52.8 24.583 52.525 25.2137 51.975 25.661C51.425 26.1157 50.765 26.343 49.995 26.343C49.379 26.343 48.8473 26.2257 48.4 25.991C47.9527 25.7637 47.6153 25.4337 47.388 25.001L48.224 24.528C48.5247 25.144 49.1223 25.452 50.017 25.452C50.589 25.452 51.0363 25.3017 51.359 25.001C51.689 24.7003 51.854 24.2897 51.854 23.769V22.988C51.37 23.7213 50.6807 24.088 49.786 24.088C49.0013 24.088 48.3377 23.8093 47.795 23.252C47.2523 22.6947 46.981 22.0163 46.981 21.217C46.981 20.4177 47.2523 19.743 47.795 19.193C48.3377 18.6357 49.0013 18.357 49.786 18.357C50.688 18.357 51.3773 18.72 51.854 19.446V18.5ZM48.499 22.614C48.873 22.988 49.3387 23.175 49.896 23.175C50.4533 23.175 50.919 22.988 51.293 22.614C51.667 22.24 51.854 21.7743 51.854 21.217C51.854 20.667 51.667 20.205 51.293 19.831C50.919 19.457 50.4533 19.27 49.896 19.27C49.3387 19.27 48.873 19.457 48.499 19.831C48.125 20.205 47.938 20.667 47.938 21.217C47.938 21.7743 48.125 22.24 48.499 22.614ZM55.2069 19.424C55.5223 18.742 56.0943 18.401 56.9229 18.401V19.402C56.4536 19.38 56.0503 19.5047 55.7129 19.776C55.3756 20.0473 55.2069 20.4837 55.2069 21.085V24H54.2499V18.5H55.2069V19.424ZM62.1125 18.5H63.0695V24H62.1125V23.054C61.6359 23.78 60.9429 24.143 60.0335 24.143C59.2635 24.143 58.6072 23.8643 58.0645 23.307C57.5219 22.7423 57.2505 22.0567 57.2505 21.25C57.2505 20.4433 57.5219 19.7613 58.0645 19.204C58.6072 18.6393 59.2635 18.357 60.0335 18.357C60.9429 18.357 61.6359 18.72 62.1125 19.446V18.5ZM60.1545 23.219C60.7119 23.219 61.1775 23.032 61.5515 22.658C61.9255 22.2767 62.1125 21.8073 62.1125 21.25C62.1125 20.6927 61.9255 20.227 61.5515 19.853C61.1775 19.4717 60.7119 19.281 60.1545 19.281C59.6045 19.281 59.1425 19.4717 58.7685 19.853C58.3945 20.227 58.2075 20.6927 58.2075 21.25C58.2075 21.8073 58.3945 22.2767 58.7685 22.658C59.1425 23.032 59.6045 23.219 60.1545 23.219ZM70.4595 18.357C71.0755 18.357 71.5741 18.5587 71.9555 18.962C72.3368 19.358 72.5275 19.897 72.5275 20.579V24H71.5705V20.612C71.5705 20.1867 71.4605 19.8567 71.2405 19.622C71.0205 19.3873 70.7271 19.27 70.3605 19.27C69.9498 19.27 69.6198 19.4093 69.3705 19.688C69.1285 19.9593 69.0075 20.3773 69.0075 20.942V24H68.0505V20.612C68.0505 20.1867 67.9441 19.8567 67.7315 19.622C67.5261 19.3873 67.2438 19.27 66.8845 19.27C66.4811 19.27 66.1438 19.4093 65.8725 19.688C65.6085 19.9667 65.4765 20.3847 65.4765 20.942V24H64.5195V18.5H65.4765V19.237C65.8505 18.6503 66.3968 18.357 67.1155 18.357C67.8561 18.357 68.3951 18.6687 68.7325 19.292C69.1138 18.6687 69.6895 18.357 70.4595 18.357Z" fill="white"/>
</svg>
