<svg width="24" height="24" viewBox="0 0 24 24" fill="none" xmlns="http://www.w3.org/2000/svg">
<path d="M12 24C18.6274 24 24 18.6274 24 12C24 5.37258 18.6274 0 12 0C5.37258 0 0 5.37258 0 12C0 18.6274 5.37258 24 12 24Z" fill="#313131"/>
<path d="M13.087 10.9455H17C17.5523 10.9455 18 11.3932 18 11.9455V12.103C18 12.6553 17.5523 13.103 17 13.103H13.087V17C13.087 17.5523 12.6393 18 12.087 18H11.9007C11.3484 18 10.9007 17.5523 10.9007 17V13.103H7C6.44772 13.103 6 12.6553 6 12.103V11.9455C6 11.3932 6.44772 10.9455 7 10.9455H10.9007V7C10.9007 6.44772 11.3484 6 11.9007 6H12.087C12.6393 6 13.087 6.44772 13.087 7V10.9455Z" fill="white"/>
</svg>
