<svg width="71" height="71" viewBox="0 0 71 71" fill="none" xmlns="http://www.w3.org/2000/svg">
<g filter="url(#filter0_f_1302_17132)">
<path d="M52.5228 65.5292C51.4355 65.2272 50.3382 64.9756 49.2812 64.6031C48.6469 64.3817 48.0328 64.0395 47.4791 63.6469C46.9859 63.2946 46.5026 63.1739 45.9087 63.1739C37.6033 63.1839 29.308 63.1839 21.0026 63.1739C18.063 63.1739 15.7577 61.4426 15.0832 58.7249C14.9322 58.1311 14.902 57.4869 14.902 56.8729C14.902 43.1638 14.902 29.4547 14.902 15.7456V14.9101C14.6704 14.9101 14.459 14.9101 14.2577 14.9101C11.8315 14.9101 9.41538 14.9101 6.98921 14.9101C5.94223 14.9101 5.50934 14.4974 5.52948 13.4607C5.54961 12.3334 5.47914 11.1759 5.70062 10.0787C6.24424 7.40132 8.63015 5.54929 11.4288 5.53922C15.9791 5.51909 20.5295 5.53922 25.0798 5.53922C33.4758 5.53922 41.8818 5.53922 50.2778 5.53922C52.9859 5.53922 55.3214 7.36106 55.9758 9.97807C56.1167 10.5619 56.157 11.1759 56.157 11.7798C56.1671 21.7244 56.157 31.659 56.157 41.6036V42.2881C56.7711 42.4793 57.3651 42.6203 57.9187 42.8417C62.1771 44.6031 64.714 47.7435 65.4288 52.3133C65.4489 52.424 65.4993 52.5246 65.5295 52.6353V54.9806C65.4993 55.0712 65.4489 55.1618 65.4389 55.2524C64.704 60.2347 61.8046 63.3752 57.1234 64.9856C56.3583 65.2473 55.5429 65.348 54.7476 65.5292H52.5228ZM53.8114 42.0566C53.8114 41.8955 53.8114 41.7848 53.8114 41.6741C53.8114 31.6187 53.8114 21.5634 53.8114 11.498C53.8114 9.39428 52.2912 7.88446 50.1771 7.88446C38.9825 7.88446 27.7979 7.88446 16.6033 7.88446C16.4624 7.88446 16.3214 7.9046 16.0999 7.92473C17.0765 9.26343 17.2577 10.7229 17.2577 12.2629C17.2375 27.0893 17.2476 41.9056 17.2476 56.732C17.2476 56.9635 17.2476 57.2051 17.2476 57.4366C17.3382 59.3289 18.6671 60.6877 20.5496 60.8286C22.3315 60.9595 23.8416 59.7818 24.1838 57.9499C24.2543 57.5674 24.2644 57.1749 24.2644 56.7823C24.214 53.7425 24.2241 53.7929 27.2644 53.813C31.9758 53.8432 36.6771 53.813 41.3885 53.813H42.063C42.214 47.1497 47.4187 42.1572 53.8114 42.0566ZM53.8114 63.1839C58.9355 63.1839 63.1939 58.9665 63.1939 53.9036C63.1939 48.5387 59.1671 44.5126 53.8214 44.5025C48.4758 44.5025 44.4489 48.5287 44.4489 53.8935C44.4489 58.9665 48.6973 63.1839 53.8214 63.1839H53.8114ZM44.2174 60.8286C43.5328 59.2886 42.8483 57.7788 42.1436 56.1884H26.61C26.7409 57.8492 26.4892 59.4094 25.4825 60.8286H44.2174ZM14.8617 12.5448C15.0429 10.7531 14.7107 9.22317 13.0496 8.31728C11.7409 7.60263 10.4422 7.72342 9.25431 8.60918C7.92545 9.59559 7.73418 11.0047 7.90532 12.5448H14.8617Z" fill="#89B21D" fill-opacity="0.35"/>
<path d="M28.9657 20.2451C28.9657 21.141 28.9657 22.0368 28.9657 22.9326C28.9657 23.8184 28.5228 24.2814 27.6469 24.2814C25.7946 24.2814 23.9422 24.2814 22.0899 24.2814C21.2442 24.2814 20.7711 23.8284 20.7711 22.993C20.761 21.1208 20.7711 19.2487 20.7711 17.3765C20.7711 16.5612 21.2342 16.0982 22.0395 16.0881C23.9321 16.0781 25.8248 16.0781 27.7174 16.0881C28.5228 16.0881 28.9657 16.5612 28.9758 17.3765C28.9858 18.3327 28.9758 19.2889 28.9758 20.2451H28.9657ZM26.5999 18.4736H23.1368V21.9059H26.5999V18.4736Z" fill="#89B21D" fill-opacity="0.35"/>
<path d="M20.761 31.8706C20.761 30.9748 20.761 30.079 20.761 29.1832C20.761 28.2571 21.1939 27.8042 22.11 27.8042C23.9423 27.8042 25.7745 27.8042 27.6067 27.8042C28.5228 27.8042 28.9557 28.2471 28.9557 29.1832C28.9557 30.9949 28.9557 32.8067 28.9557 34.6185C28.9557 35.5747 28.5127 35.9975 27.5463 35.9975C25.7543 35.9975 23.9624 35.9975 22.1604 35.9975C21.1738 35.9975 20.751 35.5646 20.751 34.5581C20.751 33.6623 20.751 32.7665 20.751 31.8706H20.761ZM26.61 30.1897H23.147V33.6119H26.61V30.1897Z" fill="#89B21D" fill-opacity="0.35"/>
<path d="M24.8379 47.7133C23.9218 47.7133 23.0057 47.7133 22.0896 47.7133C21.2138 47.7133 20.7607 47.2503 20.7607 46.3746C20.7607 44.5225 20.7607 42.6705 20.7607 40.8185C20.7607 39.973 21.2238 39.52 22.0695 39.52C23.9218 39.52 25.7742 39.52 27.6265 39.52C28.5024 39.52 28.9554 39.973 28.9554 40.8587C28.9554 42.6906 28.9554 44.5225 28.9554 46.3544C28.9554 47.2704 28.5124 47.7133 27.5862 47.7133C26.6701 47.7133 25.754 47.7133 24.8379 47.7133ZM26.5896 41.8955H23.1265V45.3278H26.5896V41.8955Z" fill="#89B21D" fill-opacity="0.35"/>
<path d="M41.3881 19.007C38.9518 19.007 36.5156 19.007 34.0693 19.007C33.878 19.007 33.6767 19.007 33.4854 18.9869C32.8814 18.8963 32.4686 18.4031 32.4787 17.8092C32.4888 17.2355 32.8914 16.7725 33.4753 16.6819C33.6666 16.6517 33.868 16.6618 34.0592 16.6618C38.9317 16.6618 43.8143 16.6618 48.6868 16.6618C48.8378 16.6618 48.9988 16.6618 49.1498 16.6618C49.8344 16.7222 50.2874 17.2053 50.2673 17.8495C50.2572 18.4735 49.8143 18.9265 49.1599 18.9869C48.9888 19.007 48.8076 18.9869 48.6364 18.9869C46.2203 18.9869 43.7941 18.9869 41.378 18.9869L41.3881 19.007Z" fill="#89B21D" fill-opacity="0.35"/>
<path d="M39.3645 21.3521C41.1967 21.3521 43.0289 21.3521 44.8611 21.3521C45.6967 21.3521 46.2202 21.8553 46.1799 22.58C46.1497 23.2645 45.6564 23.6872 44.8611 23.6973C42.8678 23.6973 40.8846 23.6973 38.8913 23.6973C37.19 23.6973 35.4987 23.6973 33.7974 23.6973C33.0323 23.6973 32.5491 23.2947 32.4786 22.6505C32.398 21.9056 32.9417 21.3621 33.7873 21.3621C35.6397 21.3621 37.492 21.3621 39.3444 21.3621L39.3645 21.3521Z" fill="#89B21D" fill-opacity="0.35"/>
<path d="M39.3345 40.104C41.1869 40.104 43.0392 40.104 44.8915 40.104C45.3748 40.104 45.8479 40.2349 45.9989 40.6979C46.1197 41.0602 46.1097 41.5434 45.9687 41.9057C45.7775 42.3889 45.264 42.4593 44.7707 42.4593C41.9217 42.4593 39.0728 42.4593 36.2338 42.4593C35.4184 42.4593 34.5929 42.4593 33.7775 42.4593C32.9721 42.4493 32.4687 41.9661 32.4889 41.2615C32.509 40.5771 33.0023 40.1241 33.7775 40.1241C35.6298 40.1241 37.4822 40.1241 39.3345 40.1241V40.104Z" fill="#89B21D" fill-opacity="0.35"/>
<path d="M44.0566 28.3877C45.7177 28.3877 47.3687 28.3877 49.0297 28.3877C49.8754 28.3877 50.4291 29.0419 50.268 29.7868C50.1371 30.4008 49.6841 30.7229 48.9089 30.7229C46.4727 30.7229 44.0365 30.7229 41.6002 30.7229C40.7647 30.7229 39.919 30.7229 39.0834 30.7229C38.268 30.7229 37.7646 30.2599 37.7646 29.5553C37.7646 28.8507 38.268 28.3877 39.0834 28.3877C40.7445 28.3877 42.3955 28.3877 44.0566 28.3877Z" fill="#89B21D" fill-opacity="0.35"/>
<path d="M36.909 35.4136C35.8922 35.4136 34.8755 35.4136 33.8587 35.4136C32.9929 35.4136 32.4795 34.9607 32.4795 34.2359C32.4795 33.5112 33.003 33.0784 33.8688 33.0684C35.9426 33.0684 38.0063 33.0684 40.0802 33.0684C40.9258 33.0684 41.399 33.4911 41.409 34.2158C41.4191 34.9607 40.9359 35.4035 40.06 35.4136C39.003 35.4136 37.9459 35.4136 36.899 35.4136H36.909Z" fill="#89B21D" fill-opacity="0.35"/>
<path d="M36.9894 47.1299C35.9324 47.1299 34.8753 47.1299 33.8283 47.1299C33.0028 47.1299 32.4995 46.677 32.4894 45.9724C32.4793 45.2477 33.0028 44.7947 33.8585 44.7847C35.9324 44.7847 37.9961 44.7847 40.0699 44.7847C40.9458 44.7847 41.429 45.2175 41.429 45.9623C41.429 46.6971 40.9357 47.1198 40.0498 47.1198C39.033 47.1198 38.0162 47.1198 36.9995 47.1198L36.9894 47.1299Z" fill="#89B21D" fill-opacity="0.35"/>
<path d="M33.6674 30.7231C33.0331 30.7331 32.5097 30.2399 32.4895 29.6058C32.4593 28.9515 32.9828 28.408 33.6372 28.3979C34.2714 28.3979 34.7949 28.8811 34.815 29.5152C34.8452 30.1695 34.3318 30.713 33.6674 30.7331V30.7231Z" fill="#89B21D" fill-opacity="0.35"/>
<path d="M50.8619 58.111C50.8619 57.3057 51.6068 56.7723 52.4122 57.0239C52.674 57.1044 52.9156 57.2454 53.1773 57.3158C53.8015 57.497 54.4055 57.2051 54.6169 56.6414C54.8384 56.0576 54.6069 55.4738 54.0028 55.1719C53.58 54.9706 53.1371 54.8095 52.7142 54.6183C51.4055 54.0244 50.6605 53.0078 50.5699 51.5785C50.4894 50.1996 51.0632 49.0924 52.2713 48.3978C52.7142 48.1361 52.6136 47.804 52.6337 47.4517C52.674 46.4552 53.5397 45.8815 54.3652 46.3244C54.8082 46.5659 55.0095 46.9686 54.9693 47.4416C54.929 47.8744 55.1001 48.0757 55.5028 48.1764C55.7243 48.2267 55.9458 48.3375 56.1471 48.4482C56.6807 48.7501 56.9022 49.3541 56.6706 49.9077C56.4491 50.4512 55.8652 50.7532 55.2813 50.5921C54.9995 50.5116 54.7377 50.3707 54.4659 50.2801C53.8417 50.0888 53.2377 50.3606 53.0062 50.9142C52.7646 51.5081 53.0062 52.1221 53.6303 52.424C54.033 52.6153 54.4558 52.7662 54.8686 52.9474C56.2075 53.5413 56.9626 54.578 57.0431 56.0274C57.1136 57.4064 56.4995 58.4633 55.3417 59.2182C55.1706 59.3289 55.08 59.5906 54.9995 59.802C54.9491 59.9228 54.9995 60.0737 54.9894 60.2046C54.9391 60.9192 54.4558 61.4024 53.7914 61.3822C53.1471 61.3621 52.6438 60.8991 52.674 60.2046C52.6941 59.7013 52.5028 59.4899 52.0498 59.349C51.4357 59.1578 50.882 58.8558 50.882 58.0808L50.8619 58.111Z" fill="#89B21D" fill-opacity="0.35"/>
</g>
<path d="M48.9935 61.9999C47.9062 61.6979 46.8089 61.4463 45.7519 61.0738C45.1176 60.8524 44.5035 60.5102 43.9499 60.1176C43.4566 59.7653 42.9733 59.6445 42.3794 59.6445C34.074 59.6546 25.7787 59.6546 17.4733 59.6445C14.5337 59.6445 12.2284 57.9133 11.5539 55.1956C11.4029 54.6018 11.3727 53.9576 11.3727 53.3436C11.3727 39.6345 11.3727 25.9254 11.3727 12.2163V11.3808C11.1411 11.3808 10.9297 11.3808 10.7284 11.3808C8.3022 11.3808 5.88609 11.3808 3.45991 11.3808C2.41293 11.3808 1.98005 10.9682 2.00018 9.93141C2.02032 8.80409 1.94985 7.64656 2.17132 6.54943C2.71495 3.87203 5.10085 2.01999 7.89951 2.00992C12.4498 1.98979 17.0002 2.00992 21.5505 2.00992C29.9465 2.00992 38.3525 2.00992 46.7485 2.00992C49.4566 2.00992 51.7921 3.83177 52.4465 6.44878C52.5874 7.03257 52.6277 7.64656 52.6277 8.25049C52.6378 18.1951 52.6277 28.1297 52.6277 38.0743V38.7588C53.2418 38.95 53.8358 39.0909 54.3895 39.3124C58.6478 41.0738 61.1848 44.2142 61.8995 48.784C61.9197 48.8947 61.97 48.9953 62.0002 49.106V51.4513C61.97 51.5419 61.9197 51.6325 61.9096 51.7231C61.1747 56.7054 58.2754 59.8459 53.5942 61.4563C52.829 61.718 52.0136 61.8187 51.2183 61.9999H48.9935ZM50.2821 38.5273C50.2821 38.3662 50.2821 38.2555 50.2821 38.1448C50.2821 28.0894 50.2821 18.0341 50.2821 7.96865C50.2821 5.86498 48.7619 4.35517 46.6478 4.35517C35.4532 4.35517 24.2686 4.35517 13.074 4.35517C12.9331 4.35517 12.7921 4.3753 12.5707 4.39543C13.5472 5.73413 13.7284 7.19362 13.7284 8.73363C13.7082 23.56 13.7183 38.3763 13.7183 53.2027C13.7183 53.4342 13.7183 53.6757 13.7183 53.9073C13.8089 55.7996 15.1378 57.1584 17.0203 57.2993C18.8022 57.4301 20.3123 56.2525 20.6545 54.4206C20.725 54.0381 20.7351 53.6455 20.7351 53.253C20.6847 50.2132 20.6948 50.2636 23.7351 50.2837C28.4465 50.3139 33.1478 50.2837 37.8592 50.2837H38.5337C38.6848 43.6204 43.8895 38.6279 50.2821 38.5273ZM50.2821 59.6546C55.4062 59.6546 59.6646 55.4372 59.6646 50.3743C59.6646 45.0094 55.6378 40.9832 50.2921 40.9732C44.9465 40.9732 40.9197 44.9994 40.9197 50.3642C40.9197 55.4372 45.168 59.6546 50.2921 59.6546H50.2821ZM40.6881 57.2993C40.0035 55.7593 39.319 54.2495 38.6143 52.6591H23.0807C23.2116 54.3199 22.9599 55.8801 21.9532 57.2993H40.6881ZM11.3324 9.01546C11.5136 7.22381 11.1814 5.69387 9.52032 4.78798C8.21159 4.07334 6.91293 4.19412 5.72501 5.07988C4.39615 6.06629 4.20488 7.47545 4.37602 9.01546H11.3324Z" fill="#4B8125"/>
<path d="M25.4364 16.7158C25.4364 17.6117 25.4364 18.5075 25.4364 19.4033C25.4364 20.2891 24.9935 20.7521 24.1176 20.7521C22.2653 20.7521 20.4129 20.7521 18.5606 20.7521C17.7149 20.7521 17.2418 20.2991 17.2418 19.4637C17.2317 17.5915 17.2418 15.7194 17.2418 13.8472C17.2418 13.0319 17.7049 12.5689 18.5102 12.5588C20.4029 12.5488 22.2955 12.5488 24.1881 12.5588C24.9935 12.5588 25.4364 13.0319 25.4465 13.8472C25.4565 14.8034 25.4465 15.7596 25.4465 16.7158H25.4364ZM23.0706 14.9443H19.6076V18.3766H23.0706V14.9443Z" fill="#4B8125"/>
<path d="M17.2317 28.3413C17.2317 27.4455 17.2317 26.5497 17.2317 25.6539C17.2317 24.7278 17.6646 24.2749 18.5807 24.2749C20.413 24.2749 22.2452 24.2749 24.0774 24.2749C24.9935 24.2749 25.4264 24.7178 25.4264 25.6539C25.4264 27.4656 25.4264 29.2774 25.4264 31.0892C25.4264 32.0454 24.9834 32.4682 24.017 32.4682C22.225 32.4682 20.4331 32.4682 18.6311 32.4682C17.6445 32.4682 17.2217 32.0353 17.2217 31.0288C17.2217 30.133 17.2217 29.2372 17.2217 28.3413H17.2317ZM23.0807 26.6604H19.6177V30.0827H23.0807V26.6604Z" fill="#4B8125"/>
<path d="M21.3086 44.184C20.3925 44.184 19.4764 44.184 18.5603 44.184C17.6845 44.184 17.2314 43.721 17.2314 42.8453C17.2314 40.9932 17.2314 39.1412 17.2314 37.2892C17.2314 36.4437 17.6945 35.9907 18.5402 35.9907C20.3925 35.9907 22.2449 35.9907 24.0972 35.9907C24.9731 35.9907 25.4261 36.4437 25.4261 37.3294C25.4261 39.1613 25.4261 40.9932 25.4261 42.8251C25.4261 43.7411 24.9831 44.184 24.0569 44.184C23.1408 44.184 22.2247 44.184 21.3086 44.184ZM23.0603 38.3662H19.5972V41.7985H23.0603V38.3662Z" fill="#4B8125"/>
<path d="M37.8588 15.4777C35.4226 15.4777 32.9863 15.4777 30.54 15.4777C30.3487 15.4777 30.1474 15.4777 29.9561 15.4576C29.3521 15.367 28.9393 14.8738 28.9494 14.2799C28.9595 13.7062 29.3622 13.2432 29.946 13.1526C30.1373 13.1224 30.3387 13.1325 30.5299 13.1325C35.4024 13.1325 40.285 13.1325 45.1575 13.1325C45.3085 13.1325 45.4695 13.1325 45.6205 13.1325C46.3051 13.1929 46.7581 13.676 46.738 14.3202C46.7279 14.9442 46.285 15.3972 45.6306 15.4576C45.4595 15.4777 45.2783 15.4576 45.1071 15.4576C42.691 15.4576 40.2648 15.4576 37.8487 15.4576L37.8588 15.4777Z" fill="#4B8125"/>
<path d="M35.8352 17.8228C37.6674 17.8228 39.4996 17.8228 41.3318 17.8228C42.1674 17.8228 42.6909 18.326 42.6506 19.0507C42.6204 19.7352 42.1271 20.1579 41.3318 20.168C39.3385 20.168 37.3553 20.168 35.362 20.168C33.6607 20.168 31.9694 20.168 30.2681 20.168C29.503 20.168 29.0198 19.7654 28.9493 19.1212C28.8688 18.3764 29.4124 17.8328 30.258 17.8328C32.1104 17.8328 33.9627 17.8328 35.8151 17.8328L35.8352 17.8228Z" fill="#4B8125"/>
<path d="M35.8052 36.5747C37.6576 36.5747 39.5099 36.5747 41.3622 36.5747C41.8455 36.5747 42.3186 36.7056 42.4696 37.1686C42.5904 37.5309 42.5804 38.0141 42.4394 38.3764C42.2482 38.8596 41.7347 38.93 41.2414 38.93C38.3925 38.93 35.5435 38.93 32.7045 38.93C31.8891 38.93 31.0636 38.93 30.2482 38.93C29.4428 38.92 28.9394 38.4368 28.9596 37.7322C28.9797 37.0478 29.473 36.5948 30.2482 36.5948C32.1005 36.5948 33.9529 36.5948 35.8052 36.5948V36.5747Z" fill="#4B8125"/>
<path d="M40.5273 24.8584C42.1884 24.8584 43.8394 24.8584 45.5005 24.8584C46.3461 24.8584 46.8998 25.5127 46.7387 26.2575C46.6078 26.8715 46.1548 27.1936 45.3796 27.1936C42.9434 27.1936 40.5072 27.1936 38.0709 27.1936C37.2354 27.1936 36.3897 27.1936 35.5541 27.1936C34.7387 27.1936 34.2354 26.7306 34.2354 26.026C34.2354 25.3214 34.7387 24.8584 35.5541 24.8584C37.2152 24.8584 38.8662 24.8584 40.5273 24.8584Z" fill="#4B8125"/>
<path d="M33.3797 31.8843C32.3629 31.8843 31.3462 31.8843 30.3294 31.8843C29.4636 31.8843 28.9502 31.4314 28.9502 30.7067C28.9502 29.9819 29.4737 29.5491 30.3395 29.5391C32.4133 29.5391 34.477 29.5391 36.5509 29.5391C37.3965 29.5391 37.8697 29.9618 37.8797 30.6865C37.8898 31.4314 37.4066 31.8742 36.5307 31.8843C35.4737 31.8843 34.4166 31.8843 33.3697 31.8843H33.3797Z" fill="#4B8125"/>
<path d="M33.4601 43.6006C32.4031 43.6006 31.346 43.6006 30.299 43.6006C29.4735 43.6006 28.9702 43.1477 28.9601 42.4431C28.95 41.7184 29.4735 41.2654 30.3292 41.2554C32.4031 41.2554 34.4668 41.2554 36.5406 41.2554C37.4165 41.2554 37.8997 41.6882 37.8997 42.433C37.8997 43.1678 37.4064 43.5905 36.5205 43.5905C35.5037 43.5905 34.4869 43.5905 33.4702 43.5905L33.4601 43.6006Z" fill="#4B8125"/>
<path d="M30.1381 27.1938C29.5039 27.2038 28.9804 26.7106 28.9602 26.0765C28.93 25.4223 29.4535 24.8787 30.1079 24.8687C30.7421 24.8687 31.2656 25.3518 31.2857 25.9859C31.3159 26.6402 30.8025 27.1837 30.1381 27.2038V27.1938Z" fill="#4B8125"/>
<path d="M47.3326 54.5817C47.3326 53.7765 48.0776 53.243 48.8829 53.4946C49.1447 53.5751 49.3863 53.7161 49.648 53.7865C50.2722 53.9677 50.8762 53.6758 51.0876 53.1121C51.3091 52.5283 51.0776 51.9445 50.4735 51.6426C50.0507 51.4413 49.6078 51.2802 49.1849 51.089C47.8762 50.4951 47.1312 49.4785 47.0406 48.0492C46.9601 46.6703 47.5339 45.5631 48.742 44.8685C49.1849 44.6068 49.0843 44.2747 49.1044 43.9224C49.1447 42.9259 50.0104 42.3522 50.8359 42.7951C51.2789 43.0366 51.4802 43.4393 51.44 43.9123C51.3997 44.3451 51.5708 44.5465 51.9735 44.6471C52.195 44.6974 52.4165 44.8082 52.6178 44.9189C53.1514 45.2208 53.3729 45.8248 53.1413 46.3784C52.9198 46.9219 52.3359 47.2239 51.752 47.0628C51.4702 46.9823 51.2084 46.8414 50.9366 46.7508C50.3125 46.5595 49.7084 46.8313 49.4769 47.3849C49.2353 47.9788 49.4769 48.5928 50.101 48.8947C50.5037 49.086 50.9265 49.2369 51.3393 49.4181C52.6782 50.012 53.4333 51.0487 53.5138 52.4981C53.5843 53.8771 52.9702 54.934 51.8125 55.6889C51.6413 55.7996 51.5507 56.0613 51.4702 56.2727C51.4198 56.3935 51.4702 56.5444 51.4601 56.6753C51.4098 57.3899 50.9265 57.8731 50.2621 57.8529C49.6178 57.8328 49.1145 57.3698 49.1447 56.6753C49.1648 56.172 48.9735 55.9606 48.5205 55.8197C47.9064 55.6285 47.3527 55.3265 47.3527 54.5515L47.3326 54.5817Z" fill="#4B8125"/>
<defs>
<filter id="filter0_f_1302_17132" x="0.528809" y="0.530273" width="70.0005" height="69.999" filterUnits="userSpaceOnUse" color-interpolation-filters="sRGB">
<feFlood flood-opacity="0" result="BackgroundImageFix"/>
<feBlend mode="normal" in="SourceGraphic" in2="BackgroundImageFix" result="shape"/>
<feGaussianBlur stdDeviation="2.5" result="effect1_foregroundBlur_1302_17132"/>
</filter>
</defs>
</svg>
