<svg width="14" height="14" viewBox="0 0 14 14" fill="none" xmlns="http://www.w3.org/2000/svg">
<path d="M5.14025 9.69902L2.96977 7.65467C2.86184 7.55649 2.7173 7.50216 2.56726 7.50339C2.41722 7.50462 2.2737 7.5613 2.1676 7.66123C2.06151 7.76116 2.00133 7.89635 2.00002 8.03767C1.99872 8.17898 2.0564 8.31513 2.16063 8.41678L4.73568 10.8422C4.84299 10.9432 4.98851 11 5.14025 11C5.29198 11 5.4375 10.9432 5.54481 10.8422L11.8394 4.91342C11.9436 4.81176 12.0013 4.67562 12 4.5343C11.9987 4.39298 11.9385 4.25779 11.8324 4.15786C11.7263 4.05793 11.5828 4.00125 11.4327 4.00002C11.2827 3.99879 11.1382 4.05312 11.0302 4.1513L5.14025 9.69902Z" fill="#929292"/>
</svg>
