<svg width="19" height="18" viewBox="0 0 19 18" fill="none" xmlns="http://www.w3.org/2000/svg">
<path fill-rule="evenodd" clip-rule="evenodd" d="M11.5055 15.7316H9.95697V13.4813H11.9467V8.38088C11.9467 8.26575 11.8364 8.172 11.7009 8.172H7.59519C7.45972 8.172 7.3494 8.26575 7.3494 8.38088V13.4813H9.33917V15.7316H7.79068C7.36793 15.7316 7.02417 16.0241 7.02417 16.3834V16.6035H1.10604C0.935265 16.6035 0.797142 16.7209 0.797142 16.866C0.797142 17.0108 0.935265 17.1285 1.10604 17.1285H7.02461V17.3486C7.02461 17.7079 7.36837 18 7.79113 18H11.5059C11.9286 18 12.2724 17.7079 12.2724 17.3486V17.1285H18.191C18.3618 17.1285 18.4999 17.0108 18.4999 16.866C18.4999 16.7209 18.3618 16.6035 18.191 16.6035H12.272V16.3834C12.272 16.0241 11.9282 15.7316 11.5055 15.7316ZM0.524866 5.64C0.491548 5.79509 0.491548 5.95403 0.524866 6.10913V5.64ZM10.4115 2.30813L16.7228 6.47888C16.9121 6.60413 17.1487 6.6585 17.3887 6.63338C17.6288 6.60788 17.8424 6.50513 17.9893 6.34425C18.2947 6.0105 18.2236 5.52787 17.8309 5.268L10.0324 0.114C9.91725 0.03825 9.78266 0 9.64807 0C9.51347 0 9.37888 0.037875 9.26415 0.114L1.46569 5.268C1.07295 5.5275 1.0019 6.0105 1.30727 6.34425C1.61264 6.678 2.18102 6.73875 2.57377 6.47888L8.88508 2.30813C9.34137 2.00625 9.95476 2.00625 10.4115 2.30813ZM12.5645 8.38088C12.5645 7.97625 12.1771 7.647 11.7009 7.647H7.59519C7.11904 7.647 6.73159 7.97625 6.73159 8.38088V13.4813H3.69508C3.53445 13.4813 3.40339 13.3703 3.40339 13.2334V6.59513L9.26415 2.7225C9.49362 2.57063 9.80252 2.57063 10.0324 2.7225L15.8927 6.59513V13.2334C15.8927 13.3703 15.7617 13.4813 15.6011 13.4813H12.5645V8.38088Z" fill="#4B8125"/>
</svg>
