<svg width="21" height="20" viewBox="0 0 21 20" fill="none" xmlns="http://www.w3.org/2000/svg">
<path fill-rule="evenodd" clip-rule="evenodd" d="M12.5056 16.7316H10.9571V14.4813H12.9469V9.38088C12.9469 9.26575 12.8365 9.172 12.7011 9.172H8.59531C8.45984 9.172 8.34952 9.26575 8.34952 9.38088V14.4813H10.3393V16.7316H8.79081C8.36805 16.7316 8.02429 17.0241 8.02429 17.3834V17.6035H2.10617C1.93539 17.6035 1.79726 17.7209 1.79726 17.866C1.79726 18.0108 1.93539 18.1285 2.10617 18.1285H8.02473V18.3486C8.02473 18.7079 8.36849 19 8.79125 19H12.506C12.9288 19 13.2725 18.7079 13.2725 18.3486V18.1285H19.1911C19.3619 18.1285 19.5 18.0108 19.5 17.866C19.5 17.7209 19.3619 17.6035 19.1911 17.6035H13.2721V17.3834C13.2721 17.0241 12.9283 16.7316 12.5056 16.7316ZM1.52499 6.64C1.49167 6.79509 1.49167 6.95403 1.52499 7.10913V6.64ZM11.4116 3.30813L17.7229 7.47888C17.9122 7.60413 18.1488 7.6585 18.3888 7.63338C18.6289 7.60788 18.8425 7.50513 18.9894 7.34425C19.2948 7.0105 19.2238 6.52787 18.831 6.268L11.0326 1.114C10.9174 1.03825 10.7828 1 10.6482 1C10.5136 1 10.379 1.03788 10.2643 1.114L2.46582 6.268C2.07307 6.5275 2.00202 7.0105 2.30739 7.34425C2.61276 7.678 3.18114 7.73875 3.57389 7.47888L9.8852 3.30813C10.3415 3.00625 10.9549 3.00625 11.4116 3.30813ZM13.5647 9.38088C13.5647 8.97625 13.1772 8.647 12.7011 8.647H8.59531C8.11916 8.647 7.73171 8.97625 7.73171 9.38088V14.4813H4.69521C4.53458 14.4813 4.40351 14.3703 4.40351 14.2334V7.59513L10.2643 3.7225C10.4937 3.57063 10.8026 3.57063 11.0326 3.7225L16.8929 7.59513V14.2334C16.8929 14.3703 16.7618 14.4813 16.6012 14.4813H13.5647V9.38088Z" fill="#252525"/>
</svg>
