<svg width="18" height="28" viewBox="0 0 18 28" fill="none" xmlns="http://www.w3.org/2000/svg">
<g clip-path="url(#clip0_14_7188)">
<path d="M17.9016 3.97519V19.5238C17.9016 21.444 16.3535 22.999 14.4453 22.999H4.63044V18.4995H12.2032C12.8788 18.4995 13.4251 17.9487 13.4251 17.2709V6.22957C13.4251 5.55031 12.8772 5.00103 12.2032 5.00103H0V0.5H14.4453C16.3551 0.5 17.9016 2.05656 17.9016 3.97519Z" fill="url(#paint0_linear_14_7188)"/>
<path d="M9.10539 9.50195H4.63037V14.0014H9.10539V9.50195Z" fill="url(#paint1_linear_14_7188)"/>
<path d="M4.63176 23.0005H0.156738V27.5H4.63176V23.0005Z" fill="url(#paint2_linear_14_7188)"/>
</g>
<defs>
<linearGradient id="paint0_linear_14_7188" x1="0.152348" y1="-3.84321" x2="22.1388" y2="29.042" gradientUnits="userSpaceOnUse">
<stop stop-color="#AACC19"/>
<stop offset="1" stop-color="#4B8125"/>
</linearGradient>
<linearGradient id="paint1_linear_14_7188" x1="-2.34223" y1="-2.17535" x2="19.6442" y2="30.7098" gradientUnits="userSpaceOnUse">
<stop stop-color="#AACC19"/>
<stop offset="1" stop-color="#4B8125"/>
</linearGradient>
<linearGradient id="paint2_linear_14_7188" x1="-11.6356" y1="4.0386" x2="10.3524" y2="36.9222" gradientUnits="userSpaceOnUse">
<stop stop-color="#AACC19"/>
<stop offset="1" stop-color="#4B8125"/>
</linearGradient>
<clipPath id="clip0_14_7188">
<rect width="18" height="27" fill="white" transform="translate(0 0.5)"/>
</clipPath>
</defs>
</svg>
