<svg width="190" height="34" viewBox="0 0 190 34" fill="none" xmlns="http://www.w3.org/2000/svg">
<path d="M90 6L100 6L95.7682 0.921866C95.3684 0.442112 94.6316 0.442112 94.2318 0.921866L90 6Z" fill="#071727"/>
<rect y="6" width="190" height="28" rx="8" fill="#071727"/>
<path d="M16.4406 24V23.076C16.9466 23.1493 17.3243 23.01 17.5736 22.658C17.8303 22.2987 17.9586 21.635 17.9586 20.667V16.3H23.0406V24H22.0176V17.268H18.9816V20.667C18.9816 21.3563 18.9156 21.9357 18.7836 22.405C18.659 22.867 18.4756 23.2153 18.2336 23.45C17.999 23.6847 17.735 23.846 17.4416 23.934C17.1556 24.0147 16.822 24.0367 16.4406 24ZM29.2386 23.307C28.6739 23.8643 27.9883 24.143 27.1816 24.143C26.3749 24.143 25.6893 23.8643 25.1246 23.307C24.5673 22.7497 24.2886 22.064 24.2886 21.25C24.2886 20.436 24.5673 19.7503 25.1246 19.193C25.6893 18.6357 26.3749 18.357 27.1816 18.357C27.9883 18.357 28.6739 18.6357 29.2386 19.193C29.8033 19.7503 30.0856 20.436 30.0856 21.25C30.0856 22.064 29.8033 22.7497 29.2386 23.307ZM27.1816 23.208C27.7316 23.208 28.1936 23.021 28.5676 22.647C28.9416 22.273 29.1286 21.8073 29.1286 21.25C29.1286 20.6927 28.9416 20.227 28.5676 19.853C28.1936 19.479 27.7316 19.292 27.1816 19.292C26.6389 19.292 26.1806 19.479 25.8066 19.853C25.4326 20.227 25.2456 20.6927 25.2456 21.25C25.2456 21.8073 25.4326 22.273 25.8066 22.647C26.1806 23.021 26.6389 23.208 27.1816 23.208ZM35.8668 24H34.6788L32.1708 21.393V24H31.2138V18.5H32.1708V20.931L34.5468 18.5H35.7788L33.1498 21.162L35.8668 24ZM40.8059 18.5H41.7629V24H40.8059V23.054C40.3292 23.78 39.6362 24.143 38.7269 24.143C37.9569 24.143 37.3005 23.8643 36.7579 23.307C36.2152 22.7423 35.9439 22.0567 35.9439 21.25C35.9439 20.4433 36.2152 19.7613 36.7579 19.204C37.3005 18.6393 37.9569 18.357 38.7269 18.357C39.6362 18.357 40.3292 18.72 40.8059 19.446V18.5ZM38.8479 23.219C39.4052 23.219 39.8709 23.032 40.2449 22.658C40.6189 22.2767 40.8059 21.8073 40.8059 21.25C40.8059 20.6927 40.6189 20.227 40.2449 19.853C39.8709 19.4717 39.4052 19.281 38.8479 19.281C38.2979 19.281 37.8359 19.4717 37.4619 19.853C37.0879 20.227 36.9009 20.6927 36.9009 21.25C36.9009 21.8073 37.0879 22.2767 37.4619 22.658C37.8359 23.032 38.2979 23.219 38.8479 23.219ZM47.7998 18.5V24H46.8428V19.424H44.6758V21.668C44.6758 22.57 44.4925 23.2007 44.1258 23.56C43.7665 23.912 43.2568 24.0587 42.5968 24V23.098C42.9708 23.1493 43.2495 23.0687 43.4328 22.856C43.6235 22.636 43.7188 22.2327 43.7188 21.646V18.5H47.7998ZM51.5709 20.48C52.1209 20.48 52.5756 20.645 52.9349 20.975C53.3016 21.2977 53.4849 21.7193 53.4849 22.24C53.4849 22.7607 53.3016 23.186 52.9349 23.516C52.5756 23.8387 52.1209 24 51.5709 24H49.2499V18.5H50.2069V20.48H51.5709ZM51.5709 23.109C51.8423 23.109 52.0696 23.032 52.2529 22.878C52.4436 22.7167 52.5389 22.504 52.5389 22.24C52.5389 21.976 52.4436 21.7633 52.2529 21.602C52.0696 21.4407 51.8423 21.36 51.5709 21.36H50.2069V23.109H51.5709ZM58.3196 18.5H59.2766V24H58.3196V21.701H55.4706V24H54.5136V18.5H55.4706V20.788H58.3196V18.5ZM63.0543 20.48C63.6043 20.48 64.059 20.645 64.4183 20.975C64.785 21.2977 64.9683 21.7193 64.9683 22.24C64.9683 22.7607 64.785 23.186 64.4183 23.516C64.059 23.8387 63.6043 24 63.0543 24H60.7333V18.5H61.6903V20.48H63.0543ZM65.6833 18.5H66.6403V24H65.6833V18.5ZM63.0543 23.109C63.3257 23.109 63.553 23.032 63.7363 22.878C63.927 22.7167 64.0223 22.504 64.0223 22.24C64.0223 21.976 63.927 21.7633 63.7363 21.602C63.553 21.4407 63.3257 21.36 63.0543 21.36H61.6903V23.109H63.0543ZM69.0045 17.675V16.839H71.9745V17.675H69.0045ZM72.0955 18.5H72.8655V24H71.9195V20.139L68.8725 24H68.1025V18.5H69.0485V22.361L72.0955 18.5ZM81.8352 18.5V24H80.8782V19.413H78.0292V24H77.0722V18.5H81.8352ZM86.3279 18.357C87.0979 18.357 87.7543 18.6393 88.2969 19.204C88.8396 19.7613 89.1109 20.4433 89.1109 21.25C89.1109 22.0567 88.8396 22.7423 88.2969 23.307C87.7543 23.8643 87.0979 24.143 86.3279 24.143C85.4186 24.143 84.7256 23.78 84.2489 23.054V26.2H83.2919V18.5H84.2489V19.446C84.7256 18.72 85.4186 18.357 86.3279 18.357ZM86.2069 23.219C86.7569 23.219 87.2189 23.032 87.5929 22.658C87.9669 22.2767 88.1539 21.8073 88.1539 21.25C88.1539 20.6927 87.9669 20.227 87.5929 19.853C87.2189 19.4717 86.7569 19.281 86.2069 19.281C85.6496 19.281 85.1839 19.4717 84.8099 19.853C84.4359 20.227 84.2489 20.6927 84.2489 21.25C84.2489 21.8073 84.4359 22.2767 84.8099 22.658C85.1839 23.032 85.6496 23.219 86.2069 23.219ZM94.8949 23.307C94.3302 23.8643 93.6445 24.143 92.8379 24.143C92.0312 24.143 91.3455 23.8643 90.7809 23.307C90.2235 22.7497 89.9449 22.064 89.9449 21.25C89.9449 20.436 90.2235 19.7503 90.7809 19.193C91.3455 18.6357 92.0312 18.357 92.8379 18.357C93.6445 18.357 94.3302 18.6357 94.8949 19.193C95.4595 19.7503 95.7419 20.436 95.7419 21.25C95.7419 22.064 95.4595 22.7497 94.8949 23.307ZM92.8379 23.208C93.3879 23.208 93.8499 23.021 94.2239 22.647C94.5979 22.273 94.7849 21.8073 94.7849 21.25C94.7849 20.6927 94.5979 20.227 94.2239 19.853C93.8499 19.479 93.3879 19.292 92.8379 19.292C92.2952 19.292 91.8369 19.479 91.4629 19.853C91.0889 20.227 90.9019 20.6927 90.9019 21.25C90.9019 21.8073 91.0889 22.273 91.4629 22.647C91.8369 23.021 92.2952 23.208 92.8379 23.208ZM99.455 24.143C98.6264 24.143 97.937 23.868 97.387 23.318C96.837 22.7607 96.562 22.0713 96.562 21.25C96.562 20.4287 96.837 19.743 97.387 19.193C97.937 18.6357 98.6264 18.357 99.455 18.357C99.9977 18.357 100.485 18.489 100.918 18.753C101.351 19.0097 101.673 19.358 101.886 19.798L101.083 20.26C100.944 19.9667 100.727 19.732 100.434 19.556C100.148 19.38 99.8217 19.292 99.455 19.292C98.905 19.292 98.443 19.479 98.069 19.853C97.7024 20.227 97.519 20.6927 97.519 21.25C97.519 21.8 97.7024 22.262 98.069 22.636C98.443 23.01 98.905 23.197 99.455 23.197C99.8217 23.197 100.152 23.1127 100.445 22.944C100.738 22.768 100.962 22.5333 101.116 22.24L101.93 22.713C101.695 23.1457 101.358 23.494 100.918 23.758C100.478 24.0147 99.9904 24.143 99.455 24.143ZM108.386 18.5V24H107.451V20.007L105.702 22.823H105.581L103.832 20.007V24H102.886V18.5H103.909L105.636 21.283L107.363 18.5H108.386ZM114.489 23.307C113.924 23.8643 113.238 24.143 112.432 24.143C111.625 24.143 110.939 23.8643 110.375 23.307C109.817 22.7497 109.539 22.064 109.539 21.25C109.539 20.436 109.817 19.7503 110.375 19.193C110.939 18.6357 111.625 18.357 112.432 18.357C113.238 18.357 113.924 18.6357 114.489 19.193C115.053 19.7503 115.336 20.436 115.336 21.25C115.336 22.064 115.053 22.7497 114.489 23.307ZM112.432 23.208C112.982 23.208 113.444 23.021 113.818 22.647C114.192 22.273 114.379 21.8073 114.379 21.25C114.379 20.6927 114.192 20.227 113.818 19.853C113.444 19.479 112.982 19.292 112.432 19.292C111.889 19.292 111.431 19.479 111.057 19.853C110.683 20.227 110.496 20.6927 110.496 21.25C110.496 21.8073 110.683 22.273 111.057 22.647C111.431 23.021 111.889 23.208 112.432 23.208ZM120.341 18.5V19.424H118.471V24H117.514V19.424H115.633V18.5H120.341ZM124.216 18.357C124.986 18.357 125.642 18.6393 126.185 19.204C126.727 19.7613 126.999 20.4433 126.999 21.25C126.999 22.0567 126.727 22.7423 126.185 23.307C125.642 23.8643 124.986 24.143 124.216 24.143C123.306 24.143 122.613 23.78 122.137 23.054V26.2H121.18V18.5H122.137V19.446C122.613 18.72 123.306 18.357 124.216 18.357ZM124.095 23.219C124.645 23.219 125.107 23.032 125.481 22.658C125.855 22.2767 126.042 21.8073 126.042 21.25C126.042 20.6927 125.855 20.227 125.481 19.853C125.107 19.4717 124.645 19.281 124.095 19.281C123.537 19.281 123.072 19.4717 122.698 19.853C122.324 20.227 122.137 20.6927 122.137 21.25C122.137 21.8073 122.324 22.2767 122.698 22.658C123.072 23.032 123.537 23.219 124.095 23.219ZM135.621 23.087H136.38V25.474H135.434V24H131.309V25.474H130.363V23.087H131.034C131.386 22.603 131.562 21.9247 131.562 21.052V18.5H135.621V23.087ZM132.123 23.087H134.675V19.391H132.508V21.052C132.508 21.8733 132.379 22.5517 132.123 23.087ZM141.404 18.5H142.174V24H141.228V20.139L138.181 24H137.411V18.5H138.357V22.361L141.404 18.5ZM148.185 18.5H149.142V24H148.185V23.054C147.708 23.78 147.015 24.143 146.106 24.143C145.336 24.143 144.679 23.8643 144.137 23.307C143.594 22.7423 143.323 22.0567 143.323 21.25C143.323 20.4433 143.594 19.7613 144.137 19.204C144.679 18.6393 145.336 18.357 146.106 18.357C147.015 18.357 147.708 18.72 148.185 19.446V18.5ZM146.227 23.219C146.784 23.219 147.25 23.032 147.624 22.658C147.998 22.2767 148.185 21.8073 148.185 21.25C148.185 20.6927 147.998 20.227 147.624 19.853C147.25 19.4717 146.784 19.281 146.227 19.281C145.677 19.281 145.215 19.4717 144.841 19.853C144.467 20.227 144.28 20.6927 144.28 21.25C144.28 21.8073 144.467 22.2767 144.841 22.658C145.215 23.032 145.677 23.219 146.227 23.219ZM155.179 18.5V24H154.222V19.424H152.055V21.668C152.055 22.57 151.871 23.2007 151.505 23.56C151.145 23.912 150.636 24.0587 149.976 24V23.098C150.35 23.1493 150.628 23.0687 150.812 22.856C151.002 22.636 151.098 22.2327 151.098 21.646V18.5H155.179ZM161.271 23.307C160.706 23.8643 160.02 24.143 159.214 24.143C158.407 24.143 157.721 23.8643 157.157 23.307C156.599 22.7497 156.321 22.064 156.321 21.25C156.321 20.436 156.599 19.7503 157.157 19.193C157.721 18.6357 158.407 18.357 159.214 18.357C160.02 18.357 160.706 18.6357 161.271 19.193C161.835 19.7503 162.118 20.436 162.118 21.25C162.118 22.064 161.835 22.7497 161.271 23.307ZM159.214 23.208C159.764 23.208 160.226 23.021 160.6 22.647C160.974 22.273 161.161 21.8073 161.161 21.25C161.161 20.6927 160.974 20.227 160.6 19.853C160.226 19.479 159.764 19.292 159.214 19.292C158.671 19.292 158.213 19.479 157.839 19.853C157.465 20.227 157.278 20.6927 157.278 21.25C157.278 21.8073 157.465 22.273 157.839 22.647C158.213 23.021 158.671 23.208 159.214 23.208ZM166.854 18.5V19.424H164.203V24H163.246V18.5H166.854ZM172.032 18.5H172.989V24H172.032V23.054C171.556 23.78 170.863 24.143 169.953 24.143C169.183 24.143 168.527 23.8643 167.984 23.307C167.442 22.7423 167.17 22.0567 167.17 21.25C167.17 20.4433 167.442 19.7613 167.984 19.204C168.527 18.6393 169.183 18.357 169.953 18.357C170.863 18.357 171.556 18.72 172.032 19.446V18.5ZM170.074 23.219C170.632 23.219 171.097 23.032 171.471 22.658C171.845 22.2767 172.032 21.8073 172.032 21.25C172.032 20.6927 171.845 20.227 171.471 19.853C171.097 19.4717 170.632 19.281 170.074 19.281C169.524 19.281 169.062 19.4717 168.688 19.853C168.314 20.227 168.127 20.6927 168.127 21.25C168.127 21.8073 168.314 22.2767 168.688 22.658C169.062 23.032 169.524 23.219 170.074 23.219Z" fill="white"/>
</svg>
