<svg width="76" height="34" viewBox="0 0 76 34" fill="none" xmlns="http://www.w3.org/2000/svg">
<path d="M33 6L43 6L38.7682 0.921866C38.3684 0.442112 37.6316 0.442112 37.2318 0.921866L33 6Z" fill="#071727"/>
<rect y="6" width="76" height="28" rx="8" fill="#071727"/>
<path d="M21.6815 20.007C22.0335 20.1757 22.3122 20.4177 22.5175 20.733C22.7302 21.0483 22.8365 21.4113 22.8365 21.822C22.8365 22.438 22.6202 22.955 22.1875 23.373C21.7549 23.791 21.2269 24 20.6035 24H17.2815V16.3H20.3615C20.9629 16.3 21.4725 16.5017 21.8905 16.905C22.3085 17.3083 22.5175 17.807 22.5175 18.401C22.5175 19.083 22.2389 19.6183 21.6815 20.007ZM20.3615 17.257H18.3045V19.611H20.3615C20.6842 19.611 20.9555 19.4973 21.1755 19.27C21.3955 19.0427 21.5055 18.764 21.5055 18.434C21.5055 18.1113 21.3919 17.8363 21.1645 17.609C20.9445 17.3743 20.6769 17.257 20.3615 17.257ZM20.6035 23.043C20.9482 23.043 21.2379 22.922 21.4725 22.68C21.7072 22.438 21.8245 22.141 21.8245 21.789C21.8245 21.4443 21.7035 21.151 21.4615 20.909C21.2269 20.667 20.9409 20.546 20.6035 20.546H18.3045V23.043H20.6035ZM29.5931 16.3C30.3045 16.3 30.8948 16.5383 31.3641 17.015C31.8408 17.4843 32.0791 18.071 32.0791 18.775C32.0791 19.4717 31.8408 20.0583 31.3641 20.535C30.8948 21.0117 30.3045 21.25 29.5931 21.25H27.8221V24H26.7991V16.3H29.5931ZM29.5931 20.293C30.0185 20.293 30.3705 20.15 30.6491 19.864C30.9278 19.5707 31.0671 19.2077 31.0671 18.775C31.0671 18.335 30.9278 17.972 30.6491 17.686C30.3705 17.4 30.0185 17.257 29.5931 17.257H27.8221V20.293H29.5931ZM33.1884 24V15.97H34.1454V24H33.1884ZM40.1594 18.5H41.1164V24H40.1594V23.054C39.6827 23.78 38.9897 24.143 38.0804 24.143C37.3104 24.143 36.6541 23.8643 36.1114 23.307C35.5687 22.7423 35.2974 22.0567 35.2974 21.25C35.2974 20.4433 35.5687 19.7613 36.1114 19.204C36.6541 18.6393 37.3104 18.357 38.0804 18.357C38.9897 18.357 39.6827 18.72 40.1594 19.446V18.5ZM38.2014 23.219C38.7587 23.219 39.2244 23.032 39.5984 22.658C39.9724 22.2767 40.1594 21.8073 40.1594 21.25C40.1594 20.6927 39.9724 20.227 39.5984 19.853C39.2244 19.4717 38.7587 19.281 38.2014 19.281C37.6514 19.281 37.1894 19.4717 36.8154 19.853C36.4414 20.227 36.2544 20.6927 36.2544 21.25C36.2544 21.8073 36.4414 22.2767 36.8154 22.658C37.1894 23.032 37.6514 23.219 38.2014 23.219ZM45.3053 18.357C45.9507 18.357 46.4677 18.5623 46.8563 18.973C47.245 19.3763 47.4393 19.9263 47.4393 20.623V24H46.4823V20.678C46.4823 20.2307 46.3613 19.886 46.1193 19.644C45.8773 19.3947 45.5437 19.27 45.1183 19.27C44.6417 19.27 44.2567 19.4203 43.9633 19.721C43.67 20.0143 43.5233 20.469 43.5233 21.085V24H42.5663V18.5H43.5233V19.292C43.912 18.6687 44.506 18.357 45.3053 18.357ZM53.1423 18.5V24H52.1853V19.424H50.1503V24H49.1933V19.424H48.3133V18.5H49.1933V18.335C49.1933 16.883 49.9963 16.157 51.6023 16.157C51.903 16.157 52.2807 16.2047 52.7353 16.3V17.169C52.288 17.1103 51.9103 17.081 51.6023 17.081C51.1036 17.081 50.737 17.1763 50.5023 17.367C50.2676 17.5503 50.1503 17.873 50.1503 18.335V18.5H53.1423ZM59.3823 24H58.2603L56.7203 21.921L55.1693 24H54.0473L56.1593 21.173L54.1683 18.5H55.3013L56.7203 20.414L58.1393 18.5H59.2613L57.2813 21.162L59.3823 24Z" fill="white"/>
</svg>
