<?xml version="1.0" encoding="utf-8"?><svg width="483" height="378" fill="none" xmlns="http://www.w3.org/2000/svg" viewBox="0 0 483 378"><path d="M455.198 110.453a.477.477 0 01-.32-.12l-82.333-66.988a.504.504 0 01-.067-.706c.173-.227.48-.24.693-.08l82.346 67.001a.49.49 0 01.08.693.497.497 0 01-.399.186v.014zM156.408 349.46a.422.422 0 01-.253-.067l-109-62.925a.499.499 0 01.492-.866l109.014 62.939c.24.133.32.44.173.679a.455.455 0 01-.426.24z" fill="#AACC19"/><path d="M471.009 101.861c-3.304-1.918-7.873-1.639-12.908 1.265-10.07 5.821-18.235 19.981-18.235 31.596 0 5.835 2.051 9.937 5.328 11.829l6.42 3.729c3.304 1.905 7.859 1.639 12.894-1.332 10.084-5.807 18.249-19.98 18.249-31.596 0-5.807-2.038-9.897-5.328-11.801" fill="#EC6A1E"/><path d="M464.562 106.87c-10.07 5.821-18.236 19.98-18.236 31.609 0 11.629 8.166 16.344 18.236 10.523 10.07-5.821 18.262-19.981 18.249-31.596-.013-11.615-8.179-16.344-18.249-10.536z" fill="#EC6A1E"/><path opacity=".4" d="M471.008 101.861l6.461 3.743c-3.304-1.918-7.859-1.639-12.908 1.265-6.593 3.823-12.374 11.203-15.571 19.115l-6.474-3.756c3.21-7.913 8.991-15.292 15.585-19.102 5.035-2.904 9.604-3.183 12.907-1.265z" fill="#fff"/><path opacity=".2" d="M451.428 150.134l-6.181-3.583c-3.33-1.892-5.328-5.995-5.328-11.829l6.461 3.757c-.054 5.661 1.878 9.697 5.048 11.655z" fill="#000"/><path opacity=".1" d="M442.516 122.228l6.474 3.756a33.578 33.578 0 00-2.664 12.494l-6.46-3.756a34.14 34.14 0 012.65-12.494z" fill="#000"/><path d="M22.725 242.324c3.303-1.904 7.859-1.638 12.907 1.332 10.07 5.821 18.236 19.981 18.236 31.61 0 5.834-2.065 9.923-5.328 11.815l-6.434 3.73c-3.29 1.904-7.859 1.638-12.894-1.266-10.07-5.821-18.236-19.98-18.236-31.609 0-5.808 2.038-9.897 5.329-11.802" fill="#A069F8"/><path d="M29.159 247.346c10.07 5.821 18.249 19.981 18.249 31.596 0 11.616-8.18 16.344-18.25 10.537-10.07-5.808-18.248-19.981-18.235-31.609.013-11.629 8.179-16.305 18.236-10.524z" fill="#A069F8"/><path opacity=".4" d="M22.725 242.324l-6.46 3.743c3.303-1.904 7.859-1.638 12.894 1.332 6.594 3.81 12.375 11.19 15.585 19.102l6.46-3.756c-3.197-7.899-8.978-15.292-15.571-19.102-5.049-2.957-9.63-3.223-12.908-1.319z" fill="#fff"/><path opacity=".2" d="M42.306 290.611l6.18-3.597c3.317-1.891 5.329-5.98 5.329-11.815l-6.46 3.743c.04 5.675-1.905 9.697-5.05 11.669z" fill="#000"/><path opacity=".1" d="M51.204 262.745l-6.46 3.756a33.57 33.57 0 012.664 12.494l6.46-3.743a33.634 33.634 0 00-2.664-12.507z" fill="#000"/><path d="M368.055 12.455c-3.29-1.918-7.859-1.639-12.894 1.265-10.084 5.821-18.249 19.98-18.249 31.596 0 5.848 2.065 9.937 5.328 11.828l6.434 3.73c3.303 1.905 7.859 1.639 12.894-1.265 10.07-5.821 18.249-19.98 18.249-31.61 0-5.807-2.052-9.897-5.328-11.801" fill="#E63C2F"/><path d="M361.675 17.516c-10.07 5.821-18.236 19.98-18.236 31.596s8.113 16.344 18.236 10.537c10.124-5.808 18.249-19.98 18.249-31.61 0-11.628-8.232-16.344-18.249-10.523z" fill="#E63C2F"/><path opacity=".4" d="M368.055 12.442l6.474 3.743c-3.304-1.905-7.873-1.639-12.908 1.332-6.593 3.81-12.374 11.189-15.585 19.101l-6.46-3.756c3.21-7.9 8.978-15.292 15.585-19.102 5.035-2.917 9.604-3.197 12.894-1.318z" fill="#fff"/><path opacity=".2" d="M348.487 60.78l-6.194-3.596c-3.316-1.891-5.328-5.98-5.328-11.815l6.474 3.743c-.053 5.675 1.892 9.697 5.048 11.669z" fill="#000"/><path opacity=".1" d="M339.576 32.861l6.461 3.757a34.157 34.157 0 00-2.664 12.494l-6.474-3.743a33.92 33.92 0 012.677-12.508z" fill="#000"/><path d="M315.573 327.468c-3.29-1.918-7.859-1.639-12.894 1.265-10.084 5.821-18.249 19.981-18.249 31.596 0 5.848 2.065 9.937 5.328 11.829l6.434 3.729c3.303 1.905 7.859 1.639 12.894-1.332 10.07-5.807 18.249-19.98 18.249-31.596 0-5.807-2.051-9.897-5.328-11.801" fill="#F8B22E"/><path d="M309.139 332.489c-10.07 5.808-18.235 19.981-18.235 31.596 0 11.616 8.165 16.345 18.235 10.524 10.071-5.821 18.249-19.981 18.249-31.596 0-11.616-8.178-16.345-18.249-10.524z" fill="#F8B22E"/><path opacity=".4" d="M315.559 327.468l6.474 3.743c-3.303-1.905-7.872-1.639-12.907 1.265-6.594 3.823-12.375 11.203-15.585 19.115l-6.474-3.756c3.21-7.913 8.978-15.292 15.585-19.102 5.048-2.904 9.617-3.183 12.907-1.265z" fill="#fff"/><path opacity=".2" d="M296.005 375.741l-6.194-3.636c-3.316-1.892-5.328-5.981-5.328-11.829l6.474 3.757c-.053 5.727 1.891 9.75 5.048 11.708z" fill="#000"/><path opacity=".1" d="M287.081 347.835l6.46 3.756a34.16 34.16 0 00-2.664 12.495l-6.46-3.757c.08-4.302.985-8.538 2.664-12.494z" fill="#000"/><path d="M89.513 158.859l3.01-.24c3.997-.32 8.699-1.878 8.699-7.553a13.303 13.303 0 00-6.021-10.43c-2.598-1.492-4.809-.879-5.661 1.332a13.363 13.363 0 00-5.648-7.805c-3.33-1.918-6.02-.36-6.02 3.476 0 5.568 4.701 12.601 8.644 17.53l2.997 3.69z" fill="#AACC19"/><path d="M159.632 323.539c3.303-1.905 7.859-1.639 12.907 1.332 10.07 5.821 18.236 19.98 18.236 31.596 0 5.834-2.065 9.923-5.328 11.828l-6.434 3.73c-3.29 1.905-7.859 1.625-12.894-1.332-10.071-5.821-18.236-19.981-18.236-31.596 0-5.821 2.038-9.897 5.328-11.802" fill="#FFE000"/><path d="M166.065 328.561c10.084 5.821 18.249 19.98 18.249 31.596 0 11.615-8.179 16.357-18.249 10.536-10.07-5.821-18.249-19.981-18.235-31.596.013-11.615 8.178-16.277 18.235-10.536z" fill="#FFE000"/><path opacity=".4" d="M159.632 323.539l-6.461 3.756c3.304-1.918 7.859-1.638 12.895 1.266 6.593 3.809 12.374 11.202 15.584 19.101l6.461-3.743c-3.197-7.912-8.925-15.292-15.585-19.101-5.035-2.918-9.591-3.184-12.894-1.279z" fill="#fff"/><path opacity=".2" d="M179.186 371.825l6.18-3.583c3.317-1.905 5.329-5.994 5.329-11.828l-6.381 3.703c-.013 5.714-1.958 9.75-5.128 11.708z" fill="#000"/><path opacity=".1" d="M188.111 343.919l-6.461 3.743a33.558 33.558 0 012.664 12.494l6.461-3.756a33.845 33.845 0 00-2.664-12.481z" fill="#000"/><path d="M11.802 92.617c3.303-1.918 7.86-1.639 12.907 1.265 10.07 5.821 18.236 19.981 18.236 31.596 0 5.848-2.051 9.937-5.328 11.829l-6.42 3.729c-3.304 1.905-7.86 1.639-12.908-1.332C8.22 133.897.053 119.724.053 108.108c0-5.807 2.038-9.897 5.329-11.802" fill="#EF0600"/><path d="M18.249 97.705c10.07 5.821 18.235 19.981 18.235 31.596 0 11.616-8.165 16.344-18.248 10.523C8.152 134.003 0 119.844 0 108.228c0-11.615 8.179-16.41 18.249-10.523z" fill="#EF0600"/><path opacity=".4" d="M11.801 92.55l-6.46 3.756c3.304-1.904 7.86-1.638 12.894 1.332 6.66 3.81 12.388 11.19 15.585 19.102l6.46-3.757c-3.197-7.978-8.95-15.345-15.611-19.168-5.009-2.837-9.564-3.183-12.868-1.265z" fill="#fff"/><path opacity=".2" d="M31.33 140.89l6.18-3.583c3.33-1.892 5.328-5.981 5.328-11.829l-6.46 3.756c.107 5.675-1.838 9.764-5.048 11.656z" fill="#000"/><path opacity=".1" d="M40.28 112.983l-6.46 3.757a33.57 33.57 0 012.665 12.494l6.46-3.756a33.573 33.573 0 00-2.664-12.495z" fill="#000"/><path d="M462.736 250.01c-3.303-1.904-7.872-1.638-12.907 1.332-10.07 5.822-18.236 19.981-18.236 31.596 0 5.835 2.052 9.924 5.328 11.829l6.421 3.73c3.303 1.904 7.859 1.625 12.894-1.332 10.083-5.821 18.249-19.981 18.249-31.596 0-5.821-2.038-9.897-5.328-11.802" fill="#DC131B"/><path d="M456.249 255.032c-10.07 5.821-18.236 19.98-18.236 31.596 0 11.615 8.166 16.357 18.236 10.536s18.262-19.981 18.249-31.596c-.013-11.615-8.139-16.344-18.249-10.536z" fill="#DC131B"/><path opacity=".4" d="M462.737 249.944l6.46 3.756c-3.303-1.918-7.859-1.638-12.907 1.332-6.594 3.81-12.375 11.202-15.572 19.101l-6.474-3.743c3.211-7.912 8.992-15.291 15.585-19.101 5.089-2.984 9.604-3.25 12.908-1.345z" fill="#fff"/><path opacity=".2" d="M443.155 298.296l-6.18-3.583c-3.33-1.905-5.329-5.994-5.329-11.828l6.461 3.756c-.053 5.661 1.891 9.697 5.048 11.655z" fill="#000"/><path opacity=".1" d="M434.244 270.39l6.474 3.743a33.559 33.559 0 00-2.664 12.495l-6.461-3.77a34.026 34.026 0 012.651-12.468z" fill="#000"/><path d="M133.204 66.709l-3.61-6.78 2.97-8.366v-5.128l-8.884 5.128v5.115l3.823 6.66a.54.54 0 00.266.227l5.435 3.144z" fill="#AACC19"/><path d="M133.204 66.709l-3.61-6.78 2.97-8.366v-5.128l-8.884 5.128v5.115l3.823 6.66a.54.54 0 00.266.227l5.435 3.144z" fill="#0057D6"/><path d="M171.38 6.5a5.89 5.89 0 00-2.664-4.609L166.545.64a5.872 5.872 0 00-5.329 0l-50.204 29.012a5.853 5.853 0 00-2.664 4.609v25.961a5.878 5.878 0 002.664 4.623l2.171 1.252c1.679.839 3.65.839 5.328 0l10.657-6.181 3.809 6.66c.147.267.48.373.76.227a.527.527 0 00.266-.32l3.996-11.629 30.637-17.703a5.89 5.89 0 002.664-4.608l.08-26.042z" fill="#005BFD"/><path opacity=".2" d="M108.348 60.221a5.878 5.878 0 002.664 4.622l2.171 1.252c1.519.76 3.291.84 4.862.214-1.252.466-2.211-.24-2.211-1.759V38.59a5.357 5.357 0 01.786-2.664l-7.486-4.33a5.357 5.357 0 00-.786 2.665V60.22z" fill="#000"/><path opacity=".2" d="M171.287 5.795c-.306-1.133-1.332-1.492-2.571-.786l-50.218 29.025a5.233 5.233 0 00-1.918 1.931l-7.486-4.329a5.486 5.486 0 011.878-1.985L161.177.64a5.953 5.953 0 015.328 0l2.171 1.252a5.88 5.88 0 012.611 3.903z" fill="#fff"/><path d="M377.153 155.262l23.057-13.32c.48-.36.773-.933.786-1.532v-20.727c0-.586-.346-.852-.786-.599l-23.057 13.32a1.911 1.911 0 00-.799 1.519v20.753c-.027.573.359.839.799.586z" fill="#AACC19"/><path d="M376.327 154.663v-.413l9.538-15.798-9.405-5.209s.04-.119.067-.173l11.722 4.889c.24.106.559-.08.812-.48l11.709-18.382h.067l-9.391 16.065 9.524 4.795v.399c0 .333-.093.653-.24.946l-9.764-5.328-1.332 2.371c-.559.933-1.332 1.332-1.851 1.066l-1.332-.773-9.751 16.571a.733.733 0 01-.373-.546z" fill="#fff"/><path d="M257.27 24.19l-4.249-2.411c-2.012-1.332-4.822-1.332-7.992.492-6.168 3.557-11.15 12.588-11.15 20.167v1.719c0 7.58 10.19 15.825 10.19 15.825l4.17 2.357s-2.504-2.85-2.225-3.436c2.664-5.608 10.164-21.433 10.164-27.614v-1.731c0-1.252-.147-2.491-.48-3.703l.48.28 1.092-1.945zm-12.175 17.316c-3.077 1.772-5.581.333-5.581-3.223 1.665-.254 5.834-7.367 5.581-9.658 3.077-1.771 5.568-.333 5.568 3.224a12.323 12.323 0 01-5.568 9.724v-.067z" fill="#AACC19"/><path d="M257.27 24.19l-4.249-2.411c-2.012-1.332-4.822-1.332-7.992.492-6.168 3.557-11.15 12.588-11.15 20.167v1.719c0 7.58 10.19 15.825 10.19 15.825l4.17 2.357s-2.504-2.85-2.225-3.436c2.664-5.608 10.164-21.433 10.164-27.614v-1.731c0-1.252-.147-2.491-.48-3.703l.48.28 1.092-1.945zm-12.175 17.316c-3.077 1.772-5.581.333-5.581-3.223 1.665-.254 5.834-7.367 5.581-9.658 3.077-1.771 5.568-.333 5.568 3.224a12.323 12.323 0 01-5.568 9.724v-.067z" fill="#000" opacity=".2"/><path d="M260.707 32.115c0-7.579-4.995-10.843-11.149-7.286-6.154 3.557-11.163 12.588-11.163 20.167v1.732c0 5.834 6.66 12.6 9.658 15.411.612.56 1.558.533 2.131-.08.093-.106.186-.226.24-.36 2.664-5.327 10.283-21.578 10.283-27.852v-1.732zm-11.149 11.989c-3.091 1.785-5.581.346-5.581-3.21a12.288 12.288 0 015.581-9.658c3.077-1.785 5.568-.346 5.568 3.21a12.314 12.314 0 01-5.568 9.698v-.04zM453.799 252.714a.51.51 0 01-.467-.52l4.809-104.271a.495.495 0 01.52-.48c.279.013.492.24.479.519l-4.849 104.259a.5.5 0 01-.492.493zM446.392 259.108a.472.472 0 01-.439-.267l-54.52-102.567a.505.505 0 01.213-.666.489.489 0 01.666.2l54.507 102.567a.48.48 0 01-.174.653h-.026a.451.451 0 01-.227.066v.014zM404.82 130.14c-.24 0-.44-.16-.48-.399a.5.5 0 01.387-.587l40.867-8.098a.482.482 0 01.572.373v.013a.498.498 0 01-.386.586l-40.813 8.099h-.147v.013zM383.8 122.721a.5.5 0 01-.453-.293L356.6 60.968a.493.493 0 01.253-.653.494.494 0 01.653.253l26.814 61.447a.476.476 0 01-.227.639h-.026c-.08.04-.174.054-.267.04v.027zM260.947 42.039a.5.5 0 01-.493-.413.494.494 0 01.373-.573h.04l87.488-14.32a.494.494 0 01.559.414.495.495 0 01-.399.573l-87.488 14.306h-.08v.013zM377.406 126.783a.481.481 0 01-.266-.079L259.827 51.43a.493.493 0 01-.146-.68.492.492 0 01.693-.132l117.285 75.273a.493.493 0 01-.279.906h.026v-.014zM323.339 350.646a.478.478 0 01-.426-.254.486.486 0 01.173-.679l111.891-65.137a.487.487 0 01.679.174.51.51 0 01-.173.679l-111.891 65.15a.544.544 0 01-.24.067h-.013zM35.552 248.531a.616.616 0 01-.226 0 .501.501 0 01-.213-.666l45.289-90.299a.502.502 0 01.666-.226c.24.133.346.426.226.679l-45.302 90.206a.46.46 0 01-.44.306zM29.159 245.348a.504.504 0 01-.493-.453L18.342 137a.493.493 0 01.44-.546h.013a.48.48 0 01.533.426v.027l10.323 107.895a.494.494 0 01-.44.546h-.052zM93.576 135.095h-.2a.51.51 0 01-.253-.653l29.025-66.322c.107-.253.4-.36.653-.253.24.093.36.373.266.626v.027l-29.011 66.322a.514.514 0 01-.467.253h-.013zM231.841 41.413h-.12l-55.08-13.587a.51.51 0 01-.372-.6.525.525 0 01.612-.372l55.08 13.573a.512.512 0 01.373.6.5.5 0 01-.493.386zM29.998 105.085a.476.476 0 01-.4-.2.507.507 0 01.107-.706l74.048-53.482a.522.522 0 01.706.107.51.51 0 01-.12.706l-73.995 53.481a.462.462 0 01-.346.094zM74.235 136.334s-.133.013-.2 0l-34.473-16.237a.5.5 0 01-.2-.666.508.508 0 01.613-.227l34.473 16.131c.253.107.36.4.24.653v.013a.522.522 0 01-.453.333zM102.048 142.808a.503.503 0 01-.307-.906l125.225-89.42a.494.494 0 01.693.12.493.493 0 01-.12.693l-125.211 89.419a.418.418 0 01-.28.094zM288.999 349.233l-102.793-.066a.478.478 0 01-.48-.48c0-.266.213-.479.48-.479l102.793.079a.472.472 0 01.546.4.472.472 0 01-.399.546h-.16.013z" fill="#AACC19"/><path d="M48.846 271.629l106.123-42.559" stroke="#AACC19" stroke-linecap="round" stroke-linejoin="round"/><path d="M102.62 154.503l60.901 21.419" stroke="#AACC19" stroke-miterlimit="10" stroke-linecap="round"/><path d="M372.358 146.098l-46.182 12.761M436.163 275.399L315.08 226.273M169.329 326.242l28.785-69.305M301.014 334.994l-45.889-76.392" stroke="#AACC19" stroke-linecap="round" stroke-linejoin="round"/><path d="M24.47 279.451c1.299-.692 1.591-2.679.653-4.438-.938-1.76-2.75-2.625-4.049-1.933-1.298.692-1.59 2.68-.653 4.439.938 1.759 2.751 2.624 4.05 1.932zM38.145 283.585c2.862-1.526 3.506-5.91 1.436-9.793-2.069-3.882-6.068-5.792-8.93-4.266-2.863 1.526-3.507 5.911-1.437 9.793 2.07 3.882 6.068 5.792 8.93 4.266zM33.994 266.688c1.811-.965 2.217-3.743.905-6.203-1.312-2.46-3.843-3.672-5.654-2.707-1.812.966-2.217 3.743-.905 6.203 1.311 2.461 3.843 3.673 5.654 2.707zM22.945 267.48c2.26-1.205 2.77-4.66 1.14-7.717-1.63-3.058-4.783-4.56-7.042-3.356-2.26 1.204-2.77 4.659-1.14 7.717 1.63 3.058 4.783 4.56 7.042 3.356zM155.396 356.174s-.067-.107-.093-.16h.013V356c-.133-.186-.24-.413-.386-.599l-.12-.2c.026 0 0-.026 0-.04h-.027a1.295 1.295 0 00-.08-.146h.014v-.014c-.134-.186-.2-.413-.36-.586l-.08-.16-.32-.639c-.053-.107-.08-.2-.053-.293.093-.293.173-.599.253-.893.32-1.145.653-2.291.972-3.449.32-1.119.627-2.252.933-3.371l.999-3.516c.08-.267.08-.267.346-.107.746.413 1.492.84 2.251 1.252.706.387 1.399.786 2.105 1.159.173.094.253.213.293.413.08.413.187.826.28 1.239.28 1.226.559 2.451.826 3.676.053.267.08.533.199.8.054 0 .067-.04.08-.08.12-.68.253-1.359.373-2.052l.36-2.038c.16-.852.32-1.691.466-2.53l.6-3.397c.199-1.132.413-2.251.626-3.384.026-.146.093-.173.226-.133.44.16.893.32 1.332.48 1.346.479 2.691.972 4.036 1.452.147.053.213.146.24.306.04.227.093.466.133.693.267 1.265.52 2.517.786 3.783.16.786.333 1.572.493 2.371.107.519.213 1.025.333 1.545.013.067.027.186.093.213.067.04.067-.067.093-.12.413-1.012.813-2.025 1.213-3.05l.999-2.558c.026-.066.053-.133.12-.146.026.04.066.08.093.12.053.173.16.306.253.453a30.87 30.87 0 011.838 3.396c.093.187.133.4.28.573.04.093.053.2.133.266h-.027v.04c.227.586.467 1.159.653 1.745.027.107.067.2.04.293-.24.586-.466 1.173-.693 1.759-.413 1.052-.839 2.104-1.252 3.143-.333.853-.666 1.692-.999 2.545-.346.879-.706 1.758-1.052 2.637-.053.133-.133.146-.266.067-.64-.36-1.266-.706-1.905-1.066-.866-.48-1.732-.972-2.584-1.439-.187-.106-.267-.213-.293-.426-.08-.666-.174-1.332-.267-1.998l-.719-5.235c0-.067-.027-.12-.093-.186-.067.359-.12.706-.187 1.065l-.559 3.051c-.227 1.265-.467 2.53-.693 3.796-.187 1.039-.373 2.091-.56 3.13-.159.853-.319 1.705-.466 2.558-.026.2-.12.226-.293.16-.439-.174-.879-.32-1.318-.48-.653-.226-1.293-.466-1.945-.693-.64-.226-1.266-.466-1.905-.679-.133-.053-.213-.107-.24-.293l-.24-1.625c-.119-.826-.239-1.639-.346-2.464-.12-.88-.253-1.772-.373-2.651-.04-.293-.093-.6-.133-.933-.08.04-.08.094-.093.147-.107.4-.227.799-.333 1.199l-.72 2.557c-.253.933-.519 1.865-.772 2.798-.027.106-.093.106-.187 0-.066-.067-.12-.174-.2-.214a.73.73 0 00-.093-.119v-.027h-.026s-.107-.12-.147-.187c.027 0 0-.026 0-.04h-.013c-.027-.039-.054-.066-.094-.106a15.83 15.83 0 00-.905-1.212l-.12-.16c-.08-.187-.213-.333-.333-.493-.04-.067-.093-.133-.133-.2-.067-.12-.107-.24-.214-.319l-.066.04z" fill="#fff"/><path d="M172.326 367.816c-1.838.106-3.783-.267-5.794-1.106-1.932-.812-3.85-2.038-5.675-3.636a28.873 28.873 0 01-4.902-5.595 29.998 29.998 0 01-3.503-7.006c-.839-2.451-1.305-4.849-1.358-7.14-.054-2.211.253-4.209.932-5.954s1.678-3.144 2.997-4.156c1.359-1.053 2.971-1.639 4.809-1.745 1.838-.107 3.783.266 5.794 1.105 1.932.813 3.85 2.038 5.675 3.637a28.8 28.8 0 014.901 5.594 29.97 29.97 0 013.504 7.007c.839 2.451 1.305 4.848 1.358 7.14.054 2.211-.253 4.209-.932 5.954s-1.678 3.143-2.997 4.156c-1.359 1.052-2.971 1.638-4.809 1.745zm-12.121-35.246c-7.06.426-10.164 8.432-6.927 17.849 3.237 9.418 11.615 16.731 18.675 16.304 7.06-.426 10.164-8.431 6.927-17.849-3.237-9.417-11.616-16.73-18.675-16.304zM325.697 352.79c.28-.786.506-1.599.666-2.411-.053.28-4.369.186-4.862.213-.093 0-.2 0-.293.013 0-.12.053-.253.08-.373.266-1.212.399-2.371.333-3.476-.107-1.972-.786-3.53-2.105-4.609-1.252-1.039-2.85-1.505-4.742-1.559a12.37 12.37 0 00-2.291.174 15.967 15.967 0 00-3.543 1.012c-2.384.999-4.569 2.504-6.54 4.555-2.065 2.158-3.517 4.529-4.569 7.034-.2.492-.4.985-.56 1.492a17.142 17.142 0 00-.533 1.904c-.306 1.319-.426 2.584-.333 3.77.214 2.504 1.306 4.276 3.291 5.302 1.052.546 2.277.812 3.636.852.839.027 1.705-.013 2.611-.186 1.265-.227 2.544-.666 3.849-1.306a20.73 20.73 0 005.262-3.703 15.23 15.23 0 001.931-2.224c.027-.054.08-.094.067-.147h-.053c-1.918.093-3.837.2-5.755.293-.106 0-.186.053-.266.133-1.399 1.252-2.864 1.985-4.369 2.158-.68.08-1.332.053-1.918-.093-1.452-.36-2.278-1.305-2.438-2.864-.067-.639 0-1.332.187-2.065.066-.279.066-.279.319-.293 5.475-.279 10.936-.546 16.411-.826.08 0 .16.001.253-.026h.16c.972-.053 1.945-.093 2.917-.147.653-.026 1.479.28 2.038-.239.253-.24.453-.547.599-.866.214-.48.373-1.013.547-1.505l.013.013zm-10.164-2.012c-.026.08-.079.125-.159.134h-.107c-3.583.186-7.153.359-10.736.546-.067 0-.147.026-.187-.013.36-.786.826-1.532 1.412-2.252.919-1.145 1.985-2.091 3.237-2.744a7.414 7.414 0 012.478-.825c.852-.12 1.638-.107 2.344.106 1.359.413 2.025 1.425 2.051 2.984.014.653-.106 1.332-.319 2.051l-.014.013zM472.581 264.049c-3.317 3.477-6.767 6.567-10.364 9.258-1.904 1.425-3.849 2.664-5.847 3.583.373-.639.786-1.212 1.199-1.798 4.062-5.701 8.298-11.149 12.561-16.517.226-.28.453-.573.679-.866-.546.466-1.066.999-1.572 1.519a82.205 82.205 0 01-6.846 6.22c-1.919 1.559-3.863 3.05-5.888 4.209-3.876 2.225-7.819 3.57-11.775 4.529-.746.187-1.505.333-2.305.52 1.452 1.532 2.518 3.49 3.357 5.714-.373.093-.746.187-1.172.28.439.453.826.906 1.185 1.439.413.612.826 1.198 1.119 1.958a45.6 45.6 0 01.973 6.034c.026.359.12.386.319.12.227-.333.453-.68.68-1.013.586 2.118.959 4.369 1.185 6.687.014.173-.04.466.12.493.133.027.253-.213.36-.373.16-.226.306-.453.439-.693.56-.945 1.119-1.878 1.665-2.837 2.331-4.023 4.689-7.992 7.3-11.669 4.103-5.754 8.378-11.229 12.681-16.65.08-.093.173-.173.213-.32-.106-.066-.173.08-.24.16l-.026.013zM357.492 34.02c2.944-1.705 5.888-3.33 8.845-4.995.093-.173.053-.306.053-.44-.026-1.864-.04-3.729-.066-5.594-.08.04-.173.08-.253.12-2.891 1.519-5.781 3.224-8.672 4.849-4.249 2.397-7.819 8.605-7.792 13.626.026 5.488.119 10.937.186 16.398 0 .28.067.306.306.173 1.492-.852 2.984-1.705 4.476-2.53.28-.147.333-.28.333-.587-.04-2.038-.053-4.09-.093-6.127 0-.347.066-.48.373-.653 3.663-2.051 7.326-4.13 10.976-6.194.106-.067.213-.107.32-.16.066-.133.053-.24.053-.36-.027-1.811-.04-3.623-.067-5.434 0-.093 0-.2-.066-.253-1.173.666-2.331 1.332-3.504 1.998-2.597 1.465-5.195 2.93-7.792 4.422-.333.187-.4.107-.386-.253 0-.986-.027-1.958-.027-2.944 0-1.958 1.146-4.102 2.784-5.062h.013zM373.69 27.493c-.027-2.744-.067-5.474-.093-8.218 0-.213.053-.44-.253-.267-1.599.933-3.197 1.825-4.796 2.73.027 1.866.054 3.73.067 5.595 0 .134.04.267-.053.44l.08 6.847c.066.04.053.146.066.253.027 1.811.04 3.623.067 5.434 0 .107 0 .227-.053.36.026 2.145.066 4.276.079 6.42 0 .36.054.467.4.267a240.39 240.39 0 014.329-2.451c.307-.173.4-.293.4-.693-.08-5.568-.147-11.149-.213-16.717h-.027zM480.319 117.393l-1.892.905s0-.066-.013-.106l1.892-.906v.107h.013zM462.696 129.727c.067-.439.133-.892.187-1.332.119-.852.226-1.718.359-2.557.027-.187.16-.426.267-.493.532-.293 1.092-.52 1.625-.799.213-.107.293 0 .293.359.026 2.025.053 4.036.066 6.061 0 .133-.053.36-.12.386-.386.214-.785.387-1.225.6-.027-1.639-.04-3.197-.067-4.756h-.093c-.04.214-.08.427-.106.64-.187 1.345-.387 2.691-.573 4.036-.053.373-.133.613-.373.679-.267.08-.586.4-.786.253-.173-.12-.226-.732-.306-1.132-.214-1.052-.413-2.118-.693-3.17 0 .12-.027.24-.027.373 0 1.359.027 2.731.054 4.089 0 .307-.054.453-.227.533-.36.16-.706.333-1.105.519 0-.905-.014-1.744-.027-2.57a374.463 374.463 0 00-.053-3.823c0-.347.04-.546.279-.64a21.414 21.414 0 001.599-.759c.213-.106.293 0 .359.333.187 1.079.387 2.131.587 3.197h.093l.013-.027zM459.18 134.309c-.44.214-.893.427-1.346.64-.173.093-.226-.053-.24-.307-.013-.319-.013-.639-.04-.945-.039-.493-.199-.653-.479-.56h-.027c-.333.173-.772.187-.972.573-.173.333-.08 1.066-.08 1.625 0 .36-.053.546-.28.64-.386.146-.772.359-1.212.559-.013-.786-.027-1.505-.04-2.225a408.583 408.583 0 00-.053-4.142c0-.373.053-.573.293-.68 1.105-.492 2.211-1.039 3.33-1.531.4-.187.786-.174.999.546.2.652.12 1.612-.173 2.211-.08.146-.16.28-.267.479.373.214.427.706.44 1.266.013.599.093 1.185.147 1.838v.013zm-2.545-4.049c-.173.08-.346.147-.519.253-.067.04-.173.173-.173.253 0 .387.026.76.04 1.146.173-.04.346-.053.519-.133.253-.107.52-.227.759-.413.267-.2.347-.6.28-1.026-.08-.453-.306-.36-.519-.266-.12.053-.24.119-.373.173l-.014.013zM454.145 136.707c-.48.227-.946.466-1.399.653-.067.026-.186-.133-.213-.253-.08-.32-.2-.333-.373-.24-.306.16-.613.32-.919.44-.307.119-.573.239-.626.892 0 .107-.12.253-.2.293-.44.227-.879.426-1.372.666.04-.226.053-.4.08-.559.453-2.225.919-4.463 1.372-6.687.067-.32.16-.466.346-.546.466-.2.919-.453 1.386-.64.093-.04.279.067.319.2a640.562 640.562 0 011.572 5.501c.013.054.013.134.04.293l-.013-.013zm-2.558-3.57s-.066.014-.093.027c-.133.826-.28 1.652-.44 2.637.36-.173.626-.279.893-.439.04-.027.106-.253.08-.333-.133-.64-.293-1.252-.44-1.892zM470.329 122.254c-.093.08-.186.187-.28.227-.999.493-2.011.986-3.01 1.478a.899.899 0 00-.413.32l3.637-1.732.053.12c-.04.094-.08.253-.133.28a633.494 633.494 0 01-4.236 2.065c-.014 0-.04-.014-.08-.04 0-.227 0-.48-.013-.759l4.409-2.105s.039.093.053.146h.013zM465.907 125.532c-.12-.413.066-.453.213-.533.852-.4 1.705-.786 2.557-1.186.44-.199.88-.412 1.319-.626.093-.04.2-.093.293-.133l.04.16c-.053.08-.106.213-.173.24a610.841 610.841 0 01-4.129 2.064c-.04.014-.08 0-.12 0v.014zM465.854 125.878c.146-.32 3.476-1.985 4.542-2.292-.107.174-.147.293-.2.32a250.34 250.34 0 01-4.223 1.998c-.026 0-.053-.013-.119-.04v.014zM475.058 126.251l-4.37 2.078c.107-.2.147-.347.214-.373 1.332-.613 2.664-1.226 4.009-1.825.013 0 .027.026.147.12zM470.635 123.134c.107-.16.16-.307.227-.333 1.305-.626 2.61-1.239 3.916-1.852.04-.013.093 0 .146.147l-4.289 2.038zM470.702 123.666c.093-.346 3.583-2.118 4.196-2.171-.107.28-3.37 1.972-4.196 2.171zM470.729 127.676c.053-.08.106-.2.16-.226 1.318-.613 2.637-1.226 3.942-1.839.04-.013.067 0 .12.014-.146.293-3.463 1.985-4.236 2.051h.014zM470.702 125.079c.067-.08.12-.2.2-.227a297.39 297.39 0 013.69-1.731c.053-.027.106 0 .173.133l-4.01 1.905-.04-.08h-.013zM470.715 125.611c.067-.08.12-.199.187-.239l3.756-1.759h.093c-.106.293-3.063 1.838-4.022 1.985l-.014.013zM474.752 124.159c-.134.293-3.45 1.998-4.076 2.078.106-.16.146-.306.213-.333 1.265-.599 2.517-1.172 3.783-1.758.026 0 .053 0 .08.027v-.014zM474.898 120.083l-4.249 2.025c.08-.133.12-.267.173-.293a351.66 351.66 0 014.01-1.892c.013 0 .04.014.053.027 0 .04.013.093.026.133h-.013zM475.058 126.757l-4.343 2.065c.094-.187.134-.333.187-.36a375.098 375.098 0 014.009-1.812c.014 0 .04.027.147.107zM470.676 122.588c.159-.32 3.756-2.105 4.222-2.012l-4.222 2.012zM479.52 122.029l-3.996 1.904c.12-.293 3.503-1.944 3.996-1.904zM479.214 121.669l-3.703 1.758c.133-.306 3.197-1.811 3.703-1.758zM475.497 122.761l3.477-1.652s0 .066.013.106l-3.477 1.652v-.106h-.013zM475.497 122.255l3.304-1.572v.08l-3.304 1.572v-.08zM468.944 128.422c-.04.106-.067.293-.12.319-.467.24-.933.453-1.399.68-.027-.04-.04-.067-.067-.107.054-.12.094-.319.16-.359.453-.24.919-.453 1.372-.666.014.04.04.08.054.133zM468.997 128.781c-.093.267-.106.453-.16.493-.466.24-.932.453-1.398.679-.027-.04-.04-.066-.067-.106.067-.12.107-.32.187-.36.439-.24.892-.439 1.451-.706h-.013zM467.332 127.21c.053-.107.093-.28.16-.307.453-.226.892-.439 1.345-.653.027.04.04.067.067.107-.04.107-.067.293-.12.32-.453.24-.919.453-1.372.666l-.08-.133zM467.319 126.704c.053-.12.093-.293.16-.333.453-.24.919-.44 1.372-.666l.066.173c-.053.093-.106.253-.173.279-.453.227-.892.44-1.345.653-.027-.04-.054-.066-.08-.106zM467.345 128.795c.054-.12.094-.32.16-.36.453-.24.919-.453 1.372-.666.014.067.04.12.054.187-.054.093-.094.253-.147.279-.453.24-.919.453-1.372.666-.027-.04-.04-.066-.067-.106zM472.287 123.92l-1.559.746c.014-.08.014-.24.04-.253.493-.253.986-.48 1.479-.72 0 .08.026.147.04.227zM467.332 127.742c.04-.106.08-.266.146-.293.467-.239.933-.453 1.399-.679.013.04.027.093.053.133-.053.107-.093.267-.146.293-.453.24-.906.44-1.372.666-.027-.04-.04-.08-.067-.106l-.013-.014zM472.273 125.745c-.106.413-1.092.959-1.545.972.027-.107.04-.253.08-.266.493-.24.973-.48 1.465-.706zM470.742 127.263c.093-.346.839-.799 1.532-.946-.04.307-.759.76-1.532.946zM472.274 123.174c-.093.386-.773.799-1.572 1.012.04-.133.053-.28.093-.293.48-.24.973-.466 1.479-.719zM467.345 128.262c.054-.106.094-.266.16-.293.453-.24.919-.453 1.372-.666.014.04.04.08.054.12-.04.093-.08.253-.134.293-.453.24-.919.453-1.372.666l-.066-.106-.014-.014zM467.319 125.651c.053-.093.093-.253.146-.293.453-.239.919-.439 1.372-.666.027.054.04.107.067.147-.067.093-.12.24-.2.266-.439.227-.879.427-1.319.64l-.066-.107v.013zM467.358 130.327c.054-.107.094-.267.16-.306.453-.24.919-.453 1.372-.667.014.04.04.08.054.134-.04.106-.08.266-.147.293-.453.24-.919.453-1.372.666-.027-.04-.04-.08-.067-.12zM467.319 126.184c.053-.106.093-.266.16-.293.453-.24.919-.439 1.372-.666.013.04.04.08.053.133-.053.094-.093.253-.147.28-.452.24-.919.44-1.372.666l-.053-.107-.013-.013zM477.002 120.07l-1.518.719s0-.066-.014-.106l1.519-.72s0 .067.013.107zM477.082 125.292l-1.532.733c.12-.294 1.026-.773 1.532-.733zM477.948 123.706l1.932-.919v.093l-1.932.919s0-.066-.013-.093h.013zM478.175 124.119l1.945-.919v.093l-1.945.92v-.094zM477.056 124.772l-1.506.72s-.013-.12-.026-.187c.506-.24.999-.493 1.518-.666 0 .04 0 .08.014.133zM477.562 120.23l1.892-.893v.054l-1.892.892v-.053zM477.748 123.293l1.905-.905v.093l-1.905.906s0-.067-.013-.094h.013zM477.256 120.896l1.865-.879v.04l-1.852.879v-.04h-.013zM477.349 123.547l-1.825.866s-.014-.094-.027-.134c.599-.319 1.212-.572 1.812-.865 0 .04.026.079.026.133h.014zM475.47 121.202l1.519-.719s0 .08.013.106l-1.518.72s0-.08-.014-.107zM475.457 120.163l1.519-.719s0 .066.013.106l-1.518.72s0-.067-.014-.107zM475.444 119.657l1.518-.719s0 .053.013.08l-1.518.719s0-.053-.013-.08zM475.524 124.825l1.505-.719s0 .067.013.107l-1.505.719s0-.067-.013-.107zM475.484 121.722l1.505-.72s0 .067.014.094l-1.506.719s0-.067-.013-.093zM475.55 126.398l1.506-.72s-.001.08.013.12l-1.505.719s0-.08-.014-.119zM480.106 118.046l-1.945.919v-.067l1.945-.919v.067zM480.573 124.146l-1.958.933v-.093c.639-.307 1.292-.626 1.944-.933v.093h.014zM477.828 119.564l1.905-.906v.067l-1.905.906-.026-.054.026-.013zM480.345 123.733l-1.931.919v-.08l1.931-.919s.014.054.027.08h-.027zM149.401 40.92c-2.357 1.332-4.369 1.865-6.087.893-1.306-.746-2.011-2.225-1.718-4.835.239-2.105 1.079-4.023 2.211-5.781 1.318-2.078 2.81-3.584 4.409-4.742 1.798-1.292 3.516-1.945 5.155-1.852 1.079.053 1.998.48 2.651 1.492 1.185 1.812.879 5.062-.76 8.205a17.47 17.47 0 01-4.395 5.515c-.547.453-1.119.84-1.479 1.105h.013zm-.199-11.642c-1.026.627-1.919 1.386-2.771 2.358-.826.96-1.585 2.012-2.091 3.37-.453 1.212-.453 2.105.079 2.678.32.346.693.626 1.119.719 1.852.386 3.823-.626 5.835-2.65a11.345 11.345 0 002.411-3.504c.639-1.425.639-2.531 0-3.197-.213-.213-.44-.386-.706-.48-1.199-.48-2.558-.053-3.89.707h.014zM129.474 45.396c.027 4.196-2.371 9.031-5.381 10.843-3.037 1.825-5.502-.24-5.488-4.462.026-3.903 2.211-8.832 5.421-10.737 3.091-1.825 5.435.293 5.435 4.37l.013-.014zm-8.338 4.982c.013 2.251 1.332 3.357 2.917 2.384 1.572-.945 2.944-3.45 2.93-5.874-.013-2.464-1.438-3.25-2.93-2.371-1.639.972-2.931 3.57-2.917 5.861zM166.105 23.657v-.746c-.026-1.718-.026-3.436-.053-5.155 0-.826.36-1.758.893-2.29.519-.52 1.092-.6 1.385-.12.133.212.226.505.24.812.053 4.01.093 8.032.12 12.081 0 .2-.067.573-.174.68-.133.146-.346.2-.479.146-2.158-1.039-4.303-2.118-6.474-3.17l-.413-.186-.026.532c.013 1.785.04 3.57.04 5.355 0 .746-.227 1.492-.72 2.105-.426.533-.892.786-1.305.6-.307-.147-.493-.494-.493-1.013-.04-4.076-.093-8.139-.12-12.228 0-.173.093-.52.187-.613.133-.133.319-.173.439-.12 2.171 1.052 4.329 2.118 6.501 3.184.106.053.239.093.426.173h.026v-.027zM135.162 45.703c.253-.16.399-.253.573-.347a533.71 533.71 0 013.729-2.264c.826-.493 1.332-.093 1.319 1.052 0 .853-.493 1.852-1.106 2.265-.386.266-.772.48-1.172.719-2.517 1.519-5.022 3.05-7.526 4.556-.146.08-.399.146-.413.053-.04-.187 0-.52.093-.76 1.705-4.275 3.424-8.551 5.142-12.827.053-.133.093-.266.2-.52-.333.2-.613.373-.893.533-.879.533-1.758 1.08-2.637 1.599-.826.493-1.359.106-1.372-.933 0-.959.506-2.011 1.212-2.45 1.918-1.173 3.85-2.332 5.768-3.49.706-.427 1.412-.866 2.118-1.266.146-.08.373-.12.399 0 .04.16 0 .493-.093.72-1.718 4.315-3.463 8.604-5.181 12.92-.04.093-.067.213-.174.466h.027l-.013-.026z" fill="#fff"/><path d="M10.11 118.925l.04-.826c.027-.893-.04-1.838-.36-2.877-.559-1.865-1.598-3.357-2.943-4.583-1.026-.945-2.025-1.412-2.997-1.505a.752.752 0 01-.186-.027s-.027 0-.067-.039c.013-.294.027-.587.053-.866.253-2.558 1.013-4.622 2.318-6.074 2.291-2.558 5.435-3.13 9.497-1.492 4.716 1.905 8.952 5.874 12.588 11.802 2.624 4.275 4.223 8.631 4.782 12.96.573 4.369.027 7.859-1.745 10.27-2.251 3.064-5.581 3.823-9.963 2.052-4.543-1.825-8.672-5.635-12.255-11.296-2.81-4.449-4.49-8.991-5.115-13.547 0-.066 0-.146.013-.186.453-.467 1.04-.693 1.838-.32 1.372.653 2.678 2.198 3.05 4.369.094.533.08 1.026.094 1.532 0 .08-.067.146-.133.173-.173.08-.36.133-.533.227-.133.066-.093.239.027.612.08.227.186.307.333.36.386.133.772.24 1.172.4 1.092.452 1.958 1.505 2.65 2.863.427.853.733 1.719.88 2.571 0 .054.08.16.133.187.106.08.213.093.226-.027.027-.226.054-.453.027-.706a9.05 9.05 0 00-1.252-3.796c-.573-.986-1.279-1.665-2.052-2.092-.053-.026-.106-.066-.16-.093 0 0 0-.013-.026-.026h.067zm8.566-2.691v.053c-.453-.293-.92-.599-1.372-.866a16.318 16.318 0 00-1.559-.826c-.613-.279-1.092-.226-1.252.427-.04.173-.093.333-.12.506-.333 1.745-.253 3.756 0 5.874.08.68.28 1.399.653 2.131.066.12.173.267.253.307.066.026.107-.093.16-.16.013-.013.013-.053.013-.08.027-.346.067-.693.08-1.066.013-1.412.146-2.744.36-4.022.16-.959.626-1.426 1.571-1.026.706.293 1.412.693 2.132 1.079.985.546 1.984 1.172 2.97 1.718.466.253.933.413 1.412.6.067.026.107-.04.16-.054-.04-.08-.08-.186-.133-.253-.24-.266-.466-.532-.706-.772a29.09 29.09 0 00-4.61-3.583l-.012.013zm.639 12.521c1.145.719 2.051.24 2.065-1.092.013-1.332-.933-2.957-2.092-3.69-1.105-.693-2.078-.266-2.064.959 0 1.425.919 3.09 2.078 3.823h.013zm11.11 2.091c.026-.333-.094-.892-.507-1.465a4 4 0 00-.52-.613 180.28 180.28 0 00-2.317-2.198 2.685 2.685 0 01-.693-.999c-.2-.506-.4-1.012-.613-1.505-.16-.399-.333-.786-.52-1.185-.04-.093-.159-.227-.239-.253-.053-.014-.093.093-.106.173-.094.852.08 1.825.332 2.824.134.546.387 1.052.773 1.465.4.426.813.813 1.226 1.199.44.413.892.786 1.332 1.212.346.346.52.773.546 1.212.026.493.053.973.093 1.465.027.333.053.666.093.999.027.214.147.333.28.293a.469.469 0 00.213-.186c.36-.599.56-1.372.6-2.464l.026.026zm-4.863-2.158c-.906-.612-1.665-.239-1.692.826-.04 1.079.746 2.571 1.692 3.197 1.026.68 1.865.347 1.892-.759.04-1.106-.773-2.518-1.892-3.264z" fill="#FFFEFC"/><path d="M333.733 117H149.051v123.538h184.682V117z" fill="#DBDBDB"/><path d="M332.392 118.509H150.395v120.525h181.997V118.509z" fill="#263238"/><path d="M357.788 249.804H125v8.48h232.788v-8.48z" fill="#C7C7C7"/><path d="M125 249.804l24.051-9.265h184.682l24.055 9.265H125z" fill="#DBDBDB"/><path d="M151.203 246.52l15.522-5.981h149.338l15.522 5.981H151.203z" fill="#263238"/><path d="M322.107 127.663H160.682v102.212h161.425V127.663z" fill="#fff"/><path d="M322.107 127.663H160.544v3.932h161.563v-3.932z" fill="#455A64"/><path d="M163.668 129.633a.977.977 0 11-.977-.976c.537 0 .972.435.972.972v.004h.005z" fill="#C7C7C7"/><path d="M167.662 129.633a.974.974 0 01-.976.977.974.974 0 01-.977-.977c0-.541.435-.976.977-.976.537 0 .972.431.976.968v.008z" fill="#fff"/><path d="M171.655 129.633a.974.974 0 01-.976.977.974.974 0 01-.976-.977c0-.541.435-.976.976-.976.541 0 .976.435.976.976z" fill="#AACC19"/><path d="M184.586 178.858l-.049-3.932-.017-3.931-.036-7.863.036-7.864.017-3.931.049-3.932.049 3.932.018 3.931.035 7.864-.035 7.863-.018 3.931-.049 3.932zM195.524 178.858l-.048-3.932-.018-3.931-.031-7.863.031-7.864.018-3.931.048-3.932.054 3.932.017 3.931.031 7.864-.031 7.863-.017 3.931-.054 3.932zM206.467 178.858l-.053-3.932-.014-3.931-.035-7.863.031-7.864.018-3.931.053-3.932.049 3.932.017 3.931.031 7.864-.031 7.863-.017 3.931-.049 3.932zM217.405 178.858l-.049-3.932-.017-3.931-.036-7.863.036-7.864.017-3.931.049-3.932.049 3.932.018 3.931.035 7.864-.035 7.863-.018 3.931-.049 3.932zM228.344 178.858l-.049-3.932-.018-3.931-.036-7.863.036-7.864.018-3.931.049-3.932.048 3.932.018 3.931.036 7.864-.036 7.863-.018 3.931-.048 3.932zM239.282 178.858l-.049-3.932-.018-3.931-.035-7.863.035-7.864.018-3.931.049-3.932.049 3.932.018 3.931.035 7.864-.035 7.863-.018 3.931-.049 3.932zM250.22 178.858l-.049-3.932-.018-3.931-.035-7.863.035-7.864.018-3.931.049-3.932.053 3.932.014 3.931.035 7.864-.035 7.863-.018 3.931-.049 3.932zM261.159 178.858l-.049-3.932-.018-3.931-.031-7.863.031-7.864.018-3.931.049-3.932.053 3.932.018 3.931.031 7.864-.031 7.863-.018 3.931-.053 3.932zM272.101 178.858l-.049-3.932-.022-3.931-.031-7.863.031-7.864.022-3.931.049-3.932.049 3.932.017 3.931.031 7.864-.031 7.863-.017 3.931-.049 3.932zM283.039 178.858l-.048-3.932-.018-3.931-.036-7.863.036-7.864.018-3.931.048-3.932.049 3.932.018 3.931.035 7.864-.035 7.863-.018 3.931-.049 3.932zM293.977 178.858l-.049-3.932-.017-3.931-.036-7.863.036-7.864.017-3.931.049-3.932.049 3.932.018 3.931.035 7.864-.035 7.863-.018 3.931-.049 3.932zM304.916 178.858l-.049-3.932-.018-3.931-.035-7.863.035-7.864.018-3.931.049-3.932.049 3.932.018 3.931.035 7.864-.035 7.863-.018 3.931-.049 3.932z" fill="#EBEBEB"/><path d="M173.648 147.405l34.124-.066 34.128-.036 34.124.031 34.124.071-34.124.067-34.124.031-34.128-.031-34.124-.067zM173.648 155.024l34.124-.066 34.128-.036 34.124.036 34.124.066-34.124.067-34.124.035-34.128-.035-34.124-.067zM173.648 162.644l34.124-.067 34.128-.035 34.124.035 34.124.067-34.124.066-34.124.036-34.128-.036-34.124-.066zM173.648 170.263l34.124-.067 34.128-.035 34.124.035 34.124.067-34.124.066-34.124.036-34.128-.036-34.124-.066z" fill="#EBEBEB"/><path d="M173.648 162.644l10.916-3.901 10.934-.581h.049l10.947 4.348h-.027l10.943 1.944h-.04l10.934-.967-.071.022c3.643-1.957 7.282-3.918 10.938-5.853l.036-.022h.04l10.951-.835h.049l10.934 2.272h-.08l10.947-4.171h.058l10.929 1.163 10.956-2.663 4.078.027-4.078.022-10.92 2.809h-.036l-10.942-1.109h.057l-10.938 4.184h-.08l-10.943-2.218h.045l-10.934.887.075-.022c-3.638 1.961-7.295 3.896-10.942 5.835h-.071l-10.943.923h-.058l-10.934-1.988h-.026l-10.93-4.393h.049l-10.929.533-10.943 3.754z" fill="#91B3FA"/><path d="M185.5 158.809a.914.914 0 11-.94-.887h.026c.493 0 .901.395.914.887z" fill="#fff"/><path d="M184.586 159.928a1.12 1.12 0 010-2.237 1.12 1.12 0 010 2.237zm0-1.828a.711.711 0 00-.71.71c0 .39.319.71.71.71.39 0 .71-.32.71-.71 0-.391-.32-.71-.71-.71z" fill="#AACC19"/><path d="M195.524 159.209a.914.914 0 100-1.827.914.914 0 000 1.827z" fill="#fff"/><path d="M195.524 159.409a1.108 1.108 0 01-1.109-1.118 1.114 1.114 0 111.109 1.118zm0-1.824c-.39 0-.71.319-.71.71 0 .39.32.71.71.71.391 0 .71-.32.71-.71a.711.711 0 00-.71-.71z" fill="#AACC19"/><path d="M217.405 165.524a.915.915 0 10-.001-1.83.915.915 0 00.001 1.83z" fill="#fff"/><path d="M217.405 165.723a1.112 1.112 0 01-1.113-1.114c0-.616.497-1.113 1.113-1.113.617 0 1.114.497 1.114 1.113 0 .617-.497 1.114-1.114 1.114zm0-1.824c-.39 0-.71.32-.71.71 0 .391.32.71.71.71.391 0 .71-.319.71-.71 0-.39-.319-.71-.71-.71z" fill="#AACC19"/><path d="M239.215 158.814a.914.914 0 100-1.827.914.914 0 000 1.827z" fill="#fff"/><path d="M239.215 159.014a1.112 1.112 0 01-1.113-1.114c0-.617.497-1.114 1.113-1.114.617 0 1.114.497 1.114 1.114 0 .617-.497 1.114-1.114 1.114zm0-1.824c-.39 0-.71.319-.71.71 0 .39.32.71.71.71.391 0 .71-.32.71-.71a.711.711 0 00-.71-.71z" fill="#AACC19"/><path d="M262.073 159.307a.913.913 0 11-1.829 0 .913.913 0 011.824-.005v.005h.005z" fill="#fff"/><path d="M261.158 160.42a1.108 1.108 0 01-1.109-1.118 1.114 1.114 0 111.109 1.118zm0-1.824c-.39 0-.71.32-.71.71 0 .391.32.71.71.71.391 0 .71-.319.71-.71 0-.39-.319-.71-.71-.71z" fill="#AACC19"/><path d="M228.344 164.614a.914.914 0 100-1.827.914.914 0 000 1.827z" fill="#fff"/><path d="M228.343 164.814a1.122 1.122 0 01-1.122-1.114c0-.617.497-1.118 1.113-1.123.617 0 1.119.497 1.123 1.114v.009c0 .617-.497 1.114-1.114 1.114zm0-1.824c-.39 0-.71.319-.71.71 0 .39.32.71.71.71.391 0 .71-.32.71-.71a.711.711 0 00-.71-.71z" fill="#AACC19"/><path d="M250.22 157.9a.914.914 0 100-1.827.914.914 0 000 1.827z" fill="#fff"/><path d="M250.22 158.1a1.11 1.11 0 01-1.11-1.119 1.114 1.114 0 111.114 1.119h-.004zm0-1.824a.711.711 0 00-.71.71c0 .39.319.71.71.71.39 0 .71-.32.71-.71 0-.391-.32-.71-.71-.71z" fill="#AACC19"/><path d="M283.039 156.99a.914.914 0 100-1.827.914.914 0 000 1.827z" fill="#fff"/><path d="M283.035 157.19a1.123 1.123 0 01-1.123-1.114c0-.617.497-1.118 1.114-1.122.617 0 1.118.497 1.123 1.113v.009c0 .617-.497 1.114-1.114 1.114zm0-1.824c-.391 0-.71.32-.71.71 0 .391.319.71.71.71.39 0 .71-.319.71-.71 0-.39-.32-.71-.71-.71z" fill="#AACC19"/><path d="M294.892 153.418a.912.912 0 01-.914.914.912.912 0 01-.914-.914.914.914 0 011.828-.009v.009z" fill="#fff"/><path d="M293.978 154.532a1.123 1.123 0 01-1.123-1.114c0-.617.497-1.118 1.114-1.123.617 0 1.118.497 1.123 1.114v.009c0 .612-.502 1.109-1.114 1.114zm0-1.824c-.391 0-.71.32-.71.71 0 .391.319.71.71.71.39 0 .71-.319.71-.71 0-.39-.32-.71-.71-.71z" fill="#AACC19"/><path d="M272.101 155.885a.914.914 0 100-1.827.914.914 0 000 1.827z" fill="#fff"/><path d="M272.102 156.085a1.112 1.112 0 01-1.114-1.114c0-.617.497-1.114 1.114-1.114.616 0 1.113.497 1.113 1.114 0 .617-.497 1.114-1.113 1.114zm0-1.824a.716.716 0 00-.715.706.711.711 0 001.42.009.71.71 0 00-.705-.71v-.005z" fill="#AACC19"/><path d="M206.467 163.558a.914.914 0 100-1.829.914.914 0 000 1.829z" fill="#fff"/><path d="M206.467 163.771a1.112 1.112 0 01-1.114-1.114c0-.617.497-1.114 1.114-1.114.617 0 1.114.497 1.114 1.114 0 .612-.502 1.109-1.114 1.114zm0-1.824a.711.711 0 00-.71.71c0 .39.319.71.71.71.39 0 .71-.32.71-.71a.712.712 0 00-.697-.724h-.013v.014z" fill="#AACC19"/><path d="M173.648 170.307l10.929-1.415h-.031l10.916-7.544 10.934-4.105h.093l10.943 3.666 11.023 6.816h-.164c3.643-1.452 7.281-2.911 10.933-4.336l.08-.031.08.036 10.925 5.427-.204.044 10.956-12.869.067-.079.097.039 10.93 4.118h-.058l10.943-1.331 10.934.564 4.086-1.38-4.073 1.406-10.952-.443-10.934 1.389h-.057l-10.934-4.052.164-.044-10.92 12.899-.089.102-.12-.057-10.947-5.383h.155c-3.639 1.46-7.291 2.884-10.943 4.318l-.084.035-.08-.049-10.929-6.838h.035l-10.929-3.709h.093l-10.952 4.051h.027l-10.965 7.464-10.978 1.291z" fill="#E9605A"/><path d="M184.586 169.872a.914.914 0 100-1.827.914.914 0 000 1.827z" fill="#fff"/><path d="M184.586 170.076a1.119 1.119 0 11.001-2.237 1.119 1.119 0 01-.001 2.237zm0-1.823a.711.711 0 00-.71.71c0 .39.319.71.71.71.39 0 .71-.32.71-.71a.709.709 0 00-.71-.706v-.004z" fill="#37474F"/><path d="M195.524 162.377a.914.914 0 100-1.827.914.914 0 000 1.827z" fill="#fff"/><path d="M195.524 162.577a1.108 1.108 0 01-1.109-1.118 1.114 1.114 0 111.109 1.118zm0-1.824c-.39 0-.71.319-.71.71 0 .39.32.71.71.71.391 0 .71-.32.71-.71a.711.711 0 00-.71-.71z" fill="#37474F"/><path d="M217.405 162.053a.914.914 0 100-1.827.914.914 0 000 1.827z" fill="#fff"/><path d="M217.405 162.253a1.123 1.123 0 01-1.123-1.114c0-.617.497-1.118 1.114-1.122.617 0 1.118.497 1.123 1.113v.009c0 .617-.497 1.114-1.114 1.114zm0-1.824c-.391 0-.71.32-.71.71 0 .391.319.71.71.71.39 0 .71-.319.71-.71 0-.39-.32-.71-.71-.71z" fill="#37474F"/><path d="M239.215 164.614a.914.914 0 100-1.827.914.914 0 000 1.827z" fill="#fff"/><path d="M239.215 164.814a1.123 1.123 0 01-1.123-1.114c0-.617.497-1.118 1.114-1.123.617 0 1.118.497 1.123 1.114v.009c0 .617-.497 1.114-1.114 1.114zm0-1.824a.711.711 0 00-.71.71c0 .39.319.71.71.71.39 0 .71-.32.71-.71 0-.391-.32-.71-.71-.71z" fill="#37474F"/><path d="M261.163 156.99a.914.914 0 100-1.829.914.914 0 000 1.829z" fill="#fff"/><path d="M261.159 157.19a1.119 1.119 0 111.118-1.118c0 .617-.501 1.114-1.118 1.114v.004zm0-1.824c-.391 0-.71.32-.71.71 0 .391.319.71.71.71.39 0 .71-.319.71-.71 0-.39-.32-.71-.71-.71z" fill="#37474F"/><path d="M228.344 168.661a.914.914 0 100-1.829.914.914 0 000 1.829z" fill="#fff"/><path d="M228.343 168.86a1.112 1.112 0 01-1.114-1.113c0-.617.497-1.114 1.114-1.114.617 0 1.114.497 1.114 1.114 0 .616-.497 1.113-1.114 1.113zm0-1.823c-.39 0-.71.319-.71.71 0 .39.32.71.71.71.391 0 .71-.32.71-.71a.711.711 0 00-.71-.71z" fill="#37474F"/><path d="M250.22 169.708a.914.914 0 100-1.829.914.914 0 000 1.829z" fill="#fff"/><path d="M250.22 169.907a1.11 1.11 0 01-1.11-1.118c0-.617.502-1.114 1.119-1.109a1.113 1.113 0 01-.005 2.227h-.004zm0-1.823a.711.711 0 00-.71.71c0 .39.319.71.71.71.39 0 .71-.32.71-.71 0-.391-.32-.71-.71-.71z" fill="#37474F"/><path d="M283.949 158.818a.913.913 0 11-1.828 0 .913.913 0 011.824-.004v.004h.004z" fill="#fff"/><path d="M283.035 159.932a1.123 1.123 0 01-1.123-1.114c0-.616.497-1.118 1.114-1.122.617 0 1.118.497 1.123 1.114v.008c0 .617-.497 1.114-1.114 1.114zm0-1.824c-.391 0-.71.32-.71.71 0 .391.319.71.71.71.39 0 .71-.319.71-.71 0-.39-.32-.71-.71-.71z" fill="#37474F"/><path d="M294.892 159.307a.912.912 0 01-.914.914.912.912 0 01-.914-.914.913.913 0 011.828-.009v.009z" fill="#fff"/><path d="M293.978 160.42a1.112 1.112 0 01-1.114-1.113c0-.617.497-1.114 1.114-1.114.617 0 1.114.497 1.114 1.114a1.12 1.12 0 01-1.114 1.113zm0-1.823a.711.711 0 00-.71.71c0 .39.319.71.71.71.39 0 .71-.32.71-.71 0-.391-.32-.71-.71-.71z" fill="#37474F"/><path d="M272.101 161.13a.914.914 0 100-1.827.914.914 0 000 1.827z" fill="#fff"/><path d="M272.101 161.335a1.123 1.123 0 01-1.123-1.114c0-.617.497-1.118 1.114-1.123.617 0 1.118.497 1.123 1.114 0 .617-.497 1.114-1.114 1.118v.005zm0-1.829a.711.711 0 00.035 1.42.714.714 0 00.693-.705.716.716 0 00-.706-.715h-.022z" fill="#37474F"/><path d="M206.467 158.295a.914.914 0 100-1.827.914.914 0 000 1.827z" fill="#fff"/><path d="M206.467 158.499a1.12 1.12 0 01.026-2.237 1.12 1.12 0 01-.013 2.237h-.013zm0-1.824c-.391 0-.71.32-.71.71 0 .39.319.71.71.71.39 0 .71-.32.71-.71 0-.39-.32-.71-.71-.71z" fill="#37474F"/><path d="M173.647 145.786l.076 15.677.044 15.678-.12-.12 34.124-.053 17.062-.032 17.067.027 34.124.053c11.373 0 22.75.071 34.123.125-11.373.053-22.75.115-34.123.119l-34.124.058-17.067.022-17.062-.026-34.124-.054h-.119v-.119l.044-15.678.075-15.677z" fill="#DBDBDB"/><path d="M172.64 147.406a2.327 2.327 0 011.007-.205c.347-.008.693.058 1.008.205a2.69 2.69 0 01-2.015 0zM172.64 155.024a2.465 2.465 0 011.007-.204c.347-.009.693.062 1.008.204a2.681 2.681 0 01-2.015 0zM172.64 162.643a2.608 2.608 0 012.015 0 2.599 2.599 0 01-2.015 0zM172.64 170.263a2.599 2.599 0 012.015 0c-.644.27-1.371.27-2.015 0zM181.897 180.371s.026-.009.035 0a.22.22 0 00.218.16.23.23 0 00.23-.222v-.542s.014-.031.031-.031c0 0 .027.014.027.031v.537c0 .16-.129.289-.288.289a.282.282 0 01-.275-.2c0-.009.013-.018.022-.022zM183.104 180.389h-.386l-.076.2s-.022.004-.031 0c0 0-.009-.027 0-.036l.298-.794h.026a.034.034 0 01.031 0l.298.794s.009.027 0 .036c0 0-.023.004-.031 0l-.129-.2zm-.364-.058h.342l-.169-.444-.173.444zM183.485 179.883v.697s-.013.031-.026.031a.03.03 0 01-.031-.031v-.781s-.005-.027 0-.036a.04.04 0 01.044 0l.515.719v-.697s.013-.031.031-.031c.017 0 .031.014.031.031v.786s-.014.031-.031.031l-.533-.719zM184.302 179.785s.014-.031.031-.031a.03.03 0 01.031.031v.48c0 .155.129.284.284.284a.286.286 0 00.284-.284v-.48s.014-.031.031-.031a.03.03 0 01.031.031v.48a.346.346 0 01-.692 0v-.48zM185.7 180.389h-.391l-.075.2h-.027s-.009-.027 0-.036l.297-.794s.023-.005.031 0h.027l.297.794s.009.027 0 .036c0 0-.017.004-.026 0l-.133-.2zm-.369-.058h.346l-.173-.444-.173.444zM186.441 180.416a.149.149 0 00-.071-.129.19.19 0 00-.098-.04h-.213v.337s-.013.031-.031.031c0 0-.027-.013-.027-.031v-.794s.014-.031.027-.031h.244a.246.246 0 01.102.466.206.206 0 01.116.186.349.349 0 000 .102s.026.009.031.022a.027.027 0 010 .036.064.064 0 01-.058-.04.345.345 0 01-.022-.115zm-.169-.6h-.213v.373h.24a.189.189 0 00.177-.186c0-.102-.075-.187-.177-.187h-.027zM186.982 180.189l-.288-.391s-.009-.026 0-.04c.009-.008.026-.013.035 0l.266.369.267-.369s.031-.013.044 0c.009.009.013.027 0 .036l-.284.39v.382s-.013.031-.031.031c0 0-.027-.013-.027-.031l.014-.382.004.005zM192.631 179.785s.013-.031.026-.031h.444s.031.014.031.031a.03.03 0 01-.031.032h-.408v.337h.359s.031.013.031.031c0 0-.013.026-.031.026h-.359v.369s-.013.031-.031.031c0 0-.027-.013-.027-.031v-.795h-.004zM193.363 179.785s0-.035.022-.04h.457s.027 0 .027.031 0 .031-.027.031h-.408v.337h.355s.031.014.031.032c0 0-.013.026-.031.026h-.355v.337h.408s.027 0 .027.031c0 .032 0 .032-.027.032h-.443s-.027-.014-.027-.032l-.009-.785zM194.086 179.785s.013-.031.031-.031h.169a.21.21 0 01.213.213v.005a.217.217 0 01-.08.164.24.24 0 01.164.231.246.246 0 01-.244.244h-.244s-.027-.013-.027-.031l.018-.795zm.218.338c.084 0 .15-.067.155-.151a.157.157 0 00-.155-.155h-.16v.306h.16zm.053.443a.182.182 0 00.186-.177v-.004a.187.187 0 00-.186-.187h-.213v.368h.213zM195.231 180.416a.161.161 0 00-.067-.129.205.205 0 00-.097-.04h-.218v.337s-.013.031-.026.031a.03.03 0 01-.031-.031v-.794s.013-.027.026-.031h.244a.244.244 0 01.209.275.251.251 0 01-.107.169.206.206 0 01.116.186v.102s.026.009.031.022a.027.027 0 010 .036c-.022 0-.044-.018-.053-.04a.327.327 0 01-.027-.093zm-.169-.6h-.213v.373h.218a.189.189 0 00.177-.186.183.183 0 00-.177-.187h-.005zM195.498 179.785s.013-.031.031-.031c0 0 .026.014.026.031v.48c.018.159.165.27.324.248a.283.283 0 00.249-.248v-.48s.013-.031.031-.031a.03.03 0 01.031.031v.48a.346.346 0 01-.692 0v-.48zM196.891 180.389h-.386l-.075.2s-.023.004-.032 0c0 0-.008-.027 0-.036l.298-.794h.026a.034.034 0 01.031 0l.298.794s.009.027 0 .036c0 0-.018.004-.027 0l-.133-.2zm-.364-.058h.342l-.169-.444-.173.444zM197.636 180.416a.146.146 0 00-.071-.129.187.187 0 00-.097-.04h-.213v.337s-.014.031-.031.031c0 0-.027-.013-.027-.031v-.794s.013-.031.027-.031h.244c.133 0 .239.111.239.244a.247.247 0 01-.137.222.205.205 0 01.115.186.435.435 0 000 .102s.027.009.036.022c0 .018-.009.031-.023.036a.063.063 0 01-.057-.04.248.248 0 010-.115h-.005zm-.168-.6h-.213v.373h.217a.189.189 0 00.178-.186.184.184 0 00-.178-.187h-.004zM198.178 180.189l-.289-.391s-.009-.026 0-.039c.014-.014.031-.014.045 0l.266.368.266-.368s.031-.014.044 0c.009.008.014.026 0 .035l-.284.391v.381s-.013.031-.031.031c0 0-.026-.013-.026-.031l.009-.381v.004zM205.105 179.878l-.275.378h-.022s-.018.004-.027 0l-.271-.378v.701s-.013.032-.031.032a.031.031 0 01-.031-.032v-.789s.027-.009.04 0l.302.421.302-.421s.031-.009.044 0v.789s-.013.032-.031.032c0 0-.027 0-.027-.032l.027-.701zM205.859 180.389h-.391l-.075.199s-.018.005-.027 0c0 0-.013-.022-.004-.031h.004l.293-.794h.031a.042.042 0 01.031 0l.293.794s.009.027 0 .036h-.026l-.129-.2v-.004zm-.368-.058h.332l-.173-.444-.159.444zM206.605 180.416a.155.155 0 00-.071-.129.205.205 0 00-.098-.04h-.213v.337s-.013.031-.031.031a.03.03 0 01-.031-.031v-.794s.013-.027.027-.031h.244a.244.244 0 01.208.275.254.254 0 01-.106.169.205.205 0 01.115.186v.102s.027.009.031.022a.027.027 0 010 .036c-.022 0-.044-.018-.053-.04a.243.243 0 01-.022-.093zm-.173-.6h-.209v.373h.213a.189.189 0 00.182-.186.184.184 0 00-.178-.187h-.008zM207.346 179.746a.45.45 0 01.275.093c.009.009.013.026 0 .035-.009.009-.027.014-.036 0a.387.387 0 00-.625.293.375.375 0 00.386.368.374.374 0 00.235-.08.03.03 0 01.044 0 .04.04 0 010 .045.446.446 0 01-.275.093.445.445 0 01-.532-.333.445.445 0 01.528-.532v.018zM208.375 180.211h-.444v.369s-.013.031-.031.031c0 0-.027-.013-.027-.031v-.795s.014-.031.027-.031a.03.03 0 01.031.031v.369h.444v-.369s.013-.031.031-.031a.03.03 0 01.031.031v.795s-.013.031-.031.031a.03.03 0 01-.031-.031v-.369zM216.34 180.389h-.386l-.075.2s-.022.004-.031 0c0 0-.009-.027 0-.036l.297-.794h.027a.034.034 0 01.031 0l.297.794s.009.027 0 .036h-.031l-.129-.2zm-.363-.058h.341l-.168-.444-.173.444zM216.66 179.785s.013-.031.031-.031h.226c.133 0 .244.111.244.244 0 .134-.102.24-.235.245h-.217v.332s-.014.031-.031.031a.03.03 0 01-.032-.031l.014-.79zm.27.4a.184.184 0 00.213-.155.184.184 0 00-.155-.213h-.266v.372h.208v-.004zM217.804 180.415a.149.149 0 00-.071-.129.204.204 0 00-.097-.039h-.213v.337s-.014.031-.031.031a.03.03 0 01-.031-.031v-.795s-.009-.031 0-.044h.244a.244.244 0 01.208.275.251.251 0 01-.106.169.205.205 0 01.115.186v.102s.027.009.036.022c0 .018-.009.032-.023.036-.022 0-.044-.018-.053-.04 0-.027.014-.053.022-.08zm-.173-.599h-.208v.373h.213a.184.184 0 00.182-.187.183.183 0 00-.178-.186h-.018.009zM218.137 179.785s.014-.031.032-.031c.017 0 .031.014.031.031v.795s-.014.031-.031.031a.03.03 0 01-.032-.031v-.795zM218.532 180.633s-.031-.014-.031-.031v-.795s.013-.031.031-.031a.03.03 0 01.031.031v.764h.408s.031.013.031.031a.03.03 0 01-.031.031h-.439zM227.94 179.878l-.275.378h-.045l-.275-.378v.701s-.013.032-.027.032a.031.031 0 01-.031-.032v-.789s.027-.009.04 0l.306.421.302-.421s.027-.009.04 0v.789s-.013.032-.026.032a.032.032 0 01-.032-.032l.023-.701zM228.694 180.389h-.386l-.075.2s-.023.004-.032 0c0 0-.008-.027 0-.036l.298-.794h.026a.034.034 0 01.031 0l.298.794s.009.027 0 .036c0 0-.018.004-.027 0l-.133-.2zm-.364-.058h.346l-.173-.444-.173.444zM229.16 180.189l-.288-.391s-.009-.026 0-.039c.013-.014.031-.014.044 0l.266.368.266-.368s.032-.014.045 0c.009.008.013.026 0 .035l-.284.391v.381s-.013.031-.031.031c0 0-.027-.013-.027-.031l.009-.381v.004zM237.72 180.371h.035c.049.12.182.173.302.128a.222.222 0 00.142-.195v-.537s.009-.017.018-.022a.03.03 0 01.031.031v.537c0 .16-.129.289-.289.289a.283.283 0 01-.275-.2c0-.018.018-.031.036-.031zM238.496 179.785s.014-.031.027-.031a.03.03 0 01.031.031v.48c.018.159.164.27.324.248a.283.283 0 00.248-.248v-.48s.014-.031.027-.031a.03.03 0 01.031.031v.48a.344.344 0 01-.306.381.345.345 0 01-.382-.306V179.781v.004zM239.548 179.883v.697s-.013.031-.031.031a.03.03 0 01-.031-.031v-.781s-.005-.027 0-.036c.013-.009.026-.009.04 0l.519.719v-.697s.013-.031.027-.031c.017 0 .031.014.031.031v.786s-.014.031-.031.031h-.023l-.501-.719zM240.325 179.785s.013-.031.031-.031h.444s.031.014.031.031a.031.031 0 01-.031.032h-.408v.337h.354s.032.013.032.031c0 0-.014.026-.032.026h-.354v.338h.408s.031.013.031.031a.03.03 0 01-.031.031h-.444s-.027-.013-.027-.031v-.795h-.004zM248.835 180.371s.027-.009.04 0a.22.22 0 00.218.16.23.23 0 00.23-.222v-.542s.014-.031.031-.031c0 0 .027.014.027.031v.537c0 .16-.129.289-.288.289a.284.284 0 01-.276-.2c0-.009.009-.018.018-.022zM249.612 179.785s.013-.031.031-.031a.03.03 0 01.031.031v.48c0 .155.129.284.284.284a.286.286 0 00.284-.284v-.48s.013-.031.031-.031a.03.03 0 01.031.031v.48a.346.346 0 01-.692 0v-.48zM250.58 180.633s-.031-.014-.031-.031v-.795s.013-.031.031-.031c.017 0 .031.014.031.031v.764h.408s.031.013.031.031a.03.03 0 01-.031.031h-.439zM251.307 180.189l-.288-.391s-.009-.026 0-.04c.008-.008.026-.013.035 0l.266.369.271-.369s.027-.013.04 0c.013.009.013.027.004.04l-.284.391v.381s-.013.032-.031.032c0 0-.026-.014-.026-.032l.009-.377.004-.004zM259.099 180.389h-.386l-.08.199s-.017.005-.026 0c0 0-.013-.022-.005-.031h.005l.297-.794h.027a.042.042 0 01.031 0l.297.794s.009.027 0 .036h-.026l-.134-.2v-.004zm-.368-.058h.342l-.173-.444-.169.444zM259.388 179.785s.013-.031.031-.031a.03.03 0 01.031.031v.48c.018.159.164.27.324.248a.283.283 0 00.248-.248v-.48s.014-.031.027-.031a.03.03 0 01.031.031v.48a.346.346 0 01-.692 0v-.48zM260.777 180.225s-.031-.013-.031-.027a.03.03 0 01.031-.031h.266s.027 0 .027.031v.315a.444.444 0 01-.719-.341.446.446 0 01.719-.351c.013.014.013.031 0 .045-.014.008-.027.008-.04 0a.382.382 0 00-.542.062.407.407 0 00-.084.262c0 .208.173.377.382.372h.004c.08 0 .16-.026.226-.071v-.253l-.239-.013zM261.371 179.785s.014-.031.027-.031a.03.03 0 01.031.031v.48c.018.159.164.27.324.248a.283.283 0 00.248-.248v-.48s.014-.031.027-.031a.03.03 0 01.031.031v.48a.344.344 0 01-.306.381.345.345 0 01-.382-.306V179.781v.004zM262.321 180.451s.022-.014.031 0c.08.066.182.102.284.111a.307.307 0 00.186-.058.149.149 0 00.071-.129.13.13 0 00-.066-.115.576.576 0 00-.209-.071.57.57 0 01-.204-.071.174.174 0 01-.084-.147.19.19 0 01.089-.159.32.32 0 01.199-.067.43.43 0 01.262.098.026.026 0 010 .035c-.009.009-.018.009-.027.009a.417.417 0 00-.235-.089.305.305 0 00-.173.049.146.146 0 00-.066.12c0 .044.026.08.062.102.057.031.12.058.182.067a.536.536 0 01.217.075.195.195 0 01.093.16c0 .071-.04.133-.097.173a.383.383 0 01-.218.066.491.491 0 01-.315-.124c-.009-.009-.004-.022 0-.031h.009l.009-.004zM263.373 179.817h-.258s-.031-.014-.031-.032c0-.017.014-.031.031-.031h.573s.031.014.031.031a.031.031 0 01-.031.032h-.258v.763s-.013.031-.026.031a.03.03 0 01-.031-.031v-.763zM268.684 180.451s.022-.013.031 0c.08.067.182.102.284.111a.307.307 0 00.186-.058.146.146 0 00.071-.128.132.132 0 00-.066-.116.663.663 0 00-.2-.071.552.552 0 01-.204-.071.174.174 0 01-.084-.146c0-.067.035-.124.089-.16a.337.337 0 01.204-.062.43.43 0 01.261.098c.009.008.014.022.005.031h-.005c-.008.009-.026.009-.035 0a.409.409 0 00-.235-.089.287.287 0 00-.173.049.145.145 0 00-.067.12c0 .044.027.079.062.102a.57.57 0 00.182.066.557.557 0 01.218.076.198.198 0 01.093.159c0 .071-.04.133-.098.173a.376.376 0 01-.217.067.492.492 0 01-.315-.124c-.005-.009 0-.022.009-.031l.004.004zM269.537 179.785s.013-.031.026-.031h.444s.031.014.031.031a.03.03 0 01-.031.032h-.408v.337h.359s.027.013.027.031c0 .013-.014.026-.027.026h-.359v.338h.408s.031.013.031.031a.03.03 0 01-.031.031h-.444s-.026-.013-.026-.031v-.795zM270.255 179.785s.013-.031.031-.031h.24c.133 0 .244.111.244.244a.246.246 0 01-.244.245h-.209v.332s-.013.031-.031.031a.03.03 0 01-.031-.031v-.79zm.271.4a.185.185 0 00.213-.155.184.184 0 00-.156-.213h-.266v.372h.209v-.004zM271.187 179.817h-.257s-.031-.014-.031-.032a.03.03 0 01.031-.031h.568s.031.014.031.031a.031.031 0 01-.031.032h-.258v.763s-.013.031-.031.031c0 0-.026-.013-.026-.031v-.763h.004zM271.755 179.785s.014-.031.027-.031h.444s.031.014.031.031a.031.031 0 01-.031.032h-.409v.337h.36s.027.013.027.031c0 .013-.014.026-.027.026h-.36v.338h.409s.031.013.031.031a.03.03 0 01-.031.031h-.444s-.027-.013-.027-.031v-.795zM273.135 179.878l-.275.378h-.022s-.018.004-.027 0l-.27-.378v.701s-.014.032-.031.032a.03.03 0 01-.031-.032v-.789s.026-.009.039 0l.302.421.302-.421s.031-.009.044 0v.789s-.013.032-.031.032c0 0-.026 0-.026-.032l.026-.701zM273.503 179.785s.013-.031.027-.031h.186a.214.214 0 01.133.382.243.243 0 01.151.311.25.25 0 01-.231.164h-.244s-.026 0-.026-.031v-.795h.004zm.222.338a.15.15 0 00.151-.151.152.152 0 00-.147-.155h-.164v.306h.16zm.053.443a.185.185 0 00.186-.181.19.19 0 00-.186-.187h-.213v.368h.213zM274.222 179.785s.013-.031.031-.031h.444s.031.014.031.031a.03.03 0 01-.031.032h-.408v.337h.355s.031.013.031.031c0 0-.014.026-.031.026h-.355v.338h.408s.031.013.031.031a.03.03 0 01-.031.031h-.444s-.031 0-.031-.031v-.795zM275.394 180.416a.161.161 0 00-.067-.129.219.219 0 00-.102-.04h-.213v.337s-.013.031-.031.031c0 0-.027-.013-.027-.031v-.794s.014-.031.027-.031h.244a.246.246 0 01.209.275.251.251 0 01-.107.169c.067.039.111.11.111.186v.102s.027.009.031.022a.027.027 0 010 .036.064.064 0 01-.058-.04c-.008-.031-.017-.062-.017-.093zm-.169-.6h-.213v.373h.217a.189.189 0 00.178-.186.184.184 0 00-.178-.187h-.004zM280.599 179.745a.45.45 0 01.479.409.449.449 0 01-.408.479.45.45 0 01-.48-.408v-.036c0-.231.178-.426.409-.444zm0 .804a.377.377 0 00.395-.351.376.376 0 00-.351-.395.375.375 0 00-.395.351v.022a.366.366 0 00.351.373z" fill="#DBDBDB"/><path d="M281.628 179.746c.102 0 .2.031.28.093.008.009.013.026 0 .035-.014.014-.032.014-.045 0a.373.373 0 100 .581c.009-.008.027-.013.036 0 .013.014.013.032 0 .045a.453.453 0 01-.28.093.445.445 0 01-.2-.865.462.462 0 01.196 0v.013l.013.005zM282.382 179.817h-.235s-.031-.014-.031-.032a.03.03 0 01.031-.031h.572s.032.014.032.031a.032.032 0 01-.032.032h-.257v.763s-.013.031-.027.031a.03.03 0 01-.031-.031l-.022-.763zM283.257 179.745a.44.44 0 01.333.533.446.446 0 01-.333.332.44.44 0 01-.333-.532.448.448 0 01.333-.333zm0 .803a.375.375 0 00.395-.35.374.374 0 00-.745-.045v.023a.364.364 0 00.35.372zM283.874 179.785s-.009-.035.004-.044c.013-.009.036-.009.045 0h.19c.12 0 .213.098.213.217a.203.203 0 01-.084.165.242.242 0 01.151.31.242.242 0 01-.226.164h-.244s-.032-.013-.032-.031l-.017-.785v.004zm.222.338a.15.15 0 00.15-.151.153.153 0 00-.146-.156h-.177v.307h.173zm.053.443a.18.18 0 00.182-.182.183.183 0 00-.178-.186h-.23v.368h.226zM284.597 179.785s.013-.031.031-.031h.444s.026 0 .026.031c0 .032 0 .032-.026.032h-.409v.337h.355s.032.013.032.031c0 0-.014.026-.032.026h-.355v.338h.409s.026 0 .026.031 0 .031-.026.031h-.444s-.027-.013-.027-.031v-.795h-.004zM285.768 180.416a.146.146 0 00-.071-.129.187.187 0 00-.097-.04h-.213v.337s-.014.031-.031.031c0 0-.027-.013-.027-.031v-.794s.013-.031.027-.031h.239a.246.246 0 01.107.466.205.205 0 01.115.186.435.435 0 000 .102s.027.009.036.022c0 .018-.009.031-.022.036a.064.064 0 01-.058-.04.248.248 0 010-.115h-.005zm-.173-.6h-.208v.373h.217a.189.189 0 00.178-.186.184.184 0 00-.178-.187h-.009zM290.809 179.883v.697s-.013.031-.031.031c0 0-.026-.014-.026-.031v-.781s.009-.031.026-.036c.009 0 .023 0 .027.009l.515.719v-.697s.013-.031.031-.031c0 0 .026.013.026.031v.786s-.013.031-.026.031h-.027l-.515-.728zM291.999 179.745a.444.444 0 010 .865.44.44 0 01-.333-.532.447.447 0 01.333-.333zm0 .803a.375.375 0 00.395-.35.376.376 0 00-.351-.395.375.375 0 00-.395.35v.023a.358.358 0 00.346.372h.005zM292.891 180.593l-.329-.785s-.009-.027 0-.04c.009-.009.027-.014.036 0l.306.727.306-.727s.027-.009.036 0c.009.013.009.026 0 .04l-.333.781v.022h-.027v-.018h.005zM293.485 179.785s.013-.031.031-.031h.444s.031.014.031.031a.03.03 0 01-.031.032h-.408v.337h.355s.031.013.031.031c0 0-.014.026-.031.026h-.355v.338h.408s.031.013.031.031a.03.03 0 01-.031.031h-.444s-.026-.013-.026-.031v-.795h-.005zM294.865 179.878l-.275.378h-.044l-.275-.378v.701s-.013.032-.027.032a.03.03 0 01-.031-.032v-.789s.027-.009.04 0l.306.421.302-.421s.027-.009.04 0v.789s-.013.032-.027.032a.031.031 0 01-.031-.032l.022-.701zM295.233 179.785s.014-.031.031-.031h.196c.12 0 .213.098.208.218a.217.217 0 01-.08.164.242.242 0 01.151.311.243.243 0 01-.226.164h-.249s-.026-.013-.026-.031v-.795h-.005zm.218.338c.084 0 .146-.067.151-.151a.156.156 0 00-.151-.155h-.16v.306h.16zm.053.443a.18.18 0 00.182-.181.187.187 0 00-.182-.187h-.213v.368h.213zM295.956 179.785s.014-.031.031-.031h.444s.031.014.031.031a.03.03 0 01-.031.032h-.408v.337h.359s.027 0 .027.031c0 .013-.013.026-.027.026h-.359v.338h.408s.031.013.031.031a.03.03 0 01-.031.031h-.444s-.026-.013-.026-.031v-.795h-.005zM297.128 180.416a.155.155 0 00-.071-.129.205.205 0 00-.098-.04h-.213v.337s-.013.031-.031.031a.03.03 0 01-.031-.031v-.794s.014-.027.027-.031h.244a.246.246 0 01.209.275.251.251 0 01-.107.169.205.205 0 01.115.186v.102s.027.009.032.022c.008.009.008.027 0 .036-.023 0-.045-.018-.054-.04-.013-.031-.017-.062-.022-.093zm-.173-.6h-.209v.373h.213a.183.183 0 00.182-.186.183.183 0 00-.177-.187h-.009zM301.85 180.633s-.027-.013-.027-.031v-.794s.013-.031.031-.031h.155a.447.447 0 01.546.31.45.45 0 01-.31.546.412.412 0 01-.231 0h-.164zm.155-.062a.369.369 0 00.084-.732H301.881v.732h.128-.004zM302.631 179.785s.013-.031.031-.031h.444s.026 0 .026.031c0 .032 0 .032-.026.032h-.409v.337h.355s.031.013.031.031c0 0-.013.026-.031.026h-.355v.338h.409s.026 0 .026.031 0 .031-.026.031h-.444s-.027-.013-.027-.031v-.795h-.004zM303.758 179.745c.102 0 .199.032.279.094.009.013.009.026 0 .04a.03.03 0 01-.044 0 .373.373 0 100 .581c.009-.009.026-.013.035 0a.04.04 0 010 .044.45.45 0 01-.279.093.446.446 0 01-.533-.332.446.446 0 01.333-.533.492.492 0 01.195 0v.013h.014zM304.291 179.786s0-.036.013-.04c.009-.005.022 0 .031 0h.444s.026 0 .026.031 0 .031-.026.031h-.444v.337h.355s.031.013.031.031c0 0-.013.027-.031.027h-.355v.337h.444s.026 0 .026.031 0 .031-.026.031h-.444s-.027-.013-.027-.031l-.017-.785zM305.666 179.878l-.271.378s-.018.004-.027 0h-.026l-.275-.378v.701s-.014.032-.027.032a.03.03 0 01-.031-.032v-.789s.031-.009.044 0l.302.421.302-.421s.027-.009.04 0v.789s-.013.032-.027.032a.03.03 0 01-.031-.032l.027-.701zM306.039 179.785s.013-.031.031-.031h.19c.12 0 .213.098.213.218a.203.203 0 01-.084.164.243.243 0 01.151.311.244.244 0 01-.226.164h-.244s-.031-.013-.031-.031v-.795zm.221.338a.15.15 0 00.151-.151.152.152 0 00-.146-.155h-.155v.306h.15zm.054.443a.18.18 0 00.182-.181.184.184 0 00-.178-.187h-.208v.368h.204zM306.762 179.785s.013-.031.031-.031h.444s.031.014.031.031a.031.031 0 01-.031.032h-.409v.337h.355s.031.013.031.031c0 0-.013.026-.031.026h-.355v.338h.409s.031.013.031.031a.03.03 0 01-.031.031h-.444s-.027-.013-.027-.031v-.795h-.004zM307.933 180.416a.146.146 0 00-.071-.129.187.187 0 00-.097-.04h-.213v.337s-.013.031-.031.031a.03.03 0 01-.031-.031v-.794s.013-.027.026-.031h.244a.244.244 0 01.209.275.251.251 0 01-.107.169.206.206 0 01.116.186.349.349 0 000 .102s.026.009.035.022a.027.027 0 010 .036c-.022 0-.044-.018-.053-.04a.408.408 0 01-.027-.093zm-.173-.6h-.208v.373h.213a.184.184 0 00.182-.186.184.184 0 00-.178-.187h-.009zM176.017 140.133h-1.553l-.302.803a.117.117 0 01-.11.08h-.045a.121.121 0 01-.066-.156l1.18-3.155a.129.129 0 01.115-.071c.054-.004.102.022.12.071l1.18 3.155a.113.113 0 01-.057.151H176.43a.124.124 0 01-.111-.08l-.302-.803v.005zm-1.464-.236h1.376l-.684-1.832-.692 1.832zM177.544 138.109v2.787a.117.117 0 01-.116.115.117.117 0 01-.115-.115v-3.106a.12.12 0 01.044-.133c.054-.036.125-.027.16.026v.005l2.064 2.857v-2.773a.117.117 0 01.142-.093.12.12 0 01.093.093v3.137a.12.12 0 01-.213.076v-.023l-2.064-2.853h.005zM181.138 138.109v2.786a.121.121 0 01-.093.142.12.12 0 01-.142-.093v-3.15a.121.121 0 01.044-.134c.053-.035.124-.026.16.027v.005l2.063 2.857v-2.773c0-.062.053-.116.116-.116.066 0 .119.049.124.116v3.137a.12.12 0 01-.12.12h-.004a.117.117 0 01-.089-.044l-.022-.023-2.042-2.853.005-.004zM184.404 137.728a.124.124 0 01.102-.138h.018c.067 0 .12.053.124.12v1.908a1.142 1.142 0 002.277.146v-2.05a.122.122 0 01.093-.142.122.122 0 01.142.093V139.618c0 .759-.613 1.375-1.376 1.375a1.373 1.373 0 01-1.375-1.375l-.005-1.895v.005zM189.977 140.132h-1.548l-.302.803a.124.124 0 01-.111.08h-.044a.124.124 0 01-.071-.155l1.184-3.155a.128.128 0 01.116-.071c.049 0 .097.026.115.071l1.185 3.155a.12.12 0 01-.067.155h-.039c-.049 0-.094-.035-.116-.08l-.302-.803zm-1.459-.235h1.375l-.688-1.833-.687 1.833zM191.388 141.015a.115.115 0 01-.115-.119v-3.169a.12.12 0 01.115-.12c.067 0 .12.049.125.116v3.053h1.628a.12.12 0 01.12.12.119.119 0 01-.12.119h-1.753zM195.307 140.376a.104.104 0 01.142-.009s.004 0 .009.009c.315.267.705.426 1.118.444.266.005.528-.071.746-.222a.629.629 0 00.292-.506.533.533 0 00-.275-.466 2.26 2.26 0 00-.79-.279 2.188 2.188 0 01-.803-.284.704.704 0 01-.35-.595.805.805 0 01.355-.639c.239-.168.528-.253.821-.248.381.022.75.159 1.051.395a.113.113 0 01.031.151.107.107 0 01-.146.031 1.672 1.672 0 00-.936-.36 1.203 1.203 0 00-.693.204.587.587 0 00-.27.466.498.498 0 00.253.413c.226.133.474.217.732.257.306.045.599.151.865.311a.764.764 0 01.377.643.858.858 0 01-.386.679c-.257.182-.572.28-.887.271a2.106 2.106 0 01-1.256-.493.112.112 0 01-.018-.155c.005-.004.009-.013.018-.018zM199.513 137.847h-1.025a.12.12 0 110-.24h2.285a.12.12 0 01.12.12.12.12 0 01-.12.12h-1.025v3.049a.122.122 0 01-.093.142.122.122 0 01-.142-.094v-3.097zM203.187 140.132h-1.553l-.301.803a.119.119 0 01-.111.08h-.045a.121.121 0 01-.066-.155l1.18-3.155a.133.133 0 01.12-.071c.049 0 .098.026.115.071l1.181 3.155a.115.115 0 01-.058.151h-.049c-.049 0-.093-.036-.111-.08l-.302-.803v.004zm-1.464-.235h1.376l-.684-1.833-.692 1.833zM204.861 137.847h-1.025a.12.12 0 01-.12-.12.12.12 0 01.12-.12h2.285a.12.12 0 110 .24h-1.025v3.049a.122.122 0 01-.093.142.121.121 0 01-.142-.094v-3.097zM206.906 140.376a.104.104 0 01.142-.009s.005 0 .009.009a1.88 1.88 0 001.118.444c.267.005.528-.071.75-.222a.632.632 0 00.293-.506.538.538 0 00-.279-.466 2.248 2.248 0 00-.786-.279 2.156 2.156 0 01-.803-.284.707.707 0 01-.351-.595.805.805 0 01.355-.639c.24-.168.528-.253.821-.248.382.022.75.159 1.052.395a.102.102 0 01.027.146.107.107 0 01-.147.031 1.656 1.656 0 00-.932-.359 1.2 1.2 0 00-.696.204.581.581 0 00-.267.466.496.496 0 00.253.412c.222.134.471.222.728.258.306.044.599.151.865.31a.766.766 0 01.373.644.845.845 0 01-.381.679 1.478 1.478 0 01-.888.27 2.165 2.165 0 01-1.256-.492c-.049-.04-.053-.115-.013-.164 0 0 .009-.009.013-.009v.004z" fill="#DBDBDB"/><path d="M194.615 183.708h-20.967v9.882h20.967v-9.882z" fill="#AACC19"/><path d="M183.699 183.708h-10.051v9.882h10.051v-9.882z" fill="#EBEBEB"/><path d="M182.234 188.651a3.549 3.549 0 01-3.559 3.541 3.549 3.549 0 11.018-7.1 3.545 3.545 0 013.541 3.559z" fill="#263238"/><path d="M181.764 186.881l-3.107 1.775v-3.55a3.543 3.543 0 013.107 1.775z" fill="#AACC19"/><path d="M181.133 188.651a2.46 2.46 0 01-2.462 2.463 2.46 2.46 0 01-2.463-2.463 2.46 2.46 0 012.463-2.463h.004a2.458 2.458 0 012.458 2.459v.004z" fill="#fff"/><path d="M177.805 188.349l-.119.071s-.018.005-.027 0v-.04l.164-.102s.031-.009.044 0v.804s0 .031-.026.031a.03.03 0 01-.031-.031v-.733h-.005zM178.094 189.033s-.014-.031 0-.045a.03.03 0 01.044 0 .225.225 0 00.386-.159.245.245 0 00-.062-.165.235.235 0 00-.151-.044.218.218 0 00-.16.067.03.03 0 01-.044 0l.044-.342v-.022h.395s.031.013.031.031a.03.03 0 01-.031.031h-.372l-.027.253a.321.321 0 01.142-.036.29.29 0 01.204.08.289.289 0 010 .413.293.293 0 01-.204.084.288.288 0 01-.195-.146zM178.813 188.474c0-.102.084-.187.186-.187s.186.085.186.187a.202.202 0 01-.186.222.197.197 0 01-.186-.213v-.009zm.31 0a.149.149 0 00-.124-.165c-.075 0-.124.076-.124.165 0 .097.057.168.124.168s.124-.075.124-.168zm-.195.608l.595-.812h.022c.013 0 .026.013.026.026l-.594.808h-.022s-.027-.014-.027-.027v.005zm.377-.169a.189.189 0 01.16-.217c.102-.018.2.053.217.159v.058a.189.189 0 01-.159.217.19.19 0 01-.218-.159v-.058zm.311 0c0-.098-.053-.169-.124-.169-.071 0-.125.076-.125.165a.147.147 0 00.129.164c.071 0 .12-.067.12-.16z" fill="#263238"/><path d="M184.95 186.069h-4.003v.204h4.003v-.204z" fill="#fff"/><path d="M185.372 186.171c0 .244-.2.444-.444.444a.446.446 0 01-.444-.444c0-.244.2-.444.444-.444s.444.2.444.444zM187.599 185.798c.093.208.12.439.071.661-.044.244-.146.47-.302.661a.754.754 0 01-.568.306.49.49 0 01-.443-.306 1.06 1.06 0 01-.071-.661c.04-.244.146-.47.301-.661a.786.786 0 01.568-.311.504.504 0 01.444.311zm-.235.661a.808.808 0 00-.049-.492.247.247 0 00-.226-.169.388.388 0 00-.293.169 1.12 1.12 0 00-.217.492.802.802 0 00.048.488.266.266 0 00.227.173.402.402 0 00.288-.173c.116-.142.191-.31.222-.488zM188.788 185.634l-.271 1.655a.188.188 0 01-.181.151.13.13 0 01-.129-.12v-.031l.239-1.366-.119.066a.243.243 0 01-.085 0 .126.126 0 01-.119-.075.179.179 0 01.093-.209l.377-.204h.129v.071l.062.062h.004zM192.205 188.274h-6.16v.315h6.16v-.315zM191.193 189.055h-5.148v.315h5.148v-.315zM193.261 189.836h-7.216v.315h7.216v-.315zM189.125 190.622h-3.08v.315h3.08v-.315zM192.205 191.402h-6.16v.315h6.16v-.315z" fill="#fff"/><path d="M220.298 183.708h-20.966v9.882h20.966v-9.882z" fill="#AACC19"/><path d="M209.382 183.708h-10.05v9.882h10.05v-9.882z" fill="#EBEBEB"/><path d="M207.913 188.652c0 .173-.013.346-.04.519a3.552 3.552 0 01-4.02 3.008 3.552 3.552 0 011.012-7.029 3.565 3.565 0 012.565 1.731c.315.537.483 1.149.483 1.771z" fill="#263238"/><path d="M207.913 188.651c0 .173-.013.346-.04.519l-3.519-.519v-3.55a3.548 3.548 0 013.107 1.775c.306.542.461 1.154.452 1.775z" fill="#AACC19"/><path d="M206.817 188.651a2.46 2.46 0 01-2.462 2.463 2.46 2.46 0 01-2.463-2.463 2.46 2.46 0 012.463-2.463 2.461 2.461 0 012.462 2.454v.009z" fill="#fff"/><path d="M203.192 189.064l.399-.36a.211.211 0 00.076-.164.222.222 0 00-.058-.146.222.222 0 00-.311-.013l-.044.035s-.027.013-.035 0a.04.04 0 010-.044l.044-.036a.26.26 0 01.186-.075c.08 0 .156.035.204.093a.26.26 0 01.076.186c0 .08-.036.156-.093.209l-.342.306h.404s.031.013.031.031a.03.03 0 01-.031.031h-.502s-.013-.04 0-.053h-.004zM203.933 189.033s-.013-.031 0-.044c.013-.014.031-.014.045 0 .088.088.23.088.319 0a.229.229 0 000-.324.224.224 0 00-.319 0c-.014.013-.032.013-.045 0l.04-.342v-.022h.399s.032.013.032.031a.03.03 0 01-.032.031H204l-.031.253a.338.338 0 01.146-.036c.076 0 .151.027.204.08a.289.289 0 010 .413.292.292 0 01-.204.084.314.314 0 01-.182-.124zM204.647 188.474a.189.189 0 01.16-.217c.102-.018.2.053.217.159v.058a.204.204 0 01-.186.222h-.004a.197.197 0 01-.187-.213v-.009zm.315 0a.145.145 0 00-.128-.164c-.071 0-.12.075-.12.164 0 .098.057.169.124.169s.124-.076.124-.169zm-.199.608l.594-.812h.027c.013 0 .026.013.026.027l-.59.807h-.026c-.014 0-.027-.013-.027-.026h-.004v.004zm.381-.169a.19.19 0 01.16-.217c.102-.018.2.053.217.16v.057a.204.204 0 01-.19.218.2.2 0 01-.187-.213v-.005zm.311 0c0-.097-.058-.168-.124-.168-.067 0-.125.075-.125.164a.148.148 0 00.125.164c.075 0 .124-.066.124-.16z" fill="#263238"/><path d="M210.63 186.069h-4.003v.204h4.003v-.204z" fill="#fff"/><path d="M211.055 186.171a.445.445 0 01-.443.444.446.446 0 01-.444-.444c0-.244.2-.444.444-.444s.443.2.443.444zM213.283 185.798c.093.208.115.439.071.661-.045.244-.147.47-.302.661a.764.764 0 01-.568.306.506.506 0 01-.444-.306 1.058 1.058 0 01-.066-.661c.04-.244.146-.47.301-.661a.77.77 0 01.564-.311.506.506 0 01.444.311zm-.235.661a.855.855 0 00-.049-.492.249.249 0 00-.227-.169.386.386 0 00-.292.169c-.116.142-.191.31-.218.492a.808.808 0 00.044.488.271.271 0 00.231.173.404.404 0 00.289-.173c.115-.142.19-.31.222-.488zM215.107 187.289a.194.194 0 01-.182.151h-.985c-.04 0-.08-.013-.102-.049a.16.16 0 01.044-.217l.95-.737a.455.455 0 00.164-.266.295.295 0 00-.218-.351c-.022-.004-.048-.009-.075-.009a.414.414 0 00-.257.094l-.102.075a.148.148 0 01-.209.005l-.004-.005a.171.171 0 01.048-.217l.098-.076a.796.796 0 01.479-.173c.173 0 .337.08.444.218a.578.578 0 01.093.443.817.817 0 01-.306.493l-.604.47h.586a.127.127 0 01.138.116v.035zM217.667 188.274h-5.937v.315h5.937v-.315zM215.138 189.055h-3.408v.315h3.408v-.315zM217.228 189.836h-5.498v.315h5.498v-.315zM218.945 190.622h-7.215v.315h7.215v-.315zM215.914 191.402h-4.184v.315h4.184v-.315z" fill="#fff"/><path d="M245.983 183.708h-20.967v9.882h20.967v-9.882z" fill="#AACC19"/><path d="M235.067 183.708h-10.051v9.882h10.051v-9.882z" fill="#EBEBEB"/><path d="M233.598 188.651a3.553 3.553 0 01-2.281 3.319c-.408.16-.839.24-1.278.24a3.55 3.55 0 113.106-5.325 3.51 3.51 0 01.453 1.766z" fill="#263238"/><path d="M233.597 188.651a3.552 3.552 0 01-2.28 3.319l-1.278-3.319v-3.55a3.546 3.546 0 013.106 1.775c.306.542.461 1.154.452 1.775z" fill="#AACC19"/><path d="M232.501 188.651a2.46 2.46 0 01-2.463 2.463 2.46 2.46 0 01-2.462-2.463 2.46 2.46 0 012.462-2.463 2.46 2.46 0 012.463 2.463z" fill="#fff"/><path d="M229.342 188.94h-.484s-.013-.031 0-.044l.493-.613h.04v.586h.058s.031.013.031.031c0 0-.014.027-.031.027h-.058v.146s-.013.031-.031.031c0 0-.031-.013-.031-.031l.013-.133zm0-.058v-.501l-.399.501h.399zM229.661 189.033s-.013-.031 0-.044c0 0 .027-.014.036 0 .044.04.102.066.164.066a.227.227 0 00.226-.226.228.228 0 00-.226-.231.247.247 0 00-.164.067c-.009.009-.027.013-.036 0l.04-.342v-.022h.4s.031.013.031.031a.03.03 0 01-.031.031h-.373l-.031.253a.342.342 0 01.146-.036c.076 0 .151.027.204.08a.289.289 0 010 .413.292.292 0 01-.204.084.299.299 0 01-.182-.124zM230.376 188.474a.189.189 0 01.16-.217.19.19 0 01.217.159v.058a.204.204 0 01-.186.222h-.005a.196.196 0 01-.186-.213v-.009zm.315 0a.145.145 0 00-.129-.164c-.071 0-.119.075-.119.164 0 .098.053.169.124.169.071 0 .106-.076.106-.169h.018zm-.2.608l.595-.812h.022s.027.013.027.027l-.59.807h-.027c-.013 0-.027-.013-.027-.026v.004zm.382-.169a.2.2 0 01.182-.217h.004a.195.195 0 01.187.204v.009a.191.191 0 01-.373.08.268.268 0 010-.08v.004zm.311 0c0-.097-.058-.168-.125-.168-.066 0-.124.075-.124.164a.147.147 0 00.124.164c.058 0 .125-.066.125-.16z" fill="#263238"/><path d="M236.313 186.069h-4.002v.204h4.002v-.204z" fill="#fff"/><path d="M236.313 186.597a.426.426 0 100-.853.426.426 0 000 .853zM238.967 185.798c.093.208.115.439.066.661-.04.244-.146.47-.302.661a.752.752 0 01-.563.306.506.506 0 01-.444-.306 1.127 1.127 0 01-.071-.661c.045-.244.147-.47.302-.661a.784.784 0 01.568-.311.506.506 0 01.444.311zm-.236.661a.846.846 0 00-.048-.492c-.062-.12-.142-.174-.231-.169a.389.389 0 00-.289.169c-.115.142-.19.31-.217.492a.808.808 0 00.044.488.266.266 0 00.227.173.404.404 0 00.293-.173c.115-.142.19-.31.221-.488zM240.741 186.251a.593.593 0 01.116.483.836.836 0 01-.289.489.838.838 0 01-.523.199.588.588 0 01-.444-.199.163.163 0 01.04-.222.15.15 0 01.217 0 .304.304 0 00.244.106.45.45 0 00.284-.106.497.497 0 00.156-.267.308.308 0 00-.062-.261.288.288 0 00-.244-.111.144.144 0 01-.107-.049.162.162 0 01.036-.222l.328-.288h-.444a.128.128 0 01-.133-.116v-.04a.19.19 0 01.186-.155h.813a.128.128 0 01.133.115v.04a.13.13 0 01-.031.076.15.15 0 01-.036.035l-.413.36a.68.68 0 01.169.133h.004zM243.084 188.274h-5.671v.315h5.671v-.315zM244.629 189.055h-7.216v.315h7.216v-.315zM241.749 189.836h-4.336v.315h4.336v-.315zM243.714 190.622h-6.301v.315h6.301v-.315zM239.96 191.402h-2.547v.315h2.547v-.315z" fill="#fff"/><path d="M271.662 183.708h-20.967v9.882h20.967v-9.882z" fill="#AACC19"/><path d="M260.746 183.708h-10.051v9.882h10.051v-9.882z" fill="#EBEBEB"/><path d="M259.281 188.651a3.548 3.548 0 01-3.559 3.541 3.549 3.549 0 11.018-7.1 3.544 3.544 0 013.541 3.559z" fill="#263238"/><path d="M259.281 188.651a3.552 3.552 0 01-3.532 3.568 3.567 3.567 0 01-2.338-.866l2.312-2.702v-3.55a3.549 3.549 0 013.549 3.55h.009z" fill="#AACC19"/><path d="M258.185 188.651a2.46 2.46 0 01-2.463 2.463 2.46 2.46 0 01-2.462-2.463 2.46 2.46 0 012.462-2.463h.005a2.458 2.458 0 012.458 2.459v.004z" fill="#fff"/><path d="M254.569 189.033s-.009-.031 0-.044c.013-.014.031-.014.044 0a.22.22 0 00.16.066.228.228 0 00.164-.39.214.214 0 00-.159-.067.227.227 0 00-.165.067c-.008.009-.026.013-.035 0l.04-.342v-.022h.399s.031.013.031.031a.03.03 0 01-.031.031h-.373l-.031.253a.346.346 0 01.147-.036.29.29 0 01.204.08.29.29 0 010 .413.29.29 0 01-.413 0l.022-.04h-.004zM255.305 189.033s-.013-.031 0-.045c.014-.013.031-.013.045 0a.214.214 0 00.159.067.227.227 0 00.231-.226.23.23 0 00-.066-.165.237.237 0 00-.151-.044.225.225 0 00-.164.067c-.014.013-.031.013-.045 0l.04-.342v-.022h.4s.031.013.031.031a.03.03 0 01-.031.031h-.373l-.031.253a.338.338 0 01.146-.036c.16.005.289.142.284.302a.284.284 0 01-.08.191.29.29 0 01-.412 0l.017-.062zM256.024 188.474a.19.19 0 01.16-.217.19.19 0 01.218.159v.058a.204.204 0 01-.187.222h-.004a.198.198 0 01-.187-.213v-.009zm.311 0a.147.147 0 00-.124-.164c-.071 0-.124.075-.124.164 0 .098.057.169.128.169.071 0 .12-.076.12-.169zm-.195.608l.594-.812s.027.013.027.027l-.595.807h-.022a.028.028 0 01-.026-.026h.022v.004zm.381-.169c0-.102.085-.186.187-.186s.186.084.186.186a.2.2 0 01-.182.218h-.004a.2.2 0 01-.187-.213v-.005zm.311 0c0-.097-.058-.168-.124-.168-.067 0-.124.075-.124.164a.147.147 0 00.124.164c.071 0 .146-.066.146-.16h-.022z" fill="#263238"/><path d="M261.997 186.069h-4.003v.204h4.003v-.204z" fill="#fff"/><path d="M262.423 186.171c0 .244-.2.444-.444.444a.446.446 0 01-.444-.444c0-.244.2-.444.444-.444s.444.2.444.444zM264.651 185.798c.089.208.111.439.066.661-.04.244-.146.47-.301.661a.757.757 0 01-.568.306.504.504 0 01-.444-.306 1.06 1.06 0 01-.071-.661c.044-.244.146-.47.302-.661a.782.782 0 01.568-.311.512.512 0 01.448.311zm-.235.661a.817.817 0 00-.054-.492.247.247 0 00-.226-.169.385.385 0 00-.288.169c-.116.142-.191.31-.218.492a.766.766 0 00.045.488.263.263 0 00.226.173.404.404 0 00.293-.173 1.11 1.11 0 00.204-.488h.018zM266.718 186.916a.187.187 0 01-.177.151h-.027l-.035.209a.196.196 0 01-.182.151.124.124 0 01-.124-.125v-.013l.04-.208h-.888c-.035 0-.066-.009-.089-.036a.154.154 0 010-.213l1.247-1.269h.116v.027l-.196 1.118h.213a.124.124 0 01.134.111.146.146 0 01-.032.097zm-.443-.155l.12-.683-.666.683h.546zM267.73 188.274h-4.633v.315h4.633v-.315zM270.312 189.055h-7.215v.315h7.215v-.315zM266.385 189.836h-3.288v.315h3.288v-.315zM268.99 190.622h-5.893v.315h5.893v-.315zM268.316 191.402h-5.219v.315h5.219v-.315z" fill="#fff"/><path d="M180.091 202.523h-3.568v18.14h3.568v-18.14z" fill="#AACC19"/><path opacity=".1" d="M180.091 202.523h-1.056v18.14h1.056v-18.14z" fill="#263238"/><path d="M186.227 205.54h-3.567v15.127h3.567V205.54z" fill="#AACC19"/><path opacity=".1" d="M186.227 205.54h-1.056v15.127h1.056V205.54z" fill="#263238"/><path d="M192.365 211.038h-3.568v9.625h3.568v-9.625z" fill="#AACC19"/><path opacity=".1" d="M192.365 211.038h-1.056v9.625h1.056v-9.625z" fill="#263238"/><path d="M198.497 213.053h-3.568v7.614h3.568v-7.614z" fill="#AACC19"/><path opacity=".1" d="M198.497 213.053h-1.056v7.614h1.056v-7.614z" fill="#263238"/><path d="M204.634 207.803h-3.567v12.864h3.567v-12.864z" fill="#AACC19"/><path opacity=".1" d="M204.634 207.803h-1.056v12.864h1.056v-12.864z" fill="#263238"/><path d="M210.771 202.172h-3.568v18.491h3.568v-18.491z" fill="#AACC19"/><path opacity=".1" d="M210.771 202.172h-1.056v18.491h1.056v-18.491z" fill="#263238"/><path d="M216.921 200.251h-3.567v20.417h3.567v-20.417z" fill="#AACC19"/><path opacity=".1" d="M216.922 200.251h-1.057v20.417h1.057v-20.417z" fill="#263238"/><path d="M223.076 198.857h-3.568v21.81h3.568v-21.81z" fill="#AACC19"/><path opacity=".1" d="M223.076 198.857h-1.056v21.81h1.056v-21.81z" fill="#263238"/><path d="M174.455 198.737l.04 5.481v5.48l.027 10.965-.089-.089c8.671-.027 17.342 0 26.012 0h13.006l13.007.053-13.007.053-13.006.023c-8.67 0-17.341.04-26.012 0h-.093v-.094l.031-10.964v-5.481l.084-5.427z" fill="#EBEBEB"/><path d="M173.665 199.993c.258-.066.524-.102.79-.102s.528.031.786.102c-.258.071-.52.107-.786.102-.266 0-.532-.031-.79-.102zM173.665 202.172c.258-.071.524-.106.79-.102.266 0 .528.031.786.102-.258.071-.52.107-.786.102-.266 0-.532-.031-.79-.102zM173.665 204.347c.258-.071.524-.107.79-.102.266 0 .528.031.786.102-.258.071-.52.106-.786.102-.266 0-.532-.031-.79-.102zM173.665 206.525c.258-.071.524-.106.79-.102.266-.004.528.031.786.102-.258.071-.52.102-.786.098-.266 0-.532-.031-.79-.098zM173.665 208.7c.258-.071.524-.107.79-.102.266 0 .528.031.786.102-.258.071-.52.106-.786.102-.266 0-.532-.031-.79-.102zM173.665 210.874c.258-.067.524-.102.79-.102s.528.031.786.102c-.258.071-.52.107-.786.102-.266 0-.532-.031-.79-.102zM173.665 213.053c.258-.071.524-.107.79-.102.266 0 .528.031.786.102-.258.071-.52.106-.786.102-.266 0-.532-.036-.79-.102zM173.665 215.245c.258-.071.524-.106.79-.102.266 0 .528.031.786.102-.258.071-.52.107-.786.102-.266 0-.532-.031-.79-.102zM173.665 217.402a2.97 2.97 0 01.79-.098c.266-.004.528.027.786.098-.258.071-.52.106-.786.102-.266 0-.532-.031-.79-.102z" fill="#EBEBEB"/><path d="M174.455 202.633a13.786 13.786 0 013.55-.031c1.18.129 2.33.435 3.417.915a9.033 9.033 0 011.54.887c.474.355.918.745 1.331 1.171.843.826 1.651 1.691 2.463 2.543.798.861 1.65 1.664 2.556 2.414a9.985 9.985 0 003.03 1.691 13.26 13.26 0 003.431.639 14.48 14.48 0 001.743 0c.284-.027.568-.089.852-.138.284-.049.564-.137.83-.248a13.815 13.815 0 003.106-1.611c.972-.648 1.904-1.371 2.818-2.112 1.824-1.487 3.586-3.062 5.445-4.518a33.673 33.673 0 015.933-3.86 15.476 15.476 0 016.833-1.646c-2.36.071-4.677.674-6.767 1.774a33.13 33.13 0 00-5.861 3.928c-1.833 1.477-3.595 3.044-5.419 4.544a38.563 38.563 0 01-2.831 2.143 14.321 14.321 0 01-3.155 1.655c-.279.111-.577.164-.865.253-.293.062-.59.106-.887.138-.591.035-1.185.035-1.775 0a13.49 13.49 0 01-3.502-.666 10.2 10.2 0 01-3.106-1.748 24.373 24.373 0 01-2.56-2.459c-.808-.865-1.602-1.735-2.432-2.569a10.103 10.103 0 00-1.305-1.167 8.647 8.647 0 00-1.499-.888 13.033 13.033 0 00-6.914-1.034z" fill="#37474F"/><path d="M176.03 202.603c0 .435-.35.79-.785.794a.792.792 0 01-.795-.785c0-.435.351-.79.786-.795.435 0 .785.351.79.786h.004z" fill="#fff"/><path d="M175.241 203.494a.89.89 0 01-.887-.887.89.89 0 01.887-.888c.488 0 .887.4.887.888a.89.89 0 01-.887.887zm0-1.575a.685.685 0 00-.688.688c0 .381.306.688.688.688a.686.686 0 00.688-.688.688.688 0 00-.688-.67V201.919z" fill="#37474F"/><path d="M198.759 213.053c0 .435-.355.79-.79.79a.792.792 0 01-.79-.79c0-.435.355-.79.79-.79.435 0 .786.351.786.786v.004h.004z" fill="#fff"/><path d="M197.969 213.94a.89.89 0 01-.887-.887.89.89 0 01.887-.888.89.89 0 01.888.888.89.89 0 01-.888.887zm0-1.575a.686.686 0 00-.688.688c0 .381.307.687.688.687a.685.685 0 00.688-.687.686.686 0 00-.679-.688h-.009z" fill="#37474F"/><path d="M223.866 198.738a.791.791 0 01-.79.789.791.791 0 01-.789-.789c0-.435.355-.79.789-.79.435 0 .79.355.79.79z" fill="#fff"/><path d="M223.076 199.625a.89.89 0 01-.888-.887c0-.489.4-.888.888-.888a.89.89 0 01.887.888.89.89 0 01-.887.887zm0-1.575a.685.685 0 00-.688.688c0 .381.306.687.688.687a.685.685 0 00.688-.687.686.686 0 00-.679-.688h-.009z" fill="#37474F"/><path d="M240.436 202.842a.112.112 0 01-.107-.115v-3.173c0-.062.053-.115.115-.115h.639a1.703 1.703 0 010 3.403h-.647zm.63-.239c.807 0 1.464-.657 1.464-1.464 0-.808-.657-1.465-1.464-1.465h-.515v2.929h.515zM245.339 201.959h-1.553l-.302.803a.119.119 0 01-.111.08h-.044a.125.125 0 01-.067-.155l1.181-3.159a.133.133 0 01.119-.071c.049 0 .098.026.116.071l1.18 3.159a.115.115 0 01-.062.155h-.035a.123.123 0 01-.111-.08l-.311-.803zm-1.464-.235h1.375l-.683-1.828-.692 1.828zM247.189 201.205l-1.145-1.558a.135.135 0 01.027-.168.116.116 0 01.164 0l1.065 1.464 1.069-1.464a.118.118 0 01.165 0 .114.114 0 01.031.159s0 .005-.005.009l-1.14 1.549v1.531a.117.117 0 01-.116.115.117.117 0 01-.115-.115v-1.522z" fill="#DBDBDB"/><path d="M242.051 208.589l-1.567 1.224h1.567a.12.12 0 01.119.12c0 .067-.053.12-.119.12h-1.913a.117.117 0 01-.097-.049.118.118 0 01.017-.164l1.842-1.438c.262-.191.426-.492.444-.816a.752.752 0 00-.129-.422.697.697 0 00-.586-.275c-.235 0-.457.084-.643.226l-.187.156a.13.13 0 01-.173-.018.126.126 0 01.022-.173l.191-.151c.227-.177.502-.275.79-.28a.924.924 0 01.954.892v.045a1.322 1.322 0 01-.537 1.003h.005zM243.986 206.769l-.342 1.944 2.418-2.059a.128.128 0 01.165 0 .118.118 0 01.004.164l-.004.004-1.549 1.332 1.096 1.69a.125.125 0 01-.036.169h-.062a.12.12 0 01-.102-.053l-1.078-1.669-.887.768-.2.861a.115.115 0 01-.12.097.12.12 0 01-.098-.137l.56-3.164a.114.114 0 01.128-.098h.009a.12.12 0 01.102.138v.013h-.004z" fill="#263238"/><path d="M239.858 216.833l-.146-.266 1.89-1.043 1.629.506 3.031-2.161 3.328 1.913 4.126-2.916.178.249-4.287 3.026-3.328-1.912-2.995 2.134-1.651-.506-1.775.976z" fill="#E9605A"/><path d="M253.961 213.439l.377-.83-.905.084.528.746z" fill="#E9605A"/><path d="M254.054 217.388h-14.266v.204h14.266v-.204zM243.116 218.377h-3.328v.205h3.328v-.205z" fill="#EBEBEB"/><path d="M235.071 199.417h-.355v21.246h.355v-21.246zM266.004 199.523l1.216 2.898.865-2.051a.122.122 0 01.111-.071c.053 0 .098.027.124.071l.861 2.051 1.216-2.898c.027-.062.098-.084.16-.058.057.027.084.093.057.151l-1.331 3.142a.138.138 0 01-.097.08h-.027s-.04-.009-.058-.023l-.022-.031-.865-2.054-.888 2.054v.027c-.004.013-.013.022-.026.031 0 0-.045.022-.067.022a.122.122 0 01-.075-.026s-.023-.036-.027-.058l-1.331-3.106a.123.123 0 01.053-.156.115.115 0 01.146 0l.005.005zM271.24 199.554c0-.062.053-.115.116-.115h1.752a.118.118 0 01.094.142.118.118 0 01-.094.093h-1.61v1.331h1.424c.067 0 .115.054.115.12a.117.117 0 01-.115.12h-1.424v1.331h1.628c.062 0 .116.053.116.116v.008a.118.118 0 01-.116.116h-1.775a.113.113 0 01-.106-.116v-3.146h-.005zM274.125 199.554c0-.066.053-.115.12-.115h1.748a.121.121 0 01.142.093.121.121 0 01-.093.142H274.369v1.331h1.424c.067 0 .116.054.116.12 0 .067-.049.115-.116.12h-1.424v1.331h1.628a.12.12 0 01.12.12v.004a.117.117 0 01-.115.116H274.222a.113.113 0 01-.106-.116l.013-3.146h-.004zM277.013 199.567a.122.122 0 01.094-.142.122.122 0 01.142.093v2.015l2.059-2.059a.127.127 0 01.164 0 .117.117 0 010 .169l-1.318 1.304 1.331 1.691a.125.125 0 01-.022.169c-.018.017-.049.031-.076.026-.035 0-.071-.013-.088-.044l-1.332-1.673-.701.75v.852a.118.118 0 01-.142.093.119.119 0 01-.093-.093l-.018-3.16v.009z" fill="#DBDBDB"/><path d="M267.73 208.589l-1.557 1.207h1.566c.067 0 .116.053.12.119a.12.12 0 01-.12.12h-1.921a.119.119 0 01-.098-.049c-.04-.048-.026-.124.022-.159l1.838-1.434a1.07 1.07 0 00.443-.821.718.718 0 00-.133-.421.696.696 0 00-.586-.275c-.23 0-.457.084-.639.226l-.19.155a.12.12 0 01-.169-.022.123.123 0 010-.168l.195-.151c.222-.178.502-.275.786-.28a.952.952 0 01.776.373.982.982 0 01.178.563c-.005.4-.195.777-.515 1.021l.004-.004zM271.16 206.849l-1.038.888c.204.04.391.151.524.31a.972.972 0 01.195.817 1.38 1.38 0 01-.484.821 1.383 1.383 0 01-.887.337.95.95 0 01-.755-.337.123.123 0 01.031-.173.116.116 0 01.169 0 .745.745 0 00.595.262 1.126 1.126 0 001.073-.888.77.77 0 00-.15-.639.749.749 0 00-.599-.271.102.102 0 01-.089-.048.13.13 0 01.031-.173l1.003-.888h-1.305a.105.105 0 01-.106-.098v-.026a.147.147 0 01.146-.12h1.589a.106.106 0 01.097.12c0 .018-.009.035-.017.053a.106.106 0 01-.032.053h.009zM272.616 206.769l-.342 1.944 2.419-2.059c.049-.04.12-.04.168 0a.121.121 0 010 .168l-1.544 1.332 1.092 1.695c.035.053.026.124-.027.16H274.311a.118.118 0 01-.102-.054l-1.078-1.668-.888.768-.151.856a.114.114 0 01-.115.098h-.035a.113.113 0 01-.094-.134l.559-3.163a.115.115 0 01.129-.098.12.12 0 01.076.151l.004.004z" fill="#263238"/><path d="M265.591 216.789l-.248-.173 1.899-2.725 1.695.604 3.026-1.229 3.328 1.819 4.061-1.411.102.284-4.189 1.46-3.324-1.82-2.995 1.221-1.589-.564-1.766 2.534z" fill="#E9605A"/><path d="M279.427 214.291l.595-.692-.897-.169.302.861z" fill="#E9605A"/><path d="M279.738 217.388h-14.271v.204h14.271v-.204zM268.795 218.377h-3.328v.205h3.328v-.205z" fill="#EBEBEB"/><path d="M260.755 199.417h-.355v21.246h.355v-21.246zM294.293 199.923l-1.092 1.513a.108.108 0 01-.093.053.12.12 0 01-.102-.053l-1.087-1.509v2.8a.12.12 0 01-.12.12.12.12 0 01-.12-.12v-3.155c0-.036.018-.071.049-.093a.12.12 0 01.164.031l1.211 1.677 1.207-1.677a.125.125 0 01.169-.031l.031.04V202.736c0 .066-.053.115-.12.115a.117.117 0 01-.115-.115l.018-2.813zM297.049 199.39a1.728 1.728 0 11-1.647 1.806v-.08a1.677 1.677 0 011.629-1.726h.018zm0 3.213a1.489 1.489 0 10-1.403-1.571v.084a1.448 1.448 0 001.407 1.487h-.004zM299.813 199.936v2.791a.118.118 0 01-.142.093.117.117 0 01-.093-.093v-3.106a.12.12 0 01.053-.155c.053-.027.129 0 .155.053l2.064 2.857v-2.768c0-.067.053-.12.119-.12a.12.12 0 01.12.12v3.137c0 .066-.053.115-.12.115a.111.111 0 01-.093-.044l-2.063-2.88zM304.148 199.674h-1.025a.122.122 0 01-.142-.093.121.121 0 01.093-.142h2.33a.118.118 0 01.093.142.119.119 0 01-.093.093h-1.025v3.053a.117.117 0 01-.142.093.119.119 0 01-.093-.093v-3.053h.004zM308.413 201.254h-1.775v1.473a.12.12 0 01-.12.12.12.12 0 01-.12-.12v-3.173c0-.066.053-.119.12-.119s.12.053.12.119v1.491h1.775v-1.468a.118.118 0 01.142-.094.118.118 0 01.093.094v3.172a.118.118 0 01-.142.094.118.118 0 01-.093-.094v-1.495z" fill="#DBDBDB"/><path d="M293.978 209.215a.12.12 0 01-.12.119h-.253l-.107.604a.113.113 0 01-.115.097.11.11 0 01-.102-.119v-.018l.098-.559h-1.846a.15.15 0 01-.085-.031.13.13 0 010-.173l2.419-2.463h.128V206.743l-.412 2.325h.208a.124.124 0 01.169.018.122.122 0 01.013.129h.005zm-.573-.116l.351-1.992-1.953 1.992h1.602zM297.235 206.761a.127.127 0 01-.124.124h-1.505l-.297.994c.177-.089.377-.138.577-.142a.974.974 0 01.772.346c.142.178.217.4.217.626a1.391 1.391 0 01-1.357 1.331.993.993 0 01-.768-.342.12.12 0 01.018-.173c.053-.04.133-.035.173.018a.71.71 0 00.577.262 1.175 1.175 0 001.113-1.096.714.714 0 00-.745-.728c-.262.005-.51.102-.706.275a.12.12 0 01-.173 0 .135.135 0 01-.022-.071.055.055 0 010-.053l.413-1.385a.112.112 0 01.062-.071.086.086 0 01.062-.022h1.589c.062 0 .115.049.124.111v-.004zM299.897 207.586v.084a3.309 3.309 0 01-.506 1.505 1.756 1.756 0 01-1.397.865.118.118 0 01-.12-.115c0-.067.049-.116.115-.12.502-.04.954-.324 1.207-.759a2.58 2.58 0 00.262-.519c-.24.226-.559.35-.888.355a.98.98 0 01-.692-.271.93.93 0 01-.27-.674 1.282 1.282 0 010-.196 1.373 1.373 0 011.304-1.105.965.965 0 01.688.271.917.917 0 01.297.679zm-.253.155v-.155a.685.685 0 00-.665-.71h-.058a1.118 1.118 0 00-1.065.887 1.015 1.015 0 000 .156.694.694 0 00.675.71h.053a1.14 1.14 0 001.078-.888h-.018zM301.743 206.769l-.337 1.944 2.414-2.059c.049-.04.12-.04.169 0a.123.123 0 010 .168l-1.544 1.332 1.091 1.695c.036.053.027.124-.026.16H303.439a.118.118 0 01-.102-.054l-1.079-1.668-.887.768-.187.86a.114.114 0 01-.115.098.115.115 0 01-.098-.129v-.009l.559-3.163a.115.115 0 01.129-.098.121.121 0 01.08.151l.004.004z" fill="#263238"/><path d="M291.266 216.811l-.213-.217 1.895-1.815 1.691.453 3.008-.573 3.311.706 4.091-1.66.115.284-4.18 1.691-3.341-.71-3.018.572-1.588-.426-1.771 1.695z" fill="#E9605A"/><path d="M305.156 214.318l.559-.719-.901-.124.342.843z" fill="#E9605A"/><path d="M305.431 217.388H291.16v.204h14.271v-.204zM294.488 218.377h-3.328v.205h3.328v-.205z" fill="#EBEBEB"/><path d="M286.447 199.417h-.355v21.246h.355v-21.246z" fill="#DBDBDB"/><path d="M310.148 183.508h-33.769v10.082h33.769v-10.082z" fill="#EBEBEB"/><path d="M308.355 184.782h-30.183v.869h30.183v-.869z" fill="#fff"/><path d="M293.601 184.782h-15.429v.869h15.429v-.869z" fill="#AACC19"/><path d="M308.355 186.446h-30.183v.87h30.183v-.87z" fill="#fff"/><path d="M305.857 186.446h-27.685v.87h27.685v-.87z" fill="#AACC19"/><path d="M308.355 188.114h-30.183v.87h30.183v-.87z" fill="#fff"/><path d="M287.1 188.114h-8.928v.87h8.928v-.87z" fill="#AACC19"/><path d="M308.355 189.778h-30.183v.87h30.183v-.87z" fill="#fff"/><path d="M301.89 189.778h-23.718v.87h23.718v-.87z" fill="#AACC19"/><path d="M308.355 191.447h-30.183v.87h30.183v-.87z" fill="#fff"/><path d="M295.611 191.447h-17.439v.87h17.439v-.87z" fill="#AACC19"/></svg>