<?xml version="1.0" encoding="utf-8"?><svg width="70" height="71" fill="none" xmlns="http://www.w3.org/2000/svg" viewBox="0 0 70 71"><path d="M26.374 55.614c.008-5.503.008-11.25 0-17.57-.004-2.67-1.743-4.4-4.432-4.406-2.012-.005-4.023-.004-6.037-.002H7.83c-1.153 0-2.313 0-3.46.005-2.6.01-4.35 1.75-4.357 4.334-.013 5.476-.013 11.248 0 17.645.005 2.611 1.773 4.369 4.398 4.373 5.846.012 11.76.012 17.578 0 2.62-.004 4.384-1.764 4.387-4.378l-.001-.001zm-3.11 1.269H3.142V36.726h20.122v20.157zM21.957.006a4994.321 4994.321 0 00-17.502 0C1.756.01.012 1.767.009 4.482c-.007 6.01-.007 11.871 0 17.421.003 2.704 1.755 4.453 4.462 4.458 2.012.003 4.025.003 6.037.002H15.865c2.01 0 4.02 0 6.03-.002 2.76-.005 4.476-1.704 4.479-4.435.007-6.005.007-11.89 0-17.496-.003-2.682-1.737-4.419-4.417-4.424zm1.314 23.233H3.109V3.126H23.27v20.113zM59.975 10.399H33.692v2.963h26.283V10.4zM60 33.696H33.693v2.934H60v-2.934zM49.626 20.785H33.693v2.948h15.933v-2.948zM49.613 54.411h-15.94v2.962h15.94V54.41zM44.422.045h-10.73v2.98h10.73V.045zM44.43 44.022H33.692v2.962H44.43v-2.962z" fill="#4B8125"/><g filter="url(#ahfilter0_f_1910_11096)" fill="#89B21D" fill-opacity=".35"><path d="M31.374 60.614c.008-5.503.008-11.25 0-17.57-.004-2.67-1.743-4.4-4.432-4.406-2.012-.005-4.023-.004-6.037-.002h-8.077c-1.152 0-2.312 0-3.46.005-2.6.01-4.35 1.75-4.356 4.334-.013 5.476-.013 11.248 0 17.645.005 2.611 1.773 4.369 4.398 4.373 5.846.012 11.76.012 17.578 0 2.62-.004 4.384-1.763 4.387-4.378l-.001-.001zm-3.11 1.269H8.142V41.726h20.122v20.157zM26.957 5.006a4992.742 4992.742 0 00-17.502 0c-2.699.004-4.443 1.761-4.446 4.476-.007 6.01-.007 11.871 0 17.421.003 2.704 1.755 4.453 4.462 4.458 2.012.003 4.025.003 6.037.002H20.865c2.01 0 4.02 0 6.03-.002 2.76-.005 4.476-1.704 4.479-4.435.007-6.005.007-11.89 0-17.496-.003-2.682-1.737-4.419-4.417-4.424zm1.314 23.233H8.109V8.126H28.27v20.113zM64.975 15.399H38.692v2.963h26.283V15.4zM65 38.696H38.693v2.934H65v-2.934zM54.626 25.785H38.693v2.948h15.933v-2.948zM54.613 59.411h-15.94v2.962h15.94V59.41zM49.422 5.045h-10.73v2.98h10.73v-2.98zM49.43 49.022H38.692v2.962H49.43v-2.962z"/></g><defs><filter id="ahfilter0_f_1910_11096" x=".002" y="0" width="69.998" height="70.002" filterUnits="userSpaceOnUse" color-interpolation-filters="sRGB"><feFlood flood-opacity="0" result="BackgroundImageFix"/><feBlend in="SourceGraphic" in2="BackgroundImageFix" result="shape"/><feGaussianBlur stdDeviation="2.5" result="effect1_foregroundBlur_1910_11096"/></filter></defs></svg>