<?xml version="1.0" encoding="utf-8"?><svg width="71" height="63" fill="none" xmlns="http://www.w3.org/2000/svg" viewBox="0 0 71 63"><g filter="url(#ajfilter0_f_1910_11120)" fill="#89B21D" fill-opacity=".35"><path d="M65.53 14.821c.004-1.373-.497-2.63-1.41-3.542-.915-.912-2.177-1.401-3.545-1.397-6.442.05-12.994.041-19.328.033-2.473-.003-4.946-.006-7.42-.006h-6.285c-5.733 0-11.464-.002-17.197.002-2.823.001-4.667 2.258-4.659 4.96.02 6.877.019 13.754.016 20.632l-.006 10.038c0 2.653-.64 6.341.591 8.77 1.995 3.932 8.933 2.446 12.465 2.446h41.826c3.04 0 4.93-1.884 4.93-4.914 0-3.37-.002-6.74-.004-10.111-.005-8.82-.01-17.94.025-26.91v-.001zM41.87 46.932c-1.789-1.76-3.983-2.617-6.517-2.543a9.012 9.012 0 00-6.719 3.29c-1.641 2.003-2.327 4.545-1.949 7.188h-9.954v-4.265l.833-.184a52.42 52.42 0 012.42-.5c.787-.137 1.213-.508 1.428-1.24.206-.697.532-1.38.848-2.04l.077-.16c.25-.528.227-.964-.077-1.416-.51-.758-1.006-1.532-1.488-2.282-.155-.242-.309-.483-.463-.72l3.967-3.961.692.444c.711.455 1.447.926 2.165 1.422.563.389 1.065.419 1.679.103.74-.381 1.464-.68 2.147-.89.667-.203 1.021-.604 1.15-1.299.154-.825.326-1.63.511-2.484l.189-.877h5.584c.06.271.12.543.182.816.177.781.36 1.591.492 2.394.135.823.53 1.27 1.317 1.5.698.202 1.383.533 2.043.853l.102.048c.518.252.956.225 1.417-.084.758-.507 1.53-1.005 2.277-1.486.242-.156.48-.31.72-.463l3.971 3.945-.47.73c-.476.742-.969 1.51-1.474 2.26-.316.467-.342.92-.087 1.465a31.94 31.94 0 011.006 2.437c.197.528.51.807 1.016.906.886.174 1.754.364 2.674.565l.923.2v4.249h-9.986c.41-3.128-.479-5.79-2.641-7.92h-.005zm-10.466.67a7.16 7.16 0 018.388-.006c2.287 1.645 3.465 4.741 2.792 7.271H28.622c-.683-2.516.493-5.61 2.782-7.266zM56.377 54.9v-2.105-2.658c-.003-.827-.209-1.084-1.006-1.254l-.606-.129c-.934-.199-1.899-.404-2.851-.591-.276-.053-.386-.15-.452-.39-.113-.41-.25-.837-.485-1.19-.333-.496-.292-.887.152-1.493a29.07 29.07 0 001.075-1.613c.201-.316.408-.643.618-.959.357-.532.303-1.015-.161-1.475a634.975 634.975 0 01-4.71-4.71c-.46-.466-.959-.507-1.525-.127a78.196 78.196 0 01-3.009 1.938c-.127.077-.392.093-.579.033-.27-.086-.527-.199-.802-.318-.258-.113-.527-.231-.805-.322-.25-.083-.348-.195-.4-.458-.155-.787-.325-1.584-.49-2.354-.073-.349-.148-.699-.22-1.047-.184-.874-.42-1.062-1.324-1.064-2.143-.002-4.289-.003-6.432 0-.856 0-1.094.198-1.273 1.052l-.212 1c-.168.785-.342 1.598-.496 2.402-.053.28-.161.395-.44.477a6.01 6.01 0 00-1.33.55c-.394.23-.66.212-1.051-.068-.578-.415-1.185-.8-1.774-1.176-.342-.218-.697-.444-1.039-.672-.54-.359-1.023-.31-1.475.146a510.668 510.668 0 01-4.71 4.708c-.48.473-.527.956-.148 1.521.307.46.613.935.908 1.395.342.53.695 1.08 1.055 1.612.155.227.163.369.038.6-.184.337-.391.718-.476 1.125-.129.618-.46.897-1.183 1-.7.098-1.399.255-2.075.409-.276.063-.554.125-.832.184-.808.17-1.017.426-1.02 1.242-.003 1.157-.001 2.314 0 3.483v1.268c-.09.012-.17.022-.243.022h-.642c-1.194.004-2.43.008-3.644 0-1.588-.011-2.741-1.16-2.743-2.73-.006-8.227-.005-16.592-.003-24.68v-4.871c0-.041.003-.085.006-.127h56.09V51.917c0 1.89-1.082 2.978-2.965 2.98H56.375l.002.003zM7.554 14.518c.01-1.62 1.155-2.75 2.782-2.75 16.842-.004 33.684-.004 50.528 0 1.629 0 2.774 1.129 2.785 2.747.01 1.469.008 2.963.005 4.408l-.002 1.678H7.58v-.01a2.312 2.312 0 01-.025-.279l-.003-1.23c-.003-1.496-.006-3.042.003-4.562l-.001-.002z"/><path d="M60.278 14.7c-.006-.824-.348-1.163-1.18-1.166-.918-.005-1.838-.003-2.756-.003H40.56c-.95 0-1.257.304-1.26 1.25a433.3 433.3 0 000 2.84c.002.962.284 1.24 1.257 1.241H54.73c1.455 0 2.908 0 4.363-.002.848 0 1.179-.323 1.185-1.147.008-.99.008-2.005 0-3.016v.003zm-1.899.72v1.559H41.186V15.42h17.193zM29.295 14.404a2.556 2.556 0 00-1.826-.774h-.002c-.683 0-1.325.267-1.81.752a2.583 2.583 0 00-.76 1.839 2.56 2.56 0 002.537 2.553h.017c1.419 0 2.582-1.14 2.596-2.549a2.543 2.543 0 00-.752-1.821zm-1.842 2.669a.866.866 0 01-.854-.88.876.876 0 01.871-.86h.013a.879.879 0 01.612.276.869.869 0 01.25.613.877.877 0 01-.894.851h.002zM14.441 14.39a2.551 2.551 0 00-1.812-.762h-.013c-1.417.007-2.566 1.174-2.56 2.602a2.56 2.56 0 002.548 2.543h.008c1.426 0 2.587-1.148 2.592-2.56a2.549 2.549 0 00-.764-1.824h.001zm-.937 1.83a.876.876 0 01-.88.852h-.013a.862.862 0 01-.852-.88.876.876 0 01.87-.86h.012a.877.877 0 01.61.274c.164.17.257.394.252.613l.002.002zM21.84 14.367a2.537 2.537 0 00-1.783-.737h-.041c-1.438.023-2.553 1.174-2.54 2.622a2.56 2.56 0 002.562 2.522h.006a2.58 2.58 0 001.843-.77c.481-.489.745-1.13.74-1.81a2.568 2.568 0 00-.788-1.826zm-.916 1.829a.879.879 0 01-1.488.63.851.851 0 01-.257-.604.88.88 0 01.859-.888h.015a.87.87 0 01.598.251.878.878 0 01.275.612l-.002-.001z"/></g><path d="M62 11.292c.005-1.373-.496-2.63-1.41-3.542-.914-.912-2.176-1.402-3.544-1.397-6.443.05-12.994.04-19.328.033-2.473-.003-4.947-.006-7.42-.006h-6.285c-5.733 0-11.464-.002-17.197.001-2.823.002-4.667 2.259-4.66 4.96.021 6.878.02 13.755.017 20.633L2.166 42.01c0 2.654-.64 6.342.592 8.771 1.995 3.931 8.933 2.445 12.465 2.445H57.05c3.04 0 4.929-1.883 4.929-4.913 0-3.371-.002-6.74-.003-10.111-.005-8.82-.01-17.941.025-26.91v-.001zM38.34 43.403c-1.788-1.76-3.982-2.617-6.517-2.544a9.011 9.011 0 00-6.718 3.291c-1.641 2.003-2.327 4.545-1.949 7.188h-9.954v-4.266c.278-.06.555-.122.833-.183a52.42 52.42 0 012.42-.5c.786-.137 1.213-.508 1.428-1.24.206-.697.532-1.38.848-2.04l.076-.16c.252-.528.228-.964-.076-1.416-.51-.758-1.006-1.532-1.488-2.282l-.463-.72 3.967-3.962c.228.146.458.296.692.445.711.455 1.447.925 2.164 1.421.564.39 1.066.42 1.68.104.74-.381 1.464-.681 2.146-.89.667-.204 1.022-.604 1.15-1.3.154-.825.327-1.63.512-2.483l.189-.878h5.583l.182.816c.178.782.361 1.592.493 2.395.135.823.529 1.27 1.317 1.499.698.202 1.382.533 2.043.854L39 36.6c.518.251.956.225 1.417-.084.758-.507 1.53-1.005 2.277-1.487l.719-.463 3.972 3.946-.47.73c-.476.742-.97 1.51-1.474 2.26-.316.467-.343.919-.087 1.465.323.689.644 1.464 1.006 2.437.196.527.51.807 1.015.906.887.174 1.755.364 2.675.565l.922.2v4.249h-9.985c.41-3.128-.479-5.791-2.642-7.92h-.004zm-10.465.669a7.16 7.16 0 018.388-.005c2.287 1.645 3.465 4.741 2.792 7.27H25.093c-.683-2.515.492-5.61 2.782-7.265zm24.973 7.299v-2.105-2.658c-.004-.827-.209-1.085-1.006-1.254l-.606-.129c-.934-.2-1.899-.405-2.851-.591-.277-.054-.386-.15-.452-.391-.113-.41-.25-.837-.485-1.19-.333-.496-.292-.886.152-1.492a29.07 29.07 0 001.075-1.613c.2-.316.408-.644.618-.96.356-.531.303-1.015-.161-1.474a634.975 634.975 0 01-4.71-4.71c-.46-.466-.959-.507-1.525-.127a78.196 78.196 0 01-3.009 1.938c-.127.077-.392.093-.579.033-.27-.086-.527-.2-.802-.319-.259-.113-.527-.23-.805-.321-.251-.084-.348-.195-.4-.459-.155-.786-.325-1.583-.49-2.354-.073-.348-.149-.698-.221-1.046-.184-.874-.419-1.063-1.323-1.064-2.144-.002-4.289-.003-6.433 0-.855 0-1.093.197-1.272 1.051l-.212 1c-.168.786-.342 1.599-.496 2.402-.053.28-.162.396-.44.478-.51.149-.958.334-1.33.55-.394.23-.66.212-1.052-.069-.577-.414-1.184-.8-1.773-1.175-.342-.218-.697-.444-1.039-.672-.54-.36-1.023-.31-1.475.146a510.668 510.668 0 01-4.711 4.708c-.479.473-.526.956-.148 1.52.308.46.614.936.909 1.396.342.53.695 1.08 1.055 1.612.155.227.163.369.037.6-.183.337-.39.718-.475 1.124-.129.619-.46.898-1.184 1-.7.099-1.398.256-2.074.41-.276.062-.554.125-.832.183-.808.171-1.017.427-1.02 1.243-.003 1.157-.002 2.313 0 3.483v1.267c-.09.013-.17.022-.243.022h-.642c-1.194.005-2.43.008-3.644 0-1.588-.01-2.742-1.16-2.743-2.73-.007-8.227-.005-16.591-.003-24.68v-4.87c0-.041.003-.085.006-.128h56.09v29.431c0 1.892-1.082 2.979-2.965 2.98H52.846l.002.004zM4.024 10.989c.011-1.62 1.155-2.751 2.783-2.751 16.842-.003 33.684-.003 50.527 0 1.63 0 2.775 1.13 2.786 2.748.01 1.469.008 2.963.005 4.408l-.002 1.678H4.051v-.01a2.314 2.314 0 01-.025-.28l-.003-1.23c-.003-1.495-.006-3.04.003-4.562l-.002-.001z" fill="#4B8125"/><path d="M56.749 11.17c-.007-.823-.349-1.162-1.18-1.165-.919-.005-1.838-.003-2.756-.003H37.03c-.95 0-1.257.304-1.26 1.25a433.3 433.3 0 000 2.84c.002.961.284 1.24 1.257 1.24H55.564c.847 0 1.178-.324 1.185-1.148.008-.99.008-2.006 0-3.016v.003zm-1.9.721v1.559H37.657V11.89H54.85zM25.766 10.874a2.556 2.556 0 00-1.827-.773h-.001c-.683 0-1.325.266-1.81.751a2.583 2.583 0 00-.76 1.84 2.56 2.56 0 002.537 2.553h.017c1.419 0 2.582-1.14 2.596-2.549a2.543 2.543 0 00-.752-1.822zm-1.842 2.67a.866.866 0 01-.854-.88.876.876 0 01.87-.86h.013a.879.879 0 01.613.275.869.869 0 01.25.614.877.877 0 01-.894.85h.002zM10.912 10.86A2.551 2.551 0 009.1 10.1h-.012c-1.417.005-2.566 1.173-2.56 2.601a2.56 2.56 0 002.547 2.542h.008c1.427 0 2.588-1.147 2.593-2.56a2.549 2.549 0 00-.764-1.823h.001zm-.937 1.832a.876.876 0 01-.88.85h-.013a.862.862 0 01-.852-.88.876.876 0 01.87-.86h.012a.877.877 0 01.61.274c.164.17.256.394.252.614l.001.002zM18.31 10.838a2.537 2.537 0 00-1.783-.737h-.04c-1.438.023-2.554 1.173-2.54 2.622a2.56 2.56 0 002.562 2.522h.006a2.58 2.58 0 001.842-.77c.482-.489.746-1.13.74-1.81a2.568 2.568 0 00-.787-1.827zm-.915 1.828a.879.879 0 01-1.488.63.851.851 0 01-.257-.603.88.88 0 01.859-.888h.015a.87.87 0 01.598.251.878.878 0 01.275.612l-.002-.002z" fill="#4B8125"/><defs><filter id="ajfilter0_f_1910_11120" x=".529" y="4.882" width="70" height="57.15" filterUnits="userSpaceOnUse" color-interpolation-filters="sRGB"><feFlood flood-opacity="0" result="BackgroundImageFix"/><feBlend in="SourceGraphic" in2="BackgroundImageFix" result="shape"/><feGaussianBlur stdDeviation="2.5" result="effect1_foregroundBlur_1910_11120"/></filter></defs></svg>