<?xml version="1.0" encoding="utf-8"?><svg width="32" height="32" fill="none" xmlns="http://www.w3.org/2000/svg" viewBox="0 0 32 32"><g clip-path="url(#anclip0_730_5365)"><path d="M31.97 7.8c.01-1.41.01-2.82 0-4.22-.01-1.16-.75-1.89-1.92-1.89h-4.24l-.04-.48C25.71.22 25.49 0 24.54 0h-5.39c-2.52 0-4.7 1.62-5.44 4.03l-.23.8H8.95c-.42 0-.86.02-1.26.1-3.3.64-5.36 3.53-4.89 6.88.37 2.63 2.71 4.83 5.32 5.01.95.07 1.92.06 2.86.06h4.35c2.1 0 4.2 0 6.3.02 2.12.02 3.89 1.67 4.12 3.82.23 2.2-1.23 4.22-3.33 4.6-.81.15-1.63.16-2.43.17-.35 0-.7 0-1.04.03l-.41.02-.24-.83c-.66-2.24-2.71-3.93-4.87-4.02-1.63-.07-3.29-.05-4.91-.04H7.01c-.36.01-.67.29-.74.68-.02.1-.03.21-.04.33l-.08.69H1.94c-1.16 0-1.89.71-1.91 1.86-.02 1.42-.01 2.84 0 4.26.01 1.15.74 1.87 1.9 1.87h4.18l.08.41c.03.12.03.17.04.21.05.8.32 1.06 1.13 1.06h5.53c1.51-.01 2.83-.56 3.93-1.63.78-.75 1.29-1.67 1.58-2.81l.1-.39h3.1c2.13-.03 4.04-1.17 5.1-3.05 1.06-1.86 1.06-4.06.02-5.89-1.18-2.06-3.04-3.1-5.54-3.1h-2.14c-3.47 0-6.94.01-10.4 0-2.3-.01-4.14-1.86-4.19-4.21-.05-2.26 1.72-4.2 3.95-4.32.99-.05 1.99-.05 2.96-.04h1.54c.39.02.65.2.77.61.79 2.65 2.9 4.21 5.64 4.21h1.61c1.15 0 2.29-.01 3.44.02.96.03 1.39-.14 1.45-1.22l.03-.49h4.22c1.19 0 1.91-.7 1.92-1.87l-.01-.04zM6.22 28.55H1.78v-4.5h4.44v4.5zM15 29.64c-.64.42-1.38.63-2.2.63H8.7c-.06 0-.13 0-.21-.02l-.43-.07-.08-.45v-7.29l.45-.06c.14-.02.22-.04.31-.04h4.16c1.76.02 3.27 1.17 3.75 2.87.49 1.69-.18 3.46-1.66 4.42l.01.01zm9.01-20.27l-.37.23-.22.04h-2.51c-.79 0-1.59-.02-2.39-.09-1.96-.18-3.42-2-3.32-4.14.09-1.94 1.72-3.59 3.65-3.67 1.06-.05 2.14-.04 3.17-.04H23.42l.54.15.06.4v7.09l-.01.03zm6.21-1.43H25.8v-4.5h4.42v4.5z" fill="#4B8125"/></g><defs><clipPath id="anclip0_730_5365"><path fill="#fff" d="M0 0h32v32H0z"/></clipPath></defs></svg>