<?xml version="1.0" encoding="utf-8"?><svg width="32" height="32" fill="none" xmlns="http://www.w3.org/2000/svg" viewBox="0 0 32 32"><g clip-path="url(#anclip0_730_5307)" fill="#4B8125"><path d="M31.54 8.95l-.02-.03c-.49-.69-1.28-1.1-2.13-1.1H5.89L5.21 5.5c-.24-.82-.87-1.48-1.68-1.75l-2.48-.82a.81.81 0 00-.98 1.13c.1.19.26.34.47.4l2.47.82c.31.1.55.35.64.67L7.97 20.8a2.616 2.616 0 002.51 1.88h15.53c1.11 0 2.1-.7 2.46-1.75l3.37-9.65c.27-.78.15-1.65-.32-2.34l.02.01zm-22 11.41L6.36 9.45h23.03c.32 0 .62.15.81.42.19.26.23.59.13.9l-3.37 9.65c-.14.4-.52.67-.94.67H10.49c-.44 0-.83-.29-.95-.71v-.02zM13.03 25.03c.73 0 1.33.59 1.33 1.33 0 .74-.59 1.33-1.33 1.33-.74 0-1.33-.59-1.33-1.33 0-.74.59-1.33 1.33-1.33zm0-1.41c-1.51 0-2.74 1.23-2.74 2.74 0 1.51 1.23 2.74 2.74 2.74 1.51 0 2.74-1.23 2.74-2.74 0-1.51-1.23-2.74-2.74-2.74zM23.9 25.03c.73 0 1.33.59 1.33 1.33 0 .74-.59 1.33-1.33 1.33-.74 0-1.33-.59-1.33-1.33 0-.74.59-1.33 1.33-1.33zm0-1.41c-1.51 0-2.74 1.23-2.74 2.74 0 1.51 1.23 2.74 2.74 2.74 1.51 0 2.74-1.23 2.74-2.74 0-1.51-1.23-2.74-2.74-2.74z"/></g><defs><clipPath id="anclip0_730_5307"><path fill="#fff" d="M0 0h32v32H0z"/></clipPath></defs></svg>