<?xml version="1.0" encoding="utf-8"?><svg width="32" height="32" fill="none" xmlns="http://www.w3.org/2000/svg" viewBox="0 0 32 32"><g clip-path="url(#apclip0_730_5320)" fill="#4B8125"><path d="M26.47 14.23l-.22-.03-.02-.22C25.74 8.33 21.34 4.07 16 4.07c-2.61 0-5.14 1.04-7.12 2.9-1.57 1.47-2.62 3.34-2.89 5.13l-.03.19-.19.04c-3.4.82-5.77 3.99-5.77 7.7 0 4.35 3.33 7.89 7.41 7.89h18.13c3.56 0 6.46-3.09 6.46-6.88 0-3.4-2.38-6.33-5.53-6.81zm-.93 1.58c2.75 0 4.99 2.35 4.99 5.23 0 2.88-2.24 5.23-4.99 5.23H7.41c-3.28 0-5.94-2.8-5.94-6.24 0-3.18 2.26-5.84 5.26-6.2l.66-.08v-.74c0-1.53.93-3.36 2.44-4.77 1.71-1.61 3.91-2.51 6.18-2.52 2.37 0 4.58.97 6.25 2.73 1.65 1.75 2.56 4.07 2.56 6.53v.83h.74-.02z"/><path d="M19.81 17.5a.738.738 0 00-1.1 0l-1.93 2.09v-6.78c0-.23-.08-.44-.23-.6a.767.767 0 00-1.1 0c-.15.16-.23.37-.23.6v6.78l-1.93-2.09a.758.758 0 00-1.1 0c-.15.16-.23.37-.23.6 0 .23.08.44.23.6l3.26 3.53a.775.775 0 00.55.25.725.725 0 00.55-.24l3.26-3.53c.07-.08.13-.17.17-.27.04-.1.06-.21.06-.33a.92.92 0 00-.06-.33c-.04-.1-.1-.2-.17-.27v-.01z"/></g><defs><clipPath id="apclip0_730_5320"><path fill="#fff" d="M0 0h32v32H0z"/></clipPath></defs></svg>