<?xml version="1.0" encoding="utf-8"?><svg width="32" height="32" fill="none" xmlns="http://www.w3.org/2000/svg" viewBox="0 0 32 32"><g clip-path="url(#atclip0_730_5303)"><path fill-rule="evenodd" clip-rule="evenodd" d="M1.52 31.74l6.45-6.45h19.78c1.14 0 2.2-.44 3.01-1.24.8-.8 1.24-1.87 1.24-3V4.25c0-1.14-.44-2.2-1.24-3-.8-.8-1.87-1.24-3.01-1.24H4.25C3.11 0 2.05.44 1.24 1.24c-.8.8-1.24 1.87-1.24 3v26.87a.894.894 0 001.52.63zm.26-27.49c0-.66.26-1.28.72-1.74.47-.47 1.09-.72 1.74-.72h23.51c.66 0 1.28.26 1.74.72.47.47.72 1.09.72 1.74v16.79c0 .65-.26 1.28-.72 1.74-.47.47-1.08.72-1.74.72H7.61c-.23 0-.46.1-.63.26l-5.2 5.19V4.25z" fill="#4B8125"/></g><defs><clipPath id="atclip0_730_5303"><path fill="#fff" d="M0 0h32v32H0z"/></clipPath></defs></svg>