<?xml version="1.0" encoding="utf-8"?><svg width="32" height="32" fill="none" xmlns="http://www.w3.org/2000/svg" viewBox="0 0 32 32"><g clip-path="url(#avclip0_730_5325)" fill="#4B8125" stroke="#4B8125" stroke-width=".25" stroke-miterlimit="10"><path d="M29.54 32H2.46c-1.11 0-2.01-.9-2.01-2.01V14.51c0-1.11.9-2.01 2.01-2.01h27.08c1.11 0 2.01.9 2.01 2.01v15.48c0 1.11-.9 2.01-2.01 2.01zM2.46 13.94c-.31 0-.57.26-.57.57v15.48c0 .31.26.57.57.57h27.08c.31 0 .57-.26.57-.57V14.51c0-.31-.26-.57-.57-.57H2.46z"/><path d="M29.54 32H2.46c-1.11 0-2.01-.95-2.01-2.11V4.7c0-1.06.82-1.92 1.83-1.92h.75v-.86C3.03.86 3.85 0 4.86 0h5.45c.54 0 1.06.23 1.44.64l1.82 1.96c.11.11.24.18.38.18h15.59c1.11 0 2.01.95 2.01 2.11v25c0 1.16-.9 2.11-2.01 2.11zM2.28 4.22c-.21 0-.39.22-.39.48v25.19c0 .37.26.67.57.67h27.08c.31 0 .57-.3.57-.67v-25c0-.37-.26-.67-.57-.67H13.96c-.54 0-1.06-.23-1.44-.64l-1.83-1.97a.549.549 0 00-.39-.18H4.86c-.22 0-.39.21-.39.48v2.3H2.28v.01z"/><path d="M26.46 13.94H5.54c-.86 0-1.55-.73-1.55-1.62V8.56c0-.89.7-1.62 1.55-1.62h20.92c.86 0 1.56.73 1.56 1.62v3.76c0 .89-.7 1.62-1.56 1.62zM5.54 8.39s-.12.07-.12.18v3.76c0 .11.07.18.12.18h20.92s.12-.07.12-.18V8.57c0-.11-.07-.18-.12-.18H5.54z"/></g><defs><clipPath id="avclip0_730_5325"><path fill="#fff" d="M0 0h32v32H0z"/></clipPath></defs></svg>