<?xml version="1.0" encoding="utf-8"?><svg width="32" height="32" fill="none" xmlns="http://www.w3.org/2000/svg" viewBox="0 0 32 32"><g clip-path="url(#auclip0_730_5299)"><path d="M16 0c-3.17 0-6.25.93-8.89 2.7a15.906 15.906 0 00-5.89 7.18 15.89 15.89 0 00-.91 9.24c.62 3.11 2.13 5.95 4.38 8.19 2.25 2.25 5.08 3.76 8.19 4.38 3.12.62 6.31.31 9.24-.91 2.93-1.21 5.42-3.25 7.18-5.89C31.06 22.25 32 19.18 32 16c0-4.27-1.67-8.29-4.69-11.31A15.902 15.902 0 0016 0zm8.77 27.3A14.37 14.37 0 0116 30.31c-3.16 0-6.28-1.07-8.77-3.01l-.3-.24.21-.32c.95-1.48 2.27-2.72 3.81-3.56 3.1-1.69 7.02-1.69 10.11 0 1.54.85 2.86 2.08 3.81 3.56l.21.32-.3.24h-.01zM16 20.21c-1.46 0-2.84-.57-3.87-1.6a5.447 5.447 0 01-1.6-3.87 5.47 5.47 0 019.34-3.87c.77.77 1.29 1.74 1.5 2.8.21 1.07.1 2.16-.31 3.16a5.51 5.51 0 01-2.02 2.46c-.9.6-1.95.92-3.04.92zm14.15-2.05c-.42 2.73-1.61 5.27-3.45 7.34l-.36.4-.3-.44c-1.36-1.98-3.27-3.5-5.5-4.39l-.68-.27.57-.45a7.086 7.086 0 002.44-3.61c.42-1.44.38-2.94-.11-4.36a7.142 7.142 0 00-2.61-3.49c-2.44-1.74-5.86-1.74-8.3 0a7.098 7.098 0 00-2.61 3.49 7.135 7.135 0 00-.11 4.36 7.086 7.086 0 002.44 3.61l.57.45-.68.27c-2.23.89-4.14 2.41-5.5 4.39l-.3.44-.36-.4a14.296 14.296 0 01-3.45-7.34c-.42-2.73-.04-5.51 1.09-8.04C4.07 7.6 5.9 5.47 8.22 3.97c2.32-1.5 5.01-2.3 7.78-2.3 2.77 0 5.46.79 7.78 2.3a14.31 14.31 0 016.37 14.19z" fill="#4B8125"/></g><defs><clipPath id="auclip0_730_5299"><path fill="#fff" d="M0 0h32v32H0z"/></clipPath></defs></svg>