<?xml version="1.0" encoding="utf-8"?><svg width="26" height="32" fill="none" xmlns="http://www.w3.org/2000/svg" viewBox="0 0 26 32"><path d="M17.173 1.842l-.067.015V1.8H3.843c-.216-.04-.456.02-.687.135a2.65 2.65 0 00-.674.503 2.873 2.873 0 00-.507.68c-.12.234-.191.474-.171.686v24.417c0 .19.075.41.191.629.117.22.28.443.465.645.185.201.393.382.601.512.208.13.422.215.618.215h18.556c.236 0 .48-.1.709-.25.23-.15.45-.355.64-.575.19-.221.35-.46.458-.68.105-.212.168-.42.147-.578V8.963H20.881a1.47 1.47 0 00-.56-.154c-.602-.04-1.389-.45-2.028-1.022a4.203 4.203 0 01-.797-.937c-.2-.33-.315-.663-.315-.973V1.95h.044l-.051-.107v-.001zm6.943 5.423V7.19h.073v-.263l-.024-.023-5.13-4.758-.126-.117v3.468c.006.214.097.434.237.641.14.208.333.407.55.578.43.339.972.58 1.408.55h2.935v.001l.076-.002h.001zM3.523.1h0L19.38.075l6.545 6.48-.006 21.822c0 .33-.117.718-.322 1.116a5.27 5.27 0 01-.832 1.163c-.68.727-1.543 1.267-2.294 1.267H3.445v0H3.44c-.29.018-.647-.104-1.023-.327a5.473 5.473 0 01-1.11-.902 5.897 5.897 0 01-.88-1.16c-.222-.395-.352-.772-.352-1.08V3.57C.114 2.865.59 1.996 1.258 1.3 1.928.603 2.77.1 3.523.1zm2.502 22.998c0-.47.385-.85.865-.85h12.213c.48 0 .865.38.865.85s-.385.85-.865.85H6.89a.856.856 0 01-.865-.85zm0-7.088c0-.47.385-.85.865-.85h12.213c.48 0 .865.38.865.85s-.385.85-.865.85H6.89a.856.856 0 01-.865-.85zm0-7.088c0-.47.385-.85.865-.85h6.263c.48 0 .865.38.865.85s-.385.85-.865.85H6.89a.856.856 0 01-.865-.85z" fill="#4B8125" stroke="#fff" stroke-width=".15"/></svg>