<?xml version="1.0" encoding="utf-8"?><svg width="32" height="32" fill="none" xmlns="http://www.w3.org/2000/svg" viewBox="0 0 32 32"><g clip-path="url(#ayclip0_730_5335)" fill="#4B8125"><path d="M16.21 1.91c-2.61-2.55-6.86-2.55-9.47 0a6.381 6.381 0 00-.57 8.56l-3.53 3.44c-.16.16-.25.37-.25.59 0 .22.09.44.26.6.17.17.4.26.63.26.23 0 .46-.09.64-.26l3.51-3.42c2.66 1.98 6.42 1.73 8.8-.58a6.377 6.377 0 001.95-4.6c0-1.74-.69-3.37-1.95-4.6l-.02.01zm.17 4.6c0 1.29-.51 2.5-1.44 3.41-1.91 1.86-5.02 1.86-6.93 0a4.735 4.735 0 01-1.44-3.41c0-1.29.51-2.5 1.44-3.41 1.91-1.86 5.02-1.86 6.93 0 .93.91 1.44 2.12 1.44 3.41zM1.58 21.3h5.94c.41 0 .74.38.74.86v8.85c0 .47-.33.86-.74.86H1.58c-.41 0-.74-.38-.74-.86v-8.85c0-.47.33-.86.74-.86zM13.03 16.02h5.94c.41 0 .74.38.74.86v14.14c0 .47-.33.86-.74.86h-5.94c-.41 0-.74-.38-.74-.86V16.88c0-.47.33-.86.74-.86zM24.48 8.09h5.94c.41 0 .74.38.74.86v22.06c0 .47-.33.86-.74.86h-5.94c-.41 0-.74-.38-.74-.86V8.95c0-.47.33-.86.74-.86z"/></g><defs><clipPath id="ayclip0_730_5335"><path fill="#fff" d="M0 0h32v32H0z"/></clipPath></defs></svg>