<?xml version="1.0" encoding="utf-8"?><svg width="32" height="32" fill="none" xmlns="http://www.w3.org/2000/svg" viewBox="0 0 32 32"><g clip-path="url(#bcclip0_730_5294)" fill="#4B8125"><path d="M25.32 25.32c.56-.94.77-1.73.71-2.55-.08-.97-.34-1.96-.79-3.02-.24-.56-.09-.9.24-1.3 4.05-4.77 6.24-10.18 6.51-16.07.03-.68-.19-1.3-.62-1.74-.42-.42-1-.65-1.66-.65h-.1c-2.86.1-5.75.74-8.58 1.9-2.81 1.15-5.43 2.79-7.8 4.88-.2.17-.38.21-.63.11-.55-.21-1.15-.42-1.74-.6-1.09-.32-2.36-.56-3.58.09l-.08.04c-.34.18-.7.37-1.02.59-2.15 1.44-3.97 3.24-5.79 5.12-.32.33-.45.78-.35 1.23.11.5.46.9.94 1.09.29.11.6.21.9.3.14.04.27.08.41.13l3.64 1.17-.38.73c-.21.41-.42.81-.62 1.21-.56 1.1-.41 1.98.46 2.86l5.73 5.74c.94.94 1.77 1.08 2.97.48.44-.22.87-.44 1.31-.67l.56-.29.08.22c.02.05.03.09.05.13l.43 1.35c.33 1.02.65 2.03.98 3.04.19.58.59.99 1.1 1.11.5.12 1.04-.06 1.46-.48.61-.62 1.34-1.35 2.05-2.11 1.08-1.15 2.3-2.5 3.21-4.05v.01zM3.16 13.36l-1.29-.41.15-.15c.26-.25.52-.5.78-.74.57-.55 1.11-1.07 1.69-1.57.92-.78 1.9-1.53 2.86-2.24l.04-.03c.76-.57 1.65-.71 2.64-.41.31.09.62.19.95.28l.59.17-.18.23c-.04.05-.07.09-.11.13-1.57 1.66-3 3.52-4.25 5.54-.12.19-.25.28-.42.28a.75.75 0 01-.24-.04c-1.06-.35-2.12-.69-3.23-1.05l.02.01zM14.94 24.7c-.29.16-.57.3-.87.45-.28.14-.56.29-.84.44-.13.07-.25.11-.37.11-.17 0-.32-.08-.47-.23-1.95-1.96-3.91-3.92-5.87-5.88-.24-.24-.28-.48-.14-.78 2.29-4.68 5.05-8.34 8.45-11.19 3.57-3 7.63-4.9 12.07-5.65.67-.11 1.36-.17 2.03-.22.21-.02.42-.03.63-.05.29-.03.46.01.58.13.15.15.16.39.15.61 0 .09-.01.18-.02.27v.13c-.37 5.09-2.25 9.77-5.57 13.91-2.52 3.14-5.72 5.74-9.77 7.95h.01zm5.1 4.37c-.22.23-.44.45-.66.68-.04.04-.08.07-.13.12l-.23.2-.41-1.27c-.36-1.12-.7-2.21-1.06-3.29-.1-.3.08-.42.21-.5 1.93-1.21 3.6-2.47 5.14-3.86l.78-.72.14.39c.27.74.55 1.5.49 2.31-.04.48-.22.99-.49 1.37-.72 1.02-1.49 2.02-2.29 2.97-.47.56-.99 1.09-1.49 1.61v-.01zM1.36 29.71c-.01.28.07.52.24.69.18.18.44.27.74.25.45-.02.91-.06 1.37-.12 2.04-.25 3.79-.8 5.36-1.68.25-.14.42-.34.48-.57.06-.21.03-.43-.08-.63-.23-.41-.72-.53-1.21-.28l-.16.08c-.35.18-.72.36-1.09.51-1.13.46-2.35.76-3.72.91l-.16.02.02-.16c.02-.11.03-.22.05-.33.03-.24.06-.47.11-.7.29-1.52.73-2.82 1.37-3.97.16-.28.17-.59.03-.85a.812.812 0 00-.66-.43h-.1c-.33 0-.59.17-.78.53-1.08 1.98-1.66 4.18-1.77 6.74l-.04-.01z"/></g><defs><clipPath id="bcclip0_730_5294"><path fill="#fff" d="M0 0h32v32H0z"/></clipPath></defs></svg>