<?xml version="1.0" encoding="utf-8"?><svg width="24" height="13" fill="none" xmlns="http://www.w3.org/2000/svg" viewBox="0 0 24 13"><path d="M24 6.51c0 1.16-.257 2.236-.77 3.225-.5.99-1.205 1.781-2.114 2.375-.909.593-1.962.89-3.16.89a6.015 6.015 0 01-3.28-.95c-.987-.646-1.902-1.642-2.745-2.988-.79 1.2-1.68 2.144-2.667 2.83-.987.673-2.034 1.01-3.14 1.01-1.199 0-2.259-.271-3.18-.812A5.77 5.77 0 01.77 9.834C.257 8.858 0 7.724 0 6.431c0-1.2.257-2.282.77-3.245A5.926 5.926 0 012.904.87C3.826.29 4.899 0 6.124 0c1.106 0 2.153.303 3.14.91 1.001.607 1.916 1.603 2.746 2.988.777-1.214 1.653-2.157 2.627-2.83A5.761 5.761 0 0117.956.06c1.804 0 3.259.594 4.365 1.781C23.441 3.027 24 4.584 24 6.51zm-13.768-.08C9.64 5.31 9.027 4.493 8.395 3.978a3.193 3.193 0 00-2.133-.791c-.922 0-1.653.316-2.193.95-.54.633-.81 1.404-.81 2.315 0 .87.257 1.622.77 2.255.514.633 1.271.95 2.272.95.738 0 1.422-.257 2.055-.772.645-.527 1.27-1.345 1.876-2.453zm10.509.06c0-.923-.277-1.688-.83-2.295-.553-.607-1.284-.91-2.193-.91-.724 0-1.409.257-2.054.771-.632.515-1.264 1.326-1.896 2.434.58 1.069 1.192 1.88 1.837 2.434.658.554 1.37.83 2.133.83.909 0 1.633-.309 2.173-.929.553-.633.83-1.411.83-2.335z" fill="#000"/></svg>