<?xml version="1.0" encoding="utf-8"?><svg width="20" height="9" fill="none" xmlns="http://www.w3.org/2000/svg" viewBox="0 0 20 9"><path d="M14.557 0c-1.41 0-2.796.881-3.866 1.808.268.292.523.596.765.91.115.15.282.355.489.587.824-.722 1.792-1.362 2.612-1.362a2.53 2.53 0 012.527 2.526 2.53 2.53 0 01-2.527 2.527c-1.558 0-3.656-2.304-4.268-3.112C9.99 3.487 7.275 0 4.47 0A4.475 4.475 0 000 4.47a4.475 4.475 0 004.47 4.47c1.37 0 2.715-.833 3.771-1.73a14.017 14.017 0 01-.836-.989 9.832 9.832 0 00-.416-.504c-.803.688-1.73 1.279-2.519 1.279a2.53 2.53 0 01-2.527-2.527A2.53 2.53 0 014.47 1.943c1.559 0 3.656 2.304 4.268 3.112.3.397 3.014 3.884 5.82 3.884a4.474 4.474 0 004.469-4.47A4.474 4.474 0 0014.557 0z" fill="#89B21D"/></svg>