<?xml version="1.0" encoding="utf-8"?><svg width="25" height="25" fill="none" xmlns="http://www.w3.org/2000/svg" viewBox="0 0 25 25"><rect width="25" height="25" rx="5" fill="#FAD61A"/><path fill-rule="evenodd" clip-rule="evenodd" d="M14.392 19.13c-1.125 1.543-2.04 1.922-2.86 1.922-1.336 0-1.851-.83-1.851-1.71 0-.38.117-.902.187-1.21l1.922-7.813H9.538a.32.32 0 01-.258-.127.331.331 0 01-.059-.284l.112-.441a.463.463 0 01.36-.34l4.361-.81a.641.641 0 01.593.198.66.66 0 01.156.612l-2.42 9.823a.281.281 0 00.157.322.31.31 0 00.363-.08l1.92-2.216a.492.492 0 01.658-.08.438.438 0 01.178.292.445.445 0 01-.081.332l-1.186 1.61zM15.72 5.775c-.188.83-.891 1.377-1.805 1.377-.961 0-1.477-.617-1.477-1.282.004-.184.027-.368.07-.546.188-.832.891-1.378 1.805-1.378.961 0 1.477.618 1.477 1.283a2.5 2.5 0 01-.07.546z" fill="#fff"/></svg>