<?xml version="1.0" encoding="utf-8"?><svg width="180" height="40" fill="none" xmlns="http://www.w3.org/2000/svg" viewBox="0 0 180 40"><path d="M26.408 5.099v22.81a5.098 5.098 0 01-5.099 5.099H6.832v-6.603h11.171c.997 0 1.802-.807 1.802-1.801v-16.2c0-.996-.807-1.801-1.802-1.801H0V0h21.307a5.098 5.098 0 015.099 5.099h.002z" fill="url(#bipaint0_linear_1931_9962)"/><path d="M13.432 13.205h-6.6v6.6h6.6v-6.6z" fill="url(#bipaint1_linear_1931_9962)"/><path d="M6.832 33.008h-6.6v6.602h6.6v-6.602z" fill="url(#bipaint2_linear_1931_9962)"/><path d="M41.41 27.653V11.959h6.12c1.375 0 2.549.216 3.52.65.972.435 1.718 1.063 2.244 1.884.523.822.785 1.802.785 2.938 0 1.135-.262 2.111-.785 2.926-.524.814-1.272 1.442-2.244 1.883-.971.442-2.145.663-3.52.663h-4.886l1.008-1.054v5.806h-2.244l.002-.002zm2.244-5.583l-1.008-1.122h4.821c1.436 0 2.523-.307 3.263-.919.739-.612 1.11-1.479 1.11-2.6 0-1.122-.371-1.989-1.11-2.601-.74-.612-1.827-.92-3.263-.92h-4.821l1.008-1.12v9.282zM54.213 27.653l7.108-15.694h2.22l7.13 15.694h-2.354l-6.346-14.44h.897l-6.346 14.44h-2.31zm3.026-3.925l.605-1.792h8.834l.651 1.792H57.24zM73.003 27.653V11.959h6.12c1.374 0 2.548.216 3.52.65.971.435 1.718 1.063 2.24 1.884.524.822.786 1.802.786 2.938 0 1.135-.262 2.111-.785 2.926-.523.814-1.27 1.438-2.241 1.872-.972.435-2.146.65-3.52.65h-4.887l1.008-1.03v5.806h-2.241v-.002zm2.241-5.583l-1.008-1.1h4.821c1.436 0 2.523-.308 3.263-.93.74-.62 1.11-1.49 1.11-2.611 0-1.122-.37-1.989-1.11-2.601-.74-.612-1.827-.92-3.263-.92h-4.82l1.007-1.12v9.282zm8.252 5.583l-3.99-5.695h2.397l4.036 5.695h-2.443zM92.193 27.653V13.909h-5.38v-1.95h12.982v1.95h-5.381v13.744h-2.22zM106.612 27.833c-1.197 0-2.339-.182-3.431-.548-1.092-.366-1.95-.842-2.577-1.424l.83-1.75c.598.523 1.36.958 2.286 1.301a8.254 8.254 0 002.892.517c.913 0 1.652-.105 2.221-.314.569-.21.987-.496 1.256-.862.268-.367.402-.78.402-1.245 0-.54-.175-.971-.527-1.301-.351-.328-.808-.594-1.368-.797a15.118 15.118 0 00-1.85-.527 29.939 29.939 0 01-2.029-.528 9.108 9.108 0 01-1.861-.774 3.808 3.808 0 01-1.356-1.267c-.344-.53-.517-1.215-.517-2.052 0-.838.214-1.552.64-2.232.425-.68 1.083-1.227 1.972-1.636.89-.412 2.021-.617 3.397-.617.912 0 1.816.12 2.712.36.897.239 1.675.582 2.332 1.03l-.739 1.793a7.266 7.266 0 00-2.13-.976 8.301 8.301 0 00-2.175-.302c-.883 0-1.606.111-2.175.336-.569.226-.983.524-1.244.897a2.133 2.133 0 00-.392 1.256c0 .553.175.994.528 1.322.35.33.808.591 1.367.785.56.193 1.177.37 1.85.527.674.157 1.349.332 2.03.528.68.194 1.301.448 1.861.762a3.856 3.856 0 011.356 1.256c.343.524.516 1.197.516 2.018 0 .822-.216 1.53-.651 2.21-.434.68-1.103 1.226-2.006 1.635-.906.412-2.043.617-3.42.617v.002zM126.567 27.833c-1.196 0-2.339-.182-3.431-.548-1.092-.366-1.949-.842-2.577-1.424l.83-1.75c.598.523 1.361.958 2.287 1.301.926.344 1.89.517 2.891.517.913 0 1.652-.105 2.221-.314.569-.21.987-.496 1.256-.862.268-.367.402-.78.402-1.245 0-.54-.175-.971-.527-1.301-.351-.328-.808-.594-1.368-.797a15.1 15.1 0 00-1.849-.527c-.674-.15-1.35-.326-2.03-.528a9.108 9.108 0 01-1.861-.774 3.816 3.816 0 01-1.356-1.267c-.344-.53-.516-1.215-.516-2.052 0-.838.213-1.552.639-2.232.425-.68 1.083-1.227 1.972-1.636.89-.412 2.021-.617 3.397-.617.913 0 1.816.12 2.712.36.897.239 1.675.582 2.332 1.03l-.739 1.793a7.254 7.254 0 00-2.13-.976 8.301 8.301 0 00-2.175-.302c-.883 0-1.606.111-2.175.336-.569.226-.983.524-1.244.897a2.133 2.133 0 00-.392 1.256c0 .553.176.994.528 1.322.351.33.808.591 1.368.785.559.193 1.176.37 1.849.527.674.157 1.349.332 2.03.528.68.194 1.301.448 1.861.762a3.856 3.856 0 011.356 1.256c.343.524.516 1.197.516 2.018a3.96 3.96 0 01-.65 2.21c-.435.68-1.104 1.226-2.007 1.635-.906.412-2.043.617-3.42.617v.002zM142.856 27.83c-1.197 0-2.307-.202-3.329-.604a7.94 7.94 0 01-2.657-1.693 7.792 7.792 0 01-1.75-2.546c-.418-.971-.628-2.032-.628-3.183 0-1.151.21-2.211.628-3.183a7.814 7.814 0 011.75-2.546 7.941 7.941 0 012.646-1.692c1.017-.403 2.129-.606 3.34-.606 1.21 0 2.302.198 3.319.594a7.862 7.862 0 012.646 1.681 7.675 7.675 0 011.738 2.556c.412.978.617 2.045.617 3.194s-.205 2.234-.617 3.206a7.66 7.66 0 01-1.738 2.545 7.828 7.828 0 01-2.646 1.682c-1.017.396-2.123.594-3.319.594v.002zm-.023-1.994c.883 0 1.693-.15 2.432-.449a5.719 5.719 0 001.929-1.267 5.916 5.916 0 001.279-1.918 6.14 6.14 0 00.46-2.398c0-.867-.153-1.663-.46-2.389a6.091 6.091 0 00-1.279-1.918 5.66 5.66 0 00-1.929-1.278 6.452 6.452 0 00-2.432-.449c-.881 0-1.67.15-2.409.449-.74.3-1.386.725-1.941 1.278a5.98 5.98 0 00-1.29 1.918c-.307.726-.46 1.522-.46 2.39 0 .866.153 1.667.46 2.397a5.836 5.836 0 001.29 1.918 5.855 5.855 0 001.941 1.267c.739.3 1.542.449 2.409.449zM156.992 27.653h-2.243V11.959h11.076v1.95h-8.835v13.744h.002zm-.225-8.272h8.095v1.929h-8.095v-1.93zM172.216 27.653V13.909h-5.381v-1.95h12.982v1.95h-5.381v13.744h-2.22z" fill="#000"/><defs><linearGradient id="bipaint0_linear_1931_9962" x1=".225" y1="-6.37" x2="32.414" y2="42.036" gradientUnits="userSpaceOnUse"><stop stop-color="#AACC19"/><stop offset="1" stop-color="#4B8125"/></linearGradient><linearGradient id="bipaint1_linear_1931_9962" x1="-3.454" y1="-3.925" x2="28.735" y2="44.482" gradientUnits="userSpaceOnUse"><stop stop-color="#AACC19"/><stop offset="1" stop-color="#4B8125"/></linearGradient><linearGradient id="bipaint2_linear_1931_9962" x1="-17.162" y1="5.189" x2="15.027" y2="53.596" gradientUnits="userSpaceOnUse"><stop stop-color="#AACC19"/><stop offset="1" stop-color="#4B8125"/></linearGradient></defs></svg>