<?xml version="1.0" encoding="utf-8"?><svg width="17" height="26" fill="none" xmlns="http://www.w3.org/2000/svg" viewBox="0 0 17 26"><path d="M16.889 3.26v14.59a3.26 3.26 0 01-3.261 3.26H4.37v-4.223h7.144c.637 0 1.152-.516 1.152-1.152V5.375c0-.637-.516-1.152-1.152-1.152H0V0h13.627a3.26 3.26 0 013.26 3.26h.002z" fill="url(#bgpaint0_linear_1931_3895)"/><path d="M8.59 8.445H4.37v4.221h4.22v-4.22z" fill="url(#bgpaint1_linear_1931_3895)"/><path d="M4.37 21.11H.148v4.223H4.37V21.11z" fill="url(#bgpaint2_linear_1931_3895)"/><defs><linearGradient id="bgpaint0_linear_1931_3895" x1=".144" y1="-4.074" x2="20.73" y2="26.884" gradientUnits="userSpaceOnUse"><stop stop-color="#AACC19"/><stop offset="1" stop-color="#4B8125"/></linearGradient><linearGradient id="bgpaint1_linear_1931_3895" x1="-2.209" y1="-2.51" x2="18.377" y2="28.448" gradientUnits="userSpaceOnUse"><stop stop-color="#AACC19"/><stop offset="1" stop-color="#4B8125"/></linearGradient><linearGradient id="bgpaint2_linear_1931_3895" x1="-10.975" y1="3.319" x2="9.611" y2="34.277" gradientUnits="userSpaceOnUse"><stop stop-color="#AACC19"/><stop offset="1" stop-color="#4B8125"/></linearGradient></defs></svg>