<?xml version="1.0" encoding="utf-8"?><svg width="66" height="71" fill="none" xmlns="http://www.w3.org/2000/svg" viewBox="0 0 66 71"><g filter="url(#bnfilter0_f_1910_11138)" fill="#89B21D" fill-opacity=".35"><path d="M40.698 61.364c.363-.65.623-1.381.893-2.154.135-.382.27-.763.415-1.145l.176-.463h4.474c2.636 0 5.262.01 7.898 0a6.254 6.254 0 004.796-2.269 6.197 6.197 0 001.287-5.175c-.54-2.711-2.938-4.7-5.958-4.969-1.505-.134-1.9-.557-1.9-2.082v-3.083-7.711c0-.773-.01-1.526-.103-2.248-.966-7.525-4.982-12.958-11.926-16.154-.176-.083-.363-.155-.53-.227l-.705-.299.072-.938c.021-.258.042-.505.052-.742a5.964 5.964 0 00-1.712-4.34 6.028 6.028 0 00-4.328-1.836h-.032c-1.64 0-3.165.64-4.317 1.794a5.957 5.957 0 00-1.754 4.31c0 .103.02.216.03.33.053.391.115.865-.155 1.288-.27.412-.716.557-1.08.67a3.135 3.135 0 00-.332.114c-7.493 3.546-11.396 9.463-11.593 17.587-.063 2.65-.052 5.34-.031 7.949 0 1.247.02 2.484.01 3.732 0 1.278-.488 1.804-1.754 1.876-1.671.093-3.062.67-4.245 1.752a6.051 6.051 0 00-1.578 6.68c.913 2.372 3.197 3.97 5.698 3.99 2.647.021 5.294.021 7.94.01h4.765l.176.722c.031.124.062.238.083.35.695 3.393 2.668 5.547 6.04 6.578.26.083.52.134.78.196l.31.072h1.848c.145-.051.25-.072.343-.093 2.667-.433 4.67-1.804 5.947-4.072zM31.326 8.84a3.55 3.55 0 013.975-.34 3.382 3.382 0 011.733 3.432l-.083.63H30.32l-.166-.496c-.353-1.04.145-2.402 1.173-3.237v.01zM12.87 55.096c-1.557 0-2.72-.618-3.456-1.835a3.534 3.534 0 01-.187-3.34 3.822 3.822 0 012.834-2.144c.27-.041.54-.062.81-.083.248-.02.487-.03.726-.082 1.961-.382 3.28-1.99 3.29-4 0-1.444 0-2.877-.01-4.32-.021-2.618-.032-5.33.041-8 .187-6.526 3.353-11.546 9.155-14.515 4.172-2.145 8.884-2.402 13.254-.753 4.453 1.69 8.013 5.258 9.767 9.784a17.373 17.373 0 011.162 6.36c-.01 3.794-.01 7.598 0 11.392 0 2.041 1.287 3.63 3.25 4.041.227.052.456.062.684.073.197.01.384.02.581.051 2.17.279 3.592 1.918 3.457 3.97-.135 1.958-1.775 3.391-3.913 3.391H12.87v.01zm20.676 7.918h-.052c-2.699-.031-5.252-2.165-5.47-4.588l-.073-.783h11.23l-.082.794c-.27 2.494-2.803 4.577-5.553 4.577zM15.227 13.076a1.253 1.253 0 00-.623-.165c-.342 0-.695.154-.986.443-2.563 2.557-4.494 5.454-5.74 8.588-.58 1.453-1.017 2.969-1.37 4.247-.124.464-.062.897.187 1.216.229.29.571.454.986.454.696 0 1.121-.381 1.308-1.165 1.038-4.402 3.187-8.288 6.383-11.536a1.89 1.89 0 00.436-.711c.156-.526-.072-1.083-.58-1.371zM60.658 26.56v-.062c-.02-.092-.031-.226-.062-.35a26.173 26.173 0 00-2.097-5.866 26.747 26.747 0 00-5.013-6.949c-.301-.299-.602-.443-.945-.443-.145 0-.3.031-.456.083-.499.175-.758.505-.83 1.051-.053.413.113.784.55 1.217a23.07 23.07 0 015.24 8.04c.312.805.551 1.64.78 2.444.114.402.228.804.352 1.206.197.65.779 1.01 1.433.918.591-.093 1.017-.619 1.038-1.289h.01z"/></g><path d="M37.169 57.835c.363-.65.623-1.381.892-2.155.135-.381.27-.763.416-1.144l.176-.464h4.473c2.637 0 5.263.01 7.9 0a6.254 6.254 0 004.794-2.268 6.197 6.197 0 001.287-5.175c-.54-2.712-2.937-4.701-5.957-4.97-1.505-.133-1.9-.556-1.9-2.082v-3.082-7.711c0-.774-.01-1.526-.104-2.248-.965-7.526-4.982-12.959-11.925-16.155-.177-.082-.364-.154-.53-.226l-.706-.3.073-.937c.02-.258.042-.506.052-.743a5.964 5.964 0 00-1.713-4.34A6.028 6.028 0 0030.07 2h-.03c-1.64 0-3.167.64-4.319 1.794a5.957 5.957 0 00-1.754 4.31c0 .102.021.216.031.329.052.392.115.866-.155 1.289-.27.412-.716.556-1.08.67-.114.03-.228.072-.332.113-7.494 3.546-11.396 9.464-11.594 17.588-.062 2.65-.051 5.34-.03 7.948 0 1.248.02 2.485.01 3.732 0 1.278-.488 1.804-1.754 1.877-1.671.092-3.062.67-4.246 1.752a6.051 6.051 0 00-1.577 6.68c.913 2.372 3.197 3.97 5.698 3.99 2.647.02 5.293.02 7.94.01h4.764l.177.722c.03.124.062.237.083.35.695 3.392 2.667 5.547 6.04 6.578.26.082.52.134.779.196l.311.072h1.848c.145-.051.249-.072.342-.093 2.668-.433 4.671-1.804 5.948-4.072zM27.796 5.309a3.55 3.55 0 013.976-.34 3.382 3.382 0 011.733 3.433l-.083.629h-6.633l-.166-.495c-.353-1.041.146-2.402 1.173-3.237v.01zM9.342 51.567c-1.557 0-2.72-.618-3.456-1.835a3.534 3.534 0 01-.187-3.34 3.822 3.822 0 012.833-2.145c.27-.04.54-.061.81-.082.249-.02.488-.031.726-.082 1.962-.382 3.28-1.99 3.29-4 0-1.444 0-2.877-.01-4.32-.02-2.619-.03-5.33.042-8 .187-6.526 3.352-11.547 9.154-14.516 4.173-2.144 8.885-2.402 13.255-.752 4.452 1.69 8.013 5.258 9.767 9.783a17.373 17.373 0 011.162 6.361c-.01 3.794-.01 7.598 0 11.392 0 2.041 1.287 3.629 3.249 4.041.228.052.456.062.685.072.197.01.384.02.581.052 2.17.278 3.591 1.917 3.456 3.969-.135 1.959-1.774 3.392-3.913 3.392H9.342v.01zm20.675 7.917h-.052c-2.698-.03-5.251-2.164-5.47-4.587l-.072-.784h11.23l-.083.794c-.27 2.495-2.802 4.578-5.553 4.578zM11.698 9.546a1.253 1.253 0 00-.623-.165c-.342 0-.695.155-.986.444-2.564 2.556-4.494 5.453-5.74 8.587-.58 1.454-1.017 2.97-1.37 4.248-.124.464-.062.897.187 1.216.228.289.571.454.986.454.696 0 1.121-.382 1.308-1.165 1.038-4.402 3.186-8.289 6.383-11.536a1.89 1.89 0 00.436-.712c.156-.525-.072-1.082-.581-1.37zM57.129 23.03v-.06c-.021-.094-.032-.228-.063-.351a26.173 26.173 0 00-2.096-5.866 26.748 26.748 0 00-5.013-6.949c-.301-.299-.602-.443-.945-.443-.145 0-.301.03-.457.082-.498.176-.757.505-.83 1.052-.052.412.114.783.55 1.216a23.07 23.07 0 015.242 8.042c.311.804.55 1.639.778 2.443.114.402.228.804.353 1.206.197.65.778 1.01 1.432.918.592-.093 1.017-.619 1.038-1.29h.01z" fill="#4B8125"/><defs><filter id="bnfilter0_f_1910_11138" x="1.357" y=".529" width="64.404" height="70" filterUnits="userSpaceOnUse" color-interpolation-filters="sRGB"><feFlood flood-opacity="0" result="BackgroundImageFix"/><feBlend in="SourceGraphic" in2="BackgroundImageFix" result="shape"/><feGaussianBlur stdDeviation="2.5" result="effect1_foregroundBlur_1910_11138"/></filter></defs></svg>