<?xml version="1.0" encoding="utf-8"?><svg width="71" height="71" fill="none" xmlns="http://www.w3.org/2000/svg" viewBox="0 0 71 71"><g filter="url(#bxfilter0_f_1302_17132)" fill="#89B21D" fill-opacity=".35"><path d="M52.523 65.53c-1.088-.303-2.185-.554-3.242-.927a7.375 7.375 0 01-1.802-.956c-.493-.352-.976-.473-1.57-.473-8.306.01-16.601.01-24.906 0-2.94 0-5.245-1.731-5.92-4.45-.15-.593-.181-1.237-.181-1.851V14.91H6.989c-1.047 0-1.48-.413-1.46-1.45.02-1.127-.05-2.284.172-3.381.543-2.678 2.93-4.53 5.728-4.54 4.55-.02 9.1 0 13.65 0h25.199a5.851 5.851 0 015.698 4.44c.14.583.181 1.197.181 1.8.01 9.945 0 19.88 0 29.825v.684c.614.191 1.208.332 1.762.554 4.258 1.761 6.795 4.901 7.51 9.471.02.111.07.212.1.322v2.346c-.03.09-.08.18-.09.271-.735 4.983-3.634 8.123-8.316 9.734-.765.261-1.58.362-2.375.543h-2.225zm1.288-23.473v-.383-30.176c0-2.104-1.52-3.614-3.634-3.614H16.603c-.14 0-.282.02-.503.04.976 1.34 1.158 2.799 1.158 4.339-.02 14.826-.01 29.643-.01 44.469v.705c.09 1.892 1.42 3.25 3.302 3.392 1.781.13 3.292-1.047 3.634-2.88.07-.382.08-.774.08-1.167-.05-3.04-.04-2.99 3-2.969 4.712.03 9.413 0 14.125 0h.674c.151-6.663 5.356-11.656 11.748-11.756zm0 21.127c5.124 0 9.383-4.217 9.383-9.28 0-5.365-4.027-9.391-9.373-9.402-5.345 0-9.372 4.027-9.372 9.392 0 5.073 4.248 9.29 9.372 9.29h-.01zm-9.594-2.355c-.684-1.54-1.369-3.05-2.073-4.64H26.61c.13 1.66-.12 3.22-1.127 4.64h18.734zM14.862 12.545c.18-1.792-.151-3.322-1.812-4.228-1.31-.714-2.608-.594-3.796.292-1.329.987-1.52 2.396-1.349 3.936h6.957z"/><path d="M28.966 20.245v2.688c0 .885-.443 1.348-1.32 1.348H22.09c-.846 0-1.319-.453-1.319-1.288-.01-1.872 0-3.744 0-5.616 0-.816.463-1.279 1.268-1.289 1.893-.01 3.786-.01 5.678 0 .806 0 1.249.473 1.259 1.288.01.957 0 1.913 0 2.87h-.01zM26.6 18.474h-3.463v3.432H26.6v-3.432zM20.761 31.87v-2.687c0-.926.433-1.379 1.349-1.379h5.497c.916 0 1.349.443 1.349 1.38v5.434c0 .957-.443 1.38-1.41 1.38H22.16c-.986 0-1.409-.433-1.409-1.44v-2.687h.01zm5.849-1.68h-3.463v3.422h3.463V30.19zM24.838 47.713H22.09c-.876 0-1.33-.463-1.33-1.338v-5.556c0-.846.464-1.299 1.31-1.299h5.556c.876 0 1.33.453 1.33 1.339v5.495c0 .916-.444 1.36-1.37 1.36h-2.748zm1.752-5.818h-3.463v3.433h3.463v-3.433zM41.388 19.007H34.07c-.191 0-.392 0-.584-.02a1.157 1.157 0 01-1.006-1.178c.01-.574.412-1.037.996-1.127.192-.03.393-.02.584-.02H49.15c.684.06 1.137.543 1.117 1.188-.01.623-.453 1.076-1.107 1.137-.171.02-.352 0-.524 0h-7.258l.01.02zM39.364 21.352h5.497c.836 0 1.36.503 1.319 1.228-.03.685-.524 1.107-1.319 1.117H33.797c-.765 0-1.248-.402-1.318-1.046-.081-.745.463-1.289 1.308-1.289h5.557l.02-.01zM39.334 40.104h5.557c.484 0 .957.13 1.108.594.12.362.11.845-.03 1.208-.191.483-.705.553-1.198.553H33.778c-.806-.01-1.31-.493-1.29-1.198.021-.684.514-1.137 1.29-1.137h5.556v-.02zM44.057 28.388h4.973c.845 0 1.4.654 1.238 1.399-.13.614-.584.936-1.36.936h-9.825c-.815 0-1.318-.463-1.318-1.168 0-.704.503-1.167 1.318-1.167h4.974zM36.909 35.414h-3.05c-.866 0-1.38-.453-1.38-1.178 0-.725.524-1.158 1.39-1.168h6.211c.846 0 1.319.423 1.329 1.148.01.745-.473 1.188-1.349 1.198h-3.161.01zM36.99 47.13h-3.162c-.825 0-1.329-.453-1.339-1.158-.01-.724.514-1.177 1.37-1.187h6.21c.877 0 1.36.433 1.36 1.177 0 .735-.493 1.158-1.38 1.158H37l-.01.01zM33.667 30.723a1.154 1.154 0 01-1.178-1.117 1.16 1.16 0 011.148-1.208 1.16 1.16 0 011.178 1.117 1.169 1.169 0 01-1.148 1.218v-.01zM50.862 58.111c0-.805.745-1.339 1.55-1.087.262.08.504.221.765.292.624.181 1.229-.11 1.44-.675.221-.583-.01-1.167-.614-1.47-.423-.2-.866-.361-1.289-.553-1.308-.594-2.053-1.61-2.144-3.04-.08-1.378.493-2.486 1.701-3.18.443-.262.343-.594.363-.946.04-.997.906-1.57 1.731-1.128.443.242.645.645.604 1.118-.04.432.131.634.534.734.221.05.443.161.644.272.534.302.755.906.524 1.46a1.158 1.158 0 01-1.39.684c-.282-.08-.543-.221-.815-.312-.624-.191-1.228.08-1.46.634-.241.594 0 1.208.624 1.51.403.191.826.342 1.239.523 1.339.594 2.094 1.631 2.174 3.08.07 1.38-.544 2.436-1.701 3.191-.171.11-.262.373-.343.584-.05.12 0 .272-.01.403-.05.714-.533 1.197-1.198 1.177-.644-.02-1.147-.483-1.117-1.177.02-.504-.171-.715-.624-.856-.614-.191-1.168-.493-1.168-1.268l-.02.03z"/></g><path d="M48.993 62c-1.087-.302-2.184-.554-3.241-.926a7.373 7.373 0 01-1.802-.956c-.493-.353-.977-.474-1.57-.474-8.306.01-16.601.01-24.907 0-2.94 0-5.245-1.73-5.92-4.448-.15-.594-.18-1.238-.18-1.852V11.38H3.46c-1.047 0-1.48-.413-1.46-1.45.02-1.127-.05-2.284.171-3.382.544-2.677 2.93-4.529 5.729-4.54 4.55-.02 9.1 0 13.65 0h25.198a5.851 5.851 0 015.699 4.44c.14.584.18 1.198.18 1.801.01 9.945 0 19.88 0 29.824v.685c.615.191 1.209.332 1.762.553 4.259 1.762 6.796 4.902 7.51 9.472.02.11.071.211.101.322v2.345c-.03.09-.08.181-.09.272-.735 4.982-3.635 8.123-8.316 9.733-.765.262-1.58.363-2.376.544h-2.225zm1.29-23.473v-.382V7.969c0-2.104-1.521-3.614-3.635-3.614H13.074c-.14 0-.282.02-.503.04.976 1.34 1.157 2.799 1.157 4.339-.02 14.826-.01 29.642-.01 44.469v.704c.09 1.893 1.42 3.251 3.302 3.392 1.782.131 3.292-1.047 3.634-2.878.071-.383.081-.776.081-1.168-.05-3.04-.04-2.99 3-2.97 4.712.03 9.413 0 14.124 0h.675c.15-6.663 5.355-11.655 11.748-11.756zm0 21.128c5.123 0 9.382-4.218 9.382-9.28 0-5.366-4.027-9.392-9.373-9.402-5.346 0-9.372 4.026-9.372 9.391 0 5.073 4.248 9.29 9.372 9.29h-.01zm-9.595-2.356c-.684-1.54-1.369-3.05-2.074-4.64H23.081c.13 1.66-.121 3.221-1.128 4.64h18.735zM11.332 9.015c.182-1.791-.15-3.321-1.812-4.227-1.308-.715-2.607-.594-3.795.292-1.329.986-1.52 2.395-1.349 3.935h6.956z" fill="#4B8125"/><path d="M25.436 16.716v2.687c0 .886-.442 1.35-1.318 1.35H18.56c-.846 0-1.32-.454-1.32-1.29-.01-1.872 0-3.744 0-5.616 0-.815.464-1.278 1.27-1.288 1.892-.01 3.785-.01 5.677 0 .806 0 1.248.473 1.259 1.288.01.956 0 1.913 0 2.869h-.01zm-2.365-1.772h-3.463v3.433h3.463v-3.433zM17.232 28.341v-2.687c0-.926.433-1.38 1.349-1.38h5.496c.916 0 1.35.444 1.35 1.38v5.435c0 .956-.444 1.38-1.41 1.38h-5.386c-.986 0-1.41-.434-1.41-1.44V28.34h.01zm5.849-1.68h-3.463v3.422h3.463V26.66zM21.309 44.184H18.56c-.875 0-1.329-.463-1.329-1.339V37.29c0-.845.463-1.298 1.31-1.298h5.556c.876 0 1.33.453 1.33 1.338v5.496c0 .916-.444 1.359-1.37 1.359h-2.748zm1.751-5.818h-3.463v3.432h3.463v-3.432zM37.859 15.478H30.54c-.191 0-.393 0-.584-.02a1.157 1.157 0 01-1.007-1.178c.01-.574.413-1.037.997-1.127.191-.03.393-.02.584-.02H45.62c.684.06 1.137.543 1.117 1.187-.01.624-.453 1.077-1.107 1.138-.172.02-.353 0-.524 0H37.85l.01.02zM35.835 17.823h5.497c.835 0 1.359.503 1.319 1.228-.03.684-.524 1.107-1.32 1.117H30.269c-.765 0-1.248-.403-1.319-1.047-.08-.745.463-1.288 1.309-1.288h5.557l.02-.01zM35.805 36.575h5.557c.483 0 .957.13 1.108.594.12.362.11.845-.03 1.207-.192.484-.705.554-1.199.554H30.248c-.805-.01-1.309-.493-1.288-1.198.02-.684.513-1.137 1.288-1.137h5.557v-.02zM40.527 24.858h4.974c.845 0 1.399.655 1.238 1.4-.131.614-.584.936-1.36.936h-9.825c-.815 0-1.319-.463-1.319-1.168 0-.705.504-1.168 1.32-1.168h4.972zM33.38 31.884h-3.05c-.866 0-1.38-.453-1.38-1.177 0-.725.524-1.158 1.39-1.168h6.21c.847 0 1.32.423 1.33 1.147.01.745-.473 1.188-1.35 1.198h-3.16.01zM33.46 43.6H30.3c-.825 0-1.329-.452-1.339-1.157-.01-.725.514-1.178 1.37-1.188h6.21c.877 0 1.36.433 1.36 1.178 0 .735-.494 1.157-1.38 1.157h-3.05l-.01.01zM30.138 27.194a1.154 1.154 0 01-1.178-1.117 1.16 1.16 0 011.148-1.208 1.16 1.16 0 011.178 1.117 1.169 1.169 0 01-1.148 1.218v-.01zM47.333 54.582c0-.806.745-1.339 1.55-1.087.262.08.503.221.765.291.624.182 1.228-.11 1.44-.674.221-.584-.01-1.168-.614-1.47-.423-.2-.866-.362-1.29-.553-1.308-.594-2.053-1.61-2.143-3.04-.08-1.379.493-2.486 1.701-3.18.443-.262.342-.594.362-.947.04-.996.906-1.57 1.732-1.127.443.242.644.644.604 1.117-.04.433.13.635.534.735.221.05.443.161.644.272.533.302.755.906.523 1.46a1.158 1.158 0 01-1.389.684c-.282-.08-.544-.222-.815-.312-.624-.191-1.229.08-1.46.634-.242.594 0 1.208.624 1.51.403.191.825.342 1.238.523 1.34.594 2.094 1.63 2.175 3.08.07 1.38-.544 2.436-1.702 3.19-.17.112-.261.373-.342.585-.05.12 0 .271-.01.402-.05.715-.534 1.198-1.198 1.178-.644-.02-1.148-.483-1.117-1.178.02-.503-.172-.714-.625-.855-.614-.191-1.167-.493-1.167-1.269l-.02.03z" fill="#4B8125"/><defs><filter id="bxfilter0_f_1302_17132" x=".529" y=".53" width="70.001" height="69.999" filterUnits="userSpaceOnUse" color-interpolation-filters="sRGB"><feFlood flood-opacity="0" result="BackgroundImageFix"/><feBlend in="SourceGraphic" in2="BackgroundImageFix" result="shape"/><feGaussianBlur stdDeviation="2.5" result="effect1_foregroundBlur_1302_17132"/></filter></defs></svg>