<?xml version="1.0" encoding="utf-8"?><svg width="75" height="75" fill="none" xmlns="http://www.w3.org/2000/svg" viewBox="0 0 75 75"><path d="M0 46.16c.354-1.146.598-2.34 1.09-3.426.906-2 2.475-3.43 4.39-4.513 3.854-2.18 7.696-4.377 11.535-6.582.346-.2.677-.48.924-.791 6.22-7.812 12.44-15.624 18.627-23.46 1.173-1.484 2.562-2.367 4.507-2.086 1.47.212 2.536 1.041 3.271 2.31 1.617 2.78 3.26 5.546 4.844 8.343.312.551.65.72 1.263.667 1.506-.13 3.022-.183 4.53-.294.831-.061 1.39.274 1.794.98.863 1.512 1.74 3.016 2.635 4.509.424.707.387 1.348-.077 2.02-.853 1.236-1.65 2.509-2.519 3.732-.336.473-.367.821-.059 1.336 1.518 2.53 3.02 5.07 4.468 7.64 1.562 2.773-.035 5.955-3.189 6.502-1.897.33-3.785.712-5.675 1.076-7.323 1.415-14.644 2.832-21.967 4.248-.214.042-.424.102-.741.178.538.927 1.053 1.82 1.573 2.71.807 1.389.636 2.013-.77 2.82-1.032.593-2.067 1.186-3.098 1.781-.037.022-.057.073-.118.153 1.391 2.381 2.79 4.78 4.193 7.179 1.013 1.73 1.275 3.535.464 5.403-.855 1.968-2.396 3.167-4.53 3.466-2.187.308-4.039-.426-5.439-2.151a9.627 9.627 0 01-.805-1.206c-2.213-3.776-4.418-7.556-6.626-11.336-.132-.227-.273-.45-.374-.615-1.154.194-2.246.498-3.349.544-5.363.221-9.688-3.269-10.636-8.502-.02-.11-.09-.214-.136-.319v-2.318.002zm53.638-5.247L36.695 11.9c-.103.149-.154.232-.215.308-5.288 6.662-10.574 13.328-15.877 19.98-.279.35-.18.572.004.886a2499.22 2499.22 0 017.162 12.281c.23.401.442.501.913.407 6.121-1.203 12.25-2.376 18.374-3.56 2.17-.42 4.34-.851 6.582-1.29zM18.01 34.428c-1.22.695-2.38 1.352-3.534 2.016-2.78 1.597-5.607 3.121-8.325 4.819-2.736 1.708-3.864 5.15-2.868 8.135 1.485 4.447 6.52 6.364 10.709 4.03 3.671-2.046 7.306-4.157 10.955-6.243.12-.07.226-.158.365-.258l-7.302-12.499zM40.43 8.126c-.914-.025-1.907 1.103-1.529 1.75C44.74 19.88 50.581 29.879 56.414 39.883c.182.312.354.425.745.37 1.683-.23 2.174-1.17 1.323-2.624-3.608-6.182-7.218-12.36-10.826-18.54-1.926-3.298-3.853-6.596-5.772-9.899-.33-.57-.72-1.037-1.452-1.063h-.001zM16.65 55.267c2.468 4.226 4.875 8.358 7.296 12.485.462.787 1.148 1.307 2.08 1.442 1.193.172 2.18-.207 2.872-1.185.732-1.032.712-2.124.088-3.201-1.259-2.175-2.53-4.34-3.798-6.51-1.143-1.957-2.29-3.914-3.465-5.924L16.65 55.27l.002-.002zm34.61-35.803l3.485 5.968c.596-.893 1.152-1.703 1.673-2.536.072-.114.008-.366-.075-.51a87.763 87.763 0 00-1.607-2.75c-.097-.157-.32-.348-.479-.344-.945.025-1.888.102-2.996.172zm-25.53 33.964l2.531-1.451c-.52-.887-.987-1.689-1.464-2.503l-2.529 1.453c.509.867.967 1.652 1.465 2.503l-.002-.002zM65.146 15.636c-.358-.327-.826-.604-1.071-1.012-.309-.51-.16-1.082.271-1.522.167-.169.376-.309.585-.425 2.549-1.407 5.1-2.817 7.657-4.21.942-.511 1.808-.324 2.224.438.413.756.141 1.549-.754 2.051-1.65.927-3.316 1.83-4.974 2.742-.894.492-1.78.994-2.685 1.466-.335.174-.712.27-1.255.47l.002.002zM66.228 21.826c.174.04.508.107.835.194 1.55.41 3.1.818 4.646 1.244 1.042.289 1.513.99 1.275 1.843-.231.824-.985 1.2-1.983.945-1.766-.45-3.53-.905-5.285-1.393-.89-.246-1.334-.896-1.215-1.638.123-.761.742-1.235 1.729-1.195h-.002zM56.236 8.692c.321-1.202.703-2.642 1.088-4.08.138-.512.257-1.03.43-1.528.282-.813 1.02-1.233 1.757-1.036.8.213 1.253.93 1.035 1.796a162.207 162.207 0 01-1.488 5.5c-.251.863-.93 1.24-1.72 1.077-.706-.145-1.135-.718-1.102-1.729z" fill="#4B8125"/><path d="M10.536 51.556c-1.866-.078-3.09-.709-3.949-1.991-.5-.75-.38-1.57.285-2.055.63-.463 1.414-.341 2.016.312.914.992 1.352 1.06 2.536.392.655-.372 1.3-.764 1.967-1.114.853-.448 1.699-.252 2.114.453.421.719.185 1.54-.646 2.037-.896.535-1.802 1.067-2.747 1.508-.58.27-1.242.366-1.576.46v-.002zM19.332 43.963c.807 0 1.445.619 1.451 1.406.005.778-.651 1.42-1.448 1.417-.807-.006-1.45-.63-1.45-1.41 0-.789.637-1.41 1.448-1.413h-.001z" fill="#4B8125"/></svg>