<?xml version="1.0" encoding="utf-8"?><svg width="71" height="71" fill="none" xmlns="http://www.w3.org/2000/svg" viewBox="0 0 71 71"><g filter="url(#bufilter0_f_1910_13771)" fill-opacity=".35"><path d="M53.23 19.445c0-1.153-.502-1.644-1.677-1.655H39.87c-.228 0-.479 0-.684.068-.639.183-1.073.822-1.004 1.45.08.753.616 1.267 1.335 1.278 1.186.035 2.373.023 3.56.023H47.64l-.354 1.096-.148.171c-5.328 5.331-10.656 10.685-15.995 16.016-.24.24-.617.388-.959.388-2.145-.022-4.29-.045-6.434-.08l-2.202-.022H20.6v-1.69-2.568c0-.32-.023-.697-.114-.97a1.368 1.368 0 00-1.472-.868c-.73.125-1.198.662-1.21 1.358-.011.925-.011 1.861 0 2.82v1.918H9.363c-2.442.023-3.834 1.415-3.834 3.824v19.737c0 2.409 1.392 3.779 3.8 3.79h19.657c2.476 0 3.845-1.381 3.845-3.892v-6.975c0-.172.011-.343.023-.525l.046-.857h4.62c.799-.011 1.426-.627 1.415-1.392 0-.765-.582-1.347-1.38-1.393-.32-.023-.628-.011-.948-.011H32.82v-2.649-5.331c0-.422 0-.822-.069-1.198-.102-.617.057-1.096.502-1.542 3.856-3.847 7.713-7.705 11.569-11.552l3.936-3.938c.103-.103.217-.195.354-.32l1.266-1.119v8.516c0 .776.377 1.324 1.027 1.496.434.114.867.045 1.198-.217.365-.274.57-.73.57-1.256.012-3.961 0-7.934 0-11.895l.057-.034zm-23.24 43.23H8.382v-21.61H29.99v21.61zM24.297 8.35h.982c.821-.024 1.426-.606 1.437-1.382 0-.776-.593-1.382-1.403-1.404-.285 0-.57-.012-.856-.012-.525 0-1.038.012-1.563.023a4.916 4.916 0 00-2.795.982c-1.689 1.233-2.476 2.934-2.327 5.057v1.347c.011.936.559 1.541 1.392 1.541.832 0 1.38-.594 1.414-1.53v-.879-.981c.057-1.621 1.141-2.683 2.761-2.729h.936l.023-.034z" fill="#4B8125"/><path d="M59.003 50.46h-.376c-.274 0-.548 0-.822.024-.741.057-1.277.65-1.255 1.427a1.372 1.372 0 001.335 1.358c.73.023 1.45.012 2.18 0 1.277-.023 2.35-.41 3.285-1.153 1.54-1.221 2.26-2.854 2.122-4.863V46.682v-.833c-.022-.913-.57-1.495-1.414-1.53-.799.012-1.37.64-1.38 1.519v1.723c-.024 1.758-1.085 2.843-2.83 2.889h-.833l-.012.01zM57.851 5.553c-.753.045-1.3.627-1.3 1.38 0 .777.559 1.36 1.346 1.393.377.012.764.012 1.14.012h.765c1.734.023 2.841 1.119 2.864 2.854v.799c0 .41 0 .822.023 1.233.045.65.57 1.176 1.22 1.233.64.057 1.404-.297 1.472-.902.16-1.541.343-3.276-.41-4.806-1.119-2.272-2.978-3.322-5.67-3.196h-1.45zM32.044 6.968c.011.753.616 1.347 1.392 1.38.479.024.958.012 1.437 0h1.335c.48 0 .947 0 1.426-.01a1.406 1.406 0 001.335-1.37 1.38 1.38 0 00-1.323-1.404 66.139 66.139 0 00-2.145-.035c-.73 0-1.415 0-2.134.035a1.39 1.39 0 00-1.335 1.404h.012zM44.297 6.934c0 .753.582 1.37 1.347 1.404.479.023.947.011 1.426 0h1.346c.49 0 .981 0 1.472-.012A1.38 1.38 0 0051.2 6.945c0-.742-.57-1.37-1.278-1.393a69.739 69.739 0 00-2.202-.034c-.696 0-1.414 0-2.133.034-.719.023-1.29.628-1.3 1.37l.01.012zM20.578 21.249c-.034-.822-.627-1.427-1.403-1.427-.799 0-1.38.628-1.392 1.484a229.405 229.405 0 000 3.961c0 .833.57 1.438 1.358 1.461.764.012 1.403-.582 1.437-1.427a18.6 18.6 0 000-1.381V22.607 21.25zM62.677 25.404a1.39 1.39 0 001.37 1.336c.764 0 1.391-.571 1.414-1.313a66.845 66.845 0 000-4.28 1.38 1.38 0 00-1.403-1.325c-.753 0-1.347.605-1.38 1.381-.024.491-.012.982 0 1.473v2.728zM65.461 33.498c-.034-.81-.627-1.427-1.392-1.427-.776 0-1.38.616-1.392 1.415a122.099 122.099 0 000 4.087c.012.8.628 1.416 1.392 1.416.765 0 1.37-.617 1.392-1.427.011-.468.011-.925 0-1.393V34.89v-1.392zM45.61 50.484c-.742.023-1.335.662-1.313 1.416.023.764.605 1.346 1.392 1.37.468.01.936.01 1.404 0h2.715c.776-.024 1.37-.617 1.38-1.382 0-.765-.57-1.381-1.323-1.404a66.414 66.414 0 00-4.267 0h.011z" fill="#89B21D"/></g><path d="M49.701 15.915c0-1.152-.502-1.643-1.677-1.655H36.341c-.228 0-.479 0-.684.069-.64.182-1.073.822-1.004 1.45.08.753.616 1.267 1.334 1.278 1.187.034 2.373.023 3.56.023h4.564l-.354 1.096-.148.171c-5.328 5.331-10.656 10.685-15.996 16.016-.24.24-.616.388-.958.388-2.145-.023-4.29-.045-6.435-.08l-2.202-.023h-.947v-1.69-2.568c0-.32-.023-.696-.114-.97a1.368 1.368 0 00-1.472-.868c-.73.126-1.197.663-1.209 1.359-.011.925-.011 1.86 0 2.82v1.917H5.833C3.392 34.671 2 36.064 2 38.473V58.21c0 2.409 1.392 3.779 3.8 3.79h19.657c2.476 0 3.845-1.381 3.845-3.893v-6.975c0-.17.011-.342.023-.525l.045-.856h4.621c.798-.011 1.426-.628 1.415-1.393 0-.764-.582-1.347-1.38-1.392-.32-.023-.628-.012-.948-.012H29.29v-2.648V38.975c0-.422 0-.822-.068-1.199-.103-.616.057-1.096.502-1.54 3.856-3.848 7.712-7.706 11.569-11.553l3.936-3.939c.102-.102.217-.194.353-.32l1.267-1.118v8.516c0 .776.376 1.324 1.027 1.495.433.114.867.046 1.198-.217.365-.274.57-.73.57-1.255.011-3.961 0-7.934 0-11.895l.057-.034zm-23.24 43.231H4.852v-21.61h21.609v21.61zM20.768 4.82h.981c.822-.023 1.427-.605 1.438-1.382 0-.776-.593-1.38-1.403-1.404-.286 0-.57-.011-.856-.011-.525 0-1.038.011-1.563.023a4.916 4.916 0 00-2.795.982C14.88 4.26 14.094 5.96 14.242 8.085v1.347c.012.936.56 1.54 1.392 1.54.833 0 1.38-.593 1.415-1.529v-.879-.982c.057-1.62 1.14-2.682 2.76-2.728h.936l.023-.034zM55.474 46.932h-.376c-.274 0-.548 0-.822.022-.741.057-1.278.651-1.255 1.427a1.372 1.372 0 001.335 1.359c.73.023 1.449.011 2.18 0 1.277-.023 2.35-.411 3.285-1.153 1.54-1.222 2.259-2.854 2.122-4.863V43.153v-.833c-.023-.913-.57-1.496-1.415-1.53-.798.011-1.369.64-1.38 1.518V44.032c-.023 1.758-1.084 2.843-2.83 2.888h-.832l-.012.012zM54.322 2.023c-.753.046-1.3.628-1.3 1.382 0 .776.559 1.358 1.346 1.392.376.012.764.012 1.14.012h.765c1.734.022 2.84 1.118 2.864 2.853v.8c0 .41 0 .822.023 1.232.045.651.57 1.176 1.22 1.233.64.057 1.404-.296 1.472-.902.16-1.54.342-3.276-.41-4.805-1.119-2.272-2.978-3.322-5.67-3.197h-1.45zM28.515 3.438c.01.754.616 1.347 1.391 1.382.48.022.959.011 1.438 0h1.335c.479 0 .947 0 1.426-.012a1.406 1.406 0 001.335-1.37 1.38 1.38 0 00-1.324-1.404A66.138 66.138 0 0031.971 2c-.73 0-1.414 0-2.133.034a1.39 1.39 0 00-1.335 1.404h.012zM40.768 3.404c0 .754.582 1.37 1.346 1.404.48.023.948.012 1.427 0h1.346c.49 0 .981 0 1.472-.011a1.38 1.38 0 001.312-1.381c0-.742-.57-1.37-1.278-1.393a69.738 69.738 0 00-2.202-.034c-.696 0-1.415 0-2.134.034-.718.023-1.289.628-1.3 1.37l.011.011zM17.049 17.72c-.034-.822-.628-1.427-1.403-1.427-.8 0-1.38.627-1.392 1.483a229.405 229.405 0 000 3.962c0 .833.57 1.438 1.357 1.46.765.012 1.404-.581 1.438-1.426a18.6 18.6 0 000-1.381V19.078v-1.359zM59.148 21.875a1.39 1.39 0 001.369 1.335c.764 0 1.392-.57 1.415-1.312a66.845 66.845 0 000-4.281 1.38 1.38 0 00-1.404-1.324c-.753 0-1.346.605-1.38 1.38-.023.492-.012.983 0 1.474v2.728zM61.932 29.968c-.035-.81-.628-1.427-1.392-1.427-.776 0-1.38.617-1.392 1.416a122.099 122.099 0 000 4.087c.011.799.627 1.415 1.392 1.415.764 0 1.369-.616 1.392-1.427.011-.468.011-.924 0-1.392V31.36v-1.393zM42.08 46.955c-.741.023-1.335.662-1.312 1.415.023.765.605 1.347 1.392 1.37.468.011.936.011 1.403 0h2.716c.776-.023 1.369-.616 1.38-1.381 0-.765-.57-1.382-1.323-1.404a66.414 66.414 0 00-4.267 0h.011z" fill="#4B8125"/><defs><filter id="bufilter0_f_1910_13771" x=".529" y=".518" width="69.994" height="70.011" filterUnits="userSpaceOnUse" color-interpolation-filters="sRGB"><feFlood flood-opacity="0" result="BackgroundImageFix"/><feBlend in="SourceGraphic" in2="BackgroundImageFix" result="shape"/><feGaussianBlur stdDeviation="2.5" result="effect1_foregroundBlur_1910_13771"/></filter></defs></svg>