<?xml version="1.0" encoding="utf-8"?><svg width="22" height="24" fill="none" xmlns="http://www.w3.org/2000/svg" viewBox="0 0 22 24"><path d="M19.174.833a.85.85 0 00-.84.858v2.28l-.469-.384a10.882 10.882 0 00-6.884-2.475h-.019C4.907 1.123-.01 6.156 0 12.333a.85.85 0 00.84.859.85.85 0 00.842-.858A9.643 9.643 0 013.73 6.377C5.285 4.401 7.502 3.16 9.972 2.884a9.113 9.113 0 016.835 2.033l.638.523H14.66a.85.85 0 00-.84.858.85.85 0 00.84.858h4.515a.85.85 0 00.841-.858V1.69a.85.85 0 00-.84-.858zM2.824 23.833a.85.85 0 00.841-.858v-2.28l.468.384a10.797 10.797 0 006.874 2.47c3.214 0 6.4-1.428 8.567-4.175A11.382 11.382 0 0022 12.334a.85.85 0 00-.84-.859.85.85 0 00-.842.858 9.525 9.525 0 01-2.713 6.714c-1.753 1.796-4.087 2.787-6.572 2.792h-.017a9.219 9.219 0 01-5.823-2.09l-.638-.522H7.34a.85.85 0 00.84-.858.85.85 0 00-.84-.858H2.824a.85.85 0 00-.84.858v4.606a.85.85 0 00.84.857v.001z" fill="#4B8125"/></svg>