<?xml version="1.0" encoding="utf-8"?><svg width="30" height="26" xmlns="http://www.w3.org/2000/svg" viewBox="0 0 30 26"><path d="M29.946 1.01c-.109-.32-.238-.405-.438-.485-.437-.164-1.18.085-1.18.085S2.036 10.156.535 11.212c-.325.227-.433.362-.483.518-.258.749.55 1.082.55 1.082l6.777 2.23s.254.038.342-.02c1.542-.986 15.512-9.892 16.316-10.19.13-.039.22 0 .196.092-.321 1.145-12.457 12.033-12.457 12.033s-.046.06-.075.127l-.017-.009-.633 6.79s-.267 2.079 1.792 0a56.684 56.684 0 013.563-3.292c2.33 1.625 4.839 3.422 5.922 4.36.542.472.996.548 1.371.535 1.026-.038 1.313-1.178 1.313-1.178s4.793-19.476 4.951-22.085c.017-.257.038-.417.038-.594 0-.244-.02-.488-.058-.602h.004z"/></svg>