<?xml version="1.0" encoding="utf-8"?><svg width="359" height="133" fill="none" xmlns="http://www.w3.org/2000/svg" viewBox="0 0 359 133"><g filter="url(#cdfilter0_d_1984_14801)"><path fill-rule="evenodd" clip-rule="evenodd" d="M121.607 41H317c5.523 0 10 4.477 10 10v39c0 5.523-4.477 10-10 10H42c-5.523 0-10-4.477-10-10V51c0-5.523 4.477-10 10-10h59.606l10.001-10 10 10z" fill="#fff"/></g><path d="M85.089 66v-9.994h7.444V66h-1.148v-8.969H86.25V66h-1.162zm16.488-3.76a5.26 5.26 0 01-.239 1.648c-.16.483-.39.89-.691 1.223-.3.333-.665.588-1.093.766-.424.173-.905.26-1.443.26-.501 0-.961-.087-1.38-.26a3.117 3.117 0 01-1.08-.766c-.301-.332-.536-.74-.705-1.223-.164-.483-.246-1.032-.246-1.648 0-.82.14-1.517.417-2.092.278-.578.675-1.018 1.19-1.319.52-.305 1.137-.458 1.852-.458.684 0 1.28.153 1.791.458.515.305.914.748 1.196 1.326.288.575.431 1.27.431 2.085zm-5.701 0c0 .602.08 1.124.24 1.566.159.442.405.784.737 1.025.333.242.762.362 1.286.362.52 0 .945-.12 1.278-.362.337-.242.586-.583.745-1.025.16-.442.239-.964.239-1.566 0-.597-.079-1.112-.239-1.545-.159-.437-.406-.774-.738-1.011-.333-.237-.764-.356-1.292-.356-.78 0-1.351.258-1.716.773-.36.515-.54 1.228-.54 2.14zm8.743-3.732v4.71a17.468 17.468 0 01-.027.813 46.6 46.6 0 01-.028.465 5.602 5.602 0 01-.02.362l4.088-6.35h1.394V66h-1.059v-4.594a28.396 28.396 0 01.027-1.23l.021-.52L104.94 66h-1.401v-7.492h1.08zm10.821 7.629c-.674 0-1.269-.14-1.784-.417-.515-.278-.916-.702-1.203-1.272-.287-.57-.431-1.287-.431-2.153 0-.907.151-1.648.452-2.222.305-.578.724-1.007 1.257-1.285.534-.278 1.14-.417 1.819-.417.374 0 .734.039 1.08.116.351.073.638.167.861.28l-.342.95a5.818 5.818 0 00-.793-.245 3.496 3.496 0 00-.834-.11c-.519 0-.952.112-1.298.335-.342.224-.6.552-.773.985-.168.433-.253.966-.253 1.6 0 .605.082 1.123.246 1.551.169.428.417.757.745.984.333.224.748.335 1.245.335.396 0 .754-.04 1.073-.123.319-.086.608-.187.868-.3v1.011a3.522 3.522 0 01-.841.294c-.305.069-.67.103-1.094.103zm8.081-7.63h1.25l-3.233 3.617L125.031 66h-1.333l-3.404-3.8V66h-1.142v-7.492h1.142v3.636l3.227-3.636zm9.303-.122c.893 0 1.557.2 1.989.601.433.401.65 1.042.65 1.921V66h-.827l-.219-1.107h-.055a4.125 4.125 0 01-.656.69 2.439 2.439 0 01-.793.417c-.296.091-.661.137-1.094.137a2.94 2.94 0 01-1.216-.24 1.894 1.894 0 01-.834-.724c-.201-.324-.301-.734-.301-1.23 0-.748.296-1.322.888-1.723.593-.401 1.495-.62 2.707-.657l1.292-.054v-.458c0-.647-.139-1.1-.417-1.36-.278-.26-.669-.39-1.175-.39-.392 0-.766.057-1.121.17a7.648 7.648 0 00-1.012.404l-.349-.861a6.255 6.255 0 011.162-.445 5.083 5.083 0 011.381-.184zm1.518 3.924l-1.142.047c-.934.037-1.593.19-1.975.459-.383.268-.575.649-.575 1.141 0 .428.13.745.39.95.26.205.604.308 1.032.308.666 0 1.21-.185 1.634-.554.424-.369.636-.923.636-1.661v-.69zm9.413-1.921c0 .47-.137.836-.41 1.1-.274.26-.627.435-1.06.527v.054c.47.064.873.233 1.21.506.342.27.513.681.513 1.237 0 .429-.103.807-.308 1.135-.205.328-.526.586-.964.773-.437.187-1.007.28-1.709.28h-3.226v-7.492H141c.538 0 1.012.061 1.422.184.415.119.74.315.977.588.237.274.356.643.356 1.108zm-.93 3.425c0-.443-.168-.762-.506-.958-.332-.195-.818-.293-1.456-.293h-1.921v2.515h1.949c.629 0 1.107-.096 1.435-.287.333-.196.499-.522.499-.978zm-.225-3.295c0-.356-.13-.62-.39-.793-.26-.178-.686-.267-1.278-.267h-1.99v2.153h1.791c.616 0 1.08-.088 1.395-.266.314-.178.472-.454.472-.827zm8.346-1.046h-2.467V66h-1.122v-6.528h-2.433v-.964h6.022v.964zm7.944 2.768c0 .615-.08 1.165-.24 1.648-.159.483-.389.89-.69 1.223a3.005 3.005 0 01-1.094.766c-.424.173-.904.26-1.442.26-.501 0-.962-.087-1.381-.26a3.11 3.11 0 01-1.08-.766 3.523 3.523 0 01-.704-1.223c-.164-.483-.246-1.032-.246-1.648 0-.82.139-1.517.417-2.092.278-.578.674-1.018 1.189-1.319.52-.305 1.137-.458 1.853-.458.683 0 1.28.153 1.791.458.515.305.913.748 1.196 1.326.287.575.431 1.27.431 2.085zm-5.702 0c0 .602.08 1.124.24 1.566.159.442.405.784.738 1.025.333.242.761.362 1.285.362.52 0 .946-.12 1.278-.362.338-.242.586-.583.746-1.025.159-.442.239-.964.239-1.566 0-.597-.08-1.112-.239-1.545-.16-.437-.406-.774-.739-1.011-.332-.237-.763-.356-1.292-.356-.779 0-1.351.258-1.715.773-.361.515-.541 1.228-.541 2.14zm9.591-3.869c.561 0 1.046.078 1.456.232.411.15.727.372.951.664.223.291.335.647.335 1.066 0 .451-.124.811-.37 1.08s-.585.463-1.018.581v.055c.305.082.581.2.827.355.251.15.449.351.595.602.15.246.225.554.225.923 0 .419-.114.797-.342 1.135-.227.332-.574.594-1.039.786-.464.191-1.052.287-1.763.287-.351 0-.684-.02-.998-.062a5.367 5.367 0 01-.855-.164 3.569 3.569 0 01-.67-.26V64.62c.319.155.693.292 1.121.41.429.119.891.178 1.388.178a3.78 3.78 0 001.032-.13 1.55 1.55 0 00.725-.43c.182-.201.273-.463.273-.787 0-.296-.079-.54-.239-.731-.159-.196-.399-.34-.718-.43-.314-.096-.713-.144-1.196-.144h-1.005v-.93h.827c.643 0 1.156-.091 1.538-.273.383-.183.575-.49.575-.923 0-.374-.149-.652-.445-.834-.296-.187-.72-.28-1.271-.28-.41 0-.773.043-1.087.13a7.42 7.42 0 00-1.019.355l-.403-.91a5.957 5.957 0 011.23-.389c.429-.087.875-.13 1.34-.13zm7.643.014c.893 0 1.556.2 1.989.601.433.401.65 1.042.65 1.921V66h-.828l-.218-1.107h-.055c-.21.273-.428.503-.656.69a2.439 2.439 0 01-.793.417c-.296.091-.661.137-1.094.137-.456 0-.861-.08-1.217-.24a1.894 1.894 0 01-.834-.724c-.2-.324-.301-.734-.301-1.23 0-.748.297-1.322.889-1.723.593-.401 1.495-.62 2.707-.657l1.292-.054v-.458c0-.647-.139-1.1-.417-1.36-.278-.26-.67-.39-1.176-.39a3.65 3.65 0 00-1.121.17 7.689 7.689 0 00-1.011.404l-.349-.861a6.255 6.255 0 011.162-.445 5.083 5.083 0 011.381-.184zm1.517 3.924l-1.141.047c-.934.037-1.593.19-1.976.459-.383.268-.574.649-.574 1.141 0 .428.13.745.39.95.259.205.604.308 1.032.308.665 0 1.21-.185 1.634-.554.424-.369.635-.923.635-1.661v-.69zm9.735-3.801V66h-1.142v-6.515h-3.992V66h-1.142v-7.492h6.276zm3.397 0V61.2c0 .47.128.816.383 1.04.26.223.636.334 1.128.334a3.64 3.64 0 001.292-.219 6.507 6.507 0 001.176-.594v-3.254h1.135V66h-1.135v-3.356c-.419.268-.832.48-1.238.635-.405.155-.89.233-1.456.233-.77 0-1.367-.2-1.791-.602-.419-.4-.628-.943-.628-1.627v-2.775h1.134zm10.316-.123c.893 0 1.556.2 1.989.601.433.401.649 1.042.649 1.921V66h-.827l-.219-1.107h-.054c-.21.273-.429.503-.656.69a2.449 2.449 0 01-.793.417c-.297.091-.661.137-1.094.137-.456 0-.861-.08-1.217-.24a1.894 1.894 0 01-.834-.724c-.2-.324-.301-.734-.301-1.23 0-.748.296-1.322.889-1.723.592-.401 1.495-.62 2.707-.657l1.292-.054v-.458c0-.647-.139-1.1-.417-1.36-.278-.26-.67-.39-1.176-.39a3.65 3.65 0 00-1.121.17 7.703 7.703 0 00-1.012.404l-.348-.861a6.228 6.228 0 011.162-.445 5.078 5.078 0 011.381-.184zm1.517 3.924l-1.141.047c-.935.037-1.593.19-1.976.459-.383.268-.574.649-.574 1.141 0 .428.13.745.39.95.259.205.603.308 1.032.308.665 0 1.21-.185 1.634-.554.423-.369.635-.923.635-1.661v-.69zm6.46 3.828c-.674 0-1.269-.14-1.784-.417-.515-.278-.916-.702-1.203-1.272-.287-.57-.431-1.287-.431-2.153 0-.907.151-1.648.451-2.222.306-.578.725-1.007 1.258-1.285s1.14-.417 1.819-.417c.373 0 .733.039 1.08.116.351.073.638.167.861.28l-.342.95a5.863 5.863 0 00-.793-.245 3.496 3.496 0 00-.834-.11c-.519 0-.952.112-1.299.335-.341.224-.599.552-.772.985-.169.433-.253.966-.253 1.6 0 .605.082 1.123.246 1.551.169.428.417.757.745.984.333.224.748.335 1.244.335a4.32 4.32 0 001.074-.123c.319-.086.608-.187.868-.3v1.011a3.522 3.522 0 01-.841.294c-.305.069-.67.103-1.094.103zm8.819-6.665h-2.468V66h-1.121v-6.528h-2.434v-.964h6.023v.964zm4.368-1.1c.638 0 1.185.14 1.64.423.456.282.805.679 1.046 1.19.242.505.363 1.098.363 1.777v.704h-5.175c.013.88.232 1.55.656 2.01.424.46 1.021.69 1.791.69.474 0 .893-.043 1.258-.13a6.962 6.962 0 001.135-.383v.998a5.556 5.556 0 01-1.128.37 6.469 6.469 0 01-1.313.116c-.72 0-1.349-.146-1.886-.438a3.061 3.061 0 01-1.245-1.299c-.296-.57-.444-1.267-.444-2.091 0-.807.134-1.504.403-2.092.274-.593.657-1.048 1.149-1.367.497-.32 1.08-.479 1.75-.479zm-.014.929c-.606 0-1.089.198-1.449.594-.36.397-.574.95-.643 1.662h3.965a3.185 3.185 0 00-.212-1.176 1.652 1.652 0 00-.608-.793c-.274-.191-.625-.287-1.053-.287zm6.07-.793v4.71a13.509 13.509 0 01-.027.813l-.027.465a6.303 6.303 0 01-.021.362l4.088-6.35h1.395V66h-1.06v-4.594a28.396 28.396 0 01.027-1.23l.021-.52L222.929 66h-1.402v-7.492h1.08zm4.847-3.083c-.041.46-.157.845-.349 1.155-.186.31-.462.545-.827.704-.364.155-.831.233-1.401.233-.588 0-1.062-.076-1.422-.226a1.615 1.615 0 01-.793-.697c-.169-.31-.269-.7-.301-1.17h1.067c.05.502.184.844.403 1.026.219.182.574.274 1.066.274.438 0 .782-.096 1.033-.287.25-.192.401-.53.451-1.012h1.073zm12.565 4.963c0 .47-.137.836-.411 1.1-.273.26-.626.435-1.059.527v.054c.469.064.873.233 1.21.506.342.27.512.681.512 1.237 0 .429-.102.807-.307 1.135-.205.328-.526.586-.964.773-.438.187-1.007.28-1.709.28h-3.227v-7.492h3.2c.537 0 1.011.061 1.422.184.414.119.74.315.977.588.237.274.356.643.356 1.108zm-.93 3.425c0-.443-.169-.762-.506-.958-.333-.195-.818-.293-1.456-.293h-1.921v2.515h1.948c.629 0 1.108-.096 1.436-.287.333-.196.499-.522.499-.978zm-.226-3.295c0-.356-.13-.62-.389-.793-.26-.178-.686-.267-1.279-.267h-1.989v2.153h1.791c.615 0 1.08-.088 1.395-.266.314-.178.471-.454.471-.827zm6.488.984c0-1.067.102-1.976.307-2.728.205-.756.522-1.362.95-1.818.433-.46.989-.775 1.668-.943.584-.16 1.176-.296 1.778-.41a40.667 40.667 0 011.757-.308l.198.998c-.287.041-.588.089-.903.144-.314.05-.628.104-.943.164-.314.054-.611.114-.889.177-.278.06-.524.121-.738.185a2.382 2.382 0 00-1.005.547c-.278.26-.499.617-.663 1.073-.159.456-.255 1.03-.287 1.723h.082a3.056 3.056 0 011.408-1.08 2.944 2.944 0 011.108-.199c.647 0 1.187.142 1.62.424.433.278.759.67.977 1.176.219.506.328 1.098.328 1.777 0 .816-.141 1.502-.423 2.058-.278.556-.67.975-1.176 1.258-.506.278-1.101.417-1.784.417a3.192 3.192 0 01-1.422-.308 2.907 2.907 0 01-1.06-.902c-.287-.397-.508-.882-.663-1.456-.15-.574-.225-1.23-.225-1.969zm3.459 3.691c.433 0 .804-.09 1.114-.273.314-.182.556-.47.724-.861.174-.397.26-.912.26-1.545 0-.793-.152-1.413-.458-1.86-.301-.45-.784-.677-1.449-.677a2.38 2.38 0 00-1.128.267c-.337.173-.622.38-.854.622a3.195 3.195 0 00-.506.65c0 .465.034.916.102 1.353.069.438.187.832.356 1.183.168.35.401.629.697.834.301.205.681.307 1.142.307zm8.059-6.808c.893 0 1.556.2 1.989.601.433.401.65 1.042.65 1.921V66h-.827l-.219-1.107h-.055a4.125 4.125 0 01-.656.69 2.439 2.439 0 01-.793.417c-.296.091-.661.137-1.094.137-.455 0-.861-.08-1.217-.24a1.905 1.905 0 01-.834-.724c-.2-.324-.3-.734-.3-1.23 0-.748.296-1.322.888-1.723.593-.401 1.495-.62 2.707-.657l1.292-.054v-.458c0-.647-.139-1.1-.417-1.36-.278-.26-.67-.39-1.175-.39-.392 0-.766.057-1.121.17a7.648 7.648 0 00-1.012.404l-.349-.861a6.255 6.255 0 011.162-.445 5.083 5.083 0 011.381-.184zm1.518 3.924l-1.142.047c-.934.037-1.593.19-1.975.459-.383.268-.575.649-.575 1.141 0 .428.13.745.39.95.26.205.604.308 1.032.308.666 0 1.21-.185 1.634-.554.424-.369.636-.923.636-1.661v-.69zm5.386-3.938c.561 0 1.046.078 1.456.232.411.15.727.372.951.664.223.291.335.647.335 1.066 0 .451-.123.811-.369 1.08-.247.269-.586.463-1.019.581v.055c.305.082.581.2.827.355.251.15.449.351.595.602.15.246.225.554.225.923 0 .419-.114.797-.341 1.135-.228.332-.575.594-1.039.786-.465.191-1.053.287-1.764.287-.351 0-.684-.02-.998-.062a5.389 5.389 0 01-.855-.164 3.569 3.569 0 01-.67-.26V64.62c.319.155.693.292 1.122.41.428.119.89.178 1.387.178a3.78 3.78 0 001.032-.13 1.55 1.55 0 00.725-.43c.182-.201.273-.463.273-.787 0-.296-.079-.54-.239-.731-.159-.196-.399-.34-.718-.43-.314-.096-.713-.144-1.196-.144h-1.005v-.93h.827c.643 0 1.156-.091 1.539-.273.382-.183.574-.49.574-.923 0-.374-.148-.652-.445-.834-.296-.187-.72-.28-1.271-.28-.41 0-.773.043-1.087.13-.314.081-.654.2-1.019.355l-.403-.91a5.946 5.946 0 011.231-.389c.428-.087.875-.13 1.339-.13zm7.725 0c.638 0 1.185.141 1.641.424.455.282.804.679 1.046 1.19.241.505.362 1.098.362 1.777v.704h-5.175c.014.88.232 1.55.656 2.01.424.46 1.021.69 1.791.69a5.47 5.47 0 001.258-.13 6.93 6.93 0 001.135-.383v.998a5.516 5.516 0 01-1.128.37 6.469 6.469 0 01-1.313.116c-.72 0-1.348-.146-1.886-.438a3.059 3.059 0 01-1.244-1.299c-.297-.57-.445-1.267-.445-2.091 0-.807.135-1.504.404-2.092.273-.593.656-1.048 1.148-1.367.497-.32 1.08-.479 1.75-.479zm-.014.93c-.606 0-1.089.198-1.449.594-.36.397-.574.95-.642 1.662h3.964a3.206 3.206 0 00-.211-1.176 1.653 1.653 0 00-.609-.793c-.273-.191-.624-.287-1.053-.287zM145.621 77.508V85h-1.142v-6.515h-3.992V85h-1.141v-7.492h6.275zm8.866 3.732c0 .616-.079 1.165-.239 1.648-.159.483-.39.89-.69 1.223a3.013 3.013 0 01-1.094.766 3.79 3.79 0 01-1.443.26 3.58 3.58 0 01-1.38-.26 3.11 3.11 0 01-1.08-.766 3.54 3.54 0 01-.705-1.223c-.164-.483-.246-1.032-.246-1.648 0-.82.139-1.517.417-2.092.278-.578.675-1.018 1.19-1.319.519-.305 1.137-.458 1.852-.458.684 0 1.281.153 1.791.458.515.305.914.748 1.197 1.326.287.575.43 1.27.43 2.085zm-5.701 0c0 .602.08 1.124.239 1.566.16.442.406.784.739 1.025.332.242.761.362 1.285.362.519 0 .945-.12 1.278-.362.337-.242.586-.583.745-1.025.16-.442.24-.964.24-1.566 0-.597-.08-1.112-.24-1.545-.159-.437-.405-.774-.738-1.011-.333-.237-.763-.356-1.292-.356-.779 0-1.351.258-1.716.773-.36.515-.54 1.228-.54 2.14zm10.664 3.897c-.674 0-1.269-.14-1.784-.417-.515-.278-.916-.702-1.203-1.272-.287-.57-.431-1.287-.431-2.153 0-.907.151-1.648.451-2.222.306-.578.725-1.007 1.258-1.285s1.14-.417 1.819-.417c.373 0 .733.039 1.08.116.351.073.638.167.861.28l-.342.95a5.863 5.863 0 00-.793-.245 3.496 3.496 0 00-.834-.11c-.519 0-.952.112-1.299.335-.341.224-.599.552-.772.985-.169.433-.253.966-.253 1.6 0 .605.082 1.123.246 1.551.169.428.417.757.745.984.333.224.748.335 1.244.335a4.32 4.32 0 001.074-.123c.319-.086.608-.187.868-.3v1.011a3.522 3.522 0 01-.841.294c-.305.069-.67.103-1.094.103zm8.819-6.665h-2.468V85h-1.121v-6.528h-2.434v-.964h6.023v.964zm4.286-1.087c.893 0 1.556.2 1.989.601.433.401.649 1.042.649 1.921V85h-.827l-.219-1.107h-.054c-.21.273-.429.503-.656.69a2.449 2.449 0 01-.793.417c-.297.091-.661.137-1.094.137-.456 0-.862-.08-1.217-.24a1.894 1.894 0 01-.834-.724c-.2-.324-.301-.734-.301-1.23 0-.748.296-1.322.889-1.723.592-.401 1.495-.62 2.707-.656l1.292-.055v-.458c0-.647-.139-1.1-.417-1.36-.278-.26-.67-.39-1.176-.39a3.65 3.65 0 00-1.121.17 7.703 7.703 0 00-1.012.404l-.348-.861a6.228 6.228 0 011.162-.445 5.078 5.078 0 011.381-.184zm1.517 3.924l-1.141.047c-.935.037-1.593.19-1.976.459-.383.268-.574.649-.574 1.141 0 .428.13.745.39.95.259.205.603.308 1.032.308.665 0 1.21-.185 1.634-.554.423-.369.635-.923.635-1.661v-.69zm9.413-1.921c0 .47-.136.836-.41 1.1-.273.26-.626.436-1.059.527v.054c.469.064.872.233 1.21.506.341.27.512.681.512 1.237 0 .429-.102.807-.307 1.135-.205.328-.527.586-.964.773-.438.187-1.007.28-1.709.28h-3.227v-7.492h3.199c.538 0 1.012.061 1.422.184.415.119.741.315.978.588.237.274.355.643.355 1.108zm-.929 3.424c0-.442-.169-.76-.506-.956-.333-.197-.818-.294-1.456-.294h-1.921v2.515h1.948c.629 0 1.108-.096 1.436-.287.332-.196.499-.522.499-.978zm-.226-3.294c0-.356-.13-.62-.39-.793-.259-.178-.685-.267-1.278-.267h-1.989v2.153h1.791c.615 0 1.08-.089 1.394-.266.315-.178.472-.454.472-.827zm13.282-2.01v6.542h1.074v3.527h-1.142V85h-9.974v-7.492h1.135v6.528h3.316v-6.528h1.141v6.528h3.322v-6.528h1.128zm3.603 0v4.71a23.274 23.274 0 01-.027.813l-.028.465a5.602 5.602 0 01-.02.362l4.088-6.35h1.394V85h-1.06v-4.594a34.787 34.787 0 01.028-1.23l.02-.52L199.536 85h-1.401v-7.492h1.08zm12.188 0h1.251l-3.233 3.616L212.914 85h-1.333l-3.404-3.8V85h-1.142v-7.492h1.142v3.636l3.226-3.636zm5.667-.123c.894 0 1.557.2 1.99.601.433.401.649 1.042.649 1.921V85h-.827l-.219-1.107h-.055a4.125 4.125 0 01-.656.69 2.439 2.439 0 01-.793.417c-.296.091-.661.137-1.094.137a2.94 2.94 0 01-1.216-.24 1.894 1.894 0 01-.834-.724c-.201-.324-.301-.734-.301-1.23 0-.748.296-1.322.889-1.723.592-.401 1.494-.62 2.707-.656l1.292-.055v-.458c0-.647-.139-1.1-.417-1.36-.278-.26-.67-.39-1.176-.39-.392 0-.766.057-1.121.17a7.648 7.648 0 00-1.012.404l-.349-.861a6.282 6.282 0 011.162-.445 5.083 5.083 0 011.381-.184zm1.518 3.924l-1.142.047c-.934.037-1.592.19-1.975.459-.383.268-.575.649-.575 1.141 0 .428.13.745.39.95.26.205.604.308 1.032.308.666 0 1.21-.185 1.634-.554.424-.369.636-.923.636-1.661v-.69z" fill="#000"/><defs><filter id="cdfilter0_d_1984_14801" x="0" y="0" width="359" height="133" filterUnits="userSpaceOnUse" color-interpolation-filters="sRGB"><feFlood flood-opacity="0" result="BackgroundImageFix"/><feColorMatrix in="SourceAlpha" values="0 0 0 0 0 0 0 0 0 0 0 0 0 0 0 0 0 0 127 0" result="hardAlpha"/><feMorphology radius="3" in="SourceAlpha" result="effect1_dropShadow_1984_14801"/><feOffset dy="1"/><feGaussianBlur stdDeviation="17.5"/><feComposite in2="hardAlpha" operator="out"/><feColorMatrix values="0 0 0 0 0 0 0 0 0 0 0 0 0 0 0 0 0 0 0.15 0"/><feBlend in2="BackgroundImageFix" result="effect1_dropShadow_1984_14801"/><feBlend in="SourceGraphic" in2="effect1_dropShadow_1984_14801" result="shape"/></filter></defs></svg>