<?xml version="1.0" encoding="utf-8"?><svg width="359" height="133" fill="none" xmlns="http://www.w3.org/2000/svg" viewBox="0 0 359 133"><g filter="url(#cefilter0_d_1984_14806)"><path fill-rule="evenodd" clip-rule="evenodd" d="M189.607 41H317c5.523 0 10 4.477 10 10v39c0 5.523-4.477 10-10 10H42c-5.523 0-10-4.477-10-10V51c0-5.523 4.477-10 10-10h127.606l10.001-10 10 10z" fill="#fff"/></g><path d="M97.339 60.99c0 .77-.098 1.471-.294 2.105a4.582 4.582 0 01-.875 1.627c-.383.45-.86.8-1.429 1.046-.57.246-1.23.369-1.982.369-.775 0-1.452-.123-2.03-.37a3.794 3.794 0 01-1.436-1.052c-.378-.456-.663-1-.855-1.634a7.424 7.424 0 01-.28-2.105c0-1.021.169-1.917.506-2.687a3.92 3.92 0 011.531-1.798c.689-.428 1.55-.642 2.584-.642.99 0 1.82.212 2.495.635.68.424 1.192 1.021 1.538 1.791.351.766.527 1.67.527 2.714zm-7.957 0c0 .847.12 1.58.362 2.2.242.62.61 1.099 1.108 1.436.5.337 1.137.506 1.907.506.775 0 1.408-.169 1.9-.506.497-.337.864-.816 1.1-1.436.238-.62.356-1.353.356-2.2 0-1.29-.27-2.298-.813-3.022-.538-.73-1.379-1.094-2.523-1.094-.774 0-1.412.166-1.914.499-.501.333-.875.807-1.12 1.422-.242.61-.363 1.342-.363 2.194zm15.121-1.518h-2.468V66h-1.121v-6.528h-2.433v-.964h6.022v.964zm7.759-.964V66h-1.142v-6.515h-3.992V66h-1.142v-7.492h6.276zm5.926-.137c.935 0 1.68.321 2.236.964.556.642.834 1.609.834 2.898 0 .853-.128 1.568-.383 2.147-.255.579-.615 1.016-1.08 1.312-.46.297-1.005.445-1.634.445a3.18 3.18 0 01-1.046-.157 2.461 2.461 0 01-.772-.424 2.765 2.765 0 01-.533-.581h-.082l.047.642c.023.25.035.47.035.656v3.077h-1.142V58.508h.936l.151 1.107h.055c.145-.228.323-.435.533-.622a2.27 2.27 0 01.765-.451c.306-.114.666-.17 1.08-.17zm-.198.957c-.519 0-.939.1-1.258.3-.314.201-.544.502-.69.903-.146.397-.223.896-.232 1.497v.22c0 .633.068 1.168.205 1.605.141.438.371.77.69.999.324.227.757.341 1.299.341.465 0 .852-.125 1.162-.376.31-.25.54-.599.69-1.045.155-.452.233-.969.233-1.552 0-.884-.173-1.586-.52-2.106-.341-.524-.868-.786-1.579-.786zm8.053-.943c.893 0 1.556.2 1.989.601.433.401.65 1.042.65 1.921V66h-.828l-.218-1.107h-.055c-.21.273-.428.503-.656.69a2.439 2.439 0 01-.793.417c-.296.091-.661.137-1.094.137-.456 0-.861-.08-1.217-.24a1.894 1.894 0 01-.834-.724c-.2-.324-.3-.734-.3-1.23 0-.748.296-1.322.888-1.723.593-.401 1.495-.62 2.707-.657l1.292-.054v-.458c0-.647-.139-1.1-.417-1.36-.278-.26-.67-.39-1.176-.39-.391 0-.765.057-1.121.17a7.689 7.689 0 00-1.011.404l-.349-.861a6.255 6.255 0 011.162-.445 5.083 5.083 0 011.381-.184zm1.518 3.924l-1.142.047c-.934.037-1.593.19-1.976.459-.382.268-.574.649-.574 1.141 0 .428.13.745.39.95.26.205.604.308 1.032.308.665 0 1.21-.185 1.634-.554.424-.369.636-.923.636-1.661v-.69zm9.413-1.921c0 .47-.137.836-.411 1.1-.273.26-.626.435-1.059.527v.054c.469.064.873.233 1.21.506.342.27.513.681.513 1.237 0 .429-.103.807-.308 1.135-.205.328-.526.586-.964.773-.437.187-1.007.28-1.709.28h-3.226v-7.492h3.199c.538 0 1.011.061 1.422.184.414.119.74.315.977.588.237.274.356.643.356 1.108zm-.93 3.425c0-.443-.169-.762-.506-.958-.333-.195-.818-.293-1.456-.293h-1.921v2.515h1.948c.629 0 1.108-.096 1.436-.287.333-.196.499-.522.499-.978zm-.226-3.295c0-.356-.13-.62-.389-.793-.26-.178-.686-.267-1.279-.267h-1.989v2.153h1.791c.615 0 1.08-.088 1.395-.266.314-.178.471-.454.471-.827zm7.609-2.01h1.251l-3.234 3.616L144.938 66h-1.334l-3.404-3.8V66h-1.141v-7.492h1.141v3.636l3.227-3.636zm5.667-.123c.893 0 1.556.2 1.989.601.433.401.649 1.042.649 1.921V66h-.827l-.218-1.107h-.055c-.21.273-.429.503-.656.69a2.449 2.449 0 01-.793.417c-.297.091-.661.137-1.094.137-.456 0-.861-.08-1.217-.24a1.894 1.894 0 01-.834-.724c-.2-.324-.301-.734-.301-1.23 0-.748.297-1.322.889-1.723.592-.401 1.495-.62 2.707-.657l1.292-.054v-.458c0-.647-.139-1.1-.417-1.36-.278-.26-.67-.39-1.176-.39a3.65 3.65 0 00-1.121.17 7.703 7.703 0 00-1.012.404l-.348-.861a6.228 6.228 0 011.162-.445 5.078 5.078 0 011.381-.184zm1.517 3.924l-1.141.047c-.935.037-1.593.19-1.976.459-.383.268-.574.649-.574 1.141 0 .428.13.745.39.95.259.205.603.308 1.032.308.665 0 1.21-.185 1.634-.554.423-.369.635-.923.635-1.661v-.69zm9.024-3.938c.56 0 1.046.078 1.456.232.41.15.727.372.95.664.223.291.335.647.335 1.066 0 .451-.123.811-.369 1.08s-.586.463-1.019.581v.055c.306.082.581.2.827.355.251.15.449.351.595.602.151.246.226.554.226.923 0 .419-.114.797-.342 1.135-.228.332-.574.594-1.039.786-.465.191-1.053.287-1.764.287-.351 0-.683-.02-.998-.062a5.376 5.376 0 01-.854-.164 3.516 3.516 0 01-.67-.26V64.62c.319.155.692.292 1.121.41.428.119.891.178 1.388.178a3.79 3.79 0 001.032-.13c.305-.091.547-.235.724-.43.183-.201.274-.463.274-.787 0-.296-.08-.54-.239-.731-.16-.196-.399-.34-.718-.43-.315-.096-.713-.144-1.197-.144h-1.004v-.93h.827c.642 0 1.155-.091 1.538-.273.383-.183.574-.49.574-.923 0-.374-.148-.652-.444-.834-.296-.187-.72-.28-1.272-.28-.41 0-.772.043-1.087.13a7.41 7.41 0 00-1.018.355l-.404-.91a5.966 5.966 0 011.231-.389c.428-.087.875-.13 1.34-.13zm7.642.014c.894 0 1.557.2 1.99.601.433.401.649 1.042.649 1.921V66h-.827l-.219-1.107h-.055a4.125 4.125 0 01-.656.69 2.439 2.439 0 01-.793.417c-.296.091-.661.137-1.094.137a2.94 2.94 0 01-1.216-.24 1.894 1.894 0 01-.834-.724c-.201-.324-.301-.734-.301-1.23 0-.748.296-1.322.889-1.723.592-.401 1.494-.62 2.707-.657l1.292-.054v-.458c0-.647-.139-1.1-.417-1.36-.278-.26-.67-.39-1.176-.39-.392 0-.766.057-1.121.17a7.648 7.648 0 00-1.012.404l-.349-.861a6.282 6.282 0 011.162-.445 5.083 5.083 0 011.381-.184zm1.518 3.924l-1.142.047c-.934.037-1.592.19-1.975.459-.383.268-.574.649-.574 1.141 0 .428.129.745.389.95.26.205.604.308 1.032.308.666 0 1.21-.185 1.634-.554.424-.369.636-.923.636-1.661v-.69zm7.827-3.801h1.251l-3.233 3.616L178.133 66H176.8l-3.404-3.8V66h-1.142v-7.492h1.142v3.636l3.226-3.636zm5.667-.123c.893 0 1.556.2 1.989.601.433.401.65 1.042.65 1.921V66h-.827l-.219-1.107h-.055a4.125 4.125 0 01-.656.69 2.439 2.439 0 01-.793.417c-.296.091-.661.137-1.094.137-.456 0-.861-.08-1.217-.24a1.894 1.894 0 01-.834-.724c-.2-.324-.3-.734-.3-1.23 0-.748.296-1.322.888-1.723.593-.401 1.495-.62 2.707-.657l1.292-.054v-.458c0-.647-.139-1.1-.417-1.36-.278-.26-.67-.39-1.175-.39-.392 0-.766.057-1.122.17a7.689 7.689 0 00-1.011.404l-.349-.861a6.255 6.255 0 011.162-.445 5.083 5.083 0 011.381-.184zm1.518 3.924l-1.142.047c-.934.037-1.593.19-1.976.459-.382.268-.574.649-.574 1.141 0 .428.13.745.39.95.26.205.604.308 1.032.308.665 0 1.21-.185 1.634-.554.424-.369.636-.923.636-1.661v-.69zm5.386-3.938c.561 0 1.046.078 1.456.232.411.15.727.372.951.664.223.291.335.647.335 1.066 0 .451-.123.811-.37 1.08-.246.269-.585.463-1.018.581v.055c.305.082.581.2.827.355.251.15.449.351.595.602.15.246.225.554.225.923 0 .419-.114.797-.341 1.135-.228.332-.575.594-1.04.786-.464.191-1.052.287-1.763.287-.351 0-.684-.02-.998-.062a5.367 5.367 0 01-.855-.164 3.569 3.569 0 01-.67-.26V64.62c.319.155.693.292 1.121.41.429.119.891.178 1.388.178a3.78 3.78 0 001.032-.13 1.55 1.55 0 00.725-.43c.182-.201.273-.463.273-.787 0-.296-.079-.54-.239-.731-.159-.196-.399-.34-.718-.43-.314-.096-.713-.144-1.196-.144h-1.005v-.93h.827c.643 0 1.156-.091 1.538-.273.383-.183.575-.49.575-.923 0-.374-.148-.652-.445-.834-.296-.187-.72-.28-1.271-.28-.41 0-.773.043-1.087.13a7.42 7.42 0 00-1.019.355l-.403-.91a5.946 5.946 0 011.231-.389c.428-.087.875-.13 1.339-.13zm7.643.014c.893 0 1.556.2 1.989.601.433.401.65 1.042.65 1.921V66h-.828l-.218-1.107h-.055c-.21.273-.428.503-.656.69a2.439 2.439 0 01-.793.417c-.296.091-.661.137-1.094.137-.456 0-.861-.08-1.217-.24a1.894 1.894 0 01-.834-.724c-.2-.324-.301-.734-.301-1.23 0-.748.297-1.322.889-1.723.593-.401 1.495-.62 2.707-.657l1.292-.054v-.458c0-.647-.139-1.1-.417-1.36-.278-.26-.67-.39-1.176-.39a3.65 3.65 0 00-1.121.17 7.689 7.689 0 00-1.011.404l-.349-.861a6.255 6.255 0 011.162-.445 5.083 5.083 0 011.381-.184zm1.518 3.924l-1.142.047c-.934.037-1.593.19-1.976.459-.382.268-.574.649-.574 1.141 0 .428.13.745.39.95.26.205.604.308 1.032.308.665 0 1.21-.185 1.634-.554.424-.369.636-.923.636-1.661v-.69zm13.049-1.921c0 .47-.136.836-.41 1.1-.273.26-.626.435-1.059.527v.054c.469.064.872.233 1.21.506.341.27.512.681.512 1.237 0 .429-.102.807-.307 1.135-.205.328-.527.586-.964.773-.438.187-1.007.28-1.709.28h-3.227v-7.492h3.199c.538 0 1.012.061 1.422.184.415.119.741.315.978.588.237.274.355.643.355 1.108zm-.929 3.425c0-.443-.169-.762-.506-.958-.333-.195-.818-.293-1.456-.293h-1.921v2.515h1.948c.629 0 1.107-.096 1.436-.287.332-.196.499-.522.499-.978zm-.226-3.295c0-.356-.13-.62-.39-.793-.259-.178-.685-.267-1.278-.267h-1.989v2.153h1.791c.615 0 1.08-.088 1.394-.266.315-.178.472-.454.472-.827zm11.245-2.01h1.251l-3.233 3.616L223.004 66h-1.333l-3.404-3.8V66h-1.142v-7.492h1.142v3.636l3.226-3.636zm9.324 3.732c0 .615-.079 1.165-.239 1.648-.159.483-.39.89-.69 1.223a3.013 3.013 0 01-1.094.766c-.424.173-.905.26-1.442.26-.502 0-.962-.087-1.381-.26a3.11 3.11 0 01-1.08-.766 3.523 3.523 0 01-.704-1.223c-.165-.483-.247-1.032-.247-1.648 0-.82.139-1.517.417-2.092.278-.578.675-1.018 1.19-1.319.519-.305 1.137-.458 1.852-.458.684 0 1.281.153 1.791.458.515.305.914.748 1.197 1.326.287.575.43 1.27.43 2.085zm-5.701 0c0 .602.08 1.124.239 1.566.16.442.406.784.739 1.025.332.242.761.362 1.285.362.519 0 .946-.12 1.278-.362.337-.242.586-.583.745-1.025.16-.442.24-.964.24-1.566 0-.597-.08-1.112-.24-1.545-.159-.437-.405-.774-.738-1.011-.333-.237-.763-.356-1.292-.356-.779 0-1.351.258-1.716.773-.36.515-.54 1.228-.54 2.14zm11.184-3.869c.934 0 1.679.321 2.235.964.556.642.834 1.609.834 2.898 0 .853-.127 1.568-.383 2.147-.255.579-.615 1.016-1.08 1.312-.46.297-1.005.445-1.634.445a3.17 3.17 0 01-1.045-.157 2.467 2.467 0 01-.773-.424 2.765 2.765 0 01-.533-.581h-.082l.048.642c.023.25.034.47.034.656v3.077h-1.142V58.508h.937l.15 1.107h.055c.146-.228.323-.435.533-.622.21-.191.465-.342.766-.451.305-.114.665-.17 1.08-.17zm-.198.957c-.52 0-.939.1-1.258.3-.315.201-.545.502-.691.903-.146.397-.223.896-.232 1.497v.22c0 .633.068 1.168.205 1.605.141.438.371.77.69.999.324.227.757.341 1.299.341.465 0 .852-.125 1.162-.376.31-.25.54-.599.691-1.045.155-.452.232-.969.232-1.552 0-.884-.173-1.586-.519-2.106-.342-.524-.869-.786-1.579-.786zm7.177-.957c.561 0 1.046.078 1.456.232.411.15.727.372.951.664.223.291.335.647.335 1.066 0 .451-.124.811-.37 1.08s-.585.463-1.018.581v.055c.305.082.581.2.827.355.251.15.449.351.595.602.15.246.225.554.225.923 0 .419-.114.797-.342 1.135-.227.332-.574.594-1.039.786-.464.191-1.052.287-1.763.287-.351 0-.684-.02-.998-.062a5.367 5.367 0 01-.855-.164 3.569 3.569 0 01-.67-.26V64.62c.319.155.693.292 1.121.41.429.119.891.178 1.388.178a3.78 3.78 0 001.032-.13 1.55 1.55 0 00.725-.43c.182-.201.273-.463.273-.787 0-.296-.079-.54-.239-.731-.159-.196-.399-.34-.718-.43-.314-.096-.713-.144-1.196-.144h-1.005v-.93h.827c.643 0 1.156-.091 1.538-.273.383-.183.575-.49.575-.923 0-.374-.149-.652-.445-.834-.296-.187-.72-.28-1.271-.28-.41 0-.773.043-1.087.13a7.42 7.42 0 00-1.019.355l-.403-.91a5.957 5.957 0 011.23-.389c.429-.087.875-.13 1.34-.13zm5.92.137v4.71a17.468 17.468 0 01-.027.813l-.027.465a6.303 6.303 0 01-.021.362l4.088-6.35h1.394V66h-1.059v-4.594a28.396 28.396 0 01.027-1.23l.021-.52L249.521 66h-1.402v-7.492h1.08zm8.962 0v3.144h4.177v-3.144h1.135V66h-1.135v-3.384h-4.177V66h-1.141v-7.492h1.141zm6.535 0h1.217l1.654 4.347c.096.256.185.502.267.739.082.232.155.455.219.67.064.214.114.421.15.622h.048a41.096 41.096 0 01.656-2.037l1.566-4.341h1.223l-3.26 8.593c-.174.46-.376.86-.609 1.203a2.403 2.403 0 01-.834.786c-.328.187-.724.28-1.189.28-.214 0-.404-.014-.568-.04a3.54 3.54 0 01-.424-.083v-.91a4.005 4.005 0 00.814.09c.283 0 .526-.055.731-.164.21-.105.39-.26.54-.465.151-.205.281-.449.39-.732l.41-1.052-3.001-7.506zm-119.075 19V85h-1.142v-6.515h-3.992V85h-1.141v-7.492h6.275zm8.866 3.732c0 .616-.079 1.165-.239 1.648-.159.483-.39.89-.69 1.223a3.013 3.013 0 01-1.094.766 3.79 3.79 0 01-1.443.26 3.58 3.58 0 01-1.38-.26 3.11 3.11 0 01-1.08-.766 3.54 3.54 0 01-.705-1.223c-.164-.483-.246-1.032-.246-1.648 0-.82.139-1.517.417-2.092.278-.578.675-1.018 1.19-1.319.519-.305 1.137-.458 1.852-.458.684 0 1.281.153 1.791.458.515.305.914.748 1.197 1.326.287.575.43 1.27.43 2.085zm-5.701 0c0 .602.08 1.124.239 1.566.16.442.406.784.739 1.025.332.242.761.362 1.285.362.519 0 .945-.12 1.278-.362.337-.242.586-.583.745-1.025.16-.442.24-.964.24-1.566 0-.597-.08-1.112-.24-1.545-.159-.437-.405-.774-.738-1.011-.333-.237-.763-.356-1.292-.356-.779 0-1.351.258-1.716.773-.36.515-.54 1.228-.54 2.14zm10.664 3.897c-.674 0-1.269-.14-1.784-.417-.515-.278-.916-.702-1.203-1.272-.287-.57-.431-1.287-.431-2.153 0-.907.151-1.648.451-2.222.306-.578.725-1.007 1.258-1.285s1.14-.417 1.819-.417c.373 0 .733.039 1.08.116.351.073.638.167.861.28l-.342.95a5.863 5.863 0 00-.793-.245 3.496 3.496 0 00-.834-.11c-.519 0-.952.112-1.299.335-.341.224-.599.552-.772.985-.169.433-.253.966-.253 1.6 0 .605.082 1.123.246 1.551.169.428.417.757.745.984.333.224.748.335 1.244.335a4.32 4.32 0 001.074-.123c.319-.086.608-.187.868-.3v1.011a3.522 3.522 0 01-.841.294c-.305.069-.67.103-1.094.103zm8.819-6.665h-2.468V85h-1.121v-6.528h-2.434v-.964h6.023v.964zm4.286-1.087c.893 0 1.556.2 1.989.601.433.401.649 1.042.649 1.921V85h-.827l-.219-1.107h-.054c-.21.273-.429.503-.656.69a2.449 2.449 0 01-.793.417c-.297.091-.661.137-1.094.137-.456 0-.862-.08-1.217-.24a1.894 1.894 0 01-.834-.724c-.2-.324-.301-.734-.301-1.23 0-.748.296-1.322.889-1.723.592-.401 1.495-.62 2.707-.656l1.292-.055v-.458c0-.647-.139-1.1-.417-1.36-.278-.26-.67-.39-1.176-.39a3.65 3.65 0 00-1.121.17 7.703 7.703 0 00-1.012.404l-.348-.861a6.228 6.228 0 011.162-.445 5.078 5.078 0 011.381-.184zm1.517 3.924l-1.141.047c-.935.037-1.593.19-1.976.459-.383.268-.574.649-.574 1.141 0 .428.13.745.39.95.259.205.603.308 1.032.308.665 0 1.21-.185 1.634-.554.423-.369.635-.923.635-1.661v-.69zm9.413-1.921c0 .47-.136.836-.41 1.1-.273.26-.626.436-1.059.527v.054c.469.064.872.233 1.21.506.341.27.512.681.512 1.237 0 .429-.102.807-.307 1.135-.205.328-.527.586-.964.773-.438.187-1.007.28-1.709.28h-3.227v-7.492h3.199c.538 0 1.012.061 1.422.184.415.119.741.315.978.588.237.274.355.643.355 1.108zm-.929 3.424c0-.442-.169-.76-.506-.956-.333-.197-.818-.294-1.456-.294h-1.921v2.515h1.948c.629 0 1.108-.096 1.436-.287.332-.196.499-.522.499-.978zm-.226-3.294c0-.356-.13-.62-.39-.793-.259-.178-.685-.267-1.278-.267h-1.989v2.153h1.791c.615 0 1.08-.089 1.394-.266.315-.178.472-.454.472-.827zm13.282-2.01v6.542h1.074v3.527h-1.142V85h-9.974v-7.492h1.135v6.528h3.316v-6.528h1.141v6.528h3.322v-6.528h1.128zm3.603 0v4.71a23.274 23.274 0 01-.027.813l-.028.465a5.602 5.602 0 01-.02.362l4.088-6.35h1.394V85h-1.06v-4.594a34.787 34.787 0 01.028-1.23l.02-.52L199.536 85h-1.401v-7.492h1.08zm12.188 0h1.251l-3.233 3.616L212.914 85h-1.333l-3.404-3.8V85h-1.142v-7.492h1.142v3.636l3.226-3.636zm5.667-.123c.894 0 1.557.2 1.99.601.433.401.649 1.042.649 1.921V85h-.827l-.219-1.107h-.055a4.125 4.125 0 01-.656.69 2.439 2.439 0 01-.793.417c-.296.091-.661.137-1.094.137a2.94 2.94 0 01-1.216-.24 1.894 1.894 0 01-.834-.724c-.201-.324-.301-.734-.301-1.23 0-.748.296-1.322.889-1.723.592-.401 1.494-.62 2.707-.656l1.292-.055v-.458c0-.647-.139-1.1-.417-1.36-.278-.26-.67-.39-1.176-.39-.392 0-.766.057-1.121.17a7.648 7.648 0 00-1.012.404l-.349-.861a6.282 6.282 0 011.162-.445 5.083 5.083 0 011.381-.184zm1.518 3.924l-1.142.047c-.934.037-1.592.19-1.975.459-.383.268-.575.649-.575 1.141 0 .428.13.745.39.95.26.205.604.308 1.032.308.666 0 1.21-.185 1.634-.554.424-.369.636-.923.636-1.661v-.69z" fill="#000"/><defs><filter id="cefilter0_d_1984_14806" x="0" y="0" width="359" height="133" filterUnits="userSpaceOnUse" color-interpolation-filters="sRGB"><feFlood flood-opacity="0" result="BackgroundImageFix"/><feColorMatrix in="SourceAlpha" values="0 0 0 0 0 0 0 0 0 0 0 0 0 0 0 0 0 0 127 0" result="hardAlpha"/><feMorphology radius="3" in="SourceAlpha" result="effect1_dropShadow_1984_14806"/><feOffset dy="1"/><feGaussianBlur stdDeviation="17.5"/><feComposite in2="hardAlpha" operator="out"/><feColorMatrix values="0 0 0 0 0 0 0 0 0 0 0 0 0 0 0 0 0 0 0.15 0"/><feBlend in2="BackgroundImageFix" result="effect1_dropShadow_1984_14806"/><feBlend in="SourceGraphic" in2="effect1_dropShadow_1984_14806" result="shape"/></filter></defs></svg>