<?xml version="1.0" encoding="utf-8"?><svg width="16" height="16" fill="none" xmlns="http://www.w3.org/2000/svg" viewBox="0 0 16 16"><path fill-rule="evenodd" clip-rule="evenodd" d="M.545 2.73C0 3.8 0 5.2 0 8c0 2.8 0 4.2.545 5.27a5 5 0 002.185 2.185C3.8 16 5.2 16 8 16c2.8 0 4.2 0 5.27-.545a5 5 0 002.185-2.185C16 12.2 16 10.8 16 8c0-2.8 0-4.2-.545-5.27A5 5 0 0013.27.545C12.2 0 10.8 0 8 0 5.2 0 3.8 0 2.73.545A5 5 0 00.545 2.73zm6.515 6.2h1.777c0-.198.073-.396.219-.594.154-.198.335-.388.54-.57.215-.19.425-.388.631-.594.215-.215.395-.47.541-.768A2.11 2.11 0 0011 5.44c0-.76-.288-1.354-.863-1.783C9.562 3.22 8.888 3 8.116 3c-.704 0-1.335.17-1.893.508A2.982 2.982 0 005 4.918l1.52.843c.3-.735.81-1.102 1.532-1.102.369 0 .656.078.862.235.206.157.31.38.31.669 0 .462-.361.973-1.082 1.535-.292.223-.545.499-.76.83-.215.33-.322.663-.322 1.002zm1.661 2.76a.994.994 0 00.322-.742.994.994 0 00-.322-.743 1.075 1.075 0 00-.772-.31c-.3 0-.558.104-.773.31a.994.994 0 00-.322.743c0 .289.107.536.322.742.215.207.472.31.772.31.3 0 .558-.103.773-.31z" fill="#414141"/></svg>