<svg width="75" height="75" viewBox="0 0 75 75" fill="none" xmlns="http://www.w3.org/2000/svg"><path d="M62.815.005A55442.265 55442.265 0 0012.18.009c-.58 0-1.448.018-2.264.17C3.903 1.291.015 6.012.009 12.204c-.01 13.854-.02 32.124.02 50.568.002 1.292.178 2.585.507 3.735 1.47 5.143 6.003 8.472 11.546 8.483 5.935.012 11.97.01 17.805.007l7.595-.002h7.532c5.928.002 11.856.004 17.783 0 6.909-.01 12.138-5.147 12.16-11.95.057-16.96.057-34.143 0-51.071C74.936 5.152 69.716.009 62.816.005zm8.898 32.16c0 10.193.004 20.386-.002 30.579-.003 4.592-2.806 8.072-7.14 8.864-.672.122-1.341.124-1.932.124-10.197.002-20.399.005-30.598.005H12.337c-4.632 0-8.143-2.806-8.941-7.148-.124-.67-.124-1.342-.124-1.936-.005-10.17-.005-20.34-.005-30.509v-8.348H71.63l.043.891.016.287c.013.21.025.408.025.62v6.573-.002zm-.007-14.553v1.55c0 .186-.038.34-.065.453-.007.029-.016.058-.023.092l-.153.747H3.267v-2.971c0-.605 0-1.207-.004-1.811-.007-1.349-.012-2.743.024-4.121.124-4.543 3.757-8.174 8.274-8.265 2.413-.047 4.864-.04 7.232-.031.942.002 1.883.007 2.827.007h5.604c11.83 0 23.66-.003 35.49 0 4.23 0 7.547 2.384 8.654 6.218.155.537.3 1.119.309 1.735.027 2.133.027 4.299.029 6.394v.003z" fill="#4B8125"/><path d="M12.796 35.465c-.003 8.214-.003 16.431 0 24.646 0 1.484.6 2.089 2.068 2.089 7.396.004 14.792.002 22.189 0 1.497 0 2.056-.564 2.056-2.08.002-2.923 0-5.844 0-8.767V35.39c0-1.536-.516-2.053-2.043-2.055H14.877c-1.556 0-2.081.537-2.081 2.127v.002zm3.355 1.161h19.657v22.245H16.15V36.626zM60.49 56.362c-4.22.003-8.44.005-12.661 0h-.005c-.642 0-1.19.194-1.54.549-.28.282-.426.663-.424 1.1.007.982.765 1.618 1.926 1.618h7.827c1.64 0 3.277.002 4.916 0 .604 0 1.119-.183 1.448-.515.28-.282.426-.674.424-1.132-.007-1-.738-1.617-1.908-1.617h-.002v-.003zm.128-10.244h-8.104c-1.603 0-3.209.004-4.812 0h-.007c-1.073 0-1.829.66-1.836 1.61-.004.44.152.83.447 1.128.331.336.812.519 1.355.521 5.243.007 9.25.007 12.993 0 .528 0 .993-.178 1.306-.498.295-.303.449-.711.44-1.18-.016-.945-.733-1.58-1.784-1.58l.002-.001zM47.891 35.884c-1.044.002-1.754.643-1.768 1.593-.006.446.142.834.427 1.125.322.327.805.51 1.361.514 1.432.01 2.867.007 4.298.005h3.775c1.446 0 2.939.004 4.407-.005 1.037-.006 1.772-.663 1.79-1.599a1.49 1.49 0 00-.428-1.1c-.334-.341-.821-.528-1.374-.53-4.228-.01-8.429-.01-12.486 0l-.002-.003zM12.578 11.89c.002.976.717 1.61 1.818 1.612 1.132.002 2.264 0 3.396 0l1.495-.004h1.492c1.133.002 2.265.004 3.394 0 1.162-.007 1.908-.646 1.904-1.624-.005-.982-.76-1.618-1.924-1.62-2.413-.004-4.828-.007-7.24-.007H14.37c-.55 0-1.03.178-1.35.501-.29.291-.443.686-.44 1.141h-.003zm49.128 1.114c.306-.307.473-.709.473-1.135 0-.426-.176-.832-.494-1.146a1.605 1.605 0 00-1.159-.483 1.63 1.63 0 00-1.152.503 1.61 1.61 0 00-.471 1.155c.013.86.757 1.59 1.623 1.593h.005c.444 0 .861-.172 1.175-.485v-.002zM50.51 10.245c-.88.027-1.602.76-1.605 1.63 0 .43.17.838.478 1.146.314.314.726.488 1.166.488h.002c.431 0 .835-.172 1.137-.479a1.649 1.649 0 00-.043-2.344 1.563 1.563 0 00-1.085-.441h-.049z" fill="#4B8125"/></svg>