<svg width="99" height="55" viewBox="0 0 99 55" fill="none" xmlns="http://www.w3.org/2000/svg"><path fill="#fff" d="M0 0h99v55H0z"/><path d="M25.978 14.294c.16 2.64 2.309 4.611 4.951 4.708 3.632.133 9.695.275 19.016.275 9.322 0 15.385-.142 19.016-.275 2.643-.097 4.792-2.068 4.951-4.708.057-.94.096-1.97.096-3.038a50.62 50.62 0 00-.096-3.038c-.16-2.64-2.308-4.61-4.95-4.707-3.632-.133-9.695-.276-19.017-.276-9.321 0-15.384.143-19.016.276-2.642.096-4.791 2.068-4.95 4.707a50.62 50.62 0 00-.096 3.038c0 1.067.039 2.099.095 3.038zm0 16.041c.16 2.64 2.309 4.612 4.951 4.708 3.632.133 9.695.276 19.016.276 9.322 0 15.385-.143 19.016-.276 2.643-.096 4.792-2.068 4.951-4.708.057-.939.096-1.97.096-3.037s-.039-2.099-.096-3.038c-.16-2.64-2.308-4.611-4.95-4.708-3.632-.133-9.695-.275-19.017-.275-9.321 0-15.384.142-19.016.275-2.642.097-4.791 2.068-4.95 4.708-.057.94-.096 1.97-.096 3.038 0 1.067.039 2.098.095 3.037zm40.009-19.079H43.07m23.2 15.921H43.354m-8.296-15.921h-1.146m1.136 16.042h-1.146m16.053 8.021v6.875m-4.585 4.583h-8.02m25.208 0h-8.02m-4.584 4.583a4.583 4.583 0 100-9.166 4.583 4.583 0 000 9.166z" stroke="#4B8125" stroke-width="3" stroke-linecap="round" stroke-linejoin="round"/></svg>