<svg width="28" height="28" viewBox="0 0 28 28" xmlns="http://www.w3.org/2000/svg"><path d="M14.918 0c.503.071 1.008.13 1.509.215 5.805 1.003 10.437 5.687 11.358 11.493.095.6.137 1.207.205 1.821-.609 0-1.163.015-1.716-.003-1.615-.052-3.228-.129-4.821-.427-1.414-.265-2.754-.71-3.9-1.618-1.313-1.042-2.059-2.434-2.474-4.029-.392-1.51-.52-3.056-.591-4.606-.044-.947-.044-1.897-.063-2.846h.493zm-1.371 0c-.023 1.077-.023 2.154-.077 3.23-.075 1.505-.224 3.003-.635 4.462-.56 1.991-1.675 3.55-3.54 4.515-1.058.547-2.201.823-3.37.995-1.892.28-3.8.33-5.709.352-.053.001-.108-.007-.216-.016.046-.5.07-.999.142-1.49.41-2.842 1.565-5.342 3.502-7.465C5.776 2.248 8.405.793 11.517.221 12.025.128 12.54.073 13.054 0h.493zm14.4 14.408c-.15 7.371-6.3 13.402-13.514 13.527 0-.498-.014-.997.003-1.494.06-1.843.135-3.685.536-5.496.335-1.514.93-2.895 2.057-4.004 1.09-1.073 2.436-1.644 3.902-1.974 1.376-.31 2.777-.424 4.182-.49.802-.038 1.606-.048 2.409-.069.135-.003.271 0 .425 0zM13.551 27.939C6.121 27.776.141 21.56.035 14.424c.508 0 1.016-.014 1.523.003 1.834.061 3.667.137 5.468.537 1.514.335 2.896.93 4.004 2.059 1.071 1.091 1.647 2.434 1.97 3.902.44 1.99.505 4.016.55 6.043.007.317.001.635.001.97z"/></svg>