<svg width="24" height="24" viewBox="0 0 24 24" fill="none" xmlns="http://www.w3.org/2000/svg">
<path d="M6.66751 7.63698C6.56063 8.77698 6.48563 10.7945 7.15876 11.6532C7.15876 11.6532 6.84188 9.43698 9.68251 6.65635C10.8263 5.53698 11.0906 4.01448 10.6913 2.8726C10.4644 2.22573 10.05 1.69135 9.69001 1.31823C9.48001 1.09885 9.64126 0.736978 9.94688 0.750103C11.7956 0.832603 14.7919 1.34635 16.065 4.54135C16.6238 5.94385 16.665 7.39323 16.3988 8.86698C16.23 9.80823 15.63 11.9007 16.9988 12.1576C17.9756 12.3414 18.4481 11.5651 18.66 11.0064C18.7481 10.7739 19.0538 10.7157 19.2188 10.9014C20.8688 12.7782 21.0094 14.9889 20.6681 16.892C20.0081 20.5707 16.2825 23.2482 12.5813 23.2482C7.95751 23.2482 4.27688 20.6026 3.32251 15.8139C2.93813 13.8807 3.13313 10.0557 6.11438 7.35573C6.33563 7.15323 6.69751 7.33323 6.66751 7.63698Z" fill="url(#paint0_radial_301_392)"/>
<path d="M14.2706 14.5162C12.5663 12.3225 13.3294 9.81934 13.7475 8.82184C13.8038 8.69059 13.6538 8.56683 13.5356 8.64746C12.8025 9.14621 11.3006 10.32 10.6013 11.9718C9.65438 14.205 9.72188 15.2981 10.2825 16.6331C10.62 17.4375 10.2281 17.6081 10.0313 17.6381C9.84001 17.6681 9.66376 17.5406 9.52313 17.4075C9.11858 17.0191 8.83029 16.5256 8.69063 15.9825C8.66063 15.8662 8.50876 15.8343 8.43938 15.93C7.91438 16.6556 7.64251 17.82 7.62938 18.6431C7.58813 21.1875 9.69001 23.25 12.2325 23.25C15.4369 23.25 17.7713 19.7062 15.93 16.7437C15.3956 15.8812 14.8931 15.3168 14.2706 14.5162Z" fill="url(#paint1_radial_301_392)"/>
<defs>
<radialGradient id="paint0_radial_301_392" cx="0" cy="0" r="1" gradientUnits="userSpaceOnUse" gradientTransform="translate(11.6655 23.3065) rotate(-179.751) scale(13.2352 21.7163)">
<stop offset="0.314" stop-color="#FF9800"/>
<stop offset="0.662" stop-color="#FF6D00"/>
<stop offset="0.972" stop-color="#F44336"/>
</radialGradient>
<radialGradient id="paint1_radial_301_392" cx="0" cy="0" r="1" gradientUnits="userSpaceOnUse" gradientTransform="translate(12.4087 10.1359) rotate(90.5787) scale(13.8481 10.4217)">
<stop offset="0.214" stop-color="#FFF176"/>
<stop offset="0.328" stop-color="#FFF27D"/>
<stop offset="0.487" stop-color="#FFF48F"/>
<stop offset="0.672" stop-color="#FFF7AD"/>
<stop offset="0.793" stop-color="#FFF9C4"/>
<stop offset="0.822" stop-color="#FFF8BD" stop-opacity="0.804"/>
<stop offset="0.863" stop-color="#FFF6AB" stop-opacity="0.529"/>
<stop offset="0.91" stop-color="#FFF38D" stop-opacity="0.209"/>
<stop offset="0.941" stop-color="#FFF176" stop-opacity="0"/>
</radialGradient>
</defs>
</svg>
