<svg width="68" height="68" viewBox="0 0 68 68" fill="none" xmlns="http://www.w3.org/2000/svg"><path d="M67.79 33.688a3875.2 3875.2 0 00-7.865-20.4c-.632-1.626-2.257-2.333-3.876-1.742-1.307.48-2.603.988-3.89 1.518-1.6.66-2.297 2.26-1.728 3.902.178.514.377 1.02.562 1.517.071.194-1.946 1.103-2.186 1.188-1.078.381-2.138.254-3.187-.16-1.135-.448-2.23-1.02-3.398-1.381-1.256-.39-2.777-.717-4.09-.475-1.312.24-2.548.89-3.835 1.318-.317.105-.708.183-1.014.094-.782-.226-1.485-.65-2.248-.922-2.073-.74-4.117.281-6.144.65-1.097.198-2.162.405-3.282.248-1.412-.197-2.558-1.127-3.887-1.567.245-.569.45-1.026.639-1.49.67-1.646.05-3.292-1.547-4.036a117.626 117.626 0 00-3.753-1.67c-1.631-.693-3.292-.07-4.007 1.55A4573.09 4573.09 0 00.286 31.786c-.713 1.637-.056 3.261 1.564 4.018a108.29 108.29 0 003.753 1.67c1.62.686 3.25.032 4.007-1.57.134-.284.266-.57.42-.899.7.308 1.376.534 1.977.891.355.212.737.584.85.963.499 1.656 1.008 3.348-.35 4.882-.03.033-.037.083-.057.126-1.168 2.537.298 5.408 3.03 5.925.261.05.523.096.821.151-.144 1.69.401 3.068 1.778 4.028 1.373.955 2.85.963 4.339.28 1.294 2.13 3.094 2.819 5.46 2.093.662 1.474 1.775 2.394 3.362 2.613 1.625.225 2.927-.453 4.005-1.725 1.42 1.01 2.913 1.538 4.585.814 1.654-.718 2.427-2.064 2.559-3.875 1.301.153 2.48-.068 3.484-.928 1.018-.874 1.431-2.025 1.46-3.324 3.354-.132 4.58-1.627 4.491-5.423 2.018-.755 3.074-2.186 2.999-4.405-.004-.132.14-.338.267-.395.915-.41 1.844-.789 2.827-1.201.124.29.216.499.302.709.734 1.797 2.325 2.508 4.119 1.825 1.258-.479 2.517-.956 3.758-1.477 1.56-.656 2.298-2.278 1.694-3.864zM7.682 34.816h-.001c-.14.315-.453.553-.661.798-.36-.12-.559-.168-.743-.25-1.128-.496-2.256-.991-3.378-1.503-.709-.322-.844-.663-.537-1.365 2.864-6.522 5.73-13.045 8.603-19.564.331-.753.657-.874 1.406-.548 1.13.493 2.255.99 3.377 1.502.702.319.848.678.544 1.37a6663.782 6663.782 0 01-8.61 19.56zm10.093 9.87h-.002c-.49.855-1.164 1.152-2.046.909-.894-.247-1.469-.993-1.55-1.943.125-.363.211-.746.383-1.083a135.872 135.872 0 011.74-3.276c.626-1.149 1.796-1.526 2.824-.928 1 .58 1.262 1.753.632 2.865-.655 1.155-1.32 2.306-1.98 3.457zm4.368 4.848c-.452.834-1.38 1.152-2.235.898-.886-.265-1.44-1.018-1.51-1.981.159-.396.278-.816.481-1.186.873-1.582 1.77-3.15 2.662-4.722.48-.845 1.455-1.121 2.36-.68.88.432 1.384 1.548.979 2.367a153.951 153.951 0 01-2.737 5.304zm5.824 1.832c-.39.75-1.031 1.101-1.846 1.057-.816-.044-1.466-.462-1.702-1.263-.116-.395-.096-.925.077-1.293.679-1.451 1.44-2.862 2.174-4.285.45-.873 1.214-1.227 2.153-1 .855.206 1.48 1.014 1.478 2.082-.03.087-.08.334-.192.553-.707 1.387-1.427 2.766-2.142 4.149zm7.412-1.12a107.387 107.387 0 01-1.87 3.521c-.44.783-1.293 1.153-2.088.99-.824-.167-1.452-.77-1.565-1.614-.042-.313.038-.685.18-.972.614-1.255 1.27-2.488 1.912-3.73.454-.876 1.256-1.257 2.144-1.023.908.24 1.527 1.05 1.509 2.117-.044.148-.088.452-.222.711zm4.489 3.017c-.53.854-1.598 1.141-2.521.664-.342-.176-.67-.386-1.029-.594l1.617-3.494c.445.267.953.529 1.413.858a1.887 1.887 0 01.52 2.566zm12.74-14.414h-.004c-.163.816-.807 1.483-1.646 1.512-.47.017-.997-.134-1.417-.364-2.143-1.175-4.258-2.4-6.385-3.606-.16-.09-.315-.188-.48-.263-.598-.271-1.206-.09-1.48.43-.28.525-.118 1.157.437 1.488 1 .599 2.019 1.162 3.031 1.739 1.37.779 2.75 1.541 4.108 2.34.738.435 1.092 1.24.938 1.985-.17.824-.669 1.416-1.485 1.51-.502.057-1.1-.086-1.55-.333-2.904-1.595-5.776-3.243-8.66-4.872-.2-.113-.39-.253-.604-.32-.562-.185-1.054-.062-1.35.483-.294.538-.17 1.024.303 1.406.16.127.346.22.524.322 2.242 1.276 4.488 2.55 6.731 3.828.276.159.56.317.806.52.726.602.893 1.622.422 2.427-.466.797-1.503 1.235-2.31.78a114.514 114.514 0 01-6.202-3.734c-1.088-.707-2.17-1.144-3.466-.913-.154.027-.311.047-.489.075-1.001-2.374-2.753-3.331-5.301-2.85-.853-2.148-2.44-3.163-4.786-2.954-.35-1.645-1.24-2.834-2.817-3.378-1.549-.532-2.959-.154-4.075.759-.553-.866-.952-1.876-1.675-2.512-.742-.652-1.802-.937-2.803-1.421l5.91-13.46c.618.287 1.235.512 1.793.842 1.988 1.171 4.059 1.127 6.228.639a28.136 28.136 0 014.385-.612c.734-.047 1.49.256 2.347.422-2.528 2.657-5.13 4.92-8.147 6.635-1.966 1.116-1.699 2.138-.483 3.44 2.266 2.427 4.996 3.127 8.11 2.219 1.79-.521 3.511-1.28 5.278-1.891.837-.29 1.699-.608 2.568-.674.76-.06 1.652.024 2.303.379 3.486 1.908 6.918 3.915 10.362 5.9.807.466 1.19 1.291 1.03 2.077zM54.08 35.7h.003c-.122.046-.335-.042-.467-.128-.496-.323-.955-.708-1.466-1.004-3.066-1.773-6.17-3.484-9.205-5.305-1.836-1.102-3.725-1.35-5.713-.695-1.862.613-3.684 1.35-5.525 2.02-1.212.44-2.454.755-3.753.6-1.326-.158-2.404-.81-3.341-1.832.144-.116.269-.235.41-.324a39.74 39.74 0 006.97-5.544c.774-.77 1.647-1.457 2.544-2.081 2.497-1.74 5.17-1.85 7.953-.748 1.102.437 2.213.86 3.34 1.225 1.55.5 3.058.401 4.484-.46.465-.28.956-.518 1.505-.81L57.14 34.42c-1.051.444-2.05.877-3.061 1.278zm10.832-.047h.002a326.77 326.77 0 01-3.252 1.268c-.801.308-1.138.168-1.44-.611a23209.47 23209.47 0 01-7.658-19.883c-.293-.764-.148-1.09.606-1.39 1.144-.457 2.294-.899 3.441-1.344.169-.065.345-.109.7-.22.218.29.542.572.683.929 1.127 2.854 2.22 5.723 3.326 8.588l4.28 11.094c.357.926.233 1.206-.688 1.569z" fill="#4B8125"/><path d="M14.174 15.73c.011.74-.54 1.306-1.277 1.308-.71 0-1.258-.523-1.284-1.232-.027-.733.524-1.335 1.243-1.357.72-.022 1.307.55 1.318 1.281zm43.019 1.315c-.004.73-.59 1.313-1.304 1.297a1.318 1.318 0 01-1.267-1.28 1.278 1.278 0 011.284-1.313c.736-.004 1.292.554 1.288 1.296h-.001z" fill="#4B8125"/></svg>