<svg width="32" height="32" viewBox="0 0 32 32" fill="none" xmlns="http://www.w3.org/2000/svg"><path d="M20.04 14.31c.16.16.39.25.62.25h5.82c.23 0 .45-.09.62-.25.16-.16.25-.38.25-.61 0-.23-.09-.45-.25-.61a.886.886 0 00-.62-.25h-5.82c-.23 0-.46.09-.62.25-.17.16-.26.38-.26.61 0 .23.09.45.25.61h.01zm.61-6.09c-.23 0-.46.09-.62.25-.17.16-.26.38-.26.61 0 .23.09.45.25.61.16.16.39.25.62.25h5.82c.23 0 .45-.09.62-.25.17-.16.26-.38.26-.61 0-.23-.09-.45-.25-.61a.886.886 0 00-.62-.25h-5.82z" fill="#4B8125"/><path d="M15.96 4.5l-.19.14a5.427 5.427 0 00-1.95-1.61c-.76-.38-1.62-.58-2.47-.58H2.03c-.54 0-1.06.22-1.44.59-.38.38-.59.89-.59 1.42v18.47c0 .54.21 1.04.6 1.42.38.38.9.59 1.44.59h9.31c1 0 1.97.4 2.67 1.1.72.71 1.11 1.65 1.11 2.66 0 .23.09.45.25.61.33.32.91.33 1.24 0 .16-.16.25-.38.25-.61 0-1 .39-1.95 1.11-2.66.72-.71 1.67-1.1 2.67-1.1h9.31A2.035 2.035 0 0032 22.93V4.46c0-.54-.21-1.04-.6-1.42-.38-.38-.9-.59-1.44-.59h-9.31c-.85 0-1.71.2-2.47.58-.76.38-1.44.94-1.95 1.61l-.2.27-.23-.23.16-.18zm-.83 20.17l-.47-.35s-.06-.05-.1-.07c-.72-.58-1.76-.93-3.14-1.02H1.78l-.04-.25V4.21l.25-.04h9.36c1.01 0 1.96.39 2.67 1.1.72.71 1.11 1.65 1.11 2.66v16.74zm1.74-16.74c0-1 .39-1.95 1.11-2.66.72-.71 1.66-1.1 2.67-1.1h9.56l.04.25v18.76l-.29.04h-9.32c-1.19 0-2.36.39-3.31 1.1l-.47.35V7.93h.01z" fill="#4B8125"/><path d="M20.04 18.92c.16.16.39.25.62.25h5.82c.23 0 .46-.09.62-.25.17-.16.26-.38.26-.61 0-.23-.09-.45-.25-.61a.886.886 0 00-.62-.25h-5.82c-.23 0-.46.09-.62.25-.17.16-.26.38-.26.61 0 .23.09.45.25.61z" fill="#4B8125"/></svg>