<svg width="32" height="32" viewBox="0 0 32 32" fill="none" xmlns="http://www.w3.org/2000/svg"><path d="M30.27 12.92h-1.32c.06-.31.04-.63-.08-.93l-1.66-4.33c-.26-.66-.91-1.11-1.62-1.11h-4.01C21.07 5.07 19.68 4 18.03 4H3.77C1.69 4 0 5.69 0 7.77v11.72c0 1.93 1.46 3.5 3.32 3.73-.03.2-.06.4-.06.61a3.82 3.82 0 107.64 0c0-.19-.03-.38-.06-.56h7.19c.73 0 1.4-.22 1.97-.57-.11.36-.19.74-.19 1.13a3.82 3.82 0 107.64 0c0-.19-.03-.38-.06-.56h2.86c.96 0 1.73-.78 1.73-1.73v-6.88c0-.96-.78-1.73-1.73-1.73l.02-.01zm-4.39-4.75l1.66 4.33c.05.13 0 .23-.03.28-.03.05-.11.13-.25.13h-5.45V7.97h3.78c.13 0 .24.08.28.2h.01zM7.08 26.21c-1.32 0-2.39-1.07-2.39-2.4 0-1.33 1.07-2.4 2.39-2.4a2.4 2.4 0 010 4.8zm10.96-4.38h-7.71A3.793 3.793 0 007.08 20c-1.38 0-2.58.74-3.25 1.83h-.06c-1.29 0-2.34-1.05-2.34-2.34V7.77c0-1.29 1.05-2.34 2.34-2.34h14.27c1.29 0 2.34 1.05 2.34 2.34v11.72c0 1.29-1.05 2.34-2.34 2.34zm5.61 4.38a2.4 2.4 0 010-4.8c1.32 0 2.39 1.07 2.39 2.4 0 1.33-1.07 2.4-2.39 2.4zm6.93-4.69c0 .17-.14.31-.31.31h-3.38A3.793 3.793 0 0023.64 20c-.74 0-1.43.22-2.02.59.11-.35.18-.71.18-1.1v-5.15h8.46c.17 0 .31.14.31.31v6.88l.01-.01z" fill="#4B8125"/></svg>