<svg width="32" height="32" viewBox="0 0 32 32" fill="none" xmlns="http://www.w3.org/2000/svg">
<path d="M30.27 12.92H28.95C29.01 12.61 28.99 12.29 28.87 11.99L27.21 7.66C26.95 7 26.3 6.55 25.59 6.55H21.58C21.07 5.07 19.68 4 18.03 4H3.77C1.69 4 0 5.69 0 7.77V19.49C0 21.42 1.46 22.99 3.32 23.22C3.29 23.42 3.26 23.62 3.26 23.83C3.26 25.94 4.97 27.65 7.08 27.65C9.19 27.65 10.9 25.94 10.9 23.83C10.9 23.64 10.87 23.45 10.84 23.27H18.03C18.76 23.27 19.43 23.05 20 22.7C19.89 23.06 19.81 23.44 19.81 23.83C19.81 25.94 21.52 27.65 23.63 27.65C25.74 27.65 27.45 25.94 27.45 23.83C27.45 23.64 27.42 23.45 27.39 23.27H30.25C31.21 23.27 31.98 22.49 31.98 21.54V14.66C31.98 13.7 31.2 12.93 30.25 12.93L30.27 12.92ZM25.88 8.17L27.54 12.5C27.59 12.63 27.54 12.73 27.51 12.78C27.48 12.83 27.4 12.91 27.26 12.91H21.81V7.97H25.59C25.72 7.97 25.83 8.05 25.87 8.17H25.88ZM7.08 26.21C5.76 26.21 4.69 25.14 4.69 23.81C4.69 22.48 5.76 21.41 7.08 21.41C8.4 21.41 9.48 22.48 9.48 23.81C9.48 25.14 8.4 26.21 7.08 26.21ZM18.04 21.83H10.33C9.66 20.73 8.46 20 7.08 20C5.7 20 4.5 20.74 3.83 21.83H3.77C2.48 21.83 1.43 20.78 1.43 19.49V7.77C1.43 6.48 2.48 5.43 3.77 5.43H18.04C19.33 5.43 20.38 6.48 20.38 7.77V19.49C20.38 20.78 19.33 21.83 18.04 21.83ZM23.65 26.21C22.33 26.21 21.25 25.14 21.25 23.81C21.25 22.48 22.33 21.41 23.65 21.41C24.97 21.41 26.04 22.48 26.04 23.81C26.04 25.14 24.97 26.21 23.65 26.21ZM30.58 21.52C30.58 21.69 30.44 21.83 30.27 21.83H26.89C26.22 20.73 25.02 20 23.64 20C22.9 20 22.21 20.22 21.62 20.59C21.73 20.24 21.8 19.88 21.8 19.49V14.34H30.26C30.43 14.34 30.57 14.48 30.57 14.65V21.53L30.58 21.52Z" fill="#4B8125"/>
</svg>
