<svg width="32" height="32" viewBox="0 0 32 32" fill="none" xmlns="http://www.w3.org/2000/svg"><path d="M27.2 16.13h-1.99c-1.46 0-2.97 0-4.45-.02h-.09c-.94 0-1.15.29-1.21.78v.39l-9.02-.04v-4.43l9.02.04v.31c.02.67.27.91.96.91h6.75c.71 0 .98-.27.98-.98V8.16c0-.74-.26-1-1-1h-1.97c-1.47 0-2.98.01-4.47-.01-.88-.02-1.2.19-1.26.78v.53l-9.02-.04V6.91h1.17c.63 0 .91-.28.91-.9V.9c0-.63-.27-.9-.91-.9H4.73c-.62 0-.9.28-.9.91v5.07c0 .63.29.92.94.92h1.2v20.05c0 2.12 1.73 3.85 3.85 3.86l9.67.04v.35c.02.35.17.78.8.79h7.07c.52 0 .82-.28.82-.78.02-1.78.02-3.58 0-5.35 0-.49-.31-.78-.82-.78h-7.04c-.51 0-.8.28-.83.8v.52l-9.02-.04v-4.68l9.02.04v.43c.02.63.29.87.93.88h6.82c.67 0 .94-.28.94-.95v-5c0-.68-.28-.96-.97-.96l-.01.01zm-6.19-7.4h5.59v3.79h-5.59V8.73zm0 17.93h5.58v3.79h-5.58v-3.79zM5.39 5.35v-3.8h5.59v3.79H5.39v.01zm13.96 14.77l-9.04-.04c-.39 0-.76.15-1.04.43s-.43.65-.43 1.04v4.96c0 .81.66 1.46 1.46 1.47l9.05.04v1.23l-9.54-.03c-1.23 0-2.24-1.01-2.24-2.25V6.96h1.27v1.61c0 .81.66 1.46 1.46 1.47l9.05.04v1.17l-9.04-.04c-.39 0-.76.15-1.03.43-.28.28-.43.65-.43 1.04v4.71c0 .81.66 1.46 1.46 1.47l9.05.04v1.22h-.01zm7.25 1.36h-5.58V17.7h5.58v3.78z" fill="#4B8125"/></svg>