<svg width="30" height="35" viewBox="0 0 30 35" fill="none" xmlns="http://www.w3.org/2000/svg"><path d="M8.863 18.598v-.438c0-4.83-.003-9.66.002-14.49.003-1.858 1.168-3.285 2.93-3.61 2.123-.393 4.129 1.21 4.174 3.355.024 1.11.005 2.221.007 3.331v.466c2.126-.46 3.618.301 4.514 2.225 2.103-.676 3.993.339 4.672 2.157.715 0 1.412-.105 2.064.02a3.361 3.361 0 012.762 3.312c.026 3.88.002 7.76-.006 11.64 0 .252-.045.505-.078.757-.51 3.89-3.94 7.2-7.88 7.595a14.45 14.45 0 01-1.412.073c-2.158.007-4.316.016-6.475 0-3.214-.025-5.714-1.37-7.448-4.058a1370.952 1370.952 0 01-6.04-9.452 4.095 4.095 0 01.515-5.072c1.842-1.908 4.977-1.653 6.469.526.383.56.765 1.125 1.148 1.687l.084-.026-.002.002zm16.453-3.07h-2.408c0-.245.002-.458 0-.67-.008-.762.018-1.527-.04-2.285-.046-.586-.586-.973-1.168-.933-.558.037-1 .48-1.033 1.046-.013.213-.007.428-.007.64v2.2h-2.429v-4.605c0-.134.006-.268-.01-.4-.067-.625-.576-1.073-1.172-1.042-.602.031-1.066.505-1.07 1.142-.011 1.498-.005 2.997-.005 4.495v.421h-2.428V3.846c0-.134.005-.268-.006-.4a1.127 1.127 0 00-1.05-1.037 1.1 1.1 0 00-1.152.868 2.754 2.754 0 00-.044.597c-.002 7.384-.002 14.767-.002 22.151v.576c-.154-.208-.241-.319-.321-.435-1.763-2.595-3.517-5.195-5.297-7.776a2.258 2.258 0 00-.839-.712c-.667-.324-1.493-.094-1.981.468-.515.592-.568 1.417-.118 2.122 2.005 3.14 4.01 6.278 6.022 9.41 1.234 1.922 3.016 2.89 5.308 2.907 2.252.017 4.505.011 6.756-.002.456-.002.92-.035 1.365-.125 3.208-.65 5.365-3.263 5.382-6.552.02-3.557.005-7.116.005-10.674 0-.12-.003-.242-.019-.36a1.107 1.107 0 00-1.084-.95 1.103 1.103 0 00-1.116.957c-.025.209-.028.421-.04.648z" fill="#4B8125"/></svg>