<svg width="32" height="32" viewBox="0 0 32 32" fill="none" xmlns="http://www.w3.org/2000/svg"><g clip-path="url(#clip0_730_5331)"><path d="M29.8 10.73L16.56.2a.902.902 0 00-1.12 0L2.2 10.73c-.23.18-.36.46-.36.75v16.56c0 1.06.4 2.06 1.14 2.81.72.73 1.71 1.16 2.73 1.16H26.3c1.01 0 2.01-.42 2.73-1.16.73-.75 1.13-1.75 1.13-2.81V11.48c0-.29-.13-.58-.36-.75zM19.49 17.5v12.04c0 .31-.25.55-.55.55h-5.89c-.31 0-.55-.25-.55-.55V17.5c0-.31.25-.55.55-.55h5.89c.31 0 .55.25.55.55zm.92-2.46h-8.82c-.51 0-.92.43-.92.95v13.54c0 .31-.25.55-.55.55H5.7c-.54 0-1.06-.22-1.44-.61-.38-.39-.59-.9-.59-1.45v-15.8c0-.17.08-.33.21-.43l11.78-9.37c.2-.16.49-.16.69 0l11.77 9.36c.13.11.21.26.21.43v15.82c0 .55-.21 1.06-.59 1.45-.38.39-.89.61-1.44.61h-4.41c-.31 0-.55-.25-.55-.55V16c0-.52-.41-.95-.92-.95l-.01-.01z" fill="#4B8125"/></g><defs><clipPath id="clip0_730_5331"><path fill="#fff" d="M0 0h32v32H0z"/></clipPath></defs></svg>