<svg width="33" height="35" viewBox="0 0 33 35" fill="none" xmlns="http://www.w3.org/2000/svg"><path d="M25.382 12.85c-1.396 0-2.73-.038-4.061.008-3.045.105-5.488-1.816-6.029-4.812-.079-.44-.061-.901-.064-1.353-.008-1.343-.003-2.687-.003-4.092h-.422c-2.76 0-5.52-.004-8.28.004a9.063 9.063 0 00-1.339.095c-1.462.224-2.331 1.121-2.53 2.602a9.256 9.256 0 00-.084 1.234c-.005 6.755-.005 13.509 0 20.263 0 .45.025.908.105 1.352.277 1.54 1.244 2.424 2.832 2.518 1.25.074 2.506.057 3.76.066 1.254.01 2.509-.002 3.763.005.808.004 1.345.505 1.356 1.245.011.757-.531 1.303-1.344 1.307-2.14.01-4.277.014-6.417-.002-.735-.005-1.49.022-2.2-.135C1.679 32.55-.158 30.03.01 27.199c.011-.2.019-.4.019-.599 0-6.634-.004-13.269.007-19.902C.038 5.904.021 5.084.2 4.323.85 1.572 3.471-.25 6.256.028c.158.016.316.016.475.016 3.169 0 6.338.008 9.506-.007.556-.003.979.173 1.37.57 3.25 3.297 6.51 6.583 9.774 9.864.37.373.553.78.542 1.313-.022 1.025-.003 2.051-.008 3.077-.004.812-.536 1.374-1.282 1.367-.725-.007-1.245-.57-1.25-1.358-.005-.663 0-1.326 0-2.018v-.001zm-7.526-8.248c0 .921-.065 1.923.017 2.912.093 1.133.643 2.026 1.753 2.444 1.255.472 2.562.276 3.862.323L17.856 4.6zm2.2 30.393c-.594 0-1.188.006-1.782 0-.791-.01-1.326-.517-1.338-1.318-.018-1.239-.035-2.48.015-3.716a1.63 1.63 0 01.427-.982 1641.56 1641.56 0 019.154-9.3c1.169-1.18 2.812-1.186 3.998-.034a66.89 66.89 0 011.571 1.58c1.2 1.248 1.201 2.9-.016 4.126-3.044 3.07-6.099 6.129-9.147 9.194a1.44 1.44 0 01-1.1.455c-.593-.012-1.187-.004-1.781-.004h-.001zm5.43-10.618s-.024.006-.042.024c-1.946 1.97-3.892 3.94-5.834 5.915-.07.07-.14.176-.141.267-.013.607-.007 1.216-.007 1.855.575 0 1.1.022 1.625-.01.198-.013.44-.099.578-.235 1.861-1.848 3.708-3.713 5.559-5.572.092-.092.179-.19.23-.244a1820.22 1820.22 0 00-1.966-1.997l-.001-.003zm1.849-1.97l2.065 2.081c.278-.293.581-.625.898-.944.173-.175.201-.323.017-.507-.516-.512-1.016-1.042-1.548-1.54-.08-.075-.335-.08-.424-.008-.367.296-.701.633-1.007.918h-.001z" fill="#4B8125"/><path d="M13.972 15.392c1.952 0 3.904-.006 5.856.003.905.004 1.5.753 1.28 1.591-.125.476-.434.787-.907.905-.19.047-.391.056-.587.056-3.759.003-7.517.004-11.276-.002a2.25 2.25 0 01-.737-.102c-.557-.196-.887-.798-.792-1.367.105-.626.564-1.052 1.19-1.079.394-.017.79-.006 1.186-.007h4.788l-.001.002zm-2.512 6.814c1.08 0 2.162-.003 3.242 0 .803.003 1.38.536 1.386 1.27.005.734-.575 1.285-1.37 1.286-2.19.003-4.377.004-6.566 0-.793-.001-1.374-.559-1.365-1.291.01-.727.573-1.26 1.35-1.264 1.107-.006 2.213-.001 3.321-.001h.001z" fill="#4B8125"/></svg>