<svg width="35" height="35" viewBox="0 0 35 35" fill="none" xmlns="http://www.w3.org/2000/svg"><path d="M1.638 29.709c.93-.408 1.86-.816 2.79-1.226 1.4-.616 2.849-1.254 4.276-1.875.21-.092.496-.107.759-.039.736.19 1.505.403 2.352.657.093.027.407.137.58.398 2.023 3.022 4.946 4.835 8.687 5.387 2.03.3 4.079.101 6.088-.59a.873.873 0 01.285-.044c.147 0 .3.03.436.089.344.15.69.299 1.035.448 1.41.608 2.867 1.238 4.282 1.903.427.2.837.238 1.155.105.28-.119.496-.37.637-.745v-.437l-.334-.825c-.557-1.377-1.134-2.8-1.693-4.203a.748.748 0 01.066-.651c1.104-1.585 1.748-3.32 1.914-5.155a.535.535 0 01.047-.17v-1.642c-.032-.171-.06-.342-.088-.514-.064-.377-.129-.767-.22-1.136-.65-2.585-2.132-4.727-4.407-6.365-.324-.234-.487-.495-.544-.873-.788-5.239-3.715-8.869-8.945-11.096C19.43.528 17.887.173 16.213.057a1.29 1.29 0 01-.244-.047l-.04-.01h-2.027c-.2.028-.401.053-.602.078-.434.055-.884.111-1.314.195-4.144.802-7.41 2.882-9.707 6.184-3.097 4.452-3.032 10.41.162 14.826.237.326.271.626.117 1C1.708 24.353.885 26.39.11 28.34c-.153.385-.112.8.11 1.107.207.283.535.434.898.41.142-.008.312-.057.52-.148zm.507-16.181c.084-3.178 1.373-5.885 3.83-8.046 3.003-2.643 6.62-3.726 10.748-3.217 3.313.407 6.096 1.869 8.271 4.342a10.774 10.774 0 011.083 12.836c-.228.37-.347.648-.277.968.104.481.377.757.86.868.396.092.837-.098 1.073-.461a12.983 12.983 0 001.843-4.458c.015-.074.032-.148.054-.244l.18-.806.423.482c.093.107.184.208.273.307.189.209.366.406.533.62 1.211 1.546 1.844 3.373 1.829 5.283-.015 1.913-.677 3.73-1.916 5.253-.438.538-.508.998-.244 1.585.228.507.43 1.023.645 1.568.096.247.196.5.302.762l.3.743-.734-.323c-.316-.14-.624-.273-.924-.404a64.392 64.392 0 01-2.007-.898c-.476-.227-.906-.235-1.485-.027-1.394.5-2.75.751-4.065.751-2.41 0-4.675-.84-6.772-2.518a4.677 4.677 0 01-.288-.258l-.162-.15-.53-.484.712-.08c.163-.02.32-.036.472-.053.313-.034.61-.066.903-.104a15.468 15.468 0 004.928-1.496c.631-.313.867-.907.587-1.476s-.893-.745-1.528-.438c-3.235 1.559-6.65 1.84-10.149.836a14.23 14.23 0 01-1.28-.459l-.057-.022a1.25 1.25 0 00-1.027.02c-1.118.5-2.258 1-3.36 1.484-.387.169-.772.337-1.157.507-.037.016-.076.03-.135.052l-.107.039-.65.242.23-.654c.02-.056.036-.105.05-.151a4.69 4.69 0 01.091-.254c.129-.32.256-.64.383-.96.322-.81.654-1.647 1.005-2.462.241-.561.172-.994-.24-1.495-1.74-2.117-2.587-4.522-2.517-7.15h.004z" fill="#4B8125"/><path d="M14.876 17.532a1.1 1.1 0 00.801-.297.912.912 0 00.297-.648c.018-.98.61-1.407 1.124-1.669 1.657-.842 2.623-2.283 2.723-4.057.005-1.625-.664-3.12-1.838-4.102a4.783 4.783 0 00-3.952-1.037c-2.318.43-4.038 2.495-4.001 4.804.006.379.192.723.497.92.293.19.648.218.975.078.441-.191.648-.53.67-1.098a2.761 2.761 0 01.974-1.995 2.743 2.743 0 012.099-.637c.78.097 1.486.518 1.935 1.154a2.73 2.73 0 01.44 2.18c-.195.892-.747 1.548-1.69 2.007-1.372.667-2.067 1.8-2.066 3.366 0 .553.445 1.006 1.012 1.03zm-.023 2.326h-.007a1.067 1.067 0 00.01 2.134h.007a1.068 1.068 0 00-.01-2.133z" fill="#4B8125"/></svg>