<svg width="32" height="32" viewBox="0 0 32 32" fill="none" xmlns="http://www.w3.org/2000/svg">
<g clip-path="url(#clip0_730_5357)">
<path d="M15.99 0C9.73 0 4.01 3.7 1.42 9.42C0.48 11.5 0 13.71 0 15.99C0 24.82 7.17 32 15.99 32C24.81 32 32 24.82 32 15.99C32 7.16 24.82 0 15.99 0ZM21.47 8.89H16.85V2.71C18.84 4.49 20.39 6.57 21.47 8.89ZM16.85 10.6H22.15C22.76 12.35 23.09 14.13 23.12 15.88C23.16 17.7 22.9 19.49 22.36 21.22H16.84V10.6H16.85ZM16.85 22.93H21.72C20.66 25.34 19.02 27.49 16.85 29.32V22.93ZM24.14 21.22C24.64 19.46 24.87 17.66 24.84 15.85C24.8 14.1 24.5 12.34 23.96 10.59H29.25C29.95 12.31 30.31 14.13 30.31 15.98C30.31 17.83 29.98 19.55 29.33 21.21H24.16L24.14 21.22ZM23.33 8.89C22.24 6.28 20.63 3.95 18.54 1.94C22.72 2.69 26.32 5.22 28.43 8.89H23.34H23.33ZM18.62 30.05C20.83 28.01 22.49 25.62 23.55 22.94H28.51C26.43 26.69 22.84 29.28 18.62 30.05ZM10.29 22.94H15.14V29.32C12.99 27.49 11.36 25.35 10.29 22.94ZM15.14 21.23H9.65C9.1 19.5 8.85 17.7 8.89 15.89C8.93 14.13 9.25 12.37 9.83 10.66L9.85 10.6H15.14V21.23ZM15.14 8.9H10.53C11.6 6.59 13.15 4.52 15.14 2.73V8.9ZM8.67 8.9H3.59C5.69 5.22 9.26 2.7 13.45 1.94C11.36 3.94 9.75 6.28 8.66 8.89L8.67 8.9ZM2.77 10.61H8.05C7.51 12.33 7.22 14.09 7.18 15.87C7.14 17.67 7.38 19.48 7.88 21.24H2.69C2.04 19.58 1.71 17.82 1.71 16.01C1.71 14.2 2.07 12.34 2.77 10.62V10.61ZM8.46 22.94C9.52 25.63 11.18 28.02 13.38 30.05C9.17 29.27 5.58 26.69 3.5 22.94H8.46Z" fill="#4B8125"/>
</g>
<defs>
<clipPath id="clip0_730_5357">
<rect width="32" height="32" fill="white"/>
</clipPath>
</defs>
</svg>
