<svg width="32" height="32" viewBox="0 0 32 32" fill="none" xmlns="http://www.w3.org/2000/svg"><g clip-path="url(#clip0_730_5357)"><path d="M15.99 0C9.73 0 4.01 3.7 1.42 9.42.48 11.5 0 13.71 0 15.99 0 24.82 7.17 32 15.99 32S32 24.82 32 15.99C32 7.16 24.82 0 15.99 0zm5.48 8.89h-4.62V2.71c1.99 1.78 3.54 3.86 4.62 6.18zm-4.62 1.71h5.3c.61 1.75.94 3.53.97 5.28.04 1.82-.22 3.61-.76 5.34h-5.52V10.6h.01zm0 12.33h4.87c-1.06 2.41-2.7 4.56-4.87 6.39v-6.39zm7.29-1.71c.5-1.76.73-3.56.7-5.37-.04-1.75-.34-3.51-.88-5.26h5.29c.7 1.72 1.06 3.54 1.06 5.39 0 1.85-.33 3.57-.98 5.23h-5.17l-.02.01zm-.81-12.33c-1.09-2.61-2.7-4.94-4.79-6.95 4.18.75 7.78 3.28 9.89 6.95h-5.1zm-4.71 21.16c2.21-2.04 3.87-4.43 4.93-7.11h4.96a14.168 14.168 0 01-9.89 7.11zm-8.33-7.11h4.85v6.38c-2.15-1.83-3.78-3.97-4.85-6.38zm4.85-1.71H9.65a16.4 16.4 0 01-.76-5.34c.04-1.76.36-3.52.94-5.23l.02-.06h5.29v10.63zm0-12.33h-4.61c1.07-2.31 2.62-4.38 4.61-6.17V8.9zm-6.47 0H3.59c2.1-3.68 5.67-6.2 9.86-6.96-2.09 2-3.7 4.34-4.79 6.95l.01.01zm-5.9 1.71h5.28c-.54 1.72-.83 3.48-.87 5.26-.04 1.8.2 3.61.7 5.37H2.69c-.65-1.66-.98-3.42-.98-5.23 0-1.81.36-3.67 1.06-5.39v-.01zm5.69 12.33c1.06 2.69 2.72 5.08 4.92 7.11-4.21-.78-7.8-3.36-9.88-7.11h4.96z" fill="#4B8125"/></g><defs><clipPath id="clip0_730_5357"><path fill="#fff" d="M0 0h32v32H0z"/></clipPath></defs></svg>