<svg width="32" height="32" viewBox="0 0 32 32" fill="none" xmlns="http://www.w3.org/2000/svg"><g clip-path="url(#clip0_730_5361)"><path d="M31.85 12.18c-.31-.91-.96-1.44-1.93-1.59-2.51-.37-5.02-.75-7.54-1.1-.43-.06-.69-.25-.88-.63-.75-1.53-1.5-3.06-2.26-4.59l-1.07-2.18C17.73 1.19 17.02.73 16 .67c-1.02.05-1.72.51-2.16 1.39-1.13 2.28-2.26 4.57-3.38 6.86-.17.34-.41.52-.77.57-2.12.3-4.24.61-6.36.92l-1.25.18c-.75.11-1.33.49-1.72 1.13-.59.95-.43 2.14.39 2.94 1.81 1.77 3.61 3.54 5.44 5.3.33.31.44.65.36 1.09-.4 2.25-.79 4.49-1.16 6.74l-.03.15c-.08.46-.16.94-.1 1.37.12.77.57 1.41 1.23 1.75.7.36 1.52.34 2.26-.04 2.26-1.18 4.52-2.37 6.77-3.56.17-.09.34-.14.5-.14.16 0 .31.05.47.14.24.14.49.27.73.39l1.88.98c1.38.73 2.77 1.46 4.16 2.18.9.47 1.76.42 2.55-.16.79-.58 1.11-1.38.94-2.38l-.18-1.06c-.36-2.1-.72-4.21-1.09-6.31-.09-.5.03-.86.4-1.21 1.92-1.84 3.69-3.56 5.41-5.27.7-.7.9-1.52.58-2.45l-.02.01zm-1.93 1.34l-.94.93c-1.37 1.36-2.79 2.76-4.23 4.1-.91.85-1.22 1.77-.99 2.98.38 1.97.71 3.98 1.03 5.93l.2 1.2c.03.2 0 .59-.22.77-.22.17-.61.1-.8 0a575.92 575.92 0 01-6.65-3.49c-.89-.48-1.72-.48-2.6-.02-1.75.93-3.5 1.85-5.26 2.77l-1.43.75c-.17.09-.33.13-.48.13a.65.65 0 01-.31-.08c-.11-.06-.29-.23-.29-.59v-.04l.69-4c.21-1.23.43-2.46.64-3.7.15-.91-.1-1.67-.77-2.33-1.19-1.15-2.38-2.31-3.56-3.47l-1.37-1.34c-.05-.05-.11-.11-.17-.16-.14-.13-.28-.26-.4-.41-.05-.06-.3-.4-.2-.69.07-.23.36-.41.59-.45.8-.13 1.59-.24 2.39-.36l2.07-.3c1.06-.15 2.12-.31 3.18-.46.9-.13 1.54-.61 1.96-1.47.7-1.43 1.4-2.85 2.1-4.28l.99-2.01c.08-.18.17-.36.28-.53.11-.17.34-.46.62-.44.26.02.52.25.63.47.7 1.39 1.39 2.79 2.08 4.18l.81 1.63c.17.35.34.69.51 1.04.4.82 1.07 1.29 2.03 1.43 2.49.35 4.98.71 7.47 1.09.22.03.57.2.66.46.09.26-.1.6-.26.76z" fill="#4B8125"/></g><defs><clipPath id="clip0_730_5361"><path fill="#fff" d="M0 0h32v32H0z"/></clipPath></defs></svg>