<svg width="26" height="24" viewBox="0 0 26 24" fill="none" xmlns="http://www.w3.org/2000/svg"><path d="M26 12.537c-.202.443-.55.608-1.023.566-.218-.019-.439-.003-.685-.003l-.425 1.488-2.432 8.56c-.144.506-.378.686-.894.686H5.46c-.519 0-.75-.178-.895-.688L1.784 13.36l-.077-.26H.845c-.528-.004-.842-.312-.843-.837-.003-.98-.003-1.96 0-2.939.001-.51.316-.823.828-.825.787-.002 1.574-.008 2.361.005.192.003.304-.064.42-.21 1.878-2.37 3.762-4.737 5.641-7.105.214-.27.475-.412.818-.333.31.07.501.274.574.583.066.282-.044.513-.217.73-1.291 1.62-2.58 3.244-3.87 4.866L5.413 8.48h15.165c-.066-.09-.117-.164-.173-.235L15.57 2.16c-.404-.509-.234-1.153.346-1.3.342-.086.609.049.823.318l3.63 4.569c.688.864 1.377 1.727 2.06 2.596a.38.38 0 00.34.161c.736-.007 1.474.016 2.209-.01.473-.016.82.126 1.023.57v3.475zM5.905 22.293h14.191l2.606-9.182H3.3l2.605 9.182zM24.458 11.42v-1.23a.136.136 0 00-.136-.136H1.674a.136.136 0 00-.135.136v1.23c0 .075.06.136.135.136h22.648a.136.136 0 00.136-.136z" fill="#4B8125"/></svg>