<svg width="19" height="20" viewBox="0 0 19 20" fill="none" xmlns="http://www.w3.org/2000/svg"><path d="M7.141 2.687A1.889 1.889 0 005.387 1.5H2.79A1.79 1.79 0 001 3.29c0 8.4 6.81 15.21 15.21 15.21A1.79 1.79 0 0018 16.71v-2.598a1.89 1.89 0 00-1.187-1.754l-2.49-.995a1.889 1.889 0 00-1.91.302l-.643.536a1.89 1.89 0 01-2.546-.115l-1.81-1.811a1.889 1.889 0 01-.116-2.545l.536-.642a1.89 1.89 0 00.304-1.911l-.997-2.49z" stroke="#89B21D" stroke-width="1.8" stroke-linecap="round" stroke-linejoin="round"/></svg>