<svg width="99" height="55" viewBox="0 0 99 55" fill="none" xmlns="http://www.w3.org/2000/svg"><path fill="#fff" d="M0 0h99v55H0z"/><path d="M66.54 17.769c-.402-1.123-1.774-4.088-6.035-8.265-4.517-4.428-7.643-5.675-8.617-5.979a185.602 185.602 0 00-5.825-.087c-7.178 0-12.107.367-15.18.718-2.523.288-4.412 2.18-4.69 4.704-.365 3.31-.756 8.87-.756 17.494s.391 14.183.756 17.494c.278 2.524 2.167 4.416 4.69 4.704 2.174.249 5.278.505 9.45.634" stroke="#4B8125" stroke-width="3" stroke-linecap="round" stroke-linejoin="round"/><path d="M66.558 18.285c-2.392.357-6.694.083-9.958-.22a5.344 5.344 0 01-4.845-4.824c-.307-3.211-.58-7.41-.207-9.725M68.98 39.254s-.542-2.415-3.795-5.667c-3.253-3.253-5.667-3.795-5.667-3.795M33.457 14.896l4.583 4.583 5.73-8.021M33.457 27.5l4.583 4.583 5.73-8.02" stroke="#4B8125" stroke-width="3" stroke-linecap="round" stroke-linejoin="round"/><path d="M72.032 36.2c1.665-1.666 2.303-4.1.91-5.999a20.369 20.369 0 00-2.03-2.344 20.369 20.369 0 00-2.344-2.029c-1.9-1.393-4.333-.756-5.999.91L48.431 40.877c-.624.623-1.05 1.413-1.123 2.291-.1 1.194-.173 3.22.02 6.22a2.2 2.2 0 002.054 2.054c2.999.193 5.026.12 6.22.02.878-.074 1.668-.5 2.29-1.123L72.033 36.2z" stroke="#4B8125" stroke-width="3" stroke-linecap="round" stroke-linejoin="round"/></svg>