<svg width="359" height="133" viewBox="0 0 359 133" fill="none" xmlns="http://www.w3.org/2000/svg">
<g filter="url(#filter0_d_1984_14801)">
<path fill-rule="evenodd" clip-rule="evenodd" d="M121.607 41.0002H317C322.523 41.0002 327 45.4773 327 51.0002V90.0002C327 95.523 322.523 100 317 100H42C36.4771 100 32 95.523 32 90.0002V51.0002C32 45.4773 36.4772 41.0002 42 41.0002H101.606L111.607 31L121.607 41.0002Z" fill="white"/>
</g>
<path d="M85.0889 66V56.0059H92.5332V66H91.3848V57.0312H86.251V66H85.0889ZM101.577 62.2402C101.577 62.8555 101.497 63.4046 101.338 63.8877C101.178 64.3708 100.948 64.7786 100.647 65.1113C100.347 65.444 99.9821 65.6992 99.5537 65.877C99.1299 66.0501 98.6491 66.1367 98.1113 66.1367C97.61 66.1367 97.1497 66.0501 96.7305 65.877C96.3158 65.6992 95.9557 65.444 95.6504 65.1113C95.3496 64.7786 95.1149 64.3708 94.9463 63.8877C94.7822 63.4046 94.7002 62.8555 94.7002 62.2402C94.7002 61.4199 94.8392 60.7227 95.1172 60.1484C95.3952 59.5697 95.7917 59.1299 96.3066 58.8291C96.8262 58.5238 97.4437 58.3711 98.1592 58.3711C98.8428 58.3711 99.4398 58.5238 99.9502 58.8291C100.465 59.1344 100.864 59.5765 101.146 60.1553C101.434 60.7295 101.577 61.4245 101.577 62.2402ZM95.876 62.2402C95.876 62.8418 95.9557 63.3636 96.1152 63.8057C96.2747 64.2477 96.5208 64.5895 96.8535 64.8311C97.1862 65.0726 97.6146 65.1934 98.1387 65.1934C98.6582 65.1934 99.0843 65.0726 99.417 64.8311C99.7542 64.5895 100.003 64.2477 100.162 63.8057C100.322 63.3636 100.401 62.8418 100.401 62.2402C100.401 61.6432 100.322 61.1283 100.162 60.6953C100.003 60.2578 99.7565 59.9206 99.4238 59.6836C99.0911 59.4466 98.6605 59.3281 98.1318 59.3281C97.3525 59.3281 96.7806 59.5856 96.416 60.1006C96.056 60.6156 95.876 61.3288 95.876 62.2402ZM104.619 58.5078V63.2178C104.619 63.3089 104.617 63.4274 104.612 63.5732C104.608 63.7145 104.601 63.8672 104.592 64.0312C104.583 64.1908 104.574 64.3457 104.564 64.4961C104.56 64.6419 104.553 64.7627 104.544 64.8584L108.632 58.5078H110.026V66H108.967V61.4062C108.967 61.2604 108.969 61.0736 108.974 60.8457C108.978 60.6178 108.985 60.3945 108.994 60.1758C109.003 59.9525 109.01 59.7793 109.015 59.6562L104.94 66H103.539V58.5078H104.619ZM115.44 66.1367C114.766 66.1367 114.171 65.9977 113.656 65.7197C113.141 65.4417 112.74 65.0179 112.453 64.4482C112.166 63.8786 112.022 63.1608 112.022 62.2949C112.022 61.388 112.173 60.6475 112.474 60.0732C112.779 59.4945 113.198 59.0661 113.731 58.7881C114.265 58.5101 114.871 58.3711 115.55 58.3711C115.924 58.3711 116.284 58.4098 116.63 58.4873C116.981 58.5602 117.268 58.6536 117.491 58.7676L117.149 59.7178C116.922 59.6266 116.657 59.5446 116.356 59.4717C116.06 59.3988 115.782 59.3623 115.522 59.3623C115.003 59.3623 114.57 59.474 114.224 59.6973C113.882 59.9206 113.624 60.2487 113.451 60.6816C113.283 61.1146 113.198 61.6478 113.198 62.2812C113.198 62.8874 113.28 63.4046 113.444 63.833C113.613 64.2614 113.861 64.5895 114.189 64.8174C114.522 65.0407 114.937 65.1523 115.434 65.1523C115.83 65.1523 116.188 65.1113 116.507 65.0293C116.826 64.9427 117.115 64.8424 117.375 64.7285V65.7402C117.124 65.8678 116.844 65.9658 116.534 66.0342C116.229 66.1025 115.864 66.1367 115.44 66.1367ZM123.521 58.5078H124.771L121.538 62.124L125.031 66H123.698L120.294 62.1992V66H119.152V58.5078H120.294V62.1445L123.521 58.5078ZM132.824 58.3848C133.717 58.3848 134.381 58.5853 134.813 58.9863C135.246 59.3874 135.463 60.0277 135.463 60.9072V66H134.636L134.417 64.8926H134.362C134.153 65.166 133.934 65.3962 133.706 65.583C133.478 65.7653 133.214 65.9043 132.913 66C132.617 66.0911 132.252 66.1367 131.819 66.1367C131.364 66.1367 130.958 66.057 130.603 65.8975C130.252 65.738 129.974 65.4964 129.769 65.1729C129.568 64.8493 129.468 64.4391 129.468 63.9424C129.468 63.195 129.764 62.6208 130.356 62.2197C130.949 61.8187 131.851 61.5999 133.063 61.5635L134.355 61.5088V61.0508C134.355 60.4036 134.216 59.9502 133.938 59.6904C133.66 59.4307 133.269 59.3008 132.763 59.3008C132.371 59.3008 131.997 59.3577 131.642 59.4717C131.286 59.5856 130.949 59.7201 130.63 59.875L130.281 59.0137C130.618 58.8405 131.006 58.6924 131.443 58.5693C131.881 58.4463 132.341 58.3848 132.824 58.3848ZM134.342 62.3086L133.2 62.3564C132.266 62.3929 131.607 62.5456 131.225 62.8145C130.842 63.0833 130.65 63.4639 130.65 63.9561C130.65 64.3844 130.78 64.7012 131.04 64.9062C131.3 65.1113 131.644 65.2139 132.072 65.2139C132.738 65.2139 133.282 65.0293 133.706 64.6602C134.13 64.291 134.342 63.7373 134.342 62.999V62.3086ZM143.755 60.3877C143.755 60.8571 143.618 61.224 143.345 61.4883C143.071 61.748 142.718 61.9235 142.285 62.0146V62.0693C142.755 62.1331 143.158 62.3018 143.495 62.5752C143.837 62.8441 144.008 63.2565 144.008 63.8125C144.008 64.2409 143.905 64.6191 143.7 64.9473C143.495 65.2754 143.174 65.5329 142.736 65.7197C142.299 65.9066 141.729 66 141.027 66H137.801V58.5078H141C141.538 58.5078 142.012 58.5693 142.422 58.6924C142.837 58.8109 143.162 59.0068 143.399 59.2803C143.636 59.5537 143.755 59.9229 143.755 60.3877ZM142.825 63.8125C142.825 63.3704 142.657 63.0514 142.319 62.8555C141.987 62.6595 141.501 62.5615 140.863 62.5615H138.942V65.0771H140.891C141.52 65.0771 141.998 64.9814 142.326 64.79C142.659 64.5941 142.825 64.2682 142.825 63.8125ZM142.6 60.5176C142.6 60.1621 142.47 59.8978 142.21 59.7246C141.95 59.5469 141.524 59.458 140.932 59.458H138.942V61.6113H140.733C141.349 61.6113 141.813 61.5225 142.128 61.3447C142.442 61.167 142.6 60.8913 142.6 60.5176ZM150.946 59.4717H148.479V66H147.357V59.4717H144.924V58.5078H150.946V59.4717ZM158.89 62.2402C158.89 62.8555 158.81 63.4046 158.65 63.8877C158.491 64.3708 158.261 64.7786 157.96 65.1113C157.659 65.444 157.295 65.6992 156.866 65.877C156.442 66.0501 155.962 66.1367 155.424 66.1367C154.923 66.1367 154.462 66.0501 154.043 65.877C153.628 65.6992 153.268 65.444 152.963 65.1113C152.662 64.7786 152.427 64.3708 152.259 63.8877C152.095 63.4046 152.013 62.8555 152.013 62.2402C152.013 61.4199 152.152 60.7227 152.43 60.1484C152.708 59.5697 153.104 59.1299 153.619 58.8291C154.139 58.5238 154.756 58.3711 155.472 58.3711C156.155 58.3711 156.752 58.5238 157.263 58.8291C157.778 59.1344 158.176 59.5765 158.459 60.1553C158.746 60.7295 158.89 61.4245 158.89 62.2402ZM153.188 62.2402C153.188 62.8418 153.268 63.3636 153.428 63.8057C153.587 64.2477 153.833 64.5895 154.166 64.8311C154.499 65.0726 154.927 65.1934 155.451 65.1934C155.971 65.1934 156.397 65.0726 156.729 64.8311C157.067 64.5895 157.315 64.2477 157.475 63.8057C157.634 63.3636 157.714 62.8418 157.714 62.2402C157.714 61.6432 157.634 61.1283 157.475 60.6953C157.315 60.2578 157.069 59.9206 156.736 59.6836C156.404 59.4466 155.973 59.3281 155.444 59.3281C154.665 59.3281 154.093 59.5856 153.729 60.1006C153.368 60.6156 153.188 61.3288 153.188 62.2402ZM162.779 58.3711C163.34 58.3711 163.825 58.4486 164.235 58.6035C164.646 58.7539 164.962 58.9749 165.186 59.2666C165.409 59.5583 165.521 59.9137 165.521 60.333C165.521 60.7842 165.397 61.1442 165.151 61.4131C164.905 61.682 164.566 61.8757 164.133 61.9941V62.0488C164.438 62.1309 164.714 62.2493 164.96 62.4043C165.211 62.5547 165.409 62.7552 165.555 63.0059C165.705 63.252 165.78 63.5596 165.78 63.9287C165.78 64.348 165.666 64.7262 165.438 65.0635C165.211 65.3962 164.864 65.6582 164.399 65.8496C163.935 66.041 163.347 66.1367 162.636 66.1367C162.285 66.1367 161.952 66.1162 161.638 66.0752C161.323 66.0387 161.038 65.984 160.783 65.9111C160.528 65.8382 160.305 65.7516 160.113 65.6514V64.6191C160.432 64.7741 160.806 64.9108 161.234 65.0293C161.663 65.1478 162.125 65.207 162.622 65.207C163.005 65.207 163.349 65.1637 163.654 65.0771C163.96 64.986 164.201 64.8424 164.379 64.6465C164.561 64.446 164.652 64.1839 164.652 63.8604C164.652 63.5641 164.573 63.3203 164.413 63.1289C164.254 62.9329 164.014 62.7894 163.695 62.6982C163.381 62.6025 162.982 62.5547 162.499 62.5547H161.494V61.625H162.321C162.964 61.625 163.477 61.5339 163.859 61.3516C164.242 61.1693 164.434 60.8617 164.434 60.4287C164.434 60.055 164.285 59.777 163.989 59.5947C163.693 59.4079 163.269 59.3145 162.718 59.3145C162.308 59.3145 161.945 59.3577 161.631 59.4443C161.316 59.5264 160.977 59.6449 160.612 59.7998L160.209 58.8906C160.601 58.7174 161.011 58.5876 161.439 58.501C161.868 58.4144 162.314 58.3711 162.779 58.3711ZM170.422 58.3848C171.315 58.3848 171.978 58.5853 172.411 58.9863C172.844 59.3874 173.061 60.0277 173.061 60.9072V66H172.233L172.015 64.8926H171.96C171.75 65.166 171.532 65.3962 171.304 65.583C171.076 65.7653 170.812 65.9043 170.511 66C170.215 66.0911 169.85 66.1367 169.417 66.1367C168.961 66.1367 168.556 66.057 168.2 65.8975C167.849 65.738 167.571 65.4964 167.366 65.1729C167.166 64.8493 167.065 64.4391 167.065 63.9424C167.065 63.195 167.362 62.6208 167.954 62.2197C168.547 61.8187 169.449 61.5999 170.661 61.5635L171.953 61.5088V61.0508C171.953 60.4036 171.814 59.9502 171.536 59.6904C171.258 59.4307 170.866 59.3008 170.36 59.3008C169.968 59.3008 169.595 59.3577 169.239 59.4717C168.884 59.5856 168.547 59.7201 168.228 59.875L167.879 59.0137C168.216 58.8405 168.604 58.6924 169.041 58.5693C169.479 58.4463 169.939 58.3848 170.422 58.3848ZM171.939 62.3086L170.798 62.3564C169.864 62.3929 169.205 62.5456 168.822 62.8145C168.439 63.0833 168.248 63.4639 168.248 63.9561C168.248 64.3844 168.378 64.7012 168.638 64.9062C168.897 65.1113 169.242 65.2139 169.67 65.2139C170.335 65.2139 170.88 65.0293 171.304 64.6602C171.728 64.291 171.939 63.7373 171.939 62.999V62.3086ZM181.674 58.5078V66H180.532V59.4854H176.54V66H175.398V58.5078H181.674ZM185.071 58.5078V61.2012C185.071 61.6706 185.199 62.0169 185.454 62.2402C185.714 62.4635 186.09 62.5752 186.582 62.5752C187.056 62.5752 187.487 62.5023 187.874 62.3564C188.261 62.2106 188.653 62.0124 189.05 61.7617V58.5078H190.185V66H189.05V62.6436C188.631 62.9124 188.218 63.1243 187.812 63.2793C187.407 63.4342 186.922 63.5117 186.356 63.5117C185.586 63.5117 184.989 63.3112 184.565 62.9102C184.146 62.5091 183.937 61.9668 183.937 61.2832V58.5078H185.071ZM195.387 58.3848C196.28 58.3848 196.943 58.5853 197.376 58.9863C197.809 59.3874 198.025 60.0277 198.025 60.9072V66H197.198L196.979 64.8926H196.925C196.715 65.166 196.496 65.3962 196.269 65.583C196.041 65.7653 195.776 65.9043 195.476 66C195.179 66.0911 194.815 66.1367 194.382 66.1367C193.926 66.1367 193.521 66.057 193.165 65.8975C192.814 65.738 192.536 65.4964 192.331 65.1729C192.131 64.8493 192.03 64.4391 192.03 63.9424C192.03 63.195 192.326 62.6208 192.919 62.2197C193.511 61.8187 194.414 61.5999 195.626 61.5635L196.918 61.5088V61.0508C196.918 60.4036 196.779 59.9502 196.501 59.6904C196.223 59.4307 195.831 59.3008 195.325 59.3008C194.933 59.3008 194.56 59.3577 194.204 59.4717C193.849 59.5856 193.511 59.7201 193.192 59.875L192.844 59.0137C193.181 58.8405 193.568 58.6924 194.006 58.5693C194.443 58.4463 194.904 58.3848 195.387 58.3848ZM196.904 62.3086L195.763 62.3564C194.828 62.3929 194.17 62.5456 193.787 62.8145C193.404 63.0833 193.213 63.4639 193.213 63.9561C193.213 64.3844 193.343 64.7012 193.603 64.9062C193.862 65.1113 194.206 65.2139 194.635 65.2139C195.3 65.2139 195.845 65.0293 196.269 64.6602C196.692 64.291 196.904 63.7373 196.904 62.999V62.3086ZM203.364 66.1367C202.69 66.1367 202.095 65.9977 201.58 65.7197C201.065 65.4417 200.664 65.0179 200.377 64.4482C200.09 63.8786 199.946 63.1608 199.946 62.2949C199.946 61.388 200.097 60.6475 200.397 60.0732C200.703 59.4945 201.122 59.0661 201.655 58.7881C202.188 58.5101 202.795 58.3711 203.474 58.3711C203.847 58.3711 204.207 58.4098 204.554 58.4873C204.905 58.5602 205.192 58.6536 205.415 58.7676L205.073 59.7178C204.845 59.6266 204.581 59.5446 204.28 59.4717C203.984 59.3988 203.706 59.3623 203.446 59.3623C202.927 59.3623 202.494 59.474 202.147 59.6973C201.806 59.9206 201.548 60.2487 201.375 60.6816C201.206 61.1146 201.122 61.6478 201.122 62.2812C201.122 62.8874 201.204 63.4046 201.368 63.833C201.537 64.2614 201.785 64.5895 202.113 64.8174C202.446 65.0407 202.861 65.1523 203.357 65.1523C203.754 65.1523 204.112 65.1113 204.431 65.0293C204.75 64.9427 205.039 64.8424 205.299 64.7285V65.7402C205.048 65.8678 204.768 65.9658 204.458 66.0342C204.153 66.1025 203.788 66.1367 203.364 66.1367ZM212.183 59.4717H209.715V66H208.594V59.4717H206.16V58.5078H212.183V59.4717ZM216.551 58.3711C217.189 58.3711 217.736 58.5124 218.191 58.7949C218.647 59.0775 218.996 59.474 219.237 59.9844C219.479 60.4902 219.6 61.0827 219.6 61.7617V62.4658H214.425C214.438 63.3454 214.657 64.0153 215.081 64.4756C215.505 64.9359 216.102 65.166 216.872 65.166C217.346 65.166 217.765 65.1227 218.13 65.0361C218.494 64.9495 218.873 64.8219 219.265 64.6533V65.6514C218.886 65.82 218.51 65.943 218.137 66.0205C217.768 66.098 217.33 66.1367 216.824 66.1367C216.104 66.1367 215.475 65.9909 214.938 65.6992C214.404 65.403 213.99 64.9701 213.693 64.4004C213.397 63.8307 213.249 63.1335 213.249 62.3086C213.249 61.502 213.383 60.8047 213.652 60.2168C213.926 59.6243 214.309 59.1686 214.801 58.8496C215.298 58.5306 215.881 58.3711 216.551 58.3711ZM216.537 59.3008C215.931 59.3008 215.448 59.499 215.088 59.8955C214.728 60.292 214.514 60.8457 214.445 61.5566H218.41C218.406 61.11 218.335 60.7181 218.198 60.3809C218.066 60.0391 217.863 59.7747 217.59 59.5879C217.316 59.3965 216.965 59.3008 216.537 59.3008ZM222.607 58.5078V63.2178C222.607 63.3089 222.605 63.4274 222.601 63.5732C222.596 63.7145 222.589 63.8672 222.58 64.0312C222.571 64.1908 222.562 64.3457 222.553 64.4961C222.548 64.6419 222.541 64.7627 222.532 64.8584L226.62 58.5078H228.015V66H226.955V61.4062C226.955 61.2604 226.957 61.0736 226.962 60.8457C226.966 60.6178 226.973 60.3945 226.982 60.1758C226.992 59.9525 226.998 59.7793 227.003 59.6562L222.929 66H221.527V58.5078H222.607ZM227.454 55.4248C227.413 55.8851 227.297 56.2702 227.105 56.5801C226.919 56.89 226.643 57.1247 226.278 57.2842C225.914 57.4391 225.447 57.5166 224.877 57.5166C224.289 57.5166 223.815 57.4414 223.455 57.291C223.1 57.1361 222.835 56.9036 222.662 56.5938C222.493 56.2839 222.393 55.8942 222.361 55.4248H223.428C223.478 55.9261 223.612 56.2679 223.831 56.4502C224.05 56.6325 224.405 56.7236 224.897 56.7236C225.335 56.7236 225.679 56.6279 225.93 56.4365C226.18 56.2451 226.331 55.9079 226.381 55.4248H227.454ZM240.019 60.3877C240.019 60.8571 239.882 61.224 239.608 61.4883C239.335 61.748 238.982 61.9235 238.549 62.0146V62.0693C239.018 62.1331 239.422 62.3018 239.759 62.5752C240.101 62.8441 240.271 63.2565 240.271 63.8125C240.271 64.2409 240.169 64.6191 239.964 64.9473C239.759 65.2754 239.438 65.5329 239 65.7197C238.562 65.9066 237.993 66 237.291 66H234.064V58.5078H237.264C237.801 58.5078 238.275 58.5693 238.686 58.6924C239.1 58.8109 239.426 59.0068 239.663 59.2803C239.9 59.5537 240.019 59.9229 240.019 60.3877ZM239.089 63.8125C239.089 63.3704 238.92 63.0514 238.583 62.8555C238.25 62.6595 237.765 62.5615 237.127 62.5615H235.206V65.0771H237.154C237.783 65.0771 238.262 64.9814 238.59 64.79C238.923 64.5941 239.089 64.2682 239.089 63.8125ZM238.863 60.5176C238.863 60.1621 238.733 59.8978 238.474 59.7246C238.214 59.5469 237.788 59.458 237.195 59.458H235.206V61.6113H236.997C237.612 61.6113 238.077 61.5225 238.392 61.3447C238.706 61.167 238.863 60.8913 238.863 60.5176ZM245.351 61.502C245.351 60.4355 245.453 59.5264 245.658 58.7744C245.863 58.0179 246.18 57.4118 246.608 56.9561C247.041 56.4958 247.597 56.1813 248.276 56.0127C248.86 55.8532 249.452 55.7165 250.054 55.6025C250.655 55.484 251.241 55.3815 251.811 55.2949L252.009 56.293C251.722 56.334 251.421 56.3818 251.106 56.4365C250.792 56.4867 250.478 56.5413 250.163 56.6006C249.849 56.6553 249.552 56.7145 249.274 56.7783C248.996 56.8376 248.75 56.8991 248.536 56.9629C248.149 57.0677 247.814 57.25 247.531 57.5098C247.253 57.7695 247.032 58.1273 246.868 58.583C246.709 59.0387 246.613 59.613 246.581 60.3057H246.663C246.8 60.1051 246.987 59.9069 247.224 59.7109C247.461 59.515 247.743 59.3532 248.071 59.2256C248.399 59.0934 248.769 59.0273 249.179 59.0273C249.826 59.0273 250.366 59.1686 250.799 59.4512C251.232 59.7292 251.558 60.1211 251.776 60.627C251.995 61.1328 252.104 61.7253 252.104 62.4043C252.104 63.2201 251.963 63.9059 251.681 64.4619C251.403 65.0179 251.011 65.4372 250.505 65.7197C249.999 65.9977 249.404 66.1367 248.721 66.1367C248.192 66.1367 247.718 66.0342 247.299 65.8291C246.884 65.624 246.531 65.3232 246.239 64.9268C245.952 64.5303 245.731 64.0449 245.576 63.4707C245.426 62.8965 245.351 62.2402 245.351 61.502ZM248.81 65.1934C249.243 65.1934 249.614 65.1022 249.924 64.9199C250.238 64.7376 250.48 64.4505 250.648 64.0586C250.822 63.6621 250.908 63.1471 250.908 62.5137C250.908 61.7207 250.756 61.1009 250.45 60.6543C250.149 60.2031 249.666 59.9775 249.001 59.9775C248.586 59.9775 248.21 60.0664 247.873 60.2441C247.536 60.4173 247.251 60.6247 247.019 60.8662C246.786 61.1077 246.618 61.3242 246.513 61.5156C246.513 61.9805 246.547 62.4316 246.615 62.8691C246.684 63.3066 246.802 63.7008 246.971 64.0518C247.139 64.4027 247.372 64.6807 247.668 64.8857C247.969 65.0908 248.349 65.1934 248.81 65.1934ZM256.869 58.3848C257.762 58.3848 258.425 58.5853 258.858 58.9863C259.291 59.3874 259.508 60.0277 259.508 60.9072V66H258.681L258.462 64.8926H258.407C258.198 65.166 257.979 65.3962 257.751 65.583C257.523 65.7653 257.259 65.9043 256.958 66C256.662 66.0911 256.297 66.1367 255.864 66.1367C255.409 66.1367 255.003 66.057 254.647 65.8975C254.297 65.738 254.019 65.4964 253.813 65.1729C253.613 64.8493 253.513 64.4391 253.513 63.9424C253.513 63.195 253.809 62.6208 254.401 62.2197C254.994 61.8187 255.896 61.5999 257.108 61.5635L258.4 61.5088V61.0508C258.4 60.4036 258.261 59.9502 257.983 59.6904C257.705 59.4307 257.313 59.3008 256.808 59.3008C256.416 59.3008 256.042 59.3577 255.687 59.4717C255.331 59.5856 254.994 59.7201 254.675 59.875L254.326 59.0137C254.663 58.8405 255.051 58.6924 255.488 58.5693C255.926 58.4463 256.386 58.3848 256.869 58.3848ZM258.387 62.3086L257.245 62.3564C256.311 62.3929 255.652 62.5456 255.27 62.8145C254.887 63.0833 254.695 63.4639 254.695 63.9561C254.695 64.3844 254.825 64.7012 255.085 64.9062C255.345 65.1113 255.689 65.2139 256.117 65.2139C256.783 65.2139 257.327 65.0293 257.751 64.6602C258.175 64.291 258.387 63.7373 258.387 62.999V62.3086ZM263.773 58.3711C264.334 58.3711 264.819 58.4486 265.229 58.6035C265.64 58.7539 265.956 58.9749 266.18 59.2666C266.403 59.5583 266.515 59.9137 266.515 60.333C266.515 60.7842 266.392 61.1442 266.146 61.4131C265.899 61.682 265.56 61.8757 265.127 61.9941V62.0488C265.432 62.1309 265.708 62.2493 265.954 62.4043C266.205 62.5547 266.403 62.7552 266.549 63.0059C266.699 63.252 266.774 63.5596 266.774 63.9287C266.774 64.348 266.66 64.7262 266.433 65.0635C266.205 65.3962 265.858 65.6582 265.394 65.8496C264.929 66.041 264.341 66.1367 263.63 66.1367C263.279 66.1367 262.946 66.1162 262.632 66.0752C262.317 66.0387 262.033 65.984 261.777 65.9111C261.522 65.8382 261.299 65.7516 261.107 65.6514V64.6191C261.426 64.7741 261.8 64.9108 262.229 65.0293C262.657 65.1478 263.119 65.207 263.616 65.207C263.999 65.207 264.343 65.1637 264.648 65.0771C264.954 64.986 265.195 64.8424 265.373 64.6465C265.555 64.446 265.646 64.1839 265.646 63.8604C265.646 63.5641 265.567 63.3203 265.407 63.1289C265.248 62.9329 265.008 62.7894 264.689 62.6982C264.375 62.6025 263.976 62.5547 263.493 62.5547H262.488V61.625H263.315C263.958 61.625 264.471 61.5339 264.854 61.3516C265.236 61.1693 265.428 60.8617 265.428 60.4287C265.428 60.055 265.28 59.777 264.983 59.5947C264.687 59.4079 264.263 59.3145 263.712 59.3145C263.302 59.3145 262.939 59.3577 262.625 59.4443C262.311 59.5264 261.971 59.6449 261.606 59.7998L261.203 58.8906C261.595 58.7174 262.005 58.5876 262.434 58.501C262.862 58.4144 263.309 58.3711 263.773 58.3711ZM271.498 58.3711C272.136 58.3711 272.683 58.5124 273.139 58.7949C273.594 59.0775 273.943 59.474 274.185 59.9844C274.426 60.4902 274.547 61.0827 274.547 61.7617V62.4658H269.372C269.386 63.3454 269.604 64.0153 270.028 64.4756C270.452 64.9359 271.049 65.166 271.819 65.166C272.293 65.166 272.713 65.1227 273.077 65.0361C273.442 64.9495 273.82 64.8219 274.212 64.6533V65.6514C273.834 65.82 273.458 65.943 273.084 66.0205C272.715 66.098 272.277 66.1367 271.771 66.1367C271.051 66.1367 270.423 65.9909 269.885 65.6992C269.352 65.403 268.937 64.9701 268.641 64.4004C268.344 63.8307 268.196 63.1335 268.196 62.3086C268.196 61.502 268.331 60.8047 268.6 60.2168C268.873 59.6243 269.256 59.1686 269.748 58.8496C270.245 58.5306 270.828 58.3711 271.498 58.3711ZM271.484 59.3008C270.878 59.3008 270.395 59.499 270.035 59.8955C269.675 60.292 269.461 60.8457 269.393 61.5566H273.357C273.353 61.11 273.282 60.7181 273.146 60.3809C273.013 60.0391 272.811 59.7747 272.537 59.5879C272.264 59.3965 271.913 59.3008 271.484 59.3008ZM145.621 77.5078V85H144.479V78.4854H140.487V85H139.346V77.5078H145.621ZM154.487 81.2402C154.487 81.8555 154.408 82.4046 154.248 82.8877C154.089 83.3708 153.858 83.7786 153.558 84.1113C153.257 84.444 152.892 84.6992 152.464 84.877C152.04 85.0501 151.559 85.1367 151.021 85.1367C150.52 85.1367 150.06 85.0501 149.641 84.877C149.226 84.6992 148.866 84.444 148.561 84.1113C148.26 83.7786 148.025 83.3708 147.856 82.8877C147.692 82.4046 147.61 81.8555 147.61 81.2402C147.61 80.4199 147.749 79.7227 148.027 79.1484C148.305 78.5697 148.702 78.1299 149.217 77.8291C149.736 77.5238 150.354 77.3711 151.069 77.3711C151.753 77.3711 152.35 77.5238 152.86 77.8291C153.375 78.1344 153.774 78.5765 154.057 79.1553C154.344 79.7295 154.487 80.4245 154.487 81.2402ZM148.786 81.2402C148.786 81.8418 148.866 82.3636 149.025 82.8057C149.185 83.2477 149.431 83.5895 149.764 83.8311C150.096 84.0726 150.525 84.1934 151.049 84.1934C151.568 84.1934 151.994 84.0726 152.327 83.8311C152.664 83.5895 152.913 83.2477 153.072 82.8057C153.232 82.3636 153.312 81.8418 153.312 81.2402C153.312 80.6432 153.232 80.1283 153.072 79.6953C152.913 79.2578 152.667 78.9206 152.334 78.6836C152.001 78.4466 151.571 78.3281 151.042 78.3281C150.263 78.3281 149.691 78.5856 149.326 79.1006C148.966 79.6156 148.786 80.3288 148.786 81.2402ZM159.45 85.1367C158.776 85.1367 158.181 84.9977 157.666 84.7197C157.151 84.4417 156.75 84.0179 156.463 83.4482C156.176 82.8786 156.032 82.1608 156.032 81.2949C156.032 80.388 156.183 79.6475 156.483 79.0732C156.789 78.4945 157.208 78.0661 157.741 77.7881C158.274 77.5101 158.881 77.3711 159.56 77.3711C159.933 77.3711 160.293 77.4098 160.64 77.4873C160.991 77.5602 161.278 77.6536 161.501 77.7676L161.159 78.7178C160.931 78.6266 160.667 78.5446 160.366 78.4717C160.07 78.3988 159.792 78.3623 159.532 78.3623C159.013 78.3623 158.58 78.474 158.233 78.6973C157.892 78.9206 157.634 79.2487 157.461 79.6816C157.292 80.1146 157.208 80.6478 157.208 81.2812C157.208 81.8874 157.29 82.4046 157.454 82.833C157.623 83.2614 157.871 83.5895 158.199 83.8174C158.532 84.0407 158.947 84.1523 159.443 84.1523C159.84 84.1523 160.198 84.1113 160.517 84.0293C160.836 83.9427 161.125 83.8424 161.385 83.7285V84.7402C161.134 84.8678 160.854 84.9658 160.544 85.0342C160.239 85.1025 159.874 85.1367 159.45 85.1367ZM168.269 78.4717H165.801V85H164.68V78.4717H162.246V77.5078H168.269V78.4717ZM172.555 77.3848C173.448 77.3848 174.111 77.5853 174.544 77.9863C174.977 78.3874 175.193 79.0277 175.193 79.9072V85H174.366L174.147 83.8926H174.093C173.883 84.166 173.664 84.3962 173.437 84.583C173.209 84.7653 172.944 84.9043 172.644 85C172.347 85.0911 171.983 85.1367 171.55 85.1367C171.094 85.1367 170.688 85.057 170.333 84.8975C169.982 84.738 169.704 84.4964 169.499 84.1729C169.299 83.8493 169.198 83.4391 169.198 82.9424C169.198 82.195 169.494 81.6208 170.087 81.2197C170.679 80.8187 171.582 80.5999 172.794 80.5635L174.086 80.5088V80.0508C174.086 79.4036 173.947 78.9502 173.669 78.6904C173.391 78.4307 172.999 78.3008 172.493 78.3008C172.101 78.3008 171.728 78.3577 171.372 78.4717C171.017 78.5856 170.679 78.7201 170.36 78.875L170.012 78.0137C170.349 77.8405 170.736 77.6924 171.174 77.5693C171.611 77.4463 172.072 77.3848 172.555 77.3848ZM174.072 81.3086L172.931 81.3564C171.996 81.3929 171.338 81.5456 170.955 81.8145C170.572 82.0833 170.381 82.4639 170.381 82.9561C170.381 83.3844 170.511 83.7012 170.771 83.9062C171.03 84.1113 171.374 84.2139 171.803 84.2139C172.468 84.2139 173.013 84.0293 173.437 83.6602C173.86 83.291 174.072 82.7373 174.072 81.999V81.3086ZM183.485 79.3877C183.485 79.8571 183.349 80.224 183.075 80.4883C182.802 80.748 182.449 80.9235 182.016 81.0146V81.0693C182.485 81.1331 182.888 81.3018 183.226 81.5752C183.567 81.8441 183.738 82.2565 183.738 82.8125C183.738 83.2409 183.636 83.6191 183.431 83.9473C183.226 84.2754 182.904 84.5329 182.467 84.7197C182.029 84.9066 181.46 85 180.758 85H177.531V77.5078H180.73C181.268 77.5078 181.742 77.5693 182.152 77.6924C182.567 77.8109 182.893 78.0068 183.13 78.2803C183.367 78.5537 183.485 78.9229 183.485 79.3877ZM182.556 82.8125C182.556 82.3704 182.387 82.0514 182.05 81.8555C181.717 81.6595 181.232 81.5615 180.594 81.5615H178.673V84.0771H180.621C181.25 84.0771 181.729 83.9814 182.057 83.79C182.389 83.5941 182.556 83.2682 182.556 82.8125ZM182.33 79.5176C182.33 79.1621 182.2 78.8978 181.94 78.7246C181.681 78.5469 181.255 78.458 180.662 78.458H178.673V80.6113H180.464C181.079 80.6113 181.544 80.5225 181.858 80.3447C182.173 80.167 182.33 79.8913 182.33 79.5176ZM195.612 77.5078V84.0498H196.686V87.5771H195.544V85H185.57V77.5078H186.705V84.0361H190.021V77.5078H191.162V84.0361H194.484V77.5078H195.612ZM199.215 77.5078V82.2178C199.215 82.3089 199.213 82.4274 199.208 82.5732C199.203 82.7145 199.197 82.8672 199.188 83.0312C199.178 83.1908 199.169 83.3457 199.16 83.4961C199.156 83.6419 199.149 83.7627 199.14 83.8584L203.228 77.5078H204.622V85H203.562V80.4062C203.562 80.2604 203.565 80.0736 203.569 79.8457C203.574 79.6178 203.581 79.3945 203.59 79.1758C203.599 78.9525 203.606 78.7793 203.61 78.6562L199.536 85H198.135V77.5078H199.215ZM211.403 77.5078H212.654L209.421 81.124L212.914 85H211.581L208.177 81.1992V85H207.035V77.5078H208.177V81.1445L211.403 77.5078ZM217.07 77.3848C217.964 77.3848 218.627 77.5853 219.06 77.9863C219.493 78.3874 219.709 79.0277 219.709 79.9072V85H218.882L218.663 83.8926H218.608C218.399 84.166 218.18 84.3962 217.952 84.583C217.724 84.7653 217.46 84.9043 217.159 85C216.863 85.0911 216.498 85.1367 216.065 85.1367C215.61 85.1367 215.204 85.057 214.849 84.8975C214.498 84.738 214.22 84.4964 214.015 84.1729C213.814 83.8493 213.714 83.4391 213.714 82.9424C213.714 82.195 214.01 81.6208 214.603 81.2197C215.195 80.8187 216.097 80.5999 217.31 80.5635L218.602 80.5088V80.0508C218.602 79.4036 218.463 78.9502 218.185 78.6904C217.907 78.4307 217.515 78.3008 217.009 78.3008C216.617 78.3008 216.243 78.3577 215.888 78.4717C215.532 78.5856 215.195 78.7201 214.876 78.875L214.527 78.0137C214.865 77.8405 215.252 77.6924 215.689 77.5693C216.127 77.4463 216.587 77.3848 217.07 77.3848ZM218.588 81.3086L217.446 81.3564C216.512 81.3929 215.854 81.5456 215.471 81.8145C215.088 82.0833 214.896 82.4639 214.896 82.9561C214.896 83.3844 215.026 83.7012 215.286 83.9062C215.546 84.1113 215.89 84.2139 216.318 84.2139C216.984 84.2139 217.528 84.0293 217.952 83.6602C218.376 83.291 218.588 82.7373 218.588 81.999V81.3086Z" fill="black"/>
<defs>
<filter id="filter0_d_1984_14801" x="0" y="0" width="359" height="133" filterUnits="userSpaceOnUse" color-interpolation-filters="sRGB">
<feFlood flood-opacity="0" result="BackgroundImageFix"/>
<feColorMatrix in="SourceAlpha" type="matrix" values="0 0 0 0 0 0 0 0 0 0 0 0 0 0 0 0 0 0 127 0" result="hardAlpha"/>
<feMorphology radius="3" operator="erode" in="SourceAlpha" result="effect1_dropShadow_1984_14801"/>
<feOffset dy="1"/>
<feGaussianBlur stdDeviation="17.5"/>
<feComposite in2="hardAlpha" operator="out"/>
<feColorMatrix type="matrix" values="0 0 0 0 0 0 0 0 0 0 0 0 0 0 0 0 0 0 0.15 0"/>
<feBlend mode="normal" in2="BackgroundImageFix" result="effect1_dropShadow_1984_14801"/>
<feBlend mode="normal" in="SourceGraphic" in2="effect1_dropShadow_1984_14801" result="shape"/>
</filter>
</defs>
</svg>
