<svg width="359" height="133" viewBox="0 0 359 133" fill="none" xmlns="http://www.w3.org/2000/svg">
<g filter="url(#filter0_d_1984_14806)">
<path fill-rule="evenodd" clip-rule="evenodd" d="M189.607 41.0001H317C322.523 41.0001 327 45.4773 327 51.0001V90.0001C327 95.523 322.523 100 317 100H42C36.4771 100 32 95.523 32 90.0001V51.0001C32 45.4773 36.4772 41.0001 42 41.0001H169.606L179.607 30.9998L189.607 41.0001Z" fill="white"/>
</g>
<path d="M97.3389 60.9893C97.3389 61.7594 97.2409 62.4613 97.0449 63.0947C96.849 63.7236 96.5573 64.266 96.1699 64.7217C95.7871 65.1729 95.3109 65.5215 94.7412 65.7676C94.1715 66.0137 93.5107 66.1367 92.7588 66.1367C91.984 66.1367 91.3073 66.0137 90.7285 65.7676C90.1543 65.5215 89.6758 65.1706 89.293 64.7148C88.9147 64.2591 88.6299 63.7145 88.4385 63.0811C88.2516 62.4476 88.1582 61.7458 88.1582 60.9756C88.1582 59.9548 88.3268 59.0592 88.6641 58.2891C89.0013 57.5189 89.5117 56.9196 90.1953 56.4912C90.8835 56.0628 91.7448 55.8486 92.7793 55.8486C93.7682 55.8486 94.5999 56.0605 95.2744 56.4844C95.9535 56.9082 96.4661 57.5052 96.8125 58.2754C97.1634 59.041 97.3389 59.9456 97.3389 60.9893ZM89.3818 60.9893C89.3818 61.8369 89.5026 62.5706 89.7441 63.1904C89.9857 63.8102 90.3548 64.2887 90.8516 64.626C91.3529 64.9632 91.9886 65.1318 92.7588 65.1318C93.5335 65.1318 94.167 64.9632 94.6592 64.626C95.1559 64.2887 95.5228 63.8102 95.7598 63.1904C95.9967 62.5706 96.1152 61.8369 96.1152 60.9893C96.1152 59.6995 95.8441 58.6924 95.3018 57.9678C94.764 57.2386 93.9232 56.874 92.7793 56.874C92.0046 56.874 91.3665 57.0404 90.8652 57.373C90.3639 57.7057 89.9902 58.1797 89.7441 58.7949C89.5026 59.4056 89.3818 60.137 89.3818 60.9893ZM104.503 59.4717H102.035V66H100.914V59.4717H98.4805V58.5078H104.503V59.4717ZM112.262 58.5078V66H111.12V59.4854H107.128V66H105.986V58.5078H112.262ZM118.188 58.3711C119.123 58.3711 119.868 58.6924 120.424 59.335C120.98 59.9775 121.258 60.9437 121.258 62.2334C121.258 63.0856 121.13 63.8011 120.875 64.3799C120.62 64.9587 120.26 65.3962 119.795 65.6924C119.335 65.9886 118.79 66.1367 118.161 66.1367C117.765 66.1367 117.416 66.0843 117.115 65.9795C116.814 65.8747 116.557 65.7334 116.343 65.5557C116.129 65.3779 115.951 65.1842 115.81 64.9746H115.728C115.741 65.1523 115.757 65.3665 115.775 65.6172C115.798 65.8678 115.81 66.0866 115.81 66.2734V69.3496H114.668V58.5078H115.604L115.755 59.6152H115.81C115.955 59.3874 116.133 59.18 116.343 58.9932C116.552 58.8018 116.808 58.6514 117.108 58.542C117.414 58.4281 117.774 58.3711 118.188 58.3711ZM117.99 59.3281C117.471 59.3281 117.051 59.4284 116.732 59.6289C116.418 59.8294 116.188 60.1302 116.042 60.5312C115.896 60.9277 115.819 61.4268 115.81 62.0283V62.2471C115.81 62.8805 115.878 63.416 116.015 63.8535C116.156 64.291 116.386 64.6237 116.705 64.8516C117.029 65.0794 117.462 65.1934 118.004 65.1934C118.469 65.1934 118.856 65.068 119.166 64.8174C119.476 64.5667 119.706 64.2181 119.856 63.7715C120.011 63.3203 120.089 62.8031 120.089 62.2197C120.089 61.3356 119.916 60.6338 119.569 60.1143C119.228 59.5902 118.701 59.3281 117.99 59.3281ZM126.043 58.3848C126.936 58.3848 127.599 58.5853 128.032 58.9863C128.465 59.3874 128.682 60.0277 128.682 60.9072V66H127.854L127.636 64.8926H127.581C127.371 65.166 127.153 65.3962 126.925 65.583C126.697 65.7653 126.433 65.9043 126.132 66C125.836 66.0911 125.471 66.1367 125.038 66.1367C124.582 66.1367 124.177 66.057 123.821 65.8975C123.47 65.738 123.192 65.4964 122.987 65.1729C122.787 64.8493 122.687 64.4391 122.687 63.9424C122.687 63.195 122.983 62.6208 123.575 62.2197C124.168 61.8187 125.07 61.5999 126.282 61.5635L127.574 61.5088V61.0508C127.574 60.4036 127.435 59.9502 127.157 59.6904C126.879 59.4307 126.487 59.3008 125.981 59.3008C125.59 59.3008 125.216 59.3577 124.86 59.4717C124.505 59.5856 124.168 59.7201 123.849 59.875L123.5 59.0137C123.837 58.8405 124.225 58.6924 124.662 58.5693C125.1 58.4463 125.56 58.3848 126.043 58.3848ZM127.561 62.3086L126.419 62.3564C125.485 62.3929 124.826 62.5456 124.443 62.8145C124.061 63.0833 123.869 63.4639 123.869 63.9561C123.869 64.3844 123.999 64.7012 124.259 64.9062C124.519 65.1113 124.863 65.2139 125.291 65.2139C125.956 65.2139 126.501 65.0293 126.925 64.6602C127.349 64.291 127.561 63.7373 127.561 62.999V62.3086ZM136.974 60.3877C136.974 60.8571 136.837 61.224 136.563 61.4883C136.29 61.748 135.937 61.9235 135.504 62.0146V62.0693C135.973 62.1331 136.377 62.3018 136.714 62.5752C137.056 62.8441 137.227 63.2565 137.227 63.8125C137.227 64.2409 137.124 64.6191 136.919 64.9473C136.714 65.2754 136.393 65.5329 135.955 65.7197C135.518 65.9066 134.948 66 134.246 66H131.02V58.5078H134.219C134.757 58.5078 135.23 58.5693 135.641 58.6924C136.055 58.8109 136.381 59.0068 136.618 59.2803C136.855 59.5537 136.974 59.9229 136.974 60.3877ZM136.044 63.8125C136.044 63.3704 135.875 63.0514 135.538 62.8555C135.205 62.6595 134.72 62.5615 134.082 62.5615H132.161V65.0771H134.109C134.738 65.0771 135.217 64.9814 135.545 64.79C135.878 64.5941 136.044 64.2682 136.044 63.8125ZM135.818 60.5176C135.818 60.1621 135.688 59.8978 135.429 59.7246C135.169 59.5469 134.743 59.458 134.15 59.458H132.161V61.6113H133.952C134.567 61.6113 135.032 61.5225 135.347 61.3447C135.661 61.167 135.818 60.8913 135.818 60.5176ZM143.427 58.5078H144.678L141.444 62.124L144.938 66H143.604L140.2 62.1992V66H139.059V58.5078H140.2V62.1445L143.427 58.5078ZM149.094 58.3848C149.987 58.3848 150.65 58.5853 151.083 58.9863C151.516 59.3874 151.732 60.0277 151.732 60.9072V66H150.905L150.687 64.8926H150.632C150.422 65.166 150.203 65.3962 149.976 65.583C149.748 65.7653 149.483 65.9043 149.183 66C148.886 66.0911 148.522 66.1367 148.089 66.1367C147.633 66.1367 147.228 66.057 146.872 65.8975C146.521 65.738 146.243 65.4964 146.038 65.1729C145.838 64.8493 145.737 64.4391 145.737 63.9424C145.737 63.195 146.034 62.6208 146.626 62.2197C147.218 61.8187 148.121 61.5999 149.333 61.5635L150.625 61.5088V61.0508C150.625 60.4036 150.486 59.9502 150.208 59.6904C149.93 59.4307 149.538 59.3008 149.032 59.3008C148.64 59.3008 148.267 59.3577 147.911 59.4717C147.556 59.5856 147.218 59.7201 146.899 59.875L146.551 59.0137C146.888 58.8405 147.275 58.6924 147.713 58.5693C148.15 58.4463 148.611 58.3848 149.094 58.3848ZM150.611 62.3086L149.47 62.3564C148.535 62.3929 147.877 62.5456 147.494 62.8145C147.111 63.0833 146.92 63.4639 146.92 63.9561C146.92 64.3844 147.05 64.7012 147.31 64.9062C147.569 65.1113 147.913 65.2139 148.342 65.2139C149.007 65.2139 149.552 65.0293 149.976 64.6602C150.399 64.291 150.611 63.7373 150.611 62.999V62.3086ZM159.635 58.3711C160.195 58.3711 160.681 58.4486 161.091 58.6035C161.501 58.7539 161.818 58.9749 162.041 59.2666C162.264 59.5583 162.376 59.9137 162.376 60.333C162.376 60.7842 162.253 61.1442 162.007 61.4131C161.761 61.682 161.421 61.8757 160.988 61.9941V62.0488C161.294 62.1309 161.569 62.2493 161.815 62.4043C162.066 62.5547 162.264 62.7552 162.41 63.0059C162.561 63.252 162.636 63.5596 162.636 63.9287C162.636 64.348 162.522 64.7262 162.294 65.0635C162.066 65.3962 161.72 65.6582 161.255 65.8496C160.79 66.041 160.202 66.1367 159.491 66.1367C159.14 66.1367 158.808 66.1162 158.493 66.0752C158.179 66.0387 157.894 65.984 157.639 65.9111C157.383 65.8382 157.16 65.7516 156.969 65.6514V64.6191C157.288 64.7741 157.661 64.9108 158.09 65.0293C158.518 65.1478 158.981 65.207 159.478 65.207C159.86 65.207 160.204 65.1637 160.51 65.0771C160.815 64.986 161.057 64.8424 161.234 64.6465C161.417 64.446 161.508 64.1839 161.508 63.8604C161.508 63.5641 161.428 63.3203 161.269 63.1289C161.109 62.9329 160.87 62.7894 160.551 62.6982C160.236 62.6025 159.838 62.5547 159.354 62.5547H158.35V61.625H159.177C159.819 61.625 160.332 61.5339 160.715 61.3516C161.098 61.1693 161.289 60.8617 161.289 60.4287C161.289 60.055 161.141 59.777 160.845 59.5947C160.549 59.4079 160.125 59.3145 159.573 59.3145C159.163 59.3145 158.801 59.3577 158.486 59.4443C158.172 59.5264 157.832 59.6449 157.468 59.7998L157.064 58.8906C157.456 58.7174 157.867 58.5876 158.295 58.501C158.723 58.4144 159.17 58.3711 159.635 58.3711ZM167.277 58.3848C168.171 58.3848 168.834 58.5853 169.267 58.9863C169.7 59.3874 169.916 60.0277 169.916 60.9072V66H169.089L168.87 64.8926H168.815C168.606 65.166 168.387 65.3962 168.159 65.583C167.931 65.7653 167.667 65.9043 167.366 66C167.07 66.0911 166.705 66.1367 166.272 66.1367C165.817 66.1367 165.411 66.057 165.056 65.8975C164.705 65.738 164.427 65.4964 164.222 65.1729C164.021 64.8493 163.921 64.4391 163.921 63.9424C163.921 63.195 164.217 62.6208 164.81 62.2197C165.402 61.8187 166.304 61.5999 167.517 61.5635L168.809 61.5088V61.0508C168.809 60.4036 168.67 59.9502 168.392 59.6904C168.114 59.4307 167.722 59.3008 167.216 59.3008C166.824 59.3008 166.45 59.3577 166.095 59.4717C165.739 59.5856 165.402 59.7201 165.083 59.875L164.734 59.0137C165.072 58.8405 165.459 58.6924 165.896 58.5693C166.334 58.4463 166.794 58.3848 167.277 58.3848ZM168.795 62.3086L167.653 62.3564C166.719 62.3929 166.061 62.5456 165.678 62.8145C165.295 63.0833 165.104 63.4639 165.104 63.9561C165.104 64.3844 165.233 64.7012 165.493 64.9062C165.753 65.1113 166.097 65.2139 166.525 65.2139C167.191 65.2139 167.735 65.0293 168.159 64.6602C168.583 64.291 168.795 63.7373 168.795 62.999V62.3086ZM176.622 58.5078H177.873L174.64 62.124L178.133 66H176.8L173.396 62.1992V66H172.254V58.5078H173.396V62.1445L176.622 58.5078ZM182.289 58.3848C183.182 58.3848 183.845 58.5853 184.278 58.9863C184.711 59.3874 184.928 60.0277 184.928 60.9072V66H184.101L183.882 64.8926H183.827C183.618 65.166 183.399 65.3962 183.171 65.583C182.943 65.7653 182.679 65.9043 182.378 66C182.082 66.0911 181.717 66.1367 181.284 66.1367C180.828 66.1367 180.423 66.057 180.067 65.8975C179.716 65.738 179.438 65.4964 179.233 65.1729C179.033 64.8493 178.933 64.4391 178.933 63.9424C178.933 63.195 179.229 62.6208 179.821 62.2197C180.414 61.8187 181.316 61.5999 182.528 61.5635L183.82 61.5088V61.0508C183.82 60.4036 183.681 59.9502 183.403 59.6904C183.125 59.4307 182.733 59.3008 182.228 59.3008C181.836 59.3008 181.462 59.3577 181.106 59.4717C180.751 59.5856 180.414 59.7201 180.095 59.875L179.746 59.0137C180.083 58.8405 180.471 58.6924 180.908 58.5693C181.346 58.4463 181.806 58.3848 182.289 58.3848ZM183.807 62.3086L182.665 62.3564C181.731 62.3929 181.072 62.5456 180.689 62.8145C180.307 63.0833 180.115 63.4639 180.115 63.9561C180.115 64.3844 180.245 64.7012 180.505 64.9062C180.765 65.1113 181.109 65.2139 181.537 65.2139C182.202 65.2139 182.747 65.0293 183.171 64.6602C183.595 64.291 183.807 63.7373 183.807 62.999V62.3086ZM189.193 58.3711C189.754 58.3711 190.239 58.4486 190.649 58.6035C191.06 58.7539 191.376 58.9749 191.6 59.2666C191.823 59.5583 191.935 59.9137 191.935 60.333C191.935 60.7842 191.812 61.1442 191.565 61.4131C191.319 61.682 190.98 61.8757 190.547 61.9941V62.0488C190.852 62.1309 191.128 62.2493 191.374 62.4043C191.625 62.5547 191.823 62.7552 191.969 63.0059C192.119 63.252 192.194 63.5596 192.194 63.9287C192.194 64.348 192.08 64.7262 191.853 65.0635C191.625 65.3962 191.278 65.6582 190.813 65.8496C190.349 66.041 189.761 66.1367 189.05 66.1367C188.699 66.1367 188.366 66.1162 188.052 66.0752C187.737 66.0387 187.452 65.984 187.197 65.9111C186.942 65.8382 186.719 65.7516 186.527 65.6514V64.6191C186.846 64.7741 187.22 64.9108 187.648 65.0293C188.077 65.1478 188.539 65.207 189.036 65.207C189.419 65.207 189.763 65.1637 190.068 65.0771C190.374 64.986 190.615 64.8424 190.793 64.6465C190.975 64.446 191.066 64.1839 191.066 63.8604C191.066 63.5641 190.987 63.3203 190.827 63.1289C190.668 62.9329 190.428 62.7894 190.109 62.6982C189.795 62.6025 189.396 62.5547 188.913 62.5547H187.908V61.625H188.735C189.378 61.625 189.891 61.5339 190.273 61.3516C190.656 61.1693 190.848 60.8617 190.848 60.4287C190.848 60.055 190.7 59.777 190.403 59.5947C190.107 59.4079 189.683 59.3145 189.132 59.3145C188.722 59.3145 188.359 59.3577 188.045 59.4443C187.73 59.5264 187.391 59.6449 187.026 59.7998L186.623 58.8906C187.015 58.7174 187.425 58.5876 187.854 58.501C188.282 58.4144 188.729 58.3711 189.193 58.3711ZM196.836 58.3848C197.729 58.3848 198.392 58.5853 198.825 58.9863C199.258 59.3874 199.475 60.0277 199.475 60.9072V66H198.647L198.429 64.8926H198.374C198.164 65.166 197.946 65.3962 197.718 65.583C197.49 65.7653 197.226 65.9043 196.925 66C196.629 66.0911 196.264 66.1367 195.831 66.1367C195.375 66.1367 194.97 66.057 194.614 65.8975C194.263 65.738 193.985 65.4964 193.78 65.1729C193.58 64.8493 193.479 64.4391 193.479 63.9424C193.479 63.195 193.776 62.6208 194.368 62.2197C194.961 61.8187 195.863 61.5999 197.075 61.5635L198.367 61.5088V61.0508C198.367 60.4036 198.228 59.9502 197.95 59.6904C197.672 59.4307 197.28 59.3008 196.774 59.3008C196.382 59.3008 196.009 59.3577 195.653 59.4717C195.298 59.5856 194.961 59.7201 194.642 59.875L194.293 59.0137C194.63 58.8405 195.018 58.6924 195.455 58.5693C195.893 58.4463 196.353 58.3848 196.836 58.3848ZM198.354 62.3086L197.212 62.3564C196.278 62.3929 195.619 62.5456 195.236 62.8145C194.854 63.0833 194.662 63.4639 194.662 63.9561C194.662 64.3844 194.792 64.7012 195.052 64.9062C195.312 65.1113 195.656 65.2139 196.084 65.2139C196.749 65.2139 197.294 65.0293 197.718 64.6602C198.142 64.291 198.354 63.7373 198.354 62.999V62.3086ZM211.403 60.3877C211.403 60.8571 211.267 61.224 210.993 61.4883C210.72 61.748 210.367 61.9235 209.934 62.0146V62.0693C210.403 62.1331 210.806 62.3018 211.144 62.5752C211.485 62.8441 211.656 63.2565 211.656 63.8125C211.656 64.2409 211.554 64.6191 211.349 64.9473C211.144 65.2754 210.822 65.5329 210.385 65.7197C209.947 65.9066 209.378 66 208.676 66H205.449V58.5078H208.648C209.186 58.5078 209.66 58.5693 210.07 58.6924C210.485 58.8109 210.811 59.0068 211.048 59.2803C211.285 59.5537 211.403 59.9229 211.403 60.3877ZM210.474 63.8125C210.474 63.3704 210.305 63.0514 209.968 62.8555C209.635 62.6595 209.15 62.5615 208.512 62.5615H206.591V65.0771H208.539C209.168 65.0771 209.646 64.9814 209.975 64.79C210.307 64.5941 210.474 64.2682 210.474 63.8125ZM210.248 60.5176C210.248 60.1621 210.118 59.8978 209.858 59.7246C209.599 59.5469 209.173 59.458 208.58 59.458H206.591V61.6113H208.382C208.997 61.6113 209.462 61.5225 209.776 61.3447C210.091 61.167 210.248 60.8913 210.248 60.5176ZM221.493 58.5078H222.744L219.511 62.124L223.004 66H221.671L218.267 62.1992V66H217.125V58.5078H218.267V62.1445L221.493 58.5078ZM230.817 62.2402C230.817 62.8555 230.738 63.4046 230.578 63.8877C230.419 64.3708 230.188 64.7786 229.888 65.1113C229.587 65.444 229.222 65.6992 228.794 65.877C228.37 66.0501 227.889 66.1367 227.352 66.1367C226.85 66.1367 226.39 66.0501 225.971 65.877C225.556 65.6992 225.196 65.444 224.891 65.1113C224.59 64.7786 224.355 64.3708 224.187 63.8877C224.022 63.4046 223.94 62.8555 223.94 62.2402C223.94 61.4199 224.079 60.7227 224.357 60.1484C224.635 59.5697 225.032 59.1299 225.547 58.8291C226.066 58.5238 226.684 58.3711 227.399 58.3711C228.083 58.3711 228.68 58.5238 229.19 58.8291C229.705 59.1344 230.104 59.5765 230.387 60.1553C230.674 60.7295 230.817 61.4245 230.817 62.2402ZM225.116 62.2402C225.116 62.8418 225.196 63.3636 225.355 63.8057C225.515 64.2477 225.761 64.5895 226.094 64.8311C226.426 65.0726 226.855 65.1934 227.379 65.1934C227.898 65.1934 228.325 65.0726 228.657 64.8311C228.994 64.5895 229.243 64.2477 229.402 63.8057C229.562 63.3636 229.642 62.8418 229.642 62.2402C229.642 61.6432 229.562 61.1283 229.402 60.6953C229.243 60.2578 228.997 59.9206 228.664 59.6836C228.331 59.4466 227.901 59.3281 227.372 59.3281C226.593 59.3281 226.021 59.5856 225.656 60.1006C225.296 60.6156 225.116 61.3288 225.116 62.2402ZM236.3 58.3711C237.234 58.3711 237.979 58.6924 238.535 59.335C239.091 59.9775 239.369 60.9437 239.369 62.2334C239.369 63.0856 239.242 63.8011 238.986 64.3799C238.731 64.9587 238.371 65.3962 237.906 65.6924C237.446 65.9886 236.901 66.1367 236.272 66.1367C235.876 66.1367 235.527 66.0843 235.227 65.9795C234.926 65.8747 234.668 65.7334 234.454 65.5557C234.24 65.3779 234.062 65.1842 233.921 64.9746H233.839C233.853 65.1523 233.868 65.3665 233.887 65.6172C233.91 65.8678 233.921 66.0866 233.921 66.2734V69.3496H232.779V58.5078H233.716L233.866 59.6152H233.921C234.067 59.3874 234.244 59.18 234.454 58.9932C234.664 58.8018 234.919 58.6514 235.22 58.542C235.525 58.4281 235.885 58.3711 236.3 58.3711ZM236.102 59.3281C235.582 59.3281 235.163 59.4284 234.844 59.6289C234.529 59.8294 234.299 60.1302 234.153 60.5312C234.007 60.9277 233.93 61.4268 233.921 62.0283V62.2471C233.921 62.8805 233.989 63.416 234.126 63.8535C234.267 64.291 234.497 64.6237 234.816 64.8516C235.14 65.0794 235.573 65.1934 236.115 65.1934C236.58 65.1934 236.967 65.068 237.277 64.8174C237.587 64.5667 237.817 64.2181 237.968 63.7715C238.123 63.3203 238.2 62.8031 238.2 62.2197C238.2 61.3356 238.027 60.6338 237.681 60.1143C237.339 59.5902 236.812 59.3281 236.102 59.3281ZM243.279 58.3711C243.84 58.3711 244.325 58.4486 244.735 58.6035C245.146 58.7539 245.462 58.9749 245.686 59.2666C245.909 59.5583 246.021 59.9137 246.021 60.333C246.021 60.7842 245.897 61.1442 245.651 61.4131C245.405 61.682 245.066 61.8757 244.633 61.9941V62.0488C244.938 62.1309 245.214 62.2493 245.46 62.4043C245.711 62.5547 245.909 62.7552 246.055 63.0059C246.205 63.252 246.28 63.5596 246.28 63.9287C246.28 64.348 246.166 64.7262 245.938 65.0635C245.711 65.3962 245.364 65.6582 244.899 65.8496C244.435 66.041 243.847 66.1367 243.136 66.1367C242.785 66.1367 242.452 66.1162 242.138 66.0752C241.823 66.0387 241.538 65.984 241.283 65.9111C241.028 65.8382 240.805 65.7516 240.613 65.6514V64.6191C240.932 64.7741 241.306 64.9108 241.734 65.0293C242.163 65.1478 242.625 65.207 243.122 65.207C243.505 65.207 243.849 65.1637 244.154 65.0771C244.46 64.986 244.701 64.8424 244.879 64.6465C245.061 64.446 245.152 64.1839 245.152 63.8604C245.152 63.5641 245.073 63.3203 244.913 63.1289C244.754 62.9329 244.514 62.7894 244.195 62.6982C243.881 62.6025 243.482 62.5547 242.999 62.5547H241.994V61.625H242.821C243.464 61.625 243.977 61.5339 244.359 61.3516C244.742 61.1693 244.934 60.8617 244.934 60.4287C244.934 60.055 244.785 59.777 244.489 59.5947C244.193 59.4079 243.769 59.3145 243.218 59.3145C242.808 59.3145 242.445 59.3577 242.131 59.4443C241.816 59.5264 241.477 59.6449 241.112 59.7998L240.709 58.8906C241.101 58.7174 241.511 58.5876 241.939 58.501C242.368 58.4144 242.814 58.3711 243.279 58.3711ZM249.199 58.5078V63.2178C249.199 63.3089 249.197 63.4274 249.192 63.5732C249.188 63.7145 249.181 63.8672 249.172 64.0312C249.163 64.1908 249.154 64.3457 249.145 64.4961C249.14 64.6419 249.133 64.7627 249.124 64.8584L253.212 58.5078H254.606V66H253.547V61.4062C253.547 61.2604 253.549 61.0736 253.554 60.8457C253.558 60.6178 253.565 60.3945 253.574 60.1758C253.583 59.9525 253.59 59.7793 253.595 59.6562L249.521 66H248.119V58.5078H249.199ZM258.161 58.5078V61.6523H262.338V58.5078H263.473V66H262.338V62.6162H258.161V66H257.02V58.5078H258.161ZM264.696 58.5078H265.913L267.567 62.8555C267.663 63.1107 267.752 63.3568 267.834 63.5938C267.916 63.8262 267.989 64.0495 268.053 64.2637C268.117 64.4779 268.167 64.6852 268.203 64.8857H268.251C268.315 64.6579 268.406 64.3594 268.524 63.9902C268.643 63.6165 268.771 63.236 268.907 62.8486L270.473 58.5078H271.696L268.436 67.1006C268.262 67.5609 268.06 67.9619 267.827 68.3037C267.599 68.6455 267.321 68.9076 266.993 69.0898C266.665 69.2767 266.269 69.3701 265.804 69.3701C265.59 69.3701 265.4 69.3564 265.236 69.3291C265.072 69.3063 264.931 69.279 264.812 69.2471V68.3379C264.913 68.3607 265.034 68.3812 265.175 68.3994C265.321 68.4176 265.471 68.4268 265.626 68.4268C265.909 68.4268 266.152 68.3721 266.357 68.2627C266.567 68.1579 266.747 68.0029 266.897 67.7979C267.048 67.5928 267.178 67.349 267.287 67.0664L267.697 66.0137L264.696 58.5078ZM145.621 77.5078V85H144.479V78.4854H140.487V85H139.346V77.5078H145.621ZM154.487 81.2402C154.487 81.8555 154.408 82.4046 154.248 82.8877C154.089 83.3708 153.858 83.7786 153.558 84.1113C153.257 84.444 152.892 84.6992 152.464 84.877C152.04 85.0501 151.559 85.1367 151.021 85.1367C150.52 85.1367 150.06 85.0501 149.641 84.877C149.226 84.6992 148.866 84.444 148.561 84.1113C148.26 83.7786 148.025 83.3708 147.856 82.8877C147.692 82.4046 147.61 81.8555 147.61 81.2402C147.61 80.4199 147.749 79.7227 148.027 79.1484C148.305 78.5697 148.702 78.1299 149.217 77.8291C149.736 77.5238 150.354 77.3711 151.069 77.3711C151.753 77.3711 152.35 77.5238 152.86 77.8291C153.375 78.1344 153.774 78.5765 154.057 79.1553C154.344 79.7295 154.487 80.4245 154.487 81.2402ZM148.786 81.2402C148.786 81.8418 148.866 82.3636 149.025 82.8057C149.185 83.2477 149.431 83.5895 149.764 83.8311C150.096 84.0726 150.525 84.1934 151.049 84.1934C151.568 84.1934 151.994 84.0726 152.327 83.8311C152.664 83.5895 152.913 83.2477 153.072 82.8057C153.232 82.3636 153.312 81.8418 153.312 81.2402C153.312 80.6432 153.232 80.1283 153.072 79.6953C152.913 79.2578 152.667 78.9206 152.334 78.6836C152.001 78.4466 151.571 78.3281 151.042 78.3281C150.263 78.3281 149.691 78.5856 149.326 79.1006C148.966 79.6156 148.786 80.3288 148.786 81.2402ZM159.45 85.1367C158.776 85.1367 158.181 84.9977 157.666 84.7197C157.151 84.4417 156.75 84.0179 156.463 83.4482C156.176 82.8786 156.032 82.1608 156.032 81.2949C156.032 80.388 156.183 79.6475 156.483 79.0732C156.789 78.4945 157.208 78.0661 157.741 77.7881C158.274 77.5101 158.881 77.3711 159.56 77.3711C159.933 77.3711 160.293 77.4098 160.64 77.4873C160.991 77.5602 161.278 77.6536 161.501 77.7676L161.159 78.7178C160.931 78.6266 160.667 78.5446 160.366 78.4717C160.07 78.3988 159.792 78.3623 159.532 78.3623C159.013 78.3623 158.58 78.474 158.233 78.6973C157.892 78.9206 157.634 79.2487 157.461 79.6816C157.292 80.1146 157.208 80.6478 157.208 81.2812C157.208 81.8874 157.29 82.4046 157.454 82.833C157.623 83.2614 157.871 83.5895 158.199 83.8174C158.532 84.0407 158.947 84.1523 159.443 84.1523C159.84 84.1523 160.198 84.1113 160.517 84.0293C160.836 83.9427 161.125 83.8424 161.385 83.7285V84.7402C161.134 84.8678 160.854 84.9658 160.544 85.0342C160.239 85.1025 159.874 85.1367 159.45 85.1367ZM168.269 78.4717H165.801V85H164.68V78.4717H162.246V77.5078H168.269V78.4717ZM172.555 77.3848C173.448 77.3848 174.111 77.5853 174.544 77.9863C174.977 78.3874 175.193 79.0277 175.193 79.9072V85H174.366L174.147 83.8926H174.093C173.883 84.166 173.664 84.3962 173.437 84.583C173.209 84.7653 172.944 84.9043 172.644 85C172.347 85.0911 171.983 85.1367 171.55 85.1367C171.094 85.1367 170.688 85.057 170.333 84.8975C169.982 84.738 169.704 84.4964 169.499 84.1729C169.299 83.8493 169.198 83.4391 169.198 82.9424C169.198 82.195 169.494 81.6208 170.087 81.2197C170.679 80.8187 171.582 80.5999 172.794 80.5635L174.086 80.5088V80.0508C174.086 79.4036 173.947 78.9502 173.669 78.6904C173.391 78.4307 172.999 78.3008 172.493 78.3008C172.101 78.3008 171.728 78.3577 171.372 78.4717C171.017 78.5856 170.679 78.7201 170.36 78.875L170.012 78.0137C170.349 77.8405 170.736 77.6924 171.174 77.5693C171.611 77.4463 172.072 77.3848 172.555 77.3848ZM174.072 81.3086L172.931 81.3564C171.996 81.3929 171.338 81.5456 170.955 81.8145C170.572 82.0833 170.381 82.4639 170.381 82.9561C170.381 83.3844 170.511 83.7012 170.771 83.9062C171.03 84.1113 171.374 84.2139 171.803 84.2139C172.468 84.2139 173.013 84.0293 173.437 83.6602C173.86 83.291 174.072 82.7373 174.072 81.999V81.3086ZM183.485 79.3877C183.485 79.8571 183.349 80.224 183.075 80.4883C182.802 80.748 182.449 80.9235 182.016 81.0146V81.0693C182.485 81.1331 182.888 81.3018 183.226 81.5752C183.567 81.8441 183.738 82.2565 183.738 82.8125C183.738 83.2409 183.636 83.6191 183.431 83.9473C183.226 84.2754 182.904 84.5329 182.467 84.7197C182.029 84.9066 181.46 85 180.758 85H177.531V77.5078H180.73C181.268 77.5078 181.742 77.5693 182.152 77.6924C182.567 77.8109 182.893 78.0068 183.13 78.2803C183.367 78.5537 183.485 78.9229 183.485 79.3877ZM182.556 82.8125C182.556 82.3704 182.387 82.0514 182.05 81.8555C181.717 81.6595 181.232 81.5615 180.594 81.5615H178.673V84.0771H180.621C181.25 84.0771 181.729 83.9814 182.057 83.79C182.389 83.5941 182.556 83.2682 182.556 82.8125ZM182.33 79.5176C182.33 79.1621 182.2 78.8978 181.94 78.7246C181.681 78.5469 181.255 78.458 180.662 78.458H178.673V80.6113H180.464C181.079 80.6113 181.544 80.5225 181.858 80.3447C182.173 80.167 182.33 79.8913 182.33 79.5176ZM195.612 77.5078V84.0498H196.686V87.5771H195.544V85H185.57V77.5078H186.705V84.0361H190.021V77.5078H191.162V84.0361H194.484V77.5078H195.612ZM199.215 77.5078V82.2178C199.215 82.3089 199.213 82.4274 199.208 82.5732C199.203 82.7145 199.197 82.8672 199.188 83.0312C199.178 83.1908 199.169 83.3457 199.16 83.4961C199.156 83.6419 199.149 83.7627 199.14 83.8584L203.228 77.5078H204.622V85H203.562V80.4062C203.562 80.2604 203.565 80.0736 203.569 79.8457C203.574 79.6178 203.581 79.3945 203.59 79.1758C203.599 78.9525 203.606 78.7793 203.61 78.6562L199.536 85H198.135V77.5078H199.215ZM211.403 77.5078H212.654L209.421 81.124L212.914 85H211.581L208.177 81.1992V85H207.035V77.5078H208.177V81.1445L211.403 77.5078ZM217.07 77.3848C217.964 77.3848 218.627 77.5853 219.06 77.9863C219.493 78.3874 219.709 79.0277 219.709 79.9072V85H218.882L218.663 83.8926H218.608C218.399 84.166 218.18 84.3962 217.952 84.583C217.724 84.7653 217.46 84.9043 217.159 85C216.863 85.0911 216.498 85.1367 216.065 85.1367C215.61 85.1367 215.204 85.057 214.849 84.8975C214.498 84.738 214.22 84.4964 214.015 84.1729C213.814 83.8493 213.714 83.4391 213.714 82.9424C213.714 82.195 214.01 81.6208 214.603 81.2197C215.195 80.8187 216.097 80.5999 217.31 80.5635L218.602 80.5088V80.0508C218.602 79.4036 218.463 78.9502 218.185 78.6904C217.907 78.4307 217.515 78.3008 217.009 78.3008C216.617 78.3008 216.243 78.3577 215.888 78.4717C215.532 78.5856 215.195 78.7201 214.876 78.875L214.527 78.0137C214.865 77.8405 215.252 77.6924 215.689 77.5693C216.127 77.4463 216.587 77.3848 217.07 77.3848ZM218.588 81.3086L217.446 81.3564C216.512 81.3929 215.854 81.5456 215.471 81.8145C215.088 82.0833 214.896 82.4639 214.896 82.9561C214.896 83.3844 215.026 83.7012 215.286 83.9062C215.546 84.1113 215.89 84.2139 216.318 84.2139C216.984 84.2139 217.528 84.0293 217.952 83.6602C218.376 83.291 218.588 82.7373 218.588 81.999V81.3086Z" fill="black"/>
<defs>
<filter id="filter0_d_1984_14806" x="0" y="0" width="359" height="133" filterUnits="userSpaceOnUse" color-interpolation-filters="sRGB">
<feFlood flood-opacity="0" result="BackgroundImageFix"/>
<feColorMatrix in="SourceAlpha" type="matrix" values="0 0 0 0 0 0 0 0 0 0 0 0 0 0 0 0 0 0 127 0" result="hardAlpha"/>
<feMorphology radius="3" operator="erode" in="SourceAlpha" result="effect1_dropShadow_1984_14806"/>
<feOffset dy="1"/>
<feGaussianBlur stdDeviation="17.5"/>
<feComposite in2="hardAlpha" operator="out"/>
<feColorMatrix type="matrix" values="0 0 0 0 0 0 0 0 0 0 0 0 0 0 0 0 0 0 0.15 0"/>
<feBlend mode="normal" in2="BackgroundImageFix" result="effect1_dropShadow_1984_14806"/>
<feBlend mode="normal" in="SourceGraphic" in2="effect1_dropShadow_1984_14806" result="shape"/>
</filter>
</defs>
</svg>
