<svg width="359" height="152" viewBox="0 0 359 152" fill="none" xmlns="http://www.w3.org/2000/svg"><g filter="url(#filter0_d_1984_14807)"><path fill-rule="evenodd" clip-rule="evenodd" d="M261.607 43.754H317c5.523 0 10 4.477 10 10V109c0 5.523-4.477 10-10 10H42c-5.523 0-10-4.477-10-10V53.754c0-5.523 4.477-10 10-10h199.606L251.607 31l10 12.754z" fill="#fff"/></g><path d="M82.751 60.99c0 .77-.098 1.471-.294 2.105a4.582 4.582 0 01-.875 1.627c-.383.45-.859.8-1.429 1.046-.57.246-1.23.369-1.982.369-.775 0-1.452-.123-2.03-.37a3.794 3.794 0 01-1.436-1.052c-.378-.456-.663-1-.854-1.634a7.424 7.424 0 01-.28-2.105c0-1.021.168-1.917.505-2.687a3.92 3.92 0 011.531-1.798c.689-.428 1.55-.642 2.584-.642.99 0 1.821.212 2.495.635.68.424 1.192 1.021 1.539 1.791.35.766.526 1.67.526 2.714zm-7.957 0c0 .847.12 1.58.362 2.2.242.62.61 1.099 1.108 1.436.501.337 1.137.506 1.907.506.775 0 1.408-.169 1.9-.506.497-.337.864-.816 1.1-1.436.238-.62.356-1.353.356-2.2 0-1.29-.27-2.298-.813-3.022-.538-.73-1.379-1.094-2.523-1.094-.774 0-1.412.166-1.914.499-.501.333-.875.807-1.12 1.422-.242.61-.363 1.342-.363 2.194zm15.121-1.518h-2.468V66h-1.12v-6.528h-2.434v-.964h6.022v.964zm4.484 6.665c-.674 0-1.269-.14-1.784-.417-.515-.278-.916-.702-1.203-1.272-.287-.57-.43-1.287-.43-2.153 0-.907.15-1.648.45-2.222.306-.578.725-1.007 1.258-1.285.534-.278 1.14-.417 1.819-.417.373 0 .734.039 1.08.116.35.073.638.167.861.28l-.342.95a5.867 5.867 0 00-.793-.245 3.498 3.498 0 00-.834-.11c-.52 0-.952.112-1.298.335-.342.224-.6.552-.773.985-.168.433-.253.966-.253 1.6 0 .605.082 1.123.246 1.551.169.428.417.757.745.984.333.224.748.335 1.245.335.396 0 .754-.04 1.073-.123.319-.086.608-.187.868-.3v1.011c-.25.128-.53.226-.84.294-.306.069-.67.103-1.095.103zM103.73 66h-1.155v-6.542h-2.276a35.153 35.153 0 01-.349 3.035c-.136.839-.31 1.525-.52 2.058-.204.528-.455.918-.751 1.169a1.57 1.57 0 01-1.046.369c-.123 0-.24-.007-.349-.02a1.099 1.099 0 01-.28-.069v-.861a1.48 1.48 0 00.396.054.772.772 0 00.56-.253c.174-.173.33-.433.466-.779.141-.346.266-.784.376-1.312.11-.534.205-1.16.287-1.88a49.15 49.15 0 00.225-2.461h4.416V66zm5.278-7.629c.638 0 1.185.141 1.64.424.456.282.805.679 1.046 1.19.242.505.363 1.098.363 1.777v.704h-5.175c.014.88.232 1.55.656 2.01.424.46 1.021.69 1.791.69.474 0 .893-.043 1.258-.13a6.962 6.962 0 001.135-.383v.998a5.556 5.556 0 01-1.128.37 6.469 6.469 0 01-1.313.116c-.72 0-1.349-.146-1.886-.438a3.061 3.061 0 01-1.245-1.299c-.296-.57-.444-1.267-.444-2.091 0-.807.134-1.504.403-2.092.274-.593.657-1.048 1.149-1.367.497-.32 1.08-.479 1.75-.479zm-.014.93c-.606 0-1.089.198-1.449.594-.36.397-.574.95-.643 1.662h3.965a3.185 3.185 0 00-.212-1.176 1.652 1.652 0 00-.608-.793c-.274-.191-.624-.287-1.053-.287zm13.768-.793l-3.117 3.643L123.028 66h-1.299l-3.281-3.8V66h-1.059v-3.8l-3.275 3.8h-1.299l3.384-3.849-3.124-3.643h1.251l3.063 3.636v-3.636h1.059v3.636l3.076-3.636h1.238zm2.597 0v4.71a13.509 13.509 0 01-.027.813l-.027.465a6.303 6.303 0 01-.021.362l4.088-6.35h1.395V66h-1.06v-4.594a28.396 28.396 0 01.027-1.23l.021-.52L125.681 66h-1.402v-7.492h1.08zm13.775 1.88c0 .47-.137.836-.41 1.1-.274.26-.627.435-1.06.527v.054c.469.064.873.233 1.21.506.342.27.513.681.513 1.237 0 .429-.103.807-.308 1.135-.205.328-.526.586-.964.773-.437.187-1.007.28-1.709.28h-3.226v-7.492h3.199a4.96 4.96 0 011.422.184c.414.119.74.315.977.588.237.274.356.643.356 1.108zm-.93 3.425c0-.443-.169-.762-.506-.958-.332-.195-.818-.293-1.456-.293h-1.921v2.515h1.949c.628 0 1.107-.096 1.435-.287.333-.196.499-.522.499-.978zm-.225-3.295c0-.356-.13-.62-.39-.793-.26-.178-.686-.267-1.278-.267h-1.99v2.153h1.791c.616 0 1.08-.088 1.395-.266.314-.178.472-.454.472-.827zm6.042-2.133c.894 0 1.557.2 1.99.601.433.401.649 1.042.649 1.921V66h-.827l-.219-1.107h-.054a4.17 4.17 0 01-.657.69 2.439 2.439 0 01-.793.417c-.296.091-.66.137-1.093.137-.456 0-.862-.08-1.217-.24a1.894 1.894 0 01-.834-.724c-.201-.324-.301-.734-.301-1.23 0-.748.296-1.322.889-1.723.592-.401 1.495-.62 2.707-.657l1.292-.054v-.458c0-.647-.139-1.1-.417-1.36-.278-.26-.67-.39-1.176-.39-.392 0-.766.057-1.121.17a7.648 7.648 0 00-1.012.404l-.348-.861a6.228 6.228 0 011.162-.445 5.07 5.07 0 011.38-.184zm1.518 3.924l-1.142.047c-.934.037-1.592.19-1.975.459-.383.268-.574.649-.574 1.141 0 .428.13.745.389.95.26.205.604.308 1.033.308.665 0 1.209-.185 1.633-.554.424-.369.636-.923.636-1.661v-.69zm4.601-3.801v3.144h4.176v-3.144h1.135V66h-1.135v-3.384h-4.176V66h-1.142v-7.492h1.142zm8.798 0v4.71a14.222 14.222 0 01-.028.813l-.027.465a6.303 6.303 0 01-.021.362l4.088-6.35h1.395V66h-1.06v-4.594a35.038 35.038 0 01.027-1.23l.021-.52L159.259 66h-1.402v-7.492h1.081zm10.705-.137c.638 0 1.184.141 1.64.424.456.282.805.679 1.046 1.19.242.505.362 1.098.362 1.777v.704h-5.174c.013.88.232 1.55.656 2.01.424.46 1.021.69 1.791.69.474 0 .893-.043 1.258-.13a6.92 6.92 0 001.134-.383v.998a5.527 5.527 0 01-1.127.37c-.37.077-.807.116-1.313.116-.72 0-1.349-.146-1.887-.438a3.059 3.059 0 01-1.244-1.299c-.296-.57-.444-1.267-.444-2.091 0-.807.134-1.504.403-2.092.274-.593.656-1.048 1.149-1.367.496-.32 1.08-.479 1.75-.479zm-.014.93c-.606 0-1.089.198-1.449.594-.36.397-.575.95-.643 1.662h3.965a3.205 3.205 0 00-.212-1.176 1.652 1.652 0 00-.608-.793c-.274-.191-.625-.287-1.053-.287zm11.628 6.836c-.675 0-1.269-.14-1.784-.417-.515-.278-.916-.702-1.203-1.272-.288-.57-.431-1.287-.431-2.153 0-.907.15-1.648.451-2.222.305-.578.725-1.007 1.258-1.285s1.139-.417 1.818-.417c.374 0 .734.039 1.08.116.351.073.638.167.862.28l-.342.95a5.863 5.863 0 00-.793-.245 3.496 3.496 0 00-.834-.11c-.52 0-.953.112-1.299.335-.342.224-.599.552-.772.985-.169.433-.253.966-.253 1.6 0 .605.082 1.123.246 1.551.168.428.417.757.745.984.333.224.747.335 1.244.335.396 0 .754-.04 1.073-.123a6.19 6.19 0 00.868-.3v1.011a3.48 3.48 0 01-.84.294 5.08 5.08 0 01-1.094.103zm8.818-6.665h-2.468V66h-1.121v-6.528h-2.433v-.964h6.022v.964zm4.286-1.087c.894 0 1.557.2 1.99.601.433.401.649 1.042.649 1.921V66h-.827l-.219-1.107h-.055a4.125 4.125 0 01-.656.69 2.439 2.439 0 01-.793.417c-.296.091-.661.137-1.094.137a2.94 2.94 0 01-1.216-.24 1.894 1.894 0 01-.834-.724c-.201-.324-.301-.734-.301-1.23 0-.748.296-1.322.889-1.723.592-.401 1.494-.62 2.707-.657l1.292-.054v-.458c0-.647-.139-1.1-.417-1.36-.278-.26-.67-.39-1.176-.39-.392 0-.766.057-1.121.17a7.648 7.648 0 00-1.012.404l-.349-.861a6.282 6.282 0 011.162-.445 5.083 5.083 0 011.381-.184zm1.518 3.924l-1.142.047c-.934.037-1.592.19-1.975.459-.383.268-.574.649-.574 1.141 0 .428.129.745.389.95.26.205.604.308 1.032.308.666 0 1.21-.185 1.634-.554.424-.369.636-.923.636-1.661v-.69zm8.565-2.837h-2.467V66h-1.122v-6.528h-2.433v-.964h6.022v.964zm.301-.964h1.217l1.654 4.347c.096.256.185.502.267.739.082.232.155.455.219.67.063.214.113.421.15.622h.048a38.03 38.03 0 01.656-2.037l1.565-4.341h1.224l-3.261 8.593c-.173.46-.376.86-.608 1.203a2.403 2.403 0 01-.834.786c-.328.187-.725.28-1.189.28a3.49 3.49 0 01-.568-.04 3.54 3.54 0 01-.424-.083v-.91a3.945 3.945 0 00.814.09c.282 0 .526-.055.731-.164.21-.105.39-.26.54-.465.151-.205.281-.449.39-.732l.41-1.052-3.001-7.506zm11.197 7.629c-.674 0-1.269-.14-1.784-.417-.515-.278-.916-.702-1.203-1.272-.287-.57-.431-1.287-.431-2.153 0-.907.151-1.648.452-2.222.305-.578.724-1.007 1.257-1.285.534-.278 1.14-.417 1.819-.417.373 0 .733.039 1.08.116.351.073.638.167.861.28l-.342.95a5.818 5.818 0 00-.793-.245 3.496 3.496 0 00-.834-.11c-.519 0-.952.112-1.298.335-.342.224-.6.552-.773.985-.168.433-.253.966-.253 1.6 0 .605.082 1.123.246 1.551.169.428.417.757.745.984.333.224.748.335 1.245.335.396 0 .754-.04 1.073-.123.319-.086.608-.187.868-.3v1.011a3.522 3.522 0 01-.841.294c-.305.069-.67.103-1.094.103zm10.172-3.897c0 .615-.079 1.165-.239 1.648-.16.483-.39.89-.69 1.223a3.013 3.013 0 01-1.094.766 3.79 3.79 0 01-1.443.26 3.58 3.58 0 01-1.38-.26 3.11 3.11 0 01-1.08-.766 3.54 3.54 0 01-.705-1.223c-.164-.483-.246-1.032-.246-1.648 0-.82.139-1.517.417-2.092.278-.578.675-1.018 1.19-1.319.519-.305 1.137-.458 1.852-.458.684 0 1.281.153 1.791.458.515.305.914.748 1.197 1.326.287.575.43 1.27.43 2.085zm-5.701 0c0 .602.08 1.124.239 1.566.16.442.406.784.739 1.025.332.242.761.362 1.285.362.519 0 .945-.12 1.278-.362.337-.242.586-.583.745-1.025.16-.442.239-.964.239-1.566 0-.597-.079-1.112-.239-1.545-.159-.437-.405-.774-.738-1.011-.333-.237-.763-.356-1.292-.356-.779 0-1.351.258-1.716.773-.36.515-.54 1.228-.54 2.14zm13.617-1.852c0 .47-.136.836-.41 1.1-.273.26-.627.435-1.059.527v.054a2.4 2.4 0 011.21.506c.341.27.512.681.512 1.237 0 .429-.102.807-.307 1.135-.205.328-.527.586-.964.773-.438.187-1.007.28-1.709.28h-3.227v-7.492h3.199a4.96 4.96 0 011.422.184c.415.119.741.315.978.588.237.274.355.643.355 1.108zm-.929 3.425c0-.443-.169-.762-.506-.958-.333-.195-.818-.293-1.456-.293h-1.921v2.515h1.948c.629 0 1.107-.096 1.436-.287.332-.196.499-.522.499-.978zm-.226-3.295c0-.356-.13-.62-.39-.793-.259-.178-.686-.267-1.278-.267h-1.989v2.153h1.791c.615 0 1.08-.088 1.394-.266.315-.178.472-.454.472-.827zm8.805-2.147c.56 0 1.046.078 1.456.232.41.15.727.372.95.664.223.291.335.647.335 1.066 0 .451-.123.811-.369 1.08s-.586.463-1.019.581v.055c.306.082.581.2.827.355.251.15.449.351.595.602.15.246.226.554.226.923 0 .419-.114.797-.342 1.135-.228.332-.574.594-1.039.786-.465.191-1.053.287-1.764.287-.351 0-.683-.02-.998-.062a5.376 5.376 0 01-.854-.164 3.516 3.516 0 01-.67-.26V64.62a6.54 6.54 0 001.121.41c.428.119.891.178 1.387.178.383 0 .727-.043 1.033-.13.305-.091.547-.235.724-.43.183-.201.274-.463.274-.787 0-.296-.08-.54-.24-.731-.159-.196-.398-.34-.717-.43-.315-.096-.714-.144-1.197-.144h-1.004v-.93h.827c.642 0 1.155-.091 1.538-.273.383-.183.574-.49.574-.923 0-.374-.148-.652-.444-.834-.297-.187-.72-.28-1.272-.28-.41 0-.772.043-1.087.13a7.41 7.41 0 00-1.018.355l-.404-.91a5.946 5.946 0 011.231-.389c.428-.087.875-.13 1.34-.13zm7.642.014c.893 0 1.557.2 1.99.601.432.401.649 1.042.649 1.921V66h-.827l-.219-1.107h-.055a4.125 4.125 0 01-.656.69 2.439 2.439 0 01-.793.417c-.296.091-.661.137-1.094.137a2.94 2.94 0 01-1.216-.24 1.894 1.894 0 01-.834-.724c-.201-.324-.301-.734-.301-1.23 0-.748.296-1.322.888-1.723.593-.401 1.495-.62 2.708-.657l1.292-.054v-.458c0-.647-.139-1.1-.417-1.36-.278-.26-.67-.39-1.176-.39-.392 0-.766.057-1.121.17a7.648 7.648 0 00-1.012.404l-.349-.861a6.282 6.282 0 011.162-.445 5.083 5.083 0 011.381-.184zm1.518 3.924l-1.142.047c-.934.037-1.593.19-1.975.459-.383.268-.575.649-.575 1.141 0 .428.13.745.39.95.26.205.604.308 1.032.308.666 0 1.21-.185 1.634-.554.424-.369.636-.923.636-1.661v-.69zm7.827-3.801h1.251l-3.233 3.616L260.178 66h-1.333l-3.405-3.8V66h-1.141v-7.492h1.141v3.636l3.227-3.636zm5.667-.123c.893 0 1.556.2 1.989.601.433.401.65 1.042.65 1.921V66h-.827l-.219-1.107h-.055c-.21.273-.428.503-.656.69a2.439 2.439 0 01-.793.417c-.296.091-.661.137-1.094.137-.456 0-.861-.08-1.217-.24a1.894 1.894 0 01-.834-.724c-.2-.324-.3-.734-.3-1.23 0-.748.296-1.322.888-1.723.593-.401 1.495-.62 2.707-.657l1.292-.054v-.458c0-.647-.139-1.1-.417-1.36-.278-.26-.67-.39-1.176-.39-.391 0-.765.057-1.121.17a7.689 7.689 0 00-1.011.404l-.349-.861a6.255 6.255 0 011.162-.445 5.083 5.083 0 011.381-.184zm1.518 3.924l-1.142.047c-.934.037-1.593.19-1.976.459-.382.268-.574.649-.574 1.141 0 .428.13.745.39.95.26.205.604.308 1.032.308.665 0 1.21-.185 1.634-.554.424-.369.636-.923.636-1.661v-.69zm5.386-3.938c.561 0 1.046.078 1.456.232.41.15.727.372.951.664.223.291.334.647.334 1.066 0 .451-.123.811-.369 1.08s-.585.463-1.018.581v.055c.305.082.581.2.827.355.251.15.449.351.595.602.15.246.225.554.225.923 0 .419-.114.797-.342 1.135-.227.332-.574.594-1.039.786-.464.191-1.052.287-1.763.287-.351 0-.684-.02-.998-.062a5.367 5.367 0 01-.855-.164 3.569 3.569 0 01-.67-.26V64.62c.319.155.693.292 1.121.41.429.119.891.178 1.388.178a3.78 3.78 0 001.032-.13 1.55 1.55 0 00.725-.43c.182-.201.273-.463.273-.787 0-.296-.079-.54-.239-.731-.159-.196-.399-.34-.718-.43-.314-.096-.713-.144-1.196-.144h-1.005v-.93h.827c.643 0 1.156-.091 1.538-.273.383-.183.575-.49.575-.923 0-.374-.149-.652-.445-.834-.296-.187-.72-.28-1.271-.28-.41 0-.773.043-1.087.13a7.42 7.42 0 00-1.019.355l-.403-.91a5.957 5.957 0 011.23-.389c.429-.087.875-.13 1.34-.13zm7.643.014c.893 0 1.556.2 1.989.601.433.401.65 1.042.65 1.921V66h-.828l-.218-1.107h-.055c-.21.273-.428.503-.656.69a2.439 2.439 0 01-.793.417c-.296.091-.661.137-1.094.137-.456 0-.861-.08-1.217-.24a1.894 1.894 0 01-.834-.724c-.2-.324-.301-.734-.301-1.23 0-.748.297-1.322.889-1.723.593-.401 1.495-.62 2.707-.657l1.292-.054v-.458c0-.647-.139-1.1-.417-1.36-.278-.26-.67-.39-1.176-.39a3.65 3.65 0 00-1.121.17 7.689 7.689 0 00-1.011.404l-.349-.861a6.228 6.228 0 011.162-.445 5.083 5.083 0 011.381-.184zm1.517 3.924l-1.141.047c-.934.037-1.593.19-1.976.459-.383.268-.574.649-.574 1.141 0 .428.13.745.39.95.259.205.604.308 1.032.308.665 0 1.21-.185 1.634-.554.424-.369.635-.923.635-1.661v-.69zm4.758 2.064l.089.157c-.082.333-.187.688-.314 1.067-.123.378-.26.756-.41 1.134a18.95 18.95 0 01-.445 1.074h-.847a34.758 34.758 0 00.526-2.345c.077-.396.139-.759.184-1.087h1.217zM51.388 85.137c-.675 0-1.27-.14-1.785-.417-.514-.278-.916-.702-1.203-1.272-.287-.57-.43-1.287-.43-2.153 0-.907.15-1.648.45-2.222.306-.578.725-1.007 1.259-1.285.533-.278 1.139-.417 1.818-.417.374 0 .734.039 1.08.116.351.073.638.167.861.28l-.341.95a5.867 5.867 0 00-.793-.245 3.498 3.498 0 00-.834-.11c-.52 0-.953.112-1.3.335-.34.224-.598.552-.772.985-.168.433-.253.966-.253 1.6 0 .605.082 1.123.247 1.551.168.428.417.757.745.984.332.224.747.335 1.244.335.396 0 .754-.04 1.073-.123a6.23 6.23 0 00.868-.3v1.011c-.25.128-.53.226-.84.294-.306.069-.67.103-1.094.103zm8.818-6.665h-2.468V85h-1.12v-6.528h-2.434v-.964h6.022v.964zm4.286-1.087c.893 0 1.556.2 1.99.601.432.401.649 1.042.649 1.921V85h-.827l-.219-1.107h-.055c-.21.273-.428.503-.656.69a2.44 2.44 0 01-.793.417c-.296.091-.66.137-1.094.137a2.94 2.94 0 01-1.217-.24 1.895 1.895 0 01-.834-.724c-.2-.324-.3-.734-.3-1.23 0-.748.296-1.322.888-1.723.593-.401 1.495-.62 2.707-.656l1.292-.055v-.458c0-.647-.139-1.1-.417-1.36-.277-.26-.67-.39-1.175-.39-.392 0-.766.057-1.121.17a7.67 7.67 0 00-1.012.404l-.349-.861a6.25 6.25 0 011.162-.445 5.079 5.079 0 011.381-.184zm1.518 3.924l-1.142.047c-.934.037-1.593.19-1.975.459-.383.268-.575.649-.575 1.141 0 .428.13.745.39.95.26.205.604.308 1.032.308.666 0 1.21-.185 1.634-.554.424-.369.636-.923.636-1.661v-.69zm8.565-2.837h-2.468V85h-1.12v-6.528h-2.434v-.964h6.022v.964zm.301-.964h1.217l1.654 4.348c.096.255.185.5.267.738.082.232.155.456.218.67.064.214.114.421.15.622h.049a37.459 37.459 0 01.656-2.037l1.565-4.341h1.224l-3.26 8.593c-.174.46-.377.86-.61 1.203a2.4 2.4 0 01-.833.786c-.328.187-.725.28-1.19.28a3.49 3.49 0 01-.567-.04 3.517 3.517 0 01-.424-.083v-.91a3.92 3.92 0 00.814.09 1.497 1.497 0 001.271-.629c.15-.205.28-.449.39-.732l.41-1.052-3.001-7.506zm11.197 7.629c-.674 0-1.269-.14-1.784-.417-.515-.278-.916-.702-1.203-1.272-.287-.57-.43-1.287-.43-2.153 0-.907.15-1.648.45-2.222.306-.578.725-1.007 1.258-1.285s1.14-.417 1.819-.417c.373 0 .733.039 1.08.116.35.073.638.167.861.28l-.342.95a5.866 5.866 0 00-.793-.245 3.5 3.5 0 00-.834-.11c-.52 0-.952.112-1.299.335-.341.224-.599.552-.772.985-.169.433-.253.966-.253 1.6 0 .605.082 1.123.246 1.551.169.428.417.757.745.984.333.224.748.335 1.244.335.397 0 .755-.04 1.074-.123.319-.086.608-.187.868-.3v1.011c-.25.128-.531.226-.841.294-.305.069-.67.103-1.094.103zM89.785 85v-7.492h1.142v3.09h2.05c.639 0 1.163.08 1.573.239.415.16.722.396.923.71.2.315.3.705.3 1.17 0 .465-.1.868-.3 1.21-.196.342-.506.606-.93.793-.42.187-.966.28-1.64.28h-3.118zm1.142-.923h1.866c.565 0 1.016-.1 1.353-.3.338-.201.506-.536.506-1.005 0-.46-.157-.78-.471-.958-.315-.182-.766-.273-1.354-.273h-1.9v2.536zM97.01 85v-7.492h1.135V85H97.01zm10.172.137c-.675 0-1.27-.14-1.785-.417-.515-.278-.916-.702-1.203-1.272-.287-.57-.43-1.287-.43-2.153 0-.907.15-1.648.451-2.222.305-.578.724-1.007 1.258-1.285.533-.278 1.139-.417 1.818-.417.374 0 .734.039 1.08.116.351.073.638.167.861.28l-.341.95a5.908 5.908 0 00-.793-.245 3.509 3.509 0 00-.834-.11c-.52 0-.953.112-1.299.335-.342.224-.599.552-.773.985-.168.433-.253.966-.253 1.6 0 .605.082 1.123.247 1.551.168.428.417.757.745.984.332.224.747.335 1.244.335.396 0 .754-.04 1.073-.123.319-.086.608-.187.868-.3v1.011c-.25.128-.531.226-.841.294a5.07 5.07 0 01-1.093.103zm4.792-7.63v4.71a14.222 14.222 0 01-.028.814l-.027.465a5.506 5.506 0 01-.021.362l4.088-6.35h1.395V85h-1.06v-4.594a34.787 34.787 0 01.028-1.23l.02-.52L112.296 85h-1.401v-7.492h1.08zm8.962 0v3.145h4.176v-3.144h1.135V85h-1.135v-3.384h-4.176V85h-1.142v-7.492h1.142zm9.501 3.658l-2.59-3.657h1.298l1.976 2.885 1.969-2.885h1.285l-2.591 3.657L134.52 85h-1.299l-2.099-3.056L129.01 85h-1.285l2.713-3.835zm9.065-3.794c.934 0 1.679.321 2.235.964.556.643.834 1.609.834 2.898 0 .853-.127 1.568-.383 2.147-.255.579-.615 1.016-1.08 1.312-.46.297-1.005.445-1.633.445-.397 0-.746-.053-1.046-.157a2.467 2.467 0 01-.773-.424 2.765 2.765 0 01-.533-.581h-.082l.048.642c.023.25.034.47.034.656v3.077h-1.142V77.508h.937l.15 1.107h.055c.146-.228.324-.435.533-.622.21-.191.465-.342.766-.451.305-.114.665-.17 1.08-.17zm-.198.957c-.52 0-.939.1-1.258.3-.315.201-.545.502-.691.903-.145.397-.223.896-.232 1.497v.22c0 .632.068 1.168.205 1.605.141.438.372.77.691.999.323.227.756.341 1.298.341.465 0 .853-.125 1.162-.376.31-.25.541-.599.691-1.045.155-.452.232-.969.232-1.552 0-.884-.173-1.586-.519-2.106-.342-.524-.868-.786-1.579-.786zm11.71 2.912c0 .616-.08 1.165-.24 1.648-.159.483-.389.89-.69 1.223a3.005 3.005 0 01-1.094.766c-.424.173-.904.26-1.442.26-.501 0-.962-.087-1.381-.26a3.11 3.11 0 01-1.08-.766 3.523 3.523 0 01-.704-1.223c-.164-.483-.246-1.032-.246-1.648 0-.82.139-1.517.417-2.092.278-.578.674-1.018 1.189-1.319.52-.305 1.137-.458 1.853-.458.683 0 1.28.153 1.791.458.515.305.913.748 1.196 1.326.287.575.431 1.27.431 2.085zm-5.702 0c0 .602.08 1.124.24 1.566.159.442.405.784.738 1.025.333.242.761.362 1.285.362.52 0 .946-.12 1.278-.362.338-.242.586-.583.746-1.025.159-.442.239-.964.239-1.566 0-.597-.08-1.112-.239-1.545-.16-.437-.406-.774-.739-1.011-.332-.237-.763-.356-1.292-.356-.779 0-1.351.258-1.715.773-.361.515-.541 1.228-.541 2.14zm8.805-3.732v3.144h4.177v-3.144h1.135V85h-1.135v-3.384h-4.177V85h-1.141v-7.492h1.141zm8.798 0v4.71a17.468 17.468 0 01-.027.813l-.028.465a5.602 5.602 0 01-.02.362l4.088-6.35h1.394V85h-1.059v-4.594a28.396 28.396 0 01.027-1.23l.021-.52L163.237 85h-1.401v-7.492h1.08zm9.748-.137c.561 0 1.046.078 1.456.233.41.15.727.37.95.663.224.291.335.647.335 1.066 0 .451-.123.811-.369 1.08s-.585.463-1.018.581v.055c.305.082.581.2.827.355.25.15.449.351.594.602.151.246.226.554.226.923 0 .419-.114.797-.342 1.135-.228.332-.574.594-1.039.786-.465.191-1.053.287-1.763.287-.351 0-.684-.02-.999-.062a5.376 5.376 0 01-.854-.164 3.542 3.542 0 01-.67-.26V83.62c.319.155.693.292 1.121.41.429.119.891.178 1.388.178a3.78 3.78 0 001.032-.13 1.56 1.56 0 00.725-.43c.182-.201.273-.463.273-.787 0-.296-.08-.54-.239-.731-.16-.196-.399-.34-.718-.43-.314-.096-.713-.144-1.196-.144h-1.005v-.93h.827c.643 0 1.155-.091 1.538-.273.383-.183.574-.49.574-.923 0-.374-.148-.652-.444-.834-.296-.187-.72-.28-1.271-.28-.411 0-.773.043-1.087.13a7.42 7.42 0 00-1.019.355l-.403-.91a5.957 5.957 0 011.23-.389c.429-.087.875-.13 1.34-.13zm5.92.137v4.71a17.468 17.468 0 01-.027.813l-.028.465a5.602 5.602 0 01-.02.362l4.088-6.35h1.394V85h-1.059v-4.594a33.153 33.153 0 01.027-1.23l.02-.52L178.905 85h-1.401v-7.492h1.08zm11.341-.137c.934 0 1.679.321 2.235.964.556.643.834 1.609.834 2.898 0 .853-.127 1.568-.383 2.147-.255.579-.615 1.016-1.08 1.312-.46.297-1.005.445-1.634.445a3.17 3.17 0 01-1.045-.157 2.467 2.467 0 01-.773-.424 2.765 2.765 0 01-.533-.581h-.082l.048.642c.023.25.034.47.034.656v3.077h-1.142V77.508h.937l.15 1.107h.055c.146-.228.323-.435.533-.622.21-.191.465-.342.766-.451.305-.114.665-.17 1.08-.17zm-.198.957c-.52 0-.939.1-1.258.3-.315.201-.545.502-.691.903-.146.397-.223.896-.232 1.497v.22c0 .632.068 1.168.205 1.605.141.438.371.77.69.999.324.227.757.341 1.299.341.465 0 .852-.125 1.162-.376.31-.25.54-.599.691-1.045.155-.452.232-.969.232-1.552 0-.884-.173-1.586-.519-2.106-.342-.524-.868-.786-1.579-.786zm4.067-.82h1.217l1.654 4.348c.096.255.185.5.267.738.082.232.155.456.218.67.064.214.114.421.151.622h.048a38.03 38.03 0 01.656-2.037l1.565-4.341h1.224l-3.261 8.593c-.173.46-.376.86-.608 1.203a2.403 2.403 0 01-.834.786c-.328.187-.725.28-1.19.28-.214 0-.403-.014-.567-.04a3.54 3.54 0 01-.424-.083v-.91a3.918 3.918 0 00.814.09c.282 0 .526-.055.731-.164.21-.105.39-.26.54-.465a3.16 3.16 0 00.39-.732l.41-1.052-3.001-7.506zm17.828 3.732c0 .816-.132 1.516-.396 2.099-.26.583-.634 1.03-1.122 1.34-.487.305-1.07.458-1.75.458-.633 0-1.187-.137-1.661-.41a2.899 2.899 0 01-1.114-1.197c-.269-.524-.424-1.162-.465-1.914h-1.989V85h-1.135v-7.492h1.135v3.144h2.003c.064-.692.232-1.282.506-1.77a2.844 2.844 0 011.107-1.121c.465-.26 1.012-.39 1.641-.39.656 0 1.226.155 1.709.465.487.305.863.747 1.128 1.326.269.574.403 1.267.403 2.078zm-5.346 0c0 .63.071 1.165.212 1.607.146.437.372.772.677 1.005.31.227.711.341 1.203.341.488 0 .884-.114 1.19-.341.31-.228.535-.561.676-.999.146-.441.219-.98.219-1.613 0-.624-.073-1.153-.219-1.586-.145-.433-.371-.76-.676-.984-.306-.228-.702-.342-1.19-.342-.487 0-.886.114-1.196.342-.305.223-.531.551-.677.984-.146.433-.219.962-.219 1.586zm12.428-2.768h-2.468V85h-1.121v-6.528h-2.433v-.964h6.022v.964zm4.484 6.665c-.674 0-1.269-.14-1.784-.417-.515-.278-.916-.702-1.203-1.272-.287-.57-.43-1.287-.43-2.153 0-.907.15-1.648.451-2.222.305-.578.724-1.007 1.257-1.285.534-.278 1.14-.417 1.819-.417.374 0 .734.039 1.08.116.351.073.638.167.861.28l-.342.95a5.818 5.818 0 00-.793-.245 3.494 3.494 0 00-.833-.11c-.52 0-.953.112-1.299.335-.342.224-.6.552-.773.985-.168.433-.253.966-.253 1.6 0 .605.082 1.123.246 1.551.169.428.417.757.746.984.332.224.747.335 1.244.335.396 0 .754-.04 1.073-.123.319-.086.608-.187.868-.3v1.011a3.522 3.522 0 01-.841.294c-.305.069-.67.103-1.094.103zm4.075-.137h-1.326l2.16-3.158a2.814 2.814 0 01-.875-.349 1.955 1.955 0 01-.657-.69c-.164-.292-.246-.654-.246-1.087 0-.72.24-1.267.718-1.64.483-.38 1.119-.568 1.907-.568h3.316V85h-1.135v-3.008h-1.9L227.263 85zm.157-5.277c0 .446.159.779.478.998.319.214.775.321 1.368.321h1.859v-2.584h-2.058c-.583 0-1.005.118-1.264.356-.255.232-.383.535-.383.909zm13.87 5.414c-.674 0-1.269-.14-1.784-.417-.515-.278-.916-.702-1.203-1.272-.287-.57-.431-1.287-.431-2.153 0-.907.15-1.648.451-2.222.306-.578.725-1.007 1.258-1.285s1.139-.417 1.818-.417c.374 0 .734.039 1.08.116.351.073.639.167.862.28l-.342.95a5.863 5.863 0 00-.793-.245 3.496 3.496 0 00-.834-.11c-.519 0-.952.112-1.299.335-.342.224-.599.552-.772.985-.169.433-.253.966-.253 1.6 0 .605.082 1.123.246 1.551.169.428.417.757.745.984.333.224.747.335 1.244.335a4.31 4.31 0 001.073-.123 6.25 6.25 0 00.869-.3v1.011a3.522 3.522 0 01-.841.294 5.08 5.08 0 01-1.094.103zm10.35 0c-.675 0-1.27-.14-1.785-.417-.515-.278-.916-.702-1.203-1.272-.287-.57-.43-1.287-.43-2.153 0-.907.15-1.648.451-2.222.305-.578.724-1.007 1.258-1.285.533-.278 1.139-.417 1.818-.417.374 0 .734.039 1.08.116.351.073.638.167.861.28l-.341.95a5.908 5.908 0 00-.793-.245 3.509 3.509 0 00-.834-.11c-.52 0-.953.112-1.299.335-.342.224-.599.552-.773.985-.168.433-.253.966-.253 1.6 0 .605.082 1.123.247 1.551.168.428.417.757.745.984.332.224.747.335 1.244.335.396 0 .754-.04 1.073-.123.319-.086.608-.187.868-.3v1.011c-.25.128-.531.226-.841.294a5.07 5.07 0 01-1.093.103zm4.792-7.63v4.71a14.222 14.222 0 01-.028.814l-.027.465a5.506 5.506 0 01-.021.362l4.088-6.35h1.395V85h-1.06v-4.594a34.787 34.787 0 01.028-1.23l.02-.52L256.753 85h-1.401v-7.492h1.08zm10.821 7.63c-.675 0-1.269-.14-1.784-.417-.515-.278-.916-.702-1.203-1.272-.287-.57-.431-1.287-.431-2.153 0-.907.15-1.648.451-2.222.305-.578.725-1.007 1.258-1.285s1.139-.417 1.818-.417c.374 0 .734.039 1.08.116.351.073.638.167.862.28l-.342.95a5.863 5.863 0 00-.793-.245 3.496 3.496 0 00-.834-.11c-.52 0-.953.112-1.299.335-.342.224-.599.552-.772.985-.169.433-.253.966-.253 1.6 0 .605.082 1.123.246 1.551.168.428.417.757.745.984.333.224.747.335 1.244.335a4.31 4.31 0 001.073-.123 6.25 6.25 0 00.869-.3v1.011a3.522 3.522 0 01-.841.294 5.08 5.08 0 01-1.094.103zm8.818-6.665h-2.467V85h-1.122v-6.528h-2.433v-.964h6.022v.964zm4.368-1.1c.638 0 1.185.14 1.641.423a2.74 2.74 0 011.046 1.19c.242.505.362 1.098.362 1.777v.704h-5.175c.014.88.233 1.55.657 2.01.424.46 1.021.69 1.791.69.474 0 .893-.043 1.258-.13a6.952 6.952 0 001.134-.383v.998a5.516 5.516 0 01-1.128.37 6.459 6.459 0 01-1.312.116c-.72 0-1.349-.146-1.887-.438a3.059 3.059 0 01-1.244-1.299c-.296-.57-.444-1.267-.444-2.091 0-.807.134-1.504.403-2.092.273-.593.656-1.048 1.148-1.367.497-.32 1.081-.479 1.75-.479zm-.013.929c-.606 0-1.089.198-1.449.594-.36.397-.575.95-.643 1.662h3.965a3.205 3.205 0 00-.212-1.176 1.652 1.652 0 00-.608-.793c-.274-.191-.625-.287-1.053-.287zm12.899-.793V85H292.3v-4.88c0-.201.004-.404.013-.61.014-.209.03-.419.048-.628h-.041L289.832 85h-.964l-2.427-6.118h-.041c.014.21.023.42.028.629.009.205.013.421.013.65V85h-1.032v-7.492h1.525l2.42 6.125 2.454-6.125h1.517zm8.819 3.732c0 .616-.08 1.165-.24 1.648-.159.483-.389.89-.69 1.223a3.005 3.005 0 01-1.094.766 3.79 3.79 0 01-1.442.26c-.502 0-.962-.087-1.381-.26a3.11 3.11 0 01-1.08-.766 3.523 3.523 0 01-.704-1.223c-.164-.483-.246-1.032-.246-1.648 0-.82.139-1.517.417-2.092.278-.578.674-1.018 1.189-1.319.52-.305 1.137-.458 1.853-.458.683 0 1.28.153 1.791.458.515.305.913.748 1.196 1.326.287.575.431 1.27.431 2.085zm-5.702 0c0 .602.08 1.124.24 1.566.159.442.405.784.738 1.025.333.242.761.362 1.285.362.52 0 .946-.12 1.278-.362.338-.242.586-.583.746-1.025.159-.442.239-.964.239-1.566 0-.597-.08-1.112-.239-1.545-.16-.437-.406-.774-.739-1.011-.332-.237-.763-.356-1.292-.356-.779 0-1.351.258-1.716.773-.36.515-.54 1.228-.54 2.14zm8.744-3.732v4.71a14.222 14.222 0 01-.028.813l-.027.465a6.303 6.303 0 01-.021.362l4.088-6.35h1.395V85h-1.06v-4.594a28.326 28.326 0 01.028-1.23l.02-.52L305.507 85h-1.402v-7.492h1.081zm4.846-3.083c-.041.46-.157.845-.348 1.155-.187.31-.463.545-.828.704-.364.155-.831.233-1.401.233-.588 0-1.062-.076-1.422-.226a1.615 1.615 0 01-.793-.697c-.168-.31-.269-.7-.301-1.17h1.067c.05.502.184.844.403 1.026.219.182.574.274 1.067.274.437 0 .781-.096 1.032-.288.25-.19.401-.528.451-1.011h1.073zM131.71 96.385c.893 0 1.556.2 1.989.601.433.401.65 1.042.65 1.921V104h-.828l-.218-1.107h-.055c-.21.273-.428.503-.656.69a2.45 2.45 0 01-.793.417c-.296.091-.661.137-1.094.137-.456 0-.861-.08-1.217-.24a1.893 1.893 0 01-.834-.724c-.2-.324-.3-.734-.3-1.231 0-.747.296-1.321.888-1.722.593-.401 1.495-.62 2.707-.656l1.292-.055v-.458c0-.647-.139-1.1-.417-1.36-.278-.26-.67-.39-1.176-.39-.391 0-.765.057-1.121.17a7.689 7.689 0 00-1.011.404l-.349-.861a6.255 6.255 0 011.162-.445 5.083 5.083 0 011.381-.184zm1.518 3.924l-1.142.047c-.934.037-1.593.19-1.976.458-.382.269-.574.65-.574 1.142 0 .428.13.745.39.95.26.205.604.308 1.032.308.665 0 1.21-.185 1.634-.554.424-.369.636-.923.636-1.661v-.69zm9.413-1.921c0 .47-.137.836-.411 1.1-.273.26-.626.436-1.059.527v.054c.469.064.873.233 1.21.506.342.269.513.682.513 1.237 0 .429-.103.807-.308 1.135-.205.328-.526.586-.964.773-.437.187-1.007.28-1.709.28h-3.226v-7.492h3.199c.538 0 1.011.061 1.422.184.414.119.74.315.977.588.237.274.356.643.356 1.108zm-.93 3.424c0-.442-.169-.761-.506-.957-.333-.195-.818-.293-1.456-.293h-1.921v2.515h1.948c.629 0 1.108-.096 1.436-.287.333-.196.499-.522.499-.978zm-.226-3.294c0-.356-.13-.62-.389-.793-.26-.178-.686-.267-1.279-.267h-1.989v2.153h1.791c.615 0 1.08-.089 1.395-.266.314-.178.471-.454.471-.827zm8.347-1.046h-2.468V104h-1.121v-6.528h-2.433v-.964h6.022v.964zm7.943 2.768c0 .615-.079 1.165-.239 1.648a3.37 3.37 0 01-.69 1.223 3.013 3.013 0 01-1.094.766 3.79 3.79 0 01-1.442.26c-.502 0-.962-.087-1.381-.26a3.11 3.11 0 01-1.08-.766 3.514 3.514 0 01-.704-1.223c-.165-.483-.247-1.033-.247-1.648 0-.82.139-1.517.417-2.092.278-.578.675-1.018 1.19-1.319.519-.305 1.137-.458 1.852-.458.684 0 1.281.153 1.791.458.515.305.914.748 1.197 1.326.287.575.43 1.27.43 2.085zm-5.701 0c0 .602.08 1.124.239 1.566.16.442.406.784.739 1.025.332.242.761.362 1.285.362.519 0 .946-.12 1.278-.362.337-.241.586-.583.745-1.025.16-.442.24-.964.24-1.566 0-.597-.08-1.112-.24-1.545-.159-.437-.405-.774-.738-1.011-.333-.237-.763-.356-1.292-.356-.779 0-1.351.258-1.716.773-.36.515-.54 1.228-.54 2.139zm15.572-3.732V104h-1.025v-4.88c0-.201.005-.404.014-.61.013-.209.029-.419.048-.628h-.041L164.153 104h-.964l-2.426-6.118h-.041c.013.21.022.42.027.629.009.205.014.421.014.65V104h-1.033v-7.492h1.525l2.42 6.125 2.454-6.125h1.517zm5.162-.123c.893 0 1.556.2 1.989.601.433.401.649 1.042.649 1.921V104h-.827l-.219-1.107h-.054a4.19 4.19 0 01-.657.69 2.44 2.44 0 01-.793.417c-.296.091-.66.137-1.093.137-.456 0-.862-.08-1.217-.24a1.893 1.893 0 01-.834-.724c-.201-.324-.301-.734-.301-1.231 0-.747.296-1.321.889-1.722.592-.401 1.495-.62 2.707-.656l1.292-.055v-.458c0-.647-.139-1.1-.417-1.36-.278-.26-.67-.39-1.176-.39-.392 0-.766.057-1.121.17a7.703 7.703 0 00-1.012.404l-.348-.861a6.228 6.228 0 011.162-.445 5.078 5.078 0 011.381-.184zm1.517 3.924l-1.141.047c-.935.037-1.593.19-1.976.458-.383.269-.574.65-.574 1.142 0 .428.13.745.389.95.26.205.604.308 1.033.308.665 0 1.21-.185 1.633-.554.424-.369.636-.923.636-1.661v-.69zm8.566-2.837h-2.468V104h-1.121v-6.528h-2.434v-.964h6.023v.964zm2.563-.964v4.71a17.338 17.338 0 01-.027.813l-.028.465a5.553 5.553 0 01-.02.362l4.088-6.35h1.394V104h-1.059v-4.594a28.396 28.396 0 01.027-1.23l.021-.52-4.075 6.344h-1.401v-7.492h1.08zm8.812 0V99.2c0 .47.127.816.382 1.039.26.224.636.335 1.128.335.474 0 .905-.073 1.292-.219.388-.145.78-.344 1.176-.594v-3.254h1.135V104h-1.135v-3.356c-.419.268-.832.48-1.237.635-.406.155-.891.233-1.456.233-.77 0-1.367-.201-1.791-.602-.42-.401-.629-.943-.629-1.627v-2.775h1.135zm10.397-.137c.638 0 1.185.141 1.641.424.455.282.804.679 1.046 1.19.241.505.362 1.098.362 1.777v.704h-5.175c.014.879.233 1.549.656 2.01.424.46 1.021.69 1.791.69.474 0 .894-.043 1.258-.13a6.838 6.838 0 001.135-.383v.998a5.526 5.526 0 01-1.128.37 6.503 6.503 0 01-1.312.116c-.721 0-1.349-.146-1.887-.438a3.057 3.057 0 01-1.244-1.299c-.297-.569-.445-1.267-.445-2.091 0-.807.135-1.504.404-2.092.273-.593.656-1.048 1.148-1.367.497-.32 1.08-.479 1.75-.479zm-.014.93c-.606 0-1.089.198-1.449.594-.36.397-.574.95-.642 1.662h3.964a3.206 3.206 0 00-.211-1.176 1.653 1.653 0 00-.609-.793c-.273-.191-.624-.287-1.053-.287zm7.992 6.836c-.675 0-1.27-.139-1.785-.417-.515-.278-.916-.702-1.203-1.272-.287-.569-.43-1.287-.43-2.153 0-.907.15-1.648.451-2.222.305-.578.724-1.007 1.258-1.285.533-.278 1.139-.417 1.818-.417.374 0 .734.039 1.08.116.351.073.638.167.861.28l-.341.95a5.908 5.908 0 00-.793-.245 3.509 3.509 0 00-.834-.11c-.52 0-.953.112-1.299.335-.342.224-.599.552-.773.985-.168.433-.253.966-.253 1.599 0 .606.082 1.124.247 1.552.168.428.417.757.745.984.332.224.747.335 1.244.335.396 0 .754-.041 1.073-.123.319-.086.608-.187.868-.3v1.011c-.25.128-.531.226-.841.294-.305.069-.67.103-1.093.103zm8.08-7.63h1.251l-3.234 3.617 3.493 3.876h-1.333l-3.404-3.801V104h-1.141v-7.492h1.141v3.637l3.227-3.637zm3.944 0v4.711a17.338 17.338 0 01-.027.813l-.028.465a5.553 5.553 0 01-.02.362l4.088-6.35h1.394V104h-1.059v-4.594a28.396 28.396 0 01.027-1.23l.021-.52-4.075 6.344h-1.401v-7.492h1.08z" fill="#000"/><defs><filter id="filter0_d_1984_14807" x="0" y="0" width="359" height="152" filterUnits="userSpaceOnUse" color-interpolation-filters="sRGB"><feFlood flood-opacity="0" result="BackgroundImageFix"/><feColorMatrix in="SourceAlpha" values="0 0 0 0 0 0 0 0 0 0 0 0 0 0 0 0 0 0 127 0" result="hardAlpha"/><feMorphology radius="3" in="SourceAlpha" result="effect1_dropShadow_1984_14807"/><feOffset dy="1"/><feGaussianBlur stdDeviation="17.5"/><feComposite in2="hardAlpha" operator="out"/><feColorMatrix values="0 0 0 0 0 0 0 0 0 0 0 0 0 0 0 0 0 0 0.15 0"/><feBlend in2="BackgroundImageFix" result="effect1_dropShadow_1984_14807"/><feBlend in="SourceGraphic" in2="effect1_dropShadow_1984_14807" result="shape"/></filter></defs></svg>