<svg width="359" height="152" viewBox="0 0 359 152" fill="none" xmlns="http://www.w3.org/2000/svg">
<g filter="url(#filter0_d_1984_14807)">
<path fill-rule="evenodd" clip-rule="evenodd" d="M261.607 43.7538H317C322.523 43.7538 327 48.231 327 53.7538V109C327 114.523 322.523 119 317 119H42C36.4771 119 32 114.523 32 109V53.7538C32 48.231 36.4772 43.7538 42 43.7538H241.606L251.607 31L261.607 43.7538Z" fill="white"/>
</g>
<path d="M82.751 60.9893C82.751 61.7594 82.653 62.4613 82.457 63.0947C82.2611 63.7236 81.9694 64.266 81.582 64.7217C81.1992 65.1729 80.723 65.5215 80.1533 65.7676C79.5837 66.0137 78.9229 66.1367 78.1709 66.1367C77.3962 66.1367 76.7194 66.0137 76.1406 65.7676C75.5664 65.5215 75.0879 65.1706 74.7051 64.7148C74.3268 64.2591 74.042 63.7145 73.8506 63.0811C73.6637 62.4476 73.5703 61.7458 73.5703 60.9756C73.5703 59.9548 73.7389 59.0592 74.0762 58.2891C74.4134 57.5189 74.9238 56.9196 75.6074 56.4912C76.2956 56.0628 77.1569 55.8486 78.1914 55.8486C79.1803 55.8486 80.012 56.0605 80.6865 56.4844C81.3656 56.9082 81.8783 57.5052 82.2246 58.2754C82.5755 59.041 82.751 59.9456 82.751 60.9893ZM74.7939 60.9893C74.7939 61.8369 74.9147 62.5706 75.1562 63.1904C75.3978 63.8102 75.7669 64.2887 76.2637 64.626C76.765 64.9632 77.4007 65.1318 78.1709 65.1318C78.9456 65.1318 79.5791 64.9632 80.0713 64.626C80.568 64.2887 80.9349 63.8102 81.1719 63.1904C81.4089 62.5706 81.5273 61.8369 81.5273 60.9893C81.5273 59.6995 81.2562 58.6924 80.7139 57.9678C80.1761 57.2386 79.3353 56.874 78.1914 56.874C77.4167 56.874 76.7786 57.0404 76.2773 57.373C75.776 57.7057 75.4023 58.1797 75.1562 58.7949C74.9147 59.4056 74.7939 60.137 74.7939 60.9893ZM89.915 59.4717H87.4473V66H86.3262V59.4717H83.8926V58.5078H89.915V59.4717ZM94.3994 66.1367C93.7249 66.1367 93.1302 65.9977 92.6152 65.7197C92.1003 65.4417 91.6992 65.0179 91.4121 64.4482C91.125 63.8786 90.9814 63.1608 90.9814 62.2949C90.9814 61.388 91.1318 60.6475 91.4326 60.0732C91.738 59.4945 92.1572 59.0661 92.6904 58.7881C93.2236 58.5101 93.8298 58.3711 94.5088 58.3711C94.8825 58.3711 95.2425 58.4098 95.5889 58.4873C95.9398 58.5602 96.2269 58.6536 96.4502 58.7676L96.1084 59.7178C95.8805 59.6266 95.6162 59.5446 95.3154 59.4717C95.0192 59.3988 94.7412 59.3623 94.4814 59.3623C93.9619 59.3623 93.529 59.474 93.1826 59.6973C92.8408 59.9206 92.5833 60.2487 92.4102 60.6816C92.2415 61.1146 92.1572 61.6478 92.1572 62.2812C92.1572 62.8874 92.2393 63.4046 92.4033 63.833C92.5719 64.2614 92.8203 64.5895 93.1484 64.8174C93.4811 65.0407 93.8958 65.1523 94.3926 65.1523C94.7891 65.1523 95.1468 65.1113 95.4658 65.0293C95.7848 64.9427 96.0742 64.8424 96.334 64.7285V65.7402C96.0833 65.8678 95.8031 65.9658 95.4932 66.0342C95.1878 66.1025 94.8232 66.1367 94.3994 66.1367ZM103.73 66H102.575V59.458H100.299C100.208 60.6383 100.091 61.6501 99.9502 62.4932C99.8135 63.3317 99.6403 64.0176 99.4307 64.5508C99.2256 65.0794 98.9749 65.4691 98.6787 65.7197C98.387 65.9658 98.0384 66.0889 97.6328 66.0889C97.5098 66.0889 97.3936 66.082 97.2842 66.0684C97.1748 66.0547 97.0814 66.0319 97.0039 66V65.1387C97.0632 65.1569 97.1247 65.1706 97.1885 65.1797C97.2568 65.1888 97.3275 65.1934 97.4004 65.1934C97.6055 65.1934 97.7923 65.109 97.9609 64.9404C98.1341 64.7673 98.2891 64.5075 98.4258 64.1611C98.5671 63.8148 98.6924 63.3773 98.8018 62.8486C98.9111 62.3154 99.0068 61.6888 99.0889 60.9688C99.1755 60.2441 99.2507 59.4238 99.3145 58.5078H103.73V66ZM109.008 58.3711C109.646 58.3711 110.193 58.5124 110.648 58.7949C111.104 59.0775 111.453 59.474 111.694 59.9844C111.936 60.4902 112.057 61.0827 112.057 61.7617V62.4658H106.882C106.896 63.3454 107.114 64.0153 107.538 64.4756C107.962 64.9359 108.559 65.166 109.329 65.166C109.803 65.166 110.222 65.1227 110.587 65.0361C110.951 64.9495 111.33 64.8219 111.722 64.6533V65.6514C111.343 65.82 110.967 65.943 110.594 66.0205C110.225 66.098 109.787 66.1367 109.281 66.1367C108.561 66.1367 107.932 65.9909 107.395 65.6992C106.861 65.403 106.447 64.9701 106.15 64.4004C105.854 63.8307 105.706 63.1335 105.706 62.3086C105.706 61.502 105.84 60.8047 106.109 60.2168C106.383 59.6243 106.766 59.1686 107.258 58.8496C107.755 58.5306 108.338 58.3711 109.008 58.3711ZM108.994 59.3008C108.388 59.3008 107.905 59.499 107.545 59.8955C107.185 60.292 106.971 60.8457 106.902 61.5566H110.867C110.863 61.11 110.792 60.7181 110.655 60.3809C110.523 60.0391 110.32 59.7747 110.047 59.5879C109.773 59.3965 109.423 59.3008 108.994 59.3008ZM122.762 58.5078L119.645 62.1514L123.028 66H121.729L118.448 62.1992V66H117.389V62.1992L114.114 66H112.815L116.199 62.1514L113.075 58.5078H114.326L117.389 62.1445V58.5078H118.448V62.1445L121.524 58.5078H122.762ZM125.359 58.5078V63.2178C125.359 63.3089 125.357 63.4274 125.353 63.5732C125.348 63.7145 125.341 63.8672 125.332 64.0312C125.323 64.1908 125.314 64.3457 125.305 64.4961C125.3 64.6419 125.293 64.7627 125.284 64.8584L129.372 58.5078H130.767V66H129.707V61.4062C129.707 61.2604 129.709 61.0736 129.714 60.8457C129.718 60.6178 129.725 60.3945 129.734 60.1758C129.743 59.9525 129.75 59.7793 129.755 59.6562L125.681 66H124.279V58.5078H125.359ZM139.134 60.3877C139.134 60.8571 138.997 61.224 138.724 61.4883C138.45 61.748 138.097 61.9235 137.664 62.0146V62.0693C138.133 62.1331 138.537 62.3018 138.874 62.5752C139.216 62.8441 139.387 63.2565 139.387 63.8125C139.387 64.2409 139.284 64.6191 139.079 64.9473C138.874 65.2754 138.553 65.5329 138.115 65.7197C137.678 65.9066 137.108 66 136.406 66H133.18V58.5078H136.379C136.917 58.5078 137.391 58.5693 137.801 58.6924C138.215 58.8109 138.541 59.0068 138.778 59.2803C139.015 59.5537 139.134 59.9229 139.134 60.3877ZM138.204 63.8125C138.204 63.3704 138.035 63.0514 137.698 62.8555C137.366 62.6595 136.88 62.5615 136.242 62.5615H134.321V65.0771H136.27C136.898 65.0771 137.377 64.9814 137.705 64.79C138.038 64.5941 138.204 64.2682 138.204 63.8125ZM137.979 60.5176C137.979 60.1621 137.849 59.8978 137.589 59.7246C137.329 59.5469 136.903 59.458 136.311 59.458H134.321V61.6113H136.112C136.728 61.6113 137.192 61.5225 137.507 61.3447C137.821 61.167 137.979 60.8913 137.979 60.5176ZM144.021 58.3848C144.915 58.3848 145.578 58.5853 146.011 58.9863C146.444 59.3874 146.66 60.0277 146.66 60.9072V66H145.833L145.614 64.8926H145.56C145.35 65.166 145.131 65.3962 144.903 65.583C144.675 65.7653 144.411 65.9043 144.11 66C143.814 66.0911 143.45 66.1367 143.017 66.1367C142.561 66.1367 142.155 66.057 141.8 65.8975C141.449 65.738 141.171 65.4964 140.966 65.1729C140.765 64.8493 140.665 64.4391 140.665 63.9424C140.665 63.195 140.961 62.6208 141.554 62.2197C142.146 61.8187 143.049 61.5999 144.261 61.5635L145.553 61.5088V61.0508C145.553 60.4036 145.414 59.9502 145.136 59.6904C144.858 59.4307 144.466 59.3008 143.96 59.3008C143.568 59.3008 143.194 59.3577 142.839 59.4717C142.483 59.5856 142.146 59.7201 141.827 59.875L141.479 59.0137C141.816 58.8405 142.203 58.6924 142.641 58.5693C143.078 58.4463 143.538 58.3848 144.021 58.3848ZM145.539 62.3086L144.397 62.3564C143.463 62.3929 142.805 62.5456 142.422 62.8145C142.039 63.0833 141.848 63.4639 141.848 63.9561C141.848 64.3844 141.978 64.7012 142.237 64.9062C142.497 65.1113 142.841 65.2139 143.27 65.2139C143.935 65.2139 144.479 65.0293 144.903 64.6602C145.327 64.291 145.539 63.7373 145.539 62.999V62.3086ZM150.14 58.5078V61.6523H154.316V58.5078H155.451V66H154.316V62.6162H150.14V66H148.998V58.5078H150.14ZM158.938 58.5078V63.2178C158.938 63.3089 158.935 63.4274 158.931 63.5732C158.926 63.7145 158.919 63.8672 158.91 64.0312C158.901 64.1908 158.892 64.3457 158.883 64.4961C158.878 64.6419 158.871 64.7627 158.862 64.8584L162.95 58.5078H164.345V66H163.285V61.4062C163.285 61.2604 163.287 61.0736 163.292 60.8457C163.297 60.6178 163.303 60.3945 163.312 60.1758C163.322 59.9525 163.328 59.7793 163.333 59.6562L159.259 66H157.857V58.5078H158.938ZM169.643 58.3711C170.281 58.3711 170.827 58.5124 171.283 58.7949C171.739 59.0775 172.088 59.474 172.329 59.9844C172.571 60.4902 172.691 61.0827 172.691 61.7617V62.4658H167.517C167.53 63.3454 167.749 64.0153 168.173 64.4756C168.597 64.9359 169.194 65.166 169.964 65.166C170.438 65.166 170.857 65.1227 171.222 65.0361C171.586 64.9495 171.965 64.8219 172.356 64.6533V65.6514C171.978 65.82 171.602 65.943 171.229 66.0205C170.859 66.098 170.422 66.1367 169.916 66.1367C169.196 66.1367 168.567 65.9909 168.029 65.6992C167.496 65.403 167.081 64.9701 166.785 64.4004C166.489 63.8307 166.341 63.1335 166.341 62.3086C166.341 61.502 166.475 60.8047 166.744 60.2168C167.018 59.6243 167.4 59.1686 167.893 58.8496C168.389 58.5306 168.973 58.3711 169.643 58.3711ZM169.629 59.3008C169.023 59.3008 168.54 59.499 168.18 59.8955C167.82 60.292 167.605 60.8457 167.537 61.5566H171.502C171.497 61.11 171.427 60.7181 171.29 60.3809C171.158 60.0391 170.955 59.7747 170.682 59.5879C170.408 59.3965 170.057 59.3008 169.629 59.3008ZM181.257 66.1367C180.582 66.1367 179.988 65.9977 179.473 65.7197C178.958 65.4417 178.557 65.0179 178.27 64.4482C177.982 63.8786 177.839 63.1608 177.839 62.2949C177.839 61.388 177.989 60.6475 178.29 60.0732C178.595 59.4945 179.015 59.0661 179.548 58.7881C180.081 58.5101 180.687 58.3711 181.366 58.3711C181.74 58.3711 182.1 58.4098 182.446 58.4873C182.797 58.5602 183.084 58.6536 183.308 58.7676L182.966 59.7178C182.738 59.6266 182.474 59.5446 182.173 59.4717C181.877 59.3988 181.599 59.3623 181.339 59.3623C180.819 59.3623 180.386 59.474 180.04 59.6973C179.698 59.9206 179.441 60.2487 179.268 60.6816C179.099 61.1146 179.015 61.6478 179.015 62.2812C179.015 62.8874 179.097 63.4046 179.261 63.833C179.429 64.2614 179.678 64.5895 180.006 64.8174C180.339 65.0407 180.753 65.1523 181.25 65.1523C181.646 65.1523 182.004 65.1113 182.323 65.0293C182.642 64.9427 182.932 64.8424 183.191 64.7285V65.7402C182.941 65.8678 182.66 65.9658 182.351 66.0342C182.045 66.1025 181.681 66.1367 181.257 66.1367ZM190.075 59.4717H187.607V66H186.486V59.4717H184.053V58.5078H190.075V59.4717ZM194.361 58.3848C195.255 58.3848 195.918 58.5853 196.351 58.9863C196.784 59.3874 197 60.0277 197 60.9072V66H196.173L195.954 64.8926H195.899C195.69 65.166 195.471 65.3962 195.243 65.583C195.015 65.7653 194.751 65.9043 194.45 66C194.154 66.0911 193.789 66.1367 193.356 66.1367C192.901 66.1367 192.495 66.057 192.14 65.8975C191.789 65.738 191.511 65.4964 191.306 65.1729C191.105 64.8493 191.005 64.4391 191.005 63.9424C191.005 63.195 191.301 62.6208 191.894 62.2197C192.486 61.8187 193.388 61.5999 194.601 61.5635L195.893 61.5088V61.0508C195.893 60.4036 195.754 59.9502 195.476 59.6904C195.198 59.4307 194.806 59.3008 194.3 59.3008C193.908 59.3008 193.534 59.3577 193.179 59.4717C192.823 59.5856 192.486 59.7201 192.167 59.875L191.818 59.0137C192.156 58.8405 192.543 58.6924 192.98 58.5693C193.418 58.4463 193.878 58.3848 194.361 58.3848ZM195.879 62.3086L194.737 62.3564C193.803 62.3929 193.145 62.5456 192.762 62.8145C192.379 63.0833 192.188 63.4639 192.188 63.9561C192.188 64.3844 192.317 64.7012 192.577 64.9062C192.837 65.1113 193.181 65.2139 193.609 65.2139C194.275 65.2139 194.819 65.0293 195.243 64.6602C195.667 64.291 195.879 63.7373 195.879 62.999V62.3086ZM204.444 59.4717H201.977V66H200.855V59.4717H198.422V58.5078H204.444V59.4717ZM204.745 58.5078H205.962L207.616 62.8555C207.712 63.1107 207.801 63.3568 207.883 63.5938C207.965 63.8262 208.038 64.0495 208.102 64.2637C208.165 64.4779 208.215 64.6852 208.252 64.8857H208.3C208.364 64.6579 208.455 64.3594 208.573 63.9902C208.692 63.6165 208.819 63.236 208.956 62.8486L210.521 58.5078H211.745L208.484 67.1006C208.311 67.5609 208.108 67.9619 207.876 68.3037C207.648 68.6455 207.37 68.9076 207.042 69.0898C206.714 69.2767 206.317 69.3701 205.853 69.3701C205.638 69.3701 205.449 69.3564 205.285 69.3291C205.121 69.3063 204.98 69.279 204.861 69.2471V68.3379C204.962 68.3607 205.082 68.3812 205.224 68.3994C205.369 68.4176 205.52 68.4268 205.675 68.4268C205.957 68.4268 206.201 68.3721 206.406 68.2627C206.616 68.1579 206.796 68.0029 206.946 67.7979C207.097 67.5928 207.227 67.349 207.336 67.0664L207.746 66.0137L204.745 58.5078ZM215.942 66.1367C215.268 66.1367 214.673 65.9977 214.158 65.7197C213.643 65.4417 213.242 65.0179 212.955 64.4482C212.668 63.8786 212.524 63.1608 212.524 62.2949C212.524 61.388 212.675 60.6475 212.976 60.0732C213.281 59.4945 213.7 59.0661 214.233 58.7881C214.767 58.5101 215.373 58.3711 216.052 58.3711C216.425 58.3711 216.785 58.4098 217.132 58.4873C217.483 58.5602 217.77 58.6536 217.993 58.7676L217.651 59.7178C217.424 59.6266 217.159 59.5446 216.858 59.4717C216.562 59.3988 216.284 59.3623 216.024 59.3623C215.505 59.3623 215.072 59.474 214.726 59.6973C214.384 59.9206 214.126 60.2487 213.953 60.6816C213.785 61.1146 213.7 61.6478 213.7 62.2812C213.7 62.8874 213.782 63.4046 213.946 63.833C214.115 64.2614 214.363 64.5895 214.691 64.8174C215.024 65.0407 215.439 65.1523 215.936 65.1523C216.332 65.1523 216.69 65.1113 217.009 65.0293C217.328 64.9427 217.617 64.8424 217.877 64.7285V65.7402C217.626 65.8678 217.346 65.9658 217.036 66.0342C216.731 66.1025 216.366 66.1367 215.942 66.1367ZM226.114 62.2402C226.114 62.8555 226.035 63.4046 225.875 63.8877C225.715 64.3708 225.485 64.7786 225.185 65.1113C224.884 65.444 224.519 65.6992 224.091 65.877C223.667 66.0501 223.186 66.1367 222.648 66.1367C222.147 66.1367 221.687 66.0501 221.268 65.877C220.853 65.6992 220.493 65.444 220.188 65.1113C219.887 64.7786 219.652 64.3708 219.483 63.8877C219.319 63.4046 219.237 62.8555 219.237 62.2402C219.237 61.4199 219.376 60.7227 219.654 60.1484C219.932 59.5697 220.329 59.1299 220.844 58.8291C221.363 58.5238 221.981 58.3711 222.696 58.3711C223.38 58.3711 223.977 58.5238 224.487 58.8291C225.002 59.1344 225.401 59.5765 225.684 60.1553C225.971 60.7295 226.114 61.4245 226.114 62.2402ZM220.413 62.2402C220.413 62.8418 220.493 63.3636 220.652 63.8057C220.812 64.2477 221.058 64.5895 221.391 64.8311C221.723 65.0726 222.152 65.1934 222.676 65.1934C223.195 65.1934 223.621 65.0726 223.954 64.8311C224.291 64.5895 224.54 64.2477 224.699 63.8057C224.859 63.3636 224.938 62.8418 224.938 62.2402C224.938 61.6432 224.859 61.1283 224.699 60.6953C224.54 60.2578 224.294 59.9206 223.961 59.6836C223.628 59.4466 223.198 59.3281 222.669 59.3281C221.89 59.3281 221.318 59.5856 220.953 60.1006C220.593 60.6156 220.413 61.3288 220.413 62.2402ZM234.03 60.3877C234.03 60.8571 233.894 61.224 233.62 61.4883C233.347 61.748 232.993 61.9235 232.561 62.0146V62.0693C233.03 62.1331 233.433 62.3018 233.771 62.5752C234.112 62.8441 234.283 63.2565 234.283 63.8125C234.283 64.2409 234.181 64.6191 233.976 64.9473C233.771 65.2754 233.449 65.5329 233.012 65.7197C232.574 65.9066 232.005 66 231.303 66H228.076V58.5078H231.275C231.813 58.5078 232.287 58.5693 232.697 58.6924C233.112 58.8109 233.438 59.0068 233.675 59.2803C233.912 59.5537 234.03 59.9229 234.03 60.3877ZM233.101 63.8125C233.101 63.3704 232.932 63.0514 232.595 62.8555C232.262 62.6595 231.777 62.5615 231.139 62.5615H229.218V65.0771H231.166C231.795 65.0771 232.273 64.9814 232.602 64.79C232.934 64.5941 233.101 64.2682 233.101 63.8125ZM232.875 60.5176C232.875 60.1621 232.745 59.8978 232.485 59.7246C232.226 59.5469 231.799 59.458 231.207 59.458H229.218V61.6113H231.009C231.624 61.6113 232.089 61.5225 232.403 61.3447C232.718 61.167 232.875 60.8913 232.875 60.5176ZM241.68 58.3711C242.24 58.3711 242.726 58.4486 243.136 58.6035C243.546 58.7539 243.863 58.9749 244.086 59.2666C244.309 59.5583 244.421 59.9137 244.421 60.333C244.421 60.7842 244.298 61.1442 244.052 61.4131C243.806 61.682 243.466 61.8757 243.033 61.9941V62.0488C243.339 62.1309 243.614 62.2493 243.86 62.4043C244.111 62.5547 244.309 62.7552 244.455 63.0059C244.605 63.252 244.681 63.5596 244.681 63.9287C244.681 64.348 244.567 64.7262 244.339 65.0635C244.111 65.3962 243.765 65.6582 243.3 65.8496C242.835 66.041 242.247 66.1367 241.536 66.1367C241.185 66.1367 240.853 66.1162 240.538 66.0752C240.224 66.0387 239.939 65.984 239.684 65.9111C239.428 65.8382 239.205 65.7516 239.014 65.6514V64.6191C239.333 64.7741 239.706 64.9108 240.135 65.0293C240.563 65.1478 241.026 65.207 241.522 65.207C241.905 65.207 242.249 65.1637 242.555 65.0771C242.86 64.986 243.102 64.8424 243.279 64.6465C243.462 64.446 243.553 64.1839 243.553 63.8604C243.553 63.5641 243.473 63.3203 243.313 63.1289C243.154 62.9329 242.915 62.7894 242.596 62.6982C242.281 62.6025 241.882 62.5547 241.399 62.5547H240.395V61.625H241.222C241.864 61.625 242.377 61.5339 242.76 61.3516C243.143 61.1693 243.334 60.8617 243.334 60.4287C243.334 60.055 243.186 59.777 242.89 59.5947C242.593 59.4079 242.17 59.3145 241.618 59.3145C241.208 59.3145 240.846 59.3577 240.531 59.4443C240.217 59.5264 239.877 59.6449 239.513 59.7998L239.109 58.8906C239.501 58.7174 239.911 58.5876 240.34 58.501C240.768 58.4144 241.215 58.3711 241.68 58.3711ZM249.322 58.3848C250.215 58.3848 250.879 58.5853 251.312 58.9863C251.744 59.3874 251.961 60.0277 251.961 60.9072V66H251.134L250.915 64.8926H250.86C250.651 65.166 250.432 65.3962 250.204 65.583C249.976 65.7653 249.712 65.9043 249.411 66C249.115 66.0911 248.75 66.1367 248.317 66.1367C247.862 66.1367 247.456 66.057 247.101 65.8975C246.75 65.738 246.472 65.4964 246.267 65.1729C246.066 64.8493 245.966 64.4391 245.966 63.9424C245.966 63.195 246.262 62.6208 246.854 62.2197C247.447 61.8187 248.349 61.5999 249.562 61.5635L250.854 61.5088V61.0508C250.854 60.4036 250.715 59.9502 250.437 59.6904C250.159 59.4307 249.767 59.3008 249.261 59.3008C248.869 59.3008 248.495 59.3577 248.14 59.4717C247.784 59.5856 247.447 59.7201 247.128 59.875L246.779 59.0137C247.117 58.8405 247.504 58.6924 247.941 58.5693C248.379 58.4463 248.839 58.3848 249.322 58.3848ZM250.84 62.3086L249.698 62.3564C248.764 62.3929 248.105 62.5456 247.723 62.8145C247.34 63.0833 247.148 63.4639 247.148 63.9561C247.148 64.3844 247.278 64.7012 247.538 64.9062C247.798 65.1113 248.142 65.2139 248.57 65.2139C249.236 65.2139 249.78 65.0293 250.204 64.6602C250.628 64.291 250.84 63.7373 250.84 62.999V62.3086ZM258.667 58.5078H259.918L256.685 62.124L260.178 66H258.845L255.44 62.1992V66H254.299V58.5078H255.44V62.1445L258.667 58.5078ZM264.334 58.3848C265.227 58.3848 265.89 58.5853 266.323 58.9863C266.756 59.3874 266.973 60.0277 266.973 60.9072V66H266.146L265.927 64.8926H265.872C265.662 65.166 265.444 65.3962 265.216 65.583C264.988 65.7653 264.724 65.9043 264.423 66C264.127 66.0911 263.762 66.1367 263.329 66.1367C262.873 66.1367 262.468 66.057 262.112 65.8975C261.761 65.738 261.483 65.4964 261.278 65.1729C261.078 64.8493 260.978 64.4391 260.978 63.9424C260.978 63.195 261.274 62.6208 261.866 62.2197C262.459 61.8187 263.361 61.5999 264.573 61.5635L265.865 61.5088V61.0508C265.865 60.4036 265.726 59.9502 265.448 59.6904C265.17 59.4307 264.778 59.3008 264.272 59.3008C263.881 59.3008 263.507 59.3577 263.151 59.4717C262.796 59.5856 262.459 59.7201 262.14 59.875L261.791 59.0137C262.128 58.8405 262.516 58.6924 262.953 58.5693C263.391 58.4463 263.851 58.3848 264.334 58.3848ZM265.852 62.3086L264.71 62.3564C263.776 62.3929 263.117 62.5456 262.734 62.8145C262.352 63.0833 262.16 63.4639 262.16 63.9561C262.16 64.3844 262.29 64.7012 262.55 64.9062C262.81 65.1113 263.154 65.2139 263.582 65.2139C264.247 65.2139 264.792 65.0293 265.216 64.6602C265.64 64.291 265.852 63.7373 265.852 62.999V62.3086ZM271.238 58.3711C271.799 58.3711 272.284 58.4486 272.694 58.6035C273.104 58.7539 273.421 58.9749 273.645 59.2666C273.868 59.5583 273.979 59.9137 273.979 60.333C273.979 60.7842 273.856 61.1442 273.61 61.4131C273.364 61.682 273.025 61.8757 272.592 61.9941V62.0488C272.897 62.1309 273.173 62.2493 273.419 62.4043C273.67 62.5547 273.868 62.7552 274.014 63.0059C274.164 63.252 274.239 63.5596 274.239 63.9287C274.239 64.348 274.125 64.7262 273.897 65.0635C273.67 65.3962 273.323 65.6582 272.858 65.8496C272.394 66.041 271.806 66.1367 271.095 66.1367C270.744 66.1367 270.411 66.1162 270.097 66.0752C269.782 66.0387 269.497 65.984 269.242 65.9111C268.987 65.8382 268.764 65.7516 268.572 65.6514V64.6191C268.891 64.7741 269.265 64.9108 269.693 65.0293C270.122 65.1478 270.584 65.207 271.081 65.207C271.464 65.207 271.808 65.1637 272.113 65.0771C272.419 64.986 272.66 64.8424 272.838 64.6465C273.02 64.446 273.111 64.1839 273.111 63.8604C273.111 63.5641 273.032 63.3203 272.872 63.1289C272.713 62.9329 272.473 62.7894 272.154 62.6982C271.84 62.6025 271.441 62.5547 270.958 62.5547H269.953V61.625H270.78C271.423 61.625 271.936 61.5339 272.318 61.3516C272.701 61.1693 272.893 60.8617 272.893 60.4287C272.893 60.055 272.744 59.777 272.448 59.5947C272.152 59.4079 271.728 59.3145 271.177 59.3145C270.767 59.3145 270.404 59.3577 270.09 59.4443C269.775 59.5264 269.436 59.6449 269.071 59.7998L268.668 58.8906C269.06 58.7174 269.47 58.5876 269.898 58.501C270.327 58.4144 270.773 58.3711 271.238 58.3711ZM278.881 58.3848C279.774 58.3848 280.437 58.5853 280.87 58.9863C281.303 59.3874 281.52 60.0277 281.52 60.9072V66H280.692L280.474 64.8926H280.419C280.209 65.166 279.991 65.3962 279.763 65.583C279.535 65.7653 279.271 65.9043 278.97 66C278.674 66.0911 278.309 66.1367 277.876 66.1367C277.42 66.1367 277.015 66.057 276.659 65.8975C276.308 65.738 276.03 65.4964 275.825 65.1729C275.625 64.8493 275.524 64.4391 275.524 63.9424C275.524 63.195 275.821 62.6208 276.413 62.2197C277.006 61.8187 277.908 61.5999 279.12 61.5635L280.412 61.5088V61.0508C280.412 60.4036 280.273 59.9502 279.995 59.6904C279.717 59.4307 279.325 59.3008 278.819 59.3008C278.427 59.3008 278.054 59.3577 277.698 59.4717C277.343 59.5856 277.006 59.7201 276.687 59.875L276.338 59.0137C276.675 58.8405 277.062 58.6924 277.5 58.5693C277.938 58.4463 278.398 58.3848 278.881 58.3848ZM280.398 62.3086L279.257 62.3564C278.323 62.3929 277.664 62.5456 277.281 62.8145C276.898 63.0833 276.707 63.4639 276.707 63.9561C276.707 64.3844 276.837 64.7012 277.097 64.9062C277.356 65.1113 277.701 65.2139 278.129 65.2139C278.794 65.2139 279.339 65.0293 279.763 64.6602C280.187 64.291 280.398 63.7373 280.398 62.999V62.3086ZM285.156 64.373L285.245 64.5303C285.163 64.863 285.058 65.2184 284.931 65.5967C284.808 65.9749 284.671 66.3532 284.521 66.7314C284.375 67.1143 284.227 67.472 284.076 67.8047H283.229C283.324 67.4401 283.418 67.055 283.509 66.6494C283.6 66.2484 283.682 65.8519 283.755 65.46C283.832 65.0635 283.894 64.7012 283.939 64.373H285.156ZM51.3877 85.1367C50.7132 85.1367 50.1185 84.9977 49.6035 84.7197C49.0885 84.4417 48.6875 84.0179 48.4004 83.4482C48.1133 82.8786 47.9697 82.1608 47.9697 81.2949C47.9697 80.388 48.1201 79.6475 48.4209 79.0732C48.7262 78.4945 49.1455 78.0661 49.6787 77.7881C50.2119 77.5101 50.818 77.3711 51.4971 77.3711C51.8708 77.3711 52.2308 77.4098 52.5771 77.4873C52.9281 77.5602 53.2152 77.6536 53.4385 77.7676L53.0967 78.7178C52.8688 78.6266 52.6045 78.5446 52.3037 78.4717C52.0075 78.3988 51.7295 78.3623 51.4697 78.3623C50.9502 78.3623 50.5173 78.474 50.1709 78.6973C49.8291 78.9206 49.5716 79.2487 49.3984 79.6816C49.2298 80.1146 49.1455 80.6478 49.1455 81.2812C49.1455 81.8874 49.2275 82.4046 49.3916 82.833C49.5602 83.2614 49.8086 83.5895 50.1367 83.8174C50.4694 84.0407 50.8841 84.1523 51.3809 84.1523C51.7773 84.1523 52.1351 84.1113 52.4541 84.0293C52.7731 83.9427 53.0625 83.8424 53.3223 83.7285V84.7402C53.0716 84.8678 52.7913 84.9658 52.4814 85.0342C52.1761 85.1025 51.8115 85.1367 51.3877 85.1367ZM60.2061 78.4717H57.7383V85H56.6172V78.4717H54.1836V77.5078H60.2061V78.4717ZM64.4922 77.3848C65.3854 77.3848 66.0485 77.5853 66.4814 77.9863C66.9144 78.3874 67.1309 79.0277 67.1309 79.9072V85H66.3037L66.085 83.8926H66.0303C65.8206 84.166 65.6019 84.3962 65.374 84.583C65.1462 84.7653 64.8818 84.9043 64.5811 85C64.2848 85.0911 63.9202 85.1367 63.4873 85.1367C63.0316 85.1367 62.626 85.057 62.2705 84.8975C61.9196 84.738 61.6416 84.4964 61.4365 84.1729C61.236 83.8493 61.1357 83.4391 61.1357 82.9424C61.1357 82.195 61.432 81.6208 62.0244 81.2197C62.6169 80.8187 63.5192 80.5999 64.7314 80.5635L66.0234 80.5088V80.0508C66.0234 79.4036 65.8844 78.9502 65.6064 78.6904C65.3285 78.4307 64.9365 78.3008 64.4307 78.3008C64.0387 78.3008 63.665 78.3577 63.3096 78.4717C62.9541 78.5856 62.6169 78.7201 62.2979 78.875L61.9492 78.0137C62.2865 77.8405 62.6738 77.6924 63.1113 77.5693C63.5488 77.4463 64.0091 77.3848 64.4922 77.3848ZM66.0098 81.3086L64.8682 81.3564C63.9339 81.3929 63.2754 81.5456 62.8926 81.8145C62.5098 82.0833 62.3184 82.4639 62.3184 82.9561C62.3184 83.3844 62.4482 83.7012 62.708 83.9062C62.9678 84.1113 63.3118 84.2139 63.7402 84.2139C64.4056 84.2139 64.9502 84.0293 65.374 83.6602C65.7979 83.291 66.0098 82.7373 66.0098 81.999V81.3086ZM74.5752 78.4717H72.1074V85H70.9863V78.4717H68.5527V77.5078H74.5752V78.4717ZM74.876 77.5078H76.0928L77.7471 81.8555C77.8428 82.1107 77.9316 82.3568 78.0137 82.5938C78.0957 82.8262 78.1686 83.0495 78.2324 83.2637C78.2962 83.4779 78.3464 83.6852 78.3828 83.8857H78.4307C78.4945 83.6579 78.5856 83.3594 78.7041 82.9902C78.8226 82.6165 78.9502 82.236 79.0869 81.8486L80.6523 77.5078H81.876L78.6152 86.1006C78.4421 86.5609 78.2393 86.9619 78.0068 87.3037C77.779 87.6455 77.501 87.9076 77.1729 88.0898C76.8447 88.2767 76.4482 88.3701 75.9834 88.3701C75.7692 88.3701 75.5801 88.3564 75.416 88.3291C75.252 88.3063 75.1107 88.279 74.9922 88.2471V87.3379C75.0924 87.3607 75.2132 87.3812 75.3545 87.3994C75.5003 87.4176 75.6507 87.4268 75.8057 87.4268C76.0882 87.4268 76.332 87.3721 76.5371 87.2627C76.7467 87.1579 76.9268 87.0029 77.0771 86.7979C77.2275 86.5928 77.3574 86.349 77.4668 86.0664L77.877 85.0137L74.876 77.5078ZM86.0732 85.1367C85.3988 85.1367 84.804 84.9977 84.2891 84.7197C83.7741 84.4417 83.373 84.0179 83.0859 83.4482C82.7988 82.8786 82.6553 82.1608 82.6553 81.2949C82.6553 80.388 82.8057 79.6475 83.1064 79.0732C83.4118 78.4945 83.8311 78.0661 84.3643 77.7881C84.8975 77.5101 85.5036 77.3711 86.1826 77.3711C86.5563 77.3711 86.9163 77.4098 87.2627 77.4873C87.6136 77.5602 87.9007 77.6536 88.124 77.7676L87.7822 78.7178C87.5544 78.6266 87.29 78.5446 86.9893 78.4717C86.693 78.3988 86.415 78.3623 86.1553 78.3623C85.6357 78.3623 85.2028 78.474 84.8564 78.6973C84.5146 78.9206 84.2572 79.2487 84.084 79.6816C83.9154 80.1146 83.8311 80.6478 83.8311 81.2812C83.8311 81.8874 83.9131 82.4046 84.0771 82.833C84.2458 83.2614 84.4941 83.5895 84.8223 83.8174C85.1549 84.0407 85.5697 84.1523 86.0664 84.1523C86.4629 84.1523 86.8206 84.1113 87.1396 84.0293C87.4587 83.9427 87.748 83.8424 88.0078 83.7285V84.7402C87.7572 84.8678 87.4769 84.9658 87.167 85.0342C86.8617 85.1025 86.4971 85.1367 86.0732 85.1367ZM89.7852 85V77.5078H90.9268V80.5977H92.9775C93.6156 80.5977 94.1396 80.6774 94.5498 80.8369C94.9645 80.9964 95.2721 81.2334 95.4727 81.5479C95.6732 81.8623 95.7734 82.252 95.7734 82.7168C95.7734 83.1816 95.6732 83.585 95.4727 83.9268C95.2767 84.2686 94.9668 84.5329 94.543 84.7197C94.1237 84.9066 93.5768 85 92.9023 85H89.7852ZM90.9268 84.0771H92.793C93.3581 84.0771 93.8092 83.9769 94.1465 83.7764C94.4837 83.5758 94.6523 83.2409 94.6523 82.7715C94.6523 82.3112 94.4951 81.9922 94.1807 81.8145C93.8662 81.6322 93.415 81.541 92.8271 81.541H90.9268V84.0771ZM97.0107 85V77.5078H98.1455V85H97.0107ZM107.183 85.1367C106.508 85.1367 105.913 84.9977 105.398 84.7197C104.883 84.4417 104.482 84.0179 104.195 83.4482C103.908 82.8786 103.765 82.1608 103.765 81.2949C103.765 80.388 103.915 79.6475 104.216 79.0732C104.521 78.4945 104.94 78.0661 105.474 77.7881C106.007 77.5101 106.613 77.3711 107.292 77.3711C107.666 77.3711 108.026 77.4098 108.372 77.4873C108.723 77.5602 109.01 77.6536 109.233 77.7676L108.892 78.7178C108.664 78.6266 108.399 78.5446 108.099 78.4717C107.802 78.3988 107.524 78.3623 107.265 78.3623C106.745 78.3623 106.312 78.474 105.966 78.6973C105.624 78.9206 105.367 79.2487 105.193 79.6816C105.025 80.1146 104.94 80.6478 104.94 81.2812C104.94 81.8874 105.022 82.4046 105.187 82.833C105.355 83.2614 105.604 83.5895 105.932 83.8174C106.264 84.0407 106.679 84.1523 107.176 84.1523C107.572 84.1523 107.93 84.1113 108.249 84.0293C108.568 83.9427 108.857 83.8424 109.117 83.7285V84.7402C108.867 84.8678 108.586 84.9658 108.276 85.0342C107.971 85.1025 107.606 85.1367 107.183 85.1367ZM111.975 77.5078V82.2178C111.975 82.3089 111.972 82.4274 111.968 82.5732C111.963 82.7145 111.956 82.8672 111.947 83.0312C111.938 83.1908 111.929 83.3457 111.92 83.4961C111.915 83.6419 111.909 83.7627 111.899 83.8584L115.987 77.5078H117.382V85H116.322V80.4062C116.322 80.2604 116.325 80.0736 116.329 79.8457C116.334 79.6178 116.34 79.3945 116.35 79.1758C116.359 78.9525 116.366 78.7793 116.37 78.6562L112.296 85H110.895V77.5078H111.975ZM120.937 77.5078V80.6523H125.113V77.5078H126.248V85H125.113V81.6162H120.937V85H119.795V77.5078H120.937ZM130.438 81.165L127.848 77.5078H129.146L131.122 80.3926L133.091 77.5078H134.376L131.785 81.165L134.52 85H133.221L131.122 81.9443L129.01 85H127.725L130.438 81.165ZM139.503 77.3711C140.437 77.3711 141.182 77.6924 141.738 78.335C142.294 78.9775 142.572 79.9437 142.572 81.2334C142.572 82.0856 142.445 82.8011 142.189 83.3799C141.934 83.9587 141.574 84.3962 141.109 84.6924C140.649 84.9886 140.104 85.1367 139.476 85.1367C139.079 85.1367 138.73 85.0843 138.43 84.9795C138.129 84.8747 137.871 84.7334 137.657 84.5557C137.443 84.3779 137.265 84.1842 137.124 83.9746H137.042C137.056 84.1523 137.072 84.3665 137.09 84.6172C137.113 84.8678 137.124 85.0866 137.124 85.2734V88.3496H135.982V77.5078H136.919L137.069 78.6152H137.124C137.27 78.3874 137.448 78.18 137.657 77.9932C137.867 77.8018 138.122 77.6514 138.423 77.542C138.728 77.4281 139.088 77.3711 139.503 77.3711ZM139.305 78.3281C138.785 78.3281 138.366 78.4284 138.047 78.6289C137.732 78.8294 137.502 79.1302 137.356 79.5312C137.211 79.9277 137.133 80.4268 137.124 81.0283V81.2471C137.124 81.8805 137.192 82.416 137.329 82.8535C137.47 83.291 137.701 83.6237 138.02 83.8516C138.343 84.0794 138.776 84.1934 139.318 84.1934C139.783 84.1934 140.171 84.068 140.48 83.8174C140.79 83.5667 141.021 83.2181 141.171 82.7715C141.326 82.3203 141.403 81.8031 141.403 81.2197C141.403 80.3356 141.23 79.6338 140.884 79.1143C140.542 78.5902 140.016 78.3281 139.305 78.3281ZM151.015 81.2402C151.015 81.8555 150.935 82.4046 150.775 82.8877C150.616 83.3708 150.386 83.7786 150.085 84.1113C149.784 84.444 149.42 84.6992 148.991 84.877C148.567 85.0501 148.087 85.1367 147.549 85.1367C147.048 85.1367 146.587 85.0501 146.168 84.877C145.753 84.6992 145.393 84.444 145.088 84.1113C144.787 83.7786 144.552 83.3708 144.384 82.8877C144.22 82.4046 144.138 81.8555 144.138 81.2402C144.138 80.4199 144.277 79.7227 144.555 79.1484C144.833 78.5697 145.229 78.1299 145.744 77.8291C146.264 77.5238 146.881 77.3711 147.597 77.3711C148.28 77.3711 148.877 77.5238 149.388 77.8291C149.903 78.1344 150.301 78.5765 150.584 79.1553C150.871 79.7295 151.015 80.4245 151.015 81.2402ZM145.313 81.2402C145.313 81.8418 145.393 82.3636 145.553 82.8057C145.712 83.2477 145.958 83.5895 146.291 83.8311C146.624 84.0726 147.052 84.1934 147.576 84.1934C148.096 84.1934 148.522 84.0726 148.854 83.8311C149.192 83.5895 149.44 83.2477 149.6 82.8057C149.759 82.3636 149.839 81.8418 149.839 81.2402C149.839 80.6432 149.759 80.1283 149.6 79.6953C149.44 79.2578 149.194 78.9206 148.861 78.6836C148.529 78.4466 148.098 78.3281 147.569 78.3281C146.79 78.3281 146.218 78.5856 145.854 79.1006C145.493 79.6156 145.313 80.3288 145.313 81.2402ZM154.118 77.5078V80.6523H158.295V77.5078H159.43V85H158.295V81.6162H154.118V85H152.977V77.5078H154.118ZM162.916 77.5078V82.2178C162.916 82.3089 162.914 82.4274 162.909 82.5732C162.905 82.7145 162.898 82.8672 162.889 83.0312C162.88 83.1908 162.87 83.3457 162.861 83.4961C162.857 83.6419 162.85 83.7627 162.841 83.8584L166.929 77.5078H168.323V85H167.264V80.4062C167.264 80.2604 167.266 80.0736 167.271 79.8457C167.275 79.6178 167.282 79.3945 167.291 79.1758C167.3 78.9525 167.307 78.7793 167.312 78.6562L163.237 85H161.836V77.5078H162.916ZM172.664 77.3711C173.225 77.3711 173.71 77.4486 174.12 77.6035C174.53 77.7539 174.847 77.9749 175.07 78.2666C175.294 78.5583 175.405 78.9137 175.405 79.333C175.405 79.7842 175.282 80.1442 175.036 80.4131C174.79 80.682 174.451 80.8757 174.018 80.9941V81.0488C174.323 81.1309 174.599 81.2493 174.845 81.4043C175.095 81.5547 175.294 81.7552 175.439 82.0059C175.59 82.252 175.665 82.5596 175.665 82.9287C175.665 83.348 175.551 83.7262 175.323 84.0635C175.095 84.3962 174.749 84.6582 174.284 84.8496C173.819 85.041 173.231 85.1367 172.521 85.1367C172.17 85.1367 171.837 85.1162 171.522 85.0752C171.208 85.0387 170.923 84.984 170.668 84.9111C170.413 84.8382 170.189 84.7516 169.998 84.6514V83.6191C170.317 83.7741 170.691 83.9108 171.119 84.0293C171.548 84.1478 172.01 84.207 172.507 84.207C172.89 84.207 173.234 84.1637 173.539 84.0771C173.844 83.986 174.086 83.8424 174.264 83.6465C174.446 83.446 174.537 83.1839 174.537 82.8604C174.537 82.5641 174.457 82.3203 174.298 82.1289C174.138 81.9329 173.899 81.7894 173.58 81.6982C173.266 81.6025 172.867 81.5547 172.384 81.5547H171.379V80.625H172.206C172.849 80.625 173.361 80.5339 173.744 80.3516C174.127 80.1693 174.318 79.8617 174.318 79.4287C174.318 79.055 174.17 78.777 173.874 78.5947C173.578 78.4079 173.154 78.3145 172.603 78.3145C172.192 78.3145 171.83 78.3577 171.516 78.4443C171.201 78.5264 170.862 78.6449 170.497 78.7998L170.094 77.8906C170.486 77.7174 170.896 77.5876 171.324 77.501C171.753 77.4144 172.199 77.3711 172.664 77.3711ZM178.584 77.5078V82.2178C178.584 82.3089 178.582 82.4274 178.577 82.5732C178.573 82.7145 178.566 82.8672 178.557 83.0312C178.548 83.1908 178.538 83.3457 178.529 83.4961C178.525 83.6419 178.518 83.7627 178.509 83.8584L182.597 77.5078H183.991V85H182.932V80.4062C182.932 80.2604 182.934 80.0736 182.938 79.8457C182.943 79.6178 182.95 79.3945 182.959 79.1758C182.968 78.9525 182.975 78.7793 182.979 78.6562L178.905 85H177.504V77.5078H178.584ZM189.925 77.3711C190.859 77.3711 191.604 77.6924 192.16 78.335C192.716 78.9775 192.994 79.9437 192.994 81.2334C192.994 82.0856 192.867 82.8011 192.611 83.3799C192.356 83.9587 191.996 84.3962 191.531 84.6924C191.071 84.9886 190.526 85.1367 189.897 85.1367C189.501 85.1367 189.152 85.0843 188.852 84.9795C188.551 84.8747 188.293 84.7334 188.079 84.5557C187.865 84.3779 187.687 84.1842 187.546 83.9746H187.464C187.478 84.1523 187.493 84.3665 187.512 84.6172C187.535 84.8678 187.546 85.0866 187.546 85.2734V88.3496H186.404V77.5078H187.341L187.491 78.6152H187.546C187.692 78.3874 187.869 78.18 188.079 77.9932C188.289 77.8018 188.544 77.6514 188.845 77.542C189.15 77.4281 189.51 77.3711 189.925 77.3711ZM189.727 78.3281C189.207 78.3281 188.788 78.4284 188.469 78.6289C188.154 78.8294 187.924 79.1302 187.778 79.5312C187.632 79.9277 187.555 80.4268 187.546 81.0283V81.2471C187.546 81.8805 187.614 82.416 187.751 82.8535C187.892 83.291 188.122 83.6237 188.441 83.8516C188.765 84.0794 189.198 84.1934 189.74 84.1934C190.205 84.1934 190.592 84.068 190.902 83.8174C191.212 83.5667 191.442 83.2181 191.593 82.7715C191.748 82.3203 191.825 81.8031 191.825 81.2197C191.825 80.3356 191.652 79.6338 191.306 79.1143C190.964 78.5902 190.438 78.3281 189.727 78.3281ZM193.794 77.5078H195.011L196.665 81.8555C196.761 82.1107 196.85 82.3568 196.932 82.5938C197.014 82.8262 197.087 83.0495 197.15 83.2637C197.214 83.4779 197.264 83.6852 197.301 83.8857H197.349C197.412 83.6579 197.504 83.3594 197.622 82.9902C197.741 82.6165 197.868 82.236 198.005 81.8486L199.57 77.5078H200.794L197.533 86.1006C197.36 86.5609 197.157 86.9619 196.925 87.3037C196.697 87.6455 196.419 87.9076 196.091 88.0898C195.763 88.2767 195.366 88.3701 194.901 88.3701C194.687 88.3701 194.498 88.3564 194.334 88.3291C194.17 88.3063 194.029 88.279 193.91 88.2471V87.3379C194.01 87.3607 194.131 87.3812 194.272 87.3994C194.418 87.4176 194.569 87.4268 194.724 87.4268C195.006 87.4268 195.25 87.3721 195.455 87.2627C195.665 87.1579 195.845 87.0029 195.995 86.7979C196.146 86.5928 196.275 86.349 196.385 86.0664L196.795 85.0137L193.794 77.5078ZM211.622 81.2402C211.622 82.056 211.49 82.7555 211.226 83.3389C210.966 83.9222 210.592 84.3688 210.104 84.6787C209.617 84.984 209.034 85.1367 208.354 85.1367C207.721 85.1367 207.167 85 206.693 84.7266C206.224 84.4531 205.853 84.0544 205.579 83.5303C205.31 83.0062 205.155 82.3682 205.114 81.6162H203.125V85H201.99V77.5078H203.125V80.6523H205.128C205.192 79.9596 205.36 79.3695 205.634 78.8818C205.907 78.3942 206.276 78.0205 206.741 77.7607C207.206 77.501 207.753 77.3711 208.382 77.3711C209.038 77.3711 209.608 77.526 210.091 77.8359C210.578 78.1413 210.954 78.5833 211.219 79.1621C211.488 79.7363 211.622 80.429 211.622 81.2402ZM206.276 81.2402C206.276 81.8691 206.347 82.4046 206.488 82.8467C206.634 83.2842 206.86 83.6191 207.165 83.8516C207.475 84.0794 207.876 84.1934 208.368 84.1934C208.856 84.1934 209.252 84.0794 209.558 83.8516C209.868 83.6237 210.093 83.291 210.234 82.8535C210.38 82.4115 210.453 81.8737 210.453 81.2402C210.453 80.6159 210.38 80.0872 210.234 79.6543C210.089 79.2214 209.863 78.8932 209.558 78.6699C209.252 78.4421 208.856 78.3281 208.368 78.3281C207.881 78.3281 207.482 78.4421 207.172 78.6699C206.867 78.8932 206.641 79.2214 206.495 79.6543C206.349 80.0872 206.276 80.6159 206.276 81.2402ZM218.704 78.4717H216.236V85H215.115V78.4717H212.682V77.5078H218.704V78.4717ZM223.188 85.1367C222.514 85.1367 221.919 84.9977 221.404 84.7197C220.889 84.4417 220.488 84.0179 220.201 83.4482C219.914 82.8786 219.771 82.1608 219.771 81.2949C219.771 80.388 219.921 79.6475 220.222 79.0732C220.527 78.4945 220.946 78.0661 221.479 77.7881C222.013 77.5101 222.619 77.3711 223.298 77.3711C223.672 77.3711 224.032 77.4098 224.378 77.4873C224.729 77.5602 225.016 77.6536 225.239 77.7676L224.897 78.7178C224.67 78.6266 224.405 78.5446 224.104 78.4717C223.808 78.3988 223.53 78.3623 223.271 78.3623C222.751 78.3623 222.318 78.474 221.972 78.6973C221.63 78.9206 221.372 79.2487 221.199 79.6816C221.031 80.1146 220.946 80.6478 220.946 81.2812C220.946 81.8874 221.028 82.4046 221.192 82.833C221.361 83.2614 221.609 83.5895 221.938 83.8174C222.27 84.0407 222.685 84.1523 223.182 84.1523C223.578 84.1523 223.936 84.1113 224.255 84.0293C224.574 83.9427 224.863 83.8424 225.123 83.7285V84.7402C224.872 84.8678 224.592 84.9658 224.282 85.0342C223.977 85.1025 223.612 85.1367 223.188 85.1367ZM227.263 85H225.937L228.097 81.8418C227.782 81.7734 227.491 81.6572 227.222 81.4932C226.953 81.3245 226.734 81.0944 226.565 80.8027C226.401 80.5111 226.319 80.1488 226.319 79.7158C226.319 78.9958 226.559 78.4489 227.037 78.0752C227.52 77.6969 228.156 77.5078 228.944 77.5078H232.26V85H231.125V81.9922H229.225L227.263 85ZM227.42 79.7227C227.42 80.1693 227.579 80.502 227.898 80.7207C228.217 80.9349 228.673 81.042 229.266 81.042H231.125V78.458H229.067C228.484 78.458 228.062 78.5765 227.803 78.8135C227.548 79.0459 227.42 79.349 227.42 79.7227ZM241.29 85.1367C240.616 85.1367 240.021 84.9977 239.506 84.7197C238.991 84.4417 238.59 84.0179 238.303 83.4482C238.016 82.8786 237.872 82.1608 237.872 81.2949C237.872 80.388 238.022 79.6475 238.323 79.0732C238.629 78.4945 239.048 78.0661 239.581 77.7881C240.114 77.5101 240.72 77.3711 241.399 77.3711C241.773 77.3711 242.133 77.4098 242.479 77.4873C242.83 77.5602 243.118 77.6536 243.341 77.7676L242.999 78.7178C242.771 78.6266 242.507 78.5446 242.206 78.4717C241.91 78.3988 241.632 78.3623 241.372 78.3623C240.853 78.3623 240.42 78.474 240.073 78.6973C239.731 78.9206 239.474 79.2487 239.301 79.6816C239.132 80.1146 239.048 80.6478 239.048 81.2812C239.048 81.8874 239.13 82.4046 239.294 82.833C239.463 83.2614 239.711 83.5895 240.039 83.8174C240.372 84.0407 240.786 84.1523 241.283 84.1523C241.68 84.1523 242.037 84.1113 242.356 84.0293C242.675 83.9427 242.965 83.8424 243.225 83.7285V84.7402C242.974 84.8678 242.694 84.9658 242.384 85.0342C242.078 85.1025 241.714 85.1367 241.29 85.1367ZM251.64 85.1367C250.965 85.1367 250.37 84.9977 249.855 84.7197C249.34 84.4417 248.939 84.0179 248.652 83.4482C248.365 82.8786 248.222 82.1608 248.222 81.2949C248.222 80.388 248.372 79.6475 248.673 79.0732C248.978 78.4945 249.397 78.0661 249.931 77.7881C250.464 77.5101 251.07 77.3711 251.749 77.3711C252.123 77.3711 252.483 77.4098 252.829 77.4873C253.18 77.5602 253.467 77.6536 253.69 77.7676L253.349 78.7178C253.121 78.6266 252.856 78.5446 252.556 78.4717C252.259 78.3988 251.981 78.3623 251.722 78.3623C251.202 78.3623 250.769 78.474 250.423 78.6973C250.081 78.9206 249.824 79.2487 249.65 79.6816C249.482 80.1146 249.397 80.6478 249.397 81.2812C249.397 81.8874 249.479 82.4046 249.644 82.833C249.812 83.2614 250.061 83.5895 250.389 83.8174C250.721 84.0407 251.136 84.1523 251.633 84.1523C252.029 84.1523 252.387 84.1113 252.706 84.0293C253.025 83.9427 253.314 83.8424 253.574 83.7285V84.7402C253.324 84.8678 253.043 84.9658 252.733 85.0342C252.428 85.1025 252.063 85.1367 251.64 85.1367ZM256.432 77.5078V82.2178C256.432 82.3089 256.429 82.4274 256.425 82.5732C256.42 82.7145 256.413 82.8672 256.404 83.0312C256.395 83.1908 256.386 83.3457 256.377 83.4961C256.372 83.6419 256.366 83.7627 256.356 83.8584L260.444 77.5078H261.839V85H260.779V80.4062C260.779 80.2604 260.782 80.0736 260.786 79.8457C260.791 79.6178 260.798 79.3945 260.807 79.1758C260.816 78.9525 260.823 78.7793 260.827 78.6562L256.753 85H255.352V77.5078H256.432ZM267.253 85.1367C266.578 85.1367 265.984 84.9977 265.469 84.7197C264.954 84.4417 264.553 84.0179 264.266 83.4482C263.979 82.8786 263.835 82.1608 263.835 81.2949C263.835 80.388 263.985 79.6475 264.286 79.0732C264.591 78.4945 265.011 78.0661 265.544 77.7881C266.077 77.5101 266.683 77.3711 267.362 77.3711C267.736 77.3711 268.096 77.4098 268.442 77.4873C268.793 77.5602 269.08 77.6536 269.304 77.7676L268.962 78.7178C268.734 78.6266 268.47 78.5446 268.169 78.4717C267.873 78.3988 267.595 78.3623 267.335 78.3623C266.815 78.3623 266.382 78.474 266.036 78.6973C265.694 78.9206 265.437 79.2487 265.264 79.6816C265.095 80.1146 265.011 80.6478 265.011 81.2812C265.011 81.8874 265.093 82.4046 265.257 82.833C265.425 83.2614 265.674 83.5895 266.002 83.8174C266.335 84.0407 266.749 84.1523 267.246 84.1523C267.643 84.1523 268 84.1113 268.319 84.0293C268.638 83.9427 268.928 83.8424 269.188 83.7285V84.7402C268.937 84.8678 268.657 84.9658 268.347 85.0342C268.041 85.1025 267.677 85.1367 267.253 85.1367ZM276.071 78.4717H273.604V85H272.482V78.4717H270.049V77.5078H276.071V78.4717ZM280.439 77.3711C281.077 77.3711 281.624 77.5124 282.08 77.7949C282.536 78.0775 282.884 78.474 283.126 78.9844C283.368 79.4902 283.488 80.0827 283.488 80.7617V81.4658H278.313C278.327 82.3454 278.546 83.0153 278.97 83.4756C279.394 83.9359 279.991 84.166 280.761 84.166C281.235 84.166 281.654 84.1227 282.019 84.0361C282.383 83.9495 282.761 83.8219 283.153 83.6533V84.6514C282.775 84.82 282.399 84.943 282.025 85.0205C281.656 85.098 281.219 85.1367 280.713 85.1367C279.993 85.1367 279.364 84.9909 278.826 84.6992C278.293 84.403 277.878 83.9701 277.582 83.4004C277.286 82.8307 277.138 82.1335 277.138 81.3086C277.138 80.502 277.272 79.8047 277.541 79.2168C277.814 78.6243 278.197 78.1686 278.689 77.8496C279.186 77.5306 279.77 77.3711 280.439 77.3711ZM280.426 78.3008C279.82 78.3008 279.337 78.499 278.977 78.8955C278.617 79.292 278.402 79.8457 278.334 80.5566H282.299C282.294 80.11 282.224 79.7181 282.087 79.3809C281.955 79.0391 281.752 78.7747 281.479 78.5879C281.205 78.3965 280.854 78.3008 280.426 78.3008ZM293.325 77.5078V85H292.3V80.1191C292.3 79.9186 292.304 79.7158 292.313 79.5107C292.327 79.3011 292.343 79.0915 292.361 78.8818H292.32L289.832 85H288.868L286.441 78.8818H286.4C286.414 79.0915 286.423 79.3011 286.428 79.5107C286.437 79.7158 286.441 79.9323 286.441 80.1602V85H285.409V77.5078H286.934L289.354 83.6328L291.808 77.5078H293.325ZM302.144 81.2402C302.144 81.8555 302.064 82.4046 301.904 82.8877C301.745 83.3708 301.515 83.7786 301.214 84.1113C300.913 84.444 300.549 84.6992 300.12 84.877C299.696 85.0501 299.215 85.1367 298.678 85.1367C298.176 85.1367 297.716 85.0501 297.297 84.877C296.882 84.6992 296.522 84.444 296.217 84.1113C295.916 83.7786 295.681 83.3708 295.513 82.8877C295.349 82.4046 295.267 81.8555 295.267 81.2402C295.267 80.4199 295.406 79.7227 295.684 79.1484C295.962 78.5697 296.358 78.1299 296.873 77.8291C297.393 77.5238 298.01 77.3711 298.726 77.3711C299.409 77.3711 300.006 77.5238 300.517 77.8291C301.032 78.1344 301.43 78.5765 301.713 79.1553C302 79.7295 302.144 80.4245 302.144 81.2402ZM296.442 81.2402C296.442 81.8418 296.522 82.3636 296.682 82.8057C296.841 83.2477 297.087 83.5895 297.42 83.8311C297.753 84.0726 298.181 84.1934 298.705 84.1934C299.225 84.1934 299.651 84.0726 299.983 83.8311C300.321 83.5895 300.569 83.2477 300.729 82.8057C300.888 82.3636 300.968 81.8418 300.968 81.2402C300.968 80.6432 300.888 80.1283 300.729 79.6953C300.569 79.2578 300.323 78.9206 299.99 78.6836C299.658 78.4466 299.227 78.3281 298.698 78.3281C297.919 78.3281 297.347 78.5856 296.982 79.1006C296.622 79.6156 296.442 80.3288 296.442 81.2402ZM305.186 77.5078V82.2178C305.186 82.3089 305.183 82.4274 305.179 82.5732C305.174 82.7145 305.167 82.8672 305.158 83.0312C305.149 83.1908 305.14 83.3457 305.131 83.4961C305.126 83.6419 305.119 83.7627 305.11 83.8584L309.198 77.5078H310.593V85H309.533V80.4062C309.533 80.2604 309.535 80.0736 309.54 79.8457C309.545 79.6178 309.551 79.3945 309.561 79.1758C309.57 78.9525 309.576 78.7793 309.581 78.6562L305.507 85H304.105V77.5078H305.186ZM310.032 74.4248C309.991 74.8851 309.875 75.2702 309.684 75.5801C309.497 75.89 309.221 76.1247 308.856 76.2842C308.492 76.4391 308.025 76.5166 307.455 76.5166C306.867 76.5166 306.393 76.4414 306.033 76.291C305.678 76.1361 305.413 75.9036 305.24 75.5938C305.072 75.2839 304.971 74.8942 304.939 74.4248H306.006C306.056 74.9261 306.19 75.2679 306.409 75.4502C306.628 75.6325 306.983 75.7236 307.476 75.7236C307.913 75.7236 308.257 75.6279 308.508 75.4365C308.758 75.2451 308.909 74.9079 308.959 74.4248H310.032ZM131.71 96.3848C132.603 96.3848 133.266 96.5853 133.699 96.9863C134.132 97.3874 134.349 98.0277 134.349 98.9072V104H133.521L133.303 102.893H133.248C133.038 103.166 132.82 103.396 132.592 103.583C132.364 103.765 132.1 103.904 131.799 104C131.503 104.091 131.138 104.137 130.705 104.137C130.249 104.137 129.844 104.057 129.488 103.897C129.137 103.738 128.859 103.496 128.654 103.173C128.454 102.849 128.354 102.439 128.354 101.942C128.354 101.195 128.65 100.621 129.242 100.22C129.835 99.8187 130.737 99.5999 131.949 99.5635L133.241 99.5088V99.0508C133.241 98.4036 133.102 97.9502 132.824 97.6904C132.546 97.4307 132.154 97.3008 131.648 97.3008C131.257 97.3008 130.883 97.3577 130.527 97.4717C130.172 97.5856 129.835 97.7201 129.516 97.875L129.167 97.0137C129.504 96.8405 129.892 96.6924 130.329 96.5693C130.767 96.4463 131.227 96.3848 131.71 96.3848ZM133.228 100.309L132.086 100.356C131.152 100.393 130.493 100.546 130.11 100.814C129.728 101.083 129.536 101.464 129.536 101.956C129.536 102.384 129.666 102.701 129.926 102.906C130.186 103.111 130.53 103.214 130.958 103.214C131.623 103.214 132.168 103.029 132.592 102.66C133.016 102.291 133.228 101.737 133.228 100.999V100.309ZM142.641 98.3877C142.641 98.8571 142.504 99.224 142.23 99.4883C141.957 99.748 141.604 99.9235 141.171 100.015V100.069C141.64 100.133 142.044 100.302 142.381 100.575C142.723 100.844 142.894 101.257 142.894 101.812C142.894 102.241 142.791 102.619 142.586 102.947C142.381 103.275 142.06 103.533 141.622 103.72C141.185 103.907 140.615 104 139.913 104H136.687V96.5078H139.886C140.424 96.5078 140.897 96.5693 141.308 96.6924C141.722 96.8109 142.048 97.0068 142.285 97.2803C142.522 97.5537 142.641 97.9229 142.641 98.3877ZM141.711 101.812C141.711 101.37 141.542 101.051 141.205 100.855C140.872 100.66 140.387 100.562 139.749 100.562H137.828V103.077H139.776C140.405 103.077 140.884 102.981 141.212 102.79C141.545 102.594 141.711 102.268 141.711 101.812ZM141.485 98.5176C141.485 98.1621 141.355 97.8978 141.096 97.7246C140.836 97.5469 140.41 97.458 139.817 97.458H137.828V99.6113H139.619C140.234 99.6113 140.699 99.5225 141.014 99.3447C141.328 99.167 141.485 98.8913 141.485 98.5176ZM149.832 97.4717H147.364V104H146.243V97.4717H143.81V96.5078H149.832V97.4717ZM157.775 100.24C157.775 100.855 157.696 101.405 157.536 101.888C157.377 102.371 157.146 102.779 156.846 103.111C156.545 103.444 156.18 103.699 155.752 103.877C155.328 104.05 154.847 104.137 154.31 104.137C153.808 104.137 153.348 104.05 152.929 103.877C152.514 103.699 152.154 103.444 151.849 103.111C151.548 102.779 151.313 102.371 151.145 101.888C150.98 101.405 150.898 100.855 150.898 100.24C150.898 99.4199 151.037 98.7227 151.315 98.1484C151.593 97.5697 151.99 97.1299 152.505 96.8291C153.024 96.5238 153.642 96.3711 154.357 96.3711C155.041 96.3711 155.638 96.5238 156.148 96.8291C156.663 97.1344 157.062 97.5765 157.345 98.1553C157.632 98.7295 157.775 99.4245 157.775 100.24ZM152.074 100.24C152.074 100.842 152.154 101.364 152.313 101.806C152.473 102.248 152.719 102.59 153.052 102.831C153.384 103.073 153.813 103.193 154.337 103.193C154.856 103.193 155.283 103.073 155.615 102.831C155.952 102.59 156.201 102.248 156.36 101.806C156.52 101.364 156.6 100.842 156.6 100.24C156.6 99.6432 156.52 99.1283 156.36 98.6953C156.201 98.2578 155.955 97.9206 155.622 97.6836C155.289 97.4466 154.859 97.3281 154.33 97.3281C153.551 97.3281 152.979 97.5856 152.614 98.1006C152.254 98.6156 152.074 99.3288 152.074 100.24ZM167.646 96.5078V104H166.621V99.1191C166.621 98.9186 166.626 98.7158 166.635 98.5107C166.648 98.3011 166.664 98.0915 166.683 97.8818H166.642L164.153 104H163.189L160.763 97.8818H160.722C160.735 98.0915 160.744 98.3011 160.749 98.5107C160.758 98.7158 160.763 98.9323 160.763 99.1602V104H159.73V96.5078H161.255L163.675 102.633L166.129 96.5078H167.646ZM172.808 96.3848C173.701 96.3848 174.364 96.5853 174.797 96.9863C175.23 97.3874 175.446 98.0277 175.446 98.9072V104H174.619L174.4 102.893H174.346C174.136 103.166 173.917 103.396 173.689 103.583C173.462 103.765 173.197 103.904 172.896 104C172.6 104.091 172.236 104.137 171.803 104.137C171.347 104.137 170.941 104.057 170.586 103.897C170.235 103.738 169.957 103.496 169.752 103.173C169.551 102.849 169.451 102.439 169.451 101.942C169.451 101.195 169.747 100.621 170.34 100.22C170.932 99.8187 171.835 99.5999 173.047 99.5635L174.339 99.5088V99.0508C174.339 98.4036 174.2 97.9502 173.922 97.6904C173.644 97.4307 173.252 97.3008 172.746 97.3008C172.354 97.3008 171.98 97.3577 171.625 97.4717C171.27 97.5856 170.932 97.7201 170.613 97.875L170.265 97.0137C170.602 96.8405 170.989 96.6924 171.427 96.5693C171.864 96.4463 172.325 96.3848 172.808 96.3848ZM174.325 100.309L173.184 100.356C172.249 100.393 171.591 100.546 171.208 100.814C170.825 101.083 170.634 101.464 170.634 101.956C170.634 102.384 170.764 102.701 171.023 102.906C171.283 103.111 171.627 103.214 172.056 103.214C172.721 103.214 173.266 103.029 173.689 102.66C174.113 102.291 174.325 101.737 174.325 100.999V100.309ZM182.891 97.4717H180.423V104H179.302V97.4717H176.868V96.5078H182.891V97.4717ZM185.454 96.5078V101.218C185.454 101.309 185.452 101.427 185.447 101.573C185.443 101.715 185.436 101.867 185.427 102.031C185.418 102.191 185.409 102.346 185.399 102.496C185.395 102.642 185.388 102.763 185.379 102.858L189.467 96.5078H190.861V104H189.802V99.4062C189.802 99.2604 189.804 99.0736 189.809 98.8457C189.813 98.6178 189.82 98.3945 189.829 98.1758C189.838 97.9525 189.845 97.7793 189.85 97.6562L185.775 104H184.374V96.5078H185.454ZM194.266 96.5078V99.2012C194.266 99.6706 194.393 100.017 194.648 100.24C194.908 100.464 195.284 100.575 195.776 100.575C196.25 100.575 196.681 100.502 197.068 100.356C197.456 100.211 197.848 100.012 198.244 99.7617V96.5078H199.379V104H198.244V100.644C197.825 100.912 197.412 101.124 197.007 101.279C196.601 101.434 196.116 101.512 195.551 101.512C194.781 101.512 194.184 101.311 193.76 100.91C193.34 100.509 193.131 99.9668 193.131 99.2832V96.5078H194.266ZM204.663 96.3711C205.301 96.3711 205.848 96.5124 206.304 96.7949C206.759 97.0775 207.108 97.474 207.35 97.9844C207.591 98.4902 207.712 99.0827 207.712 99.7617V100.466H202.537C202.551 101.345 202.77 102.015 203.193 102.476C203.617 102.936 204.214 103.166 204.984 103.166C205.458 103.166 205.878 103.123 206.242 103.036C206.607 102.95 206.985 102.822 207.377 102.653V103.651C206.999 103.82 206.623 103.943 206.249 104.021C205.88 104.098 205.442 104.137 204.937 104.137C204.216 104.137 203.588 103.991 203.05 103.699C202.517 103.403 202.102 102.97 201.806 102.4C201.509 101.831 201.361 101.133 201.361 100.309C201.361 99.502 201.496 98.8047 201.765 98.2168C202.038 97.6243 202.421 97.1686 202.913 96.8496C203.41 96.5306 203.993 96.3711 204.663 96.3711ZM204.649 97.3008C204.043 97.3008 203.56 97.499 203.2 97.8955C202.84 98.292 202.626 98.8457 202.558 99.5566H206.522C206.518 99.11 206.447 98.7181 206.311 98.3809C206.178 98.0391 205.976 97.7747 205.702 97.5879C205.429 97.3965 205.078 97.3008 204.649 97.3008ZM212.641 104.137C211.966 104.137 211.371 103.998 210.856 103.72C210.341 103.442 209.94 103.018 209.653 102.448C209.366 101.879 209.223 101.161 209.223 100.295C209.223 99.388 209.373 98.6475 209.674 98.0732C209.979 97.4945 210.398 97.0661 210.932 96.7881C211.465 96.5101 212.071 96.3711 212.75 96.3711C213.124 96.3711 213.484 96.4098 213.83 96.4873C214.181 96.5602 214.468 96.6536 214.691 96.7676L214.35 97.7178C214.122 97.6266 213.857 97.5446 213.557 97.4717C213.26 97.3988 212.982 97.3623 212.723 97.3623C212.203 97.3623 211.77 97.474 211.424 97.6973C211.082 97.9206 210.825 98.2487 210.651 98.6816C210.483 99.1146 210.398 99.6478 210.398 100.281C210.398 100.887 210.48 101.405 210.645 101.833C210.813 102.261 211.062 102.59 211.39 102.817C211.722 103.041 212.137 103.152 212.634 103.152C213.03 103.152 213.388 103.111 213.707 103.029C214.026 102.943 214.315 102.842 214.575 102.729V103.74C214.325 103.868 214.044 103.966 213.734 104.034C213.429 104.103 213.064 104.137 212.641 104.137ZM220.721 96.5078H221.972L218.738 100.124L222.231 104H220.898L217.494 100.199V104H216.353V96.5078H217.494V100.145L220.721 96.5078ZM224.665 96.5078V101.218C224.665 101.309 224.663 101.427 224.658 101.573C224.654 101.715 224.647 101.867 224.638 102.031C224.629 102.191 224.619 102.346 224.61 102.496C224.606 102.642 224.599 102.763 224.59 102.858L228.678 96.5078H230.072V104H229.013V99.4062C229.013 99.2604 229.015 99.0736 229.02 98.8457C229.024 98.6178 229.031 98.3945 229.04 98.1758C229.049 97.9525 229.056 97.7793 229.061 97.6562L224.986 104H223.585V96.5078H224.665Z" fill="black"/>
<defs>
<filter id="filter0_d_1984_14807" x="0" y="0" width="359" height="152" filterUnits="userSpaceOnUse" color-interpolation-filters="sRGB">
<feFlood flood-opacity="0" result="BackgroundImageFix"/>
<feColorMatrix in="SourceAlpha" type="matrix" values="0 0 0 0 0 0 0 0 0 0 0 0 0 0 0 0 0 0 127 0" result="hardAlpha"/>
<feMorphology radius="3" operator="erode" in="SourceAlpha" result="effect1_dropShadow_1984_14807"/>
<feOffset dy="1"/>
<feGaussianBlur stdDeviation="17.5"/>
<feComposite in2="hardAlpha" operator="out"/>
<feColorMatrix type="matrix" values="0 0 0 0 0 0 0 0 0 0 0 0 0 0 0 0 0 0 0.15 0"/>
<feBlend mode="normal" in2="BackgroundImageFix" result="effect1_dropShadow_1984_14807"/>
<feBlend mode="normal" in="SourceGraphic" in2="effect1_dropShadow_1984_14807" result="shape"/>
</filter>
</defs>
</svg>
