<svg width="16" height="15" viewBox="0 0 16 15" fill="none" xmlns="http://www.w3.org/2000/svg"><path fill-rule="evenodd" clip-rule="evenodd" d="M.88 3.087C.5 4.005.5 5.17.5 7.5s0 3.495.38 4.413a5 5 0 002.707 2.706C4.505 15 5.67 15 8 15s3.495 0 4.413-.38a5 5 0 002.706-2.707c.381-.918.381-2.083.381-4.413s0-3.495-.38-4.413A5 5 0 0012.412.38C11.495 0 10.33 0 8 0S4.505 0 3.587.38A5 5 0 00.88 3.088zm6.54 5.661h1.656c0-.192.068-.384.204-.576.144-.192.312-.376.504-.552.2-.184.396-.376.588-.576.2-.208.368-.456.504-.744.144-.296.216-.608.216-.936 0-.736-.268-1.312-.804-1.728C9.752 3.212 9.124 3 8.404 3c-.656 0-1.244.164-1.764.492-.52.328-.9.784-1.14 1.368l1.416.816c.28-.712.756-1.068 1.428-1.068.344 0 .612.076.804.228.192.152.288.368.288.648 0 .448-.336.944-1.008 1.488a3.138 3.138 0 00-.708.804c-.2.32-.3.644-.3.972zm1.548 2.676c.2-.2.3-.44.3-.72 0-.28-.1-.52-.3-.72-.2-.2-.44-.3-.72-.3-.28 0-.52.1-.72.3-.2.2-.3.44-.3.72 0 .28.1.52.3.72.2.2.44.3.72.3.28 0 .52-.1.72-.3z" fill="var(--grey)"/></svg>