<svg width="36" height="22" viewBox="0 0 36 22" xmlns="http://www.w3.org/2000/svg"><path d="M.628 1.636h6.27c.241 0 .46.151.564.383 1.44 3.303 3.197 6.288 5.31 8.919.179.31.625.275.755-.065.659-1.691 1.88-5.811-.48-8.739-.213-.26-.124-.672.171-.802 2.388-1.048 4.728-1.2 7.006-.13.48.224.789.723.789 1.28l.535 8.485c0 .376.33.68.68.6 2.62-.586 4.164-4.727 5.694-9.05.186-.534.666-.889 1.208-.889h5.777c.474 0 .851.441.769.933-.542 3.064-3.472 7.04-5.002 8.955a1.845 1.845 0 000 2.291l5.166 6.484c.37.463.055 1.178-.521 1.178h-6.54a1.894 1.894 0 01-1.413-.65l-4.57-4.012c-.24-.274-.685-.368-.912-.087-.57.723-.521 1.62-.789 3.65a1.25 1.25 0 01-1.235 1.092h-4.473a4.074 4.074 0 01-1.84-.426c-2.565-1.28-9.57-5.819-13.515-18.533-.13-.427.171-.867.597-.867z"/></svg>